<mxfile host="65bd71144e">
    <diagram id="H2beE-riEfyxMyKCFzb4" name="Page-1">
        <mxGraphModel dx="746" dy="308" grid="1" gridSize="10" guides="1" tooltips="1" connect="1" arrows="1" fold="1" page="1" pageScale="1" pageWidth="850" pageHeight="1100" math="0" shadow="0">
            <root>
                <mxCell id="0"/>
                <mxCell id="1" parent="0"/>
                <mxCell id="2" value="" style="shape=image;verticalLabelPosition=bottom;labelBackgroundColor=default;verticalAlign=top;aspect=fixed;imageAspect=0;image=data:image/jpeg,/9j/4AAQSkZJRgABAQAAAQABAAD/2wCEAAYGBgYHBgcICAcKCwoLCg8ODAwODxYQERAREBYiFRkVFRkVIh4kHhweJB42KiYmKjY+NDI0PkxERExfWl98fKcBBgYGBgcGBwgIBwoLCgsKDw4MDA4PFhAREBEQFiIVGRUVGRUiHiQeHB4kHjYqJiYqNj40MjQ+TERETF9aX3x8p//CABEIBhwGQAMBIgACEQEDEQH/xAAuAAADAQEBAQAAAAAAAAAAAAAAAQIDBAUGAQEBAQAAAAAAAAAAAAAAAAAAAQL/2gAMAwEAAhADEAAAAuy4uGwAAABiBiBgCmpKAGJgmhVNAAJUiNIsAAAEANoGAE1JQgpACcjaYIABUOaEDBMIuLAZElBDHSbIQMSZQ0DEQ5c1YiKJBxU1bkGIHLksljchUiKcsYgctA5oGgoQTU0NAAIi4sAAGEXFgAABLVDEDAIaZSaAAkAbAGmKLg0E4QApqaoGIagTRTmgABNCqaAAACamgAAATmgAGASAMAAYlUlAAAE1JQBy3NDABoGIGABLG0BFyCrMxOXsOlc+xVZ0UQykmTcUMTAAQAwYACmkMGAATUjAAAE1SqaEwBMIqaG04ACXNUwIEACdUBCGgmpqmiGIHFxVDIQwlVNNpiGQlSpNskoJVITKJKQhhNKhKgkYRSoQwTAi0wGgAJqWMABAOWUIAASAoTBoCXJoIARDlooQMAE0NoGIGmhUmAAAE0mAAAE1NDEDECaChAxA0IsQMQCEWkGFTQwkSh1rz7YU+rHaOfPs467CayJqSsN+Ex7cusmly111z7w0mCVE0qEMEMJGAMAAJaKEwEDQihFMQNCCooYgYgm4obRDEE1NUAAASwLQQDCU0UNAAE0qoCAAU1NMGAEE1JTTAAJqaKljQhoBVNDAEmiaixiYwQqiwAAETU0NNAATU0MAGmQ0xgAAJNFAABBNSUAAATUlACYAmgqLAAACaTAAACamgGhphIAxgCAQFAAJhNQUDOapocWGTp1M7SY9HJ1hydfKbaZaimpi+LtDl64s58ezKsuqNDl2uI5tXVXcXAAAAhMoAABJyURYAhy1RF5G6cjTRjrzdIxghhLVklAhkQyqSpCYCaY2iGIBCqxIoljlyaEkUkDlzVCzNK8X2YcuatyxiBy0DTAAQ0Ks7KAEqRFTYmA00TcWAAJhFxQwBDCKmxDAaZDAoAQBKqSxMAIJqSgAACWihMAATQVNAAAAmmAAgQVNDQDECaChA0wlMKAEAE3IwDmqaKaYABFsx1ZS5OrkrqoMlNQW4ZRIVIinLKEDQVNxcAAAhNMoTAAU1Jll2RTy3k5q0RStFEaGSysw7uTsOaubY01yA25OsGnAATUWAAJhNTQwAAFNcx0kYHVKyrdNFE1AqCZuaXk9/nnodEakxrxnTXL1kq+Q6UwGMQwWenKZ9bsQwE0TUhQAwCaljMtBweWejt5fomiSG/O7h1LKEDJYnLKEA0CBFCBiIaFViIBAJqqERSActDaBiBiAcsYgBArhlNIbQJoKEDEAAUIAQVDRQg56mimmAAxMACM9gABJobAABTcgyiVYSrVSxiKUIapNBQKG5By1ViBiQ5cluWNyxRpIXFEOgWWwZazQNEMTIuKGAABNTQwAAFFhxX1h53ctBTUUmVFABFxXn49cy9l5ao+XpiuD0uXqMvN9fhNN7gqkwRgRvOgVOZo8WbTWBWPN0nU0DAI5+jQ8/v5esnz/AEeY4vUnQaaOdaYHTcWMAQwkAYAACAGAAEE1NUDhABNRVNMAIE0NpgACaE0wBiGiamgaBgEuaGAAAJooAEAJyUDOWpoppgAAAADQAAJAUJgAE1I2mMQNATcWAAmBLTGAAAJzVAAmQpuaYMQyFNzQNkrREOkSyhDIQAmnTckMQKoookKJBkhoSFEg4qai7IYgcVFUqITAIqKtphnoBNSU0GefN6I5qQ5etmWoxZbSeZ249gmANBOmWpydc0CYRU0NNHPOPaLTOyhA0BLmhgAAS0xtOBMFNSWmgACLiqaYAQ5aG0wABOQqWAA0BNTQAwTRNTQwAAEAMAAAmpKAOappaaaAAAAAAAAEok0cBTljlobQMAE0KpoGkUIE0xgAAJNVQEAApqappwAAnNNpjQAATU0AOAAmosYIAZDGA0CYSDAYIYKbiqG4koIVzQUElBE6wMpkNsmdICdA5eoAm4KaYCBy5FSBiBksWmVlEhRKC4ZSXKY+hjqKpZQgYgVSxiBiQ3LKJCiQqQKEikgctFCCiQaEU5cMQNCCpYxAxAnLKJChAqllEhQgCQsSKEDlooQc1xa0DQAAAAAAAAibzFMUaWrFNyDbJKCRlS04lDLEgrOiyUWSDJVapA3ILOsTprDYYgctDaYAAmhVNDEQ0BNxQwAAJqaGmCAJaYwABBNTVgQMAi4KYAAKbgsGIAIuC2igGE1BTTAAU3AMYhgk0K4sAAAJqLCLBDCKmwAAAmpoAAAJaYxghgk0UmgACakbCAAJqaoHCYBNSDTAGIaJqaGACYS1QAAAIAYAhghoYw5Li1oBGAAAAAAABASVGehHRNBnpJNplAAmhVOZRFGoBFJgRidJhuJUqFcCvDoFltiO8dxFApuQbZIwE0KpoABiBVDKJIpyBUMtSFEgqkLJCkgaFVtEMQOKk0EAAEXBYAADipKABoHFxVCYxEOXNNpgCCakLmgAAaJqaAAACLiwAAAi4sABpolpjYAJiQxgoAAmpqgIAAmpKaYJglUg0xgCGibihiBgE1FgAAAhMYAACBFiZyXFrQmjEDAAAAAAIAM6sJuaCakU6IdJgmhBRnOkGoBLTIzqBdUUAnVTSMN1QstYMenLUAAmpKaYABNSFTQAAATcWAEJgTU0CYIYQyiCgkoqVTE2QhsmbVBRElBM3NMbhDBTSGBQBDioqmgYgctFEhSSKQinLG4ZRIFQyiQokFedFEgxArzookKEgcUUSxkgOQskGIHLktyRRIVIqpyRRIUhDchQgYkFRQyQpwBUMpyFEgOWUIGIBAU5Zy3NFAAADTAAAATRKbEUElBKuRgA0DSBuXTy0UK5KLzooQOSSdIssQMQPO8xazQABNSU0wACakKmgAAAmosYKBpk1FjTBDCKmgAAAlpjBgCBOK0E4ABTUGgAABNSU0DAFNwUAAMIuKoAEwSclNMQwE5CpoAABCqLAAACKmhgAAS0xgAASDBoAaCaksCAAJqSgYhglUgwAAE0KpoAAAJqZNDLYQAgYDBDBJgDDmqaKAAAABgAACAlpjaBoAmoLBgACchU0AAJqpqbBMErRDYBQSrCJ1kRQJWhRpIxoYgctBUMshlEoLzookKECvOiySKEEtMYgYgTl1TRDECmlVCcDQPO4rQTgEDipLEwaB53FWADRDipqgABBFyU0xNA5cjpA0AAE3FgCGgJuKGCGARU0MAACWmAAxATUlgQABNSU0wBAnI2mAAJoVxQ0AAENUFIAATTGAAAgBgzlqaKAAAAAaAAAAkTKEwACKktyxoBy0FTQAAmibiqYAAQhOqAAAScliYABFSWJgAE1IVNAACaFUWAAAEUqE2QhhDKqSiJKCBlCohDKlUAUhDIU3NUAAATUlAA5Y5cluQokKkRZLGkDkRTkKJCpEU5CkgpJDqKGIGSBUUMkKJAqKKJBuQHFDEDJY5ApyFEkVDVWSRQgaJKchRIUhBUUMQMQTU0MQMQKpY2gYgBBQg56migAAAAAAAAAhNiHIzHI61lRq5RoZhpKRVZurIIskorOinLGIJqWU0DQBLRTQMQEXJTmgACLkKmgBDTRNxYAAATUWDTgAIuaAAACROmBAwJE6oHCGCmoqwAAgi4qwABim5KAAAIuCwATBTSAYIYKbkYwQ0CcjqaAGIaJpMTABompsQwQwkGAAACBFCBiBy4NHIUkQ0IbQMQNNA1QhghhFJiAGMJYxDBDCRgDDnqaKEDAAAAAABNEtMeemBGls5hNOsBWJhNSDVGWejG2VFKiXQSUGbbEUyCghaSDaGIHLktwFkBcpFuGUSFKQd5WUSxiBVFDaBiCbihiIYgmpqmIhgEUnTAhiYpqaoGICCLiraYAQTU1QAABFwU0wAEqgppiYBFSUACaCakbTGAAAnNAANATcWAAAEuaGACAhzYMAACLgsAAIJqRtMAAmkDTAAAQqihoBtAnLGAAwkYDA57iwGAAAAAAACaJc0PPQObLug5940Ly2Di6rAmpCkgzTNQCKU0jOY7ADPO1V3z9AwBJyWjI0rjs6ZqCzPM6AAi5GwAkGcnWTSoQ2Q6CGrILCWwzoog0DN0GUbSTfPuUwJpMYEDQCJNCQokKhzWhJFEhSSrQgLICpJNHDKJY4cluQYgcVBoIGgCXJTljcosgHUUMQMQK87GIGIJqWMQMQTUMsljEDkRZLGIhy5qnLGIhy1TaIYIYkFRQxAxAqllCBiBOaGAc9zQNMAAAAAAAAM6QUJFEoE0aOAzNGASWhmFvM3JdCLOPZuNADCdUPQxrZoCakrn6Ecu86lRcE83bkbCg0mpGmGMVmHXnoIA5+rm6RgibiwAgFAacXTWoZRo+boJqaqcejCNwBVF0wIACUwoAABRpnWgnAAJVFWACYKNIKGCGCm4GMEqCVcgUElBCuQGElISuCqmgAAAmpsQwQwipoE2SrRlRZLoJKCVSAoJbCZuRjBDBKkA3ElIkpGek6VJRElIik6BkAwgoEwMamhtMAAAAAAABE1NAAAATUlgAmCm5BjJjUMqsM27rkXTRDoM6GTGjExDSC5Mg149jokk1SRWNI1SC3DHjfKdT4+g0CjK89CgCakLE4kMCOrm6xgGGqQ7i6WOii2BFTQwBgEioYAACmpKABgEXBYAABnpFWAAAZ6ZmiYIYKNMywAAFFyNNDExJyUwBpgCFcWAAJompoAABE6ZagAAESBVAACCagsCAAE5KcsaYKakVzVMCBMIaoAYNMkGIAxuKG0wBDEwAAAE0RcUMTAASaLEwACagppgAAIVTVDTgQVNTQwATQJyXNBLYKbgsABgpuBsZMahBciZRKsILRmVRLsInTIjXm6RuiMqtEXNGVjBoJuapiIYgTllkhSSGhFkhZAVJJqSFEhWdTWggYgedwW5YxA87gsQMQOKkYAmARclNMAQ0ArihiBoCamgABNGe2VlCBiBCZQgaAJqSgAABNDAgaBywVJ0AQAiaTGADQS1QJhhU0MAAAaYAAACERUyamCOgzoqSTUllEhUOapy4ZLGIJuLpgAAReegwBAgTRYmAIcVBbTGIHFQW0DAgipHU1QACaFUWDQPOww3m4GAAEVFjAEMIqNAAEwEAMAABJobAQwU1JQwkpCm5pjZKsInSBqwkoJnWAVhBaJnSQKCCwlWiW2SUEq0TRRJQSrRnTZJQS2EMoksIdBmUyXQSUiZ0kCgkoJVoRTM3ZEFyA2S2CVIljEUElBFDJKDCpoYAAAAAAAAmiGmcNMNtcdyVc0ymZuyIjaKmdUcm8dEQ9FWbdEtgnITpnRZAaKGNJGpmjUyZpBBsZs0IZUVmaOWMQOXJTmgAAAm4sAABk1FwwATRF56A0wAM9IoYAAEuaGAMTIBjAAAlNFiAGgmpKaYAUZ6ZlgAAEXBYAACmpKAAAJqSgAYBNSNpgAABFzQJoGmRU0MAACKmhgQACmlTAgBimpqmEAATUjaYAAmhVNAANAJzQwDnpMYAAAAAAAAgIqaOXV2UNEZaYHVUsYARcDWXMdG/P0DBEnLB31x9lCaI05ukYwQ0IlGijM3EwzuCwYDBRpIFBBoGc7QS6ZnO+YONiG6ILCWwilQAAIJvOizNlkgVnRRJFkAVnRZAWQBUMskKEhIKsRDEDlwaAA0U87gsAAAi4LAAQE1BYAABNQWADQOagppgANCFUsaaAAm4oYAAhOaGAAAkAwAaBxcFMIAAmpG0wAAEKkwAAAm4oYBg0wYAAAAAAACaM7iihBSQHN0ZU9Md4YgcXFXnpBj046wwRy4ehzmm83Sx3k8v0OXtLaIaCox3xK4ehHRZILl0OoAYAReZWccp6bz0FNQUxhNSZ687N6mhoIAKmouGIBoIuLptOAAzvPQYAAEXFDAAAipoAYhhmNiVhBRUqgFZEFhM6RQtESWEZ75jLCC0ROuYymQWEzcA6ZDoJjaAdBJQSrRDdEFoksMqVklAlaM6KJLCSgzKBFBJQKbkY3ElISqaYyEMBNADAAACamhiDJgMTAAAAAAAE0Z0rJVhC0KyWsAWGZoEFyBTOa9kIA58uwFrAWQHN2Y2aRnkdhAMlGuEwdilmNINnz2agBFwZ8voc5vSZjpzdBo5oE0cuhZVTQAQAEXF0AQAEXF0wIYmZ3F0wIADO4sYAgCKmxUmABDVANCGiQZQmAAk5q1SATDPTM0ABAGemRoDAAM9MjRgAARcFtMAAloGmAAAEXFgAABNTQwAQEtMYAABLk0AgACLgppgCGmgaYAAATU0ABkAAAxMAAAAAE0RcWAAAClqqYCGBNQW0wBgmibmgAAAmoszqwQwhjJKYlQRG2Jh0TuQWETrBGXVmK3Rlh04G5bM1oGGlyKhiYACJ0yosgLJCdMrKeYaGbC8bNDMiyUF5UaGYaEhN52NoGIJqaGhDlcx0Xwd4wAAFNKrTUIZRncGiaAAM9ILAAAMtcjRpgAEXBbljEBNSNpgAABFxYAAATUWMQABFSygAAEmimiGJhFwUwAAJqRtMAATQqmgAMgAAAAYAAAACaIuKpgAATNIsAAYouSmmMASaCosAAAIuLGCGARU0MAAAztDYAAEXBbTAAmdIKaYABFwU5oAABCqLACACovPSGAABFxdAEA0RcaAAIAlq6lWRBYZUUTGwZrXI5umNqk0IgsMiykWGZoiFaJLCVYROuYywzNAiNoEaBBYQtJAbJKCZ0kTYIYIYSxggAAm5YxMACKVAACASaLchQiHFSW5BiBoQ3JVEsYkFRQxBAEAmAANMAAABNGbLqVojM0DJaSDoEMCKlLci2SFJIdQyzMNFDFpjRo8maEAVFFCBiATksAAAi4LaBiBxeZbTAAIuCmmAAJyK4sAIADPSLoacABnpnpQBAAZ6Z6DQAARcXTAgAIqLGALHYM9IsYgYglp1QECapJoYADQZ3magAAEXBYAABFQaAhiBzUlCYAhpoTTGmgAJuLAAACLihgAASDGBAAE1JYAABNSNgAAJqk0xicZJyMTGJgAMQMENNEXnpTQAASqRQMAAi4KYwABNCqaBgIaIpUAwQwhjErCCwhaSI0DM0RC0gC2ZGqInWAdIQ0jlyW4RoQjRSirwssgLIB3jRo8muhm4WmNVoZkaGbFpjoUSFCCbzsYA0IjTINlzydRxh0Xz2bCYAEuaqhOAAlDoAAAUXJYAABnpBYAACi4NEAADi8ywBoATQMYACTCbz0AAACKmhgCAJqaGAAEE1BbQMAJqSgAACakGmDTMQAGAAAANAAAmibzumAAAk0U0wBii4LaYAhoQ2mMAE0ReegxMACXNDBiYglosAABReZo0wQBFwW0DQBFwWAAEE1IVNgACaJvPQaAGmRedgAAMzqdCFoEFBDWhBZUZVzxGvRoYvYMjQMyrrk105jYtmVFElszLDKmySgkYSqQwAAHFwUCGSx53makhRLHFZmrhlEMqRFkspIGJCvOiiQolDrNlkBZIFZs0UhTgKkRbgNCAuBGhBFkMqUU3DKcBDTgAAAAAAAAE1UDpJLSy2hAktwFkMuCTUlLZAWoDR50WZhpMgtMrKchQgmoopoGgEgLEDQBnpmaCYABFwWAAARcFiYAQTUFVNAgGhE6Z3TAgAM9M9KAIGmZaRYNAAEXFjy04R9yozuLGAABF56UZ6KMtctSLixgAAQ5ugAACBgwAACKksAQ0GemZoDEAGemZo0wACagpgAAJyFTQAAmiaixgAAS5oYEAAk1VAwAhKoqwIaYKbgGMADEAYAAAAAAAAmqm89AaYIBJpKYKABFwWAAATUFVFDABMM7mySgkoM6VklMgsMyhAoWCwnPaES1FhtBNSlkpbIE0zJXVwFmbLglNHkzQzRqoRWmFGpmS6GbJ1xsskKEE3noAAAEXFHLpy+iUIIvPQYAAGemdjTRjtlsRcUMQMAzuKpgAmGdJjAAAUtFgAmCz0zNGmIAM9YKYAAEXBYMQ1BNSFJ0AACIubAAACLiwAgAEgqmnAIHFTVicDQOLkGAAGDTBpgAAAAAACaqNM9AAAASYUAAARcFgAmhy5HSY2mCAi4sAAAIuLGAABIMoAQARcGggAAi4LAACCLiqacAAReZbTATCXIXFjEAARcaCVBBYZUWZmgQ6Zhl0codTsh0GVGlZGoZmijKizM0yFbozoqpKIQFRSYOQokFWdlEIskBxRZKLSRUOTQgLIZUkmpmyyAuHBq4CyCKkitHDKEilIF40aGYaGbCsrLIRoZsZIaEoskipJrRw4okKkRbhjEjJgDAAAAAAAATVRU0lEi0QDEk0eYaGYaQpNjMXQzDSEk0rNrZDLSQVnYxMACLixgAAS0ygBMBRpmWNAAPPTMtgIagi4qgcAAZ6ZltMQwIqQqboAgAI0z0GgAAz0z1AAACOTr5TsqKAAjTLWgCBNGWnCjtnDoNBMz0z0pgQIDO4umChgqi4saaAAmosAAAEgKAAAIuCwABwZ6ZltMAAi4KBiYCVIik6BgJhFRYwAAJFQwAAgi4qwIAYlUjGCGGIAwAAAAAYgATVTcWg01TEIGjAUACakpoGAKakbGJUEFohuiCwh2GTqjN2ELQMqbJNAgsJm5RtCskKhotwFqAuCTRwFmUR0Ry2dRAlmYumZNaVm4sllSIWmdjAAaM9c7GJgARhuC05+gACNM7GAAI5uXqxOfu57O1oJvPSmBCAM9IugCAAy1zumgGmiLiwAAAkGMAAIIuaphCYh53FWBDAFNSU0wAEnIrmqAIQFRc2AAAGdxYwAAhTU1YEDTCakoAADBpjAAAGgAAABNVNxaDTVDRLTSgFAAlyWAMTFFwW0wABNE3noDQMAi4oYAAE1FjAAAJaKAAAU3BYAAQReZYMU2jnqNDVpgmgi4KaokoJVozp3WbsMzRGVFkGgZuwyoqOTo0CGwzookpkZ78xC64MI7whsIpMGiqSIVSFkFWpBXmzRQFkAXnRRAWQwcI1Mw0IIuEVoQRZCNIJrUgNFBFw5NHmGhmFygpw6okilLqdMqLICyAKzoskKJByBYiKJY4qSmmAIxaYxMAAAAAAAmpqdMbSyEaLMKrKjUzRqZBpKk2Mw0IFuHma1DKEDRItM7GAMQRploMAYmRUWDAABS0WAAAZ6ZGoEAAZ6Z1YENAYVribAACHFwVUsYATUhc0CaAETcaCBDIBVNgNklBlorIdIQwm8tBoBAE1NDEwaCaiwAAAzvO6YAmgmoooQABLixtA0AkBYgYmE1BYEAARedaAQAAnJQFAECaqamxDCSkRSoRSJKCRgDcS2Cm0A2SUHPU0DAAAAAAAAlqp0z0AAACXNg0wAFNSUNIikTGsAMJVohayZ26JLCXTXKnaZmjM3YYXVEOkJoBAWRJqZsvJwbmaXU5sju5sKKW9nKdJHLPbkYrrE5L3larkzT0Xy9JRLVxWZdRQxMJqRXmypqiaAi4sAABE6ZaDEwAM6nQlpDAI0y0GAABFxYAAAZ1N0AQhlZ3FgAABncWMAACQYwAAHFQaAQABnpnVtOAAIuCwAAECFcXQBAgqamxDIQ1UuWWBAACclNAAHPcWMAAAAAAABTSqbixgAARcWDQMQE1JQABI8qQ7bAYKbkVTQDCSkRedlNMAIi4ugCBpiQVQAE88dHNOhku8OfoAIuCwAADPTMsYSUERtnUcnpEcusSamkWS3a5vQM51gy00ozNAzNEY1bMnoGVWGLehm7ZlVozooSZEN5FaZXVmYaEEF5VVmYaEAXlZRCNDNivJmhmGhAK8qNCEaEAVnRbzDRQFwSavMjQyZcOK2IcUSxw5rQlwxA5aoqWMQABN52MRDQVFSynLhiYRclNA0Bz1FlCYAAAAAACTVTeYaGYamTHeNGhCTQhjQlsSBLQSpDaYxA5chU0MAACKVEsk0E4i4ugHCaBCwrpx5tYy6dwJqSgAADPTM0AAAM9My2mAAZ6Z1o5cOLRx478BHq+P1nqEyU2h0mAAS4G5sTABoz0jQQwTQRpnYwATDn3ysoTAAi89KAIACLi6AIADPTPSgCBMMtIumCBgZ3NDTBAyU0UMhKgmdMy1QSUEzpAxskoJVqpKZBYQWGbLILIhaBk26ksiHYROiEWEFhz1NDaYAAAAAhoE5pXFDAGmiKmwGEthBSFnoCqwhXKC0DM0RC0lZdUZuwgtmVOiJ1DK5ojSKSyINufk6Ix6NXVvNS6mZVypTYza2QRcEmpmGhAXm5NHDKJY87iracHP0c5xz28pzbdFEdmew5uCmgBICkDTBoGhE6RYAxDRlcyauaAAzZRLTGAZa5a0AQAEXFjExAGekXQBAARU3QmCGEVFjAARCE6oCAAM7ksAAAi4KYAAOLgoGIAACLiwAAAhqgaYACTRQAAHPU0NpgAAACAACakVTdAA0BFxYNAxMlOR1NjBBNQaIxNjis6pqCmmMAYBFxYwImaineegedvtFaJktMYAACmpLAAAIqDQQAARcFKmQWELTOmW4yejMltmZraSXoETrAi5IuqM1rNSU4idQzNJIp1UlAgBAE3AaEEOsmMmTczKNMaNCAszoV5UWZhoZhVY0aGYW8wd5M0M2WQBWVGhDKSBVFFCIYgcVJYAABFSWAAA4qSmgAABCqaGIAAlpgDAASaKAAaOe4sGgYAAAmgAFNSK8rqyBLJBXlorAAQEOTSosAAi4L5ermNvP2Z2RcFOaAaG0E3noAOFnpnU7YbioIACaiihAwBTUlgAgDPTM0AAAIvM0GAAGemZoAMAIvMYqGAGemQ3GhQmE1BTUlrjwPTmKKpMYmE1IqTBNAJiqLCLkblk3FgAABFxYAAARWetAgYgjTLUABDDOpsQwEwlqhKmQWEFIRYQWEzpEBYQ6CVcgUEFhJSJbZJQSUEMZJRUlMzbYiiJKDmuLG0wTQAAAAARcCY7EULBYmVFkGgZmjMFqiatmbtmc6wC0xXLTn6h5bZItc6KegZvSTO0ynmLpmQi6OXcszF1MwdYaJoZqXUzC1AmpCNDMW4M06DNLoQy4cJsJqABncGgANA8tMh3noMAMdsCtM9QTQ4uCufoRPndDOuNMy3hsMAJuBtMACRMKmgVSJzRNxYAAAZ6RYAAmGWuelIagAM9M9KaagadZ3FgNQAEXF0AQNMkGMABgouCmmAARcFgAACaFSYAACJqaAAABNMYAAHNeegwAAAAAAAFNwFTVAADRFxYwAaZAMbTGJii5LAIsIjDp5KNZ6UAJWmqm4sGiDHXAOjHYYmABncXYxErAJAKBDTBRcJaoWHYTntnTnUjJ6BnO2Y1oGZoGcb5Gei1MzUM8unAWhoZGoZTvmKNw43qy+fqyPN9Ph9ETRVSSaPMNCADMNayZooRTzod5hoZhopAvCzQzI0M2LTKqszUaqGLTC60IIskFeWlMRAARcXTAgAJc0NoGgDO4NAAACLzNAAACXI6mhMQxBNTQ00AAmmMAADl0zsoTAAAAAAAIuAqXTaYJoi4sYAAEuaGIKACLkppwNMUXFWJjEQ0KlcWAERlaqtIsGnCGjPTPSwAlGglplIYmAo0gtgAAZ6Z1oBAAGWuVaNOAAMtcg0z0GAGG+BemWgwAz0zLaYABFwFgAARcFtME0RNIukwloloKaYAAnIVNAAA0TcWCaBMMtI0qSiJVlZXOhBZEFhjTuoLZmtUZN0SWRC1VRG0CWoZmgRG0AWELRETrJLqjM0DMsMqbErCSghjAYABzXFw2mCYAAAAAKLgRVWZvQMnojJ1RK0CFoGTpkzqGbtmc7QqNBM3oiZ0gbaGSFyhXUBpEZlbZaBWdFmYaGZBpjVaGQamYOsmavJxoQFS0aEMokKzqTQQMAMtM60acAAZaZhchYA8dcydsrKACLgtpgAGemZoAAAZa5mgA0IlMLACagaqSmmAATUDpMAATQVNAAIERpFgAABnpFgAABFxYwATRnpNUAQDCU0UAAARedaAQABnpA6ljEwTRFxdMRDAIqaGAABy3noMTGAAAAAAGemY6mqGgaAmosYAAEVNDaYhoJcmjQMCCLirAAQOXBThDa1AFE3npQBANEVNgDEMIqaGAAAk0ObCFoETrAjQIWgRG2dMtxmWzOdsxZ9GQy2ZztBC3zoKqM52gTtEukKbkbQUQGkKTV5hcwjZKTQgLiQ1lKtSEaEKNIEW83VPIjVQjSsw0Mw0lILzooSKEEaZ2MQMTIuLBoAAmpdMCGJkgDABgKLirAgAFNSNpgAAIVTQAA0E1NAwAA5mmMAbQAAwQ0A89MxtOgGCaI0zsbQMAzuLG0wAFnpBTAYgrOoNBIpJDhgU6BpwAiNM9KAIADPTPQYAAEXFDAAAkAoAAAz0zNAAADPTOtAIGged5msWiazseemZpNMytIvO8zUAAYReZoJgAGemZaUjtUEXmWCJvPUM9MjUTAAM9M6tpwJoI0zNHNCGhKpE2yC0QWqzosh2RBYZtaEFhBZWdK4gsILCCgSsJKCY1igsiCys1rAiwkYIaE0wEFEsV50USFkOMROmBDEwaBpggAi4JdVWRqJk9EZUWQaBmaBjoUQ7RJaJVIoSKEhxUF5agUkaTKNXkGpk10M2LTGk0eRLqZgaYWaPENTKh1lRoQFkUS5ZYmCAIqa0AgADLTOtREMAM9Mq1aIhXmaZ3JoJhNBMa5GomDQPLTM0AASKxuA1KAAM9My82FUAZa5lsAADPTMtpgAGemZbTGgCagppiABNE3NAAMTMtM9QAAAzubAAACRMoAAAi8zQABMIuCmmIYKbkGmAAAEXnoDTAA5xqmBA0DAGIAAIvMtp0ABLCLjQAATRN56DABoglqrBAAHLrxp09KagARSHUsYEABFxdMRDEyLiwGCGjPSLEUEq0ZN0QtgyNSs51RC2DJbIzjfIZoGZoGc75AahkakYLfIHoVmaMidJEWRnTKIcxYgKkLlTWzyI1WTNMTE22yo0MmaZkVs8w0IUaZk1q81GpizXMk1edFEscVBoSwABOQqaAAaAy1zsoTAAz0iwBDAIadUBAAKWiwBMAi4LEwACLgoTAAARGmegxMADnTVNohgDAAAAAzuCxOhoGgI0zsYiAAm89KYACcICmACEcPRy9ia1LVgBFyUJgBDQE3noDTAAi4sYgACajQBAAGdxoMTAAkAoENAGWkVoBAAGeuRqAAAZa5lMBiYZ6ZGoAABnpkaiYABnpmaNAS0SaQWxADDLXI0aYmAZ6Z1YENAE1BTGIYKdMwLCCwzWsElsyegZmirKnZBoGbtGbdxmaBmWVlRcQaBm7DNWqCgQ1BNTVOQolFwBThlKSKJKV5s0M2W8yMWnQ04YgbQMTAAMtc0l26yeiIdoyp0stgmIm5aWZhoQFEBqoRpmc659fNum7wo1Mw0mYOgzDQzJdFAPTGq0Mw1WbHeNGhm4shivLQYmABnplrQBDEyRMpAAAopVYEAA8tMzUTAQPLTM1ABMFnrkaCChMM7zrQCASKyrI2CxUAZ6ZmgmAAZa5GjQMAM9MywAACLzLaBtBUVBYAABFwUAAAJom4sYAAEXFgACaIuLGAAAkOmBAAEXmWAMQE1I2mAAJom4sAAYHHed02iGADTAAYmGWkJTTtQ0CaFeeggIbQTed0NEMTpCCwA4e3gOinBq0yiXDi860acAATUhed0wIBBGmegDCSgzZdZmgZmgYN6Jk9CWSmZOmQahi9AxWqslai5PQIjfMDQjM0ZlG8AaBmWCjTMtORNWRnvnRTUKkFS863IUamQa5pVqZhoZONM0jYzdWQjSEo1IRoZhpm863IcNoKhosTAAM9MywAABORXNDEDBE3nYwATDO5oYgYgTTGAAAZ6QUAAARcjaYAAmibmgaYAHFcXQ04GmDQMTGJii4KadCZEqlU6Z6CGoGmRcXQBA0EtFW0B5vpeWelnpBbTE04cXnWoEMEOagLiwAAAjTPSmBAAZ6RYAAAZaRY00AMi4sYIACAKoFDQxReZsIGAGd5moACY8tMjYQMQPO4rQCAAMtca2AgACKg0AAAM9MzQAAAz0gsAEwUaQMoJKZE65jLCCwidYpFhBYZmkklszdhm9EZU7jN2GZoVjZRBYQ2RNSyiQoSKkmtCAszcXBJo8ytDNxcpFvNlmbLeYcumWoNAwBgAwAAM9IoYA0I0gnTNlmYWQD0xZqZBqZBTzZsZhp5foecvpwkmxmGhmGsTJu8hdTJxrEyml40aGYuhFEa4alksYmRedjAGmjO4saYJpk1NDQAAQDGmCYCz0k0AAAWekGiaAAMtczUTAAM9Mq2AgADHXOtAIGgM9MzRpgAGWuZoAAAZ6ZmiaBphnpmaAAAPO4NBMAAi8ywAACakbTBoGgJuLAAACKjQAAAIqLGAAApqSmAhoJqCwAACammDACACuK4uGAMAGmAANA4uKtoGmQlUk1NUwAQE1NDAAAlqhtODy/U8w9CKmrBgBDzuatpwJgRcU6VIhkqKRnc6VBbjN2GTdmZoGa1Exp2uRqGT0DJujM1DM0DB3Rkahi9QxNQg1DI1DKdpJdBLYKLitHCNCEaQoOh4kbLFmsKK3Mg1Mw0yqDYzDR5BrmQbmTNDINcyI3Mw0IC83BsSFCYReZoAMQPLXMsATAM9MzQTAAaAjSLAAACLiwAAAzuLGAABIBQAJgouCwAADO4LaYCBgHFplqAAxMGmAAABFxWjljEAmhVFgAIAmpoYEDCoqaGDhcHocJteO1WDhMAi4q3NQABFwVSYADTRGmegNMADPTPQAAAM9MtQAAAz0z0oAgAM7ixgAAQ5ooTExBDCgAACLgsAYgM9Ma3EQwAzvOtGnA0wz0zLGCaYstcjVpgAGemdaIcIYTOmdUrIhaFZztAjQILInPfMC2ZPRVnO2Q3YZuwgtEN0SWENhFJgCKJQXmGjzDQhgJFkqLeYXBBsZhooC4JrUgLM3Fko5rqaGiG0waYCYABF51o8wsgLUiVWTNFCNDMKvGjQzDVQDrKl0Mw05tcSOjj6jYhGpkSawprZ5EupmGkEmjhlksYio1y0hgDEEaZ2MQNARploMAADPTOxgAAZ3GgAAAZ1NFCYTSIaZQAAClooGAAs9JLAAAM7itQIAAz0g0AE0BncFsBiYovOtBkJgGemdaAQABncGgAABnpmaAAAGekFgAACcjqaAAACaiwAAAipoABgEtMYAmAouCwBABNSUACYSUq5mxENSsAYAAA0xRpnWjTEMEmhUqEMAAi87G04ACKmqAIedh5foeZ6daAABDi4qxOEUiZ0gZTILCCys2aRmaBm7EzouoLFhaBha1MzRxjWiMbWhmahkaoxsszdsyNUYuqIWoZGoY0US6QmnSSZZBGhmjRZutTNRqZhcyVsZONDMLhI3MwsgLlSakBoZMuSa1IUaEMrO861E4ABTcFtMAQRclAAAEXBbTEMFNSOpYwAAIuaAAACKmgAGAS0xgAAKLkoAABTUFgAACaMBqwAlABgDAEwDPTOtAAACakdTQAAgiLi6YEMTIqaoBwmB5fXEV3AQNA87iracAAReZo0DABOSdM9BiBiCbz0GJgAZa47AANAZ6RYwAAM7z1AAADK40AAADO4sYAJois9CgAAIqaGAABIqKAAAkVFAACEmFAAAJNFJghsidIprQjMsIWkAWzM0RE6zSNAzLCI2gTsjN6IhaRSpgNIpICs6LICyAKzZZDKcEDhluEaGYXKRoQFmbKkk0JYwQ5cmFRdgBKDAAGAAAZ3nWjlFkI0mRLrJmhmFqUO8mamQamZDy55q9byOx5NV5vqeOntGQaqBbhwbPNxZIVledmxLG0SuQJ0zsYAAEaZagIGJmWuWtDRDAIuLGIGIM9M7KQA0GWkWMAADLTPQYgYgy0z0KAAAi89AAAAlzYwAAIqbpgQJhDTKAAAkYMAABJqrAhABFwW0wTBRcGggAAi4LAGICagppgANCFcUMAACLz0EMAAlzQwBDCQBgCGCi4plMhaImdIMnUoASgAADAAAUXFaCYABNSNpgACYRc0MCDPTA4fU4O6yvJ9HzZfXaYvN9LKsOzx/WGAhFwWMVKnJEa50O3GZoVmaSQ7ZmaMzdBlZZmaC5mgZUaGZbjN2zGi6hakZmgYt2QtQzdBlRZBYSUGNF2SWpZYrI0ixuFLo8wdZVWhmRoZAaZXWhmRqZA7xqtDNRqZhVY0aPNGpmxvNmpAUSAmq0EQABnpBYAxARcFgACHncVoBAAGekFNMAATkKmgaBiCLixgAARU0MAACBgwAAFFwW0wAFGmZeG+NiAlQAwBiYABncVbTAAJqRtMaaAAi5oYECYefXXdnn91kqYCi4rlXd5R6hlqEXJTTGJws9My6TAAJqB1NANAmiNM9BiYAidMdRiBiCNM9KAIYmZ3nqJiGmiLz0AAGBlrloNMENEXnoMAADLXLQYIYBGmWgxMACLz0AAADO89KYEDQTU1QMiRsgdVmaqMqsInRCLDN2ERtmBYQWVE6wNWEOgmNYhtKqcouUiqzDR5hoZsLxo0IDQgCs2aGYaGYUQGhDiiQcVJoIGIHFTVYb4I0EqAGADTAAUXnWhAmhkGsKDZ5o1MxdFAhpjZoZi6EAXjSamYuhmFwSm2Ta+Z6nm7HZDhNiWrEDi8zRoGIhxUVVS4oQCAjXOxghoDPXLUABoDPXLQGmABlrnoAAAGemOowAEzPTPQYAJoz0z0AAADPTPUQANMz0z0BpgmjLbn3GDENGWmetAEABNTQwBACqLpoIACQCgAEwy0zrQFDExRcGgAxMIvI0aYACmpG0waBgEXnoAMACXNA0xKkQxiGElomdIoKZm7CJ1keTlGmpUADTAAAAzuasAAAmoS2mCYqVJIubUGgGiLjRAGqGRE3NljCPI9rER53olFMgtkLSBzozI0DNayQaMyeoZGsmVVa5PQMzQMNFomZqLk9Awtapk9BczQMaNTI1IyNUY0tUzNBYLDKikl0LLYZXNVSRDcAtcNKszcW82TplVaGZF+f3I87r5uw6HkzRQgvKq0MmaGYO8bTQklolk3lpTAgAIc1VAQgAilVAQmmKLg0AGIHnpmWwBAE1BYAAAAZ652NyxgEVFgAABIMaaAAUVJbTAAIuDm15+gBoQ0DTAAAKU1CaAKABNQltCtANATcWAA0BF56IwFGmTNSmgnKNM5OL2PMs73w96gAReaaNCsFBFwUxgDFNSK89BggBGeuegxA0BnplrQBDAM9cNwABNGWuWqAxQAz0z0BgIYZaZ6UMIEwx1z1oAgAM9M7ptENODzPW870RgCGiKixgAMM6myW2QWGVq6zNCMjUMW7qFoGbsInQiFqVmtURG2ZRQIAcVMaEKtDNlwSakI0Mw0UA6yo0ebjQzYVlZRIUSxOaGAIaJm5LBgmgz0g4+jn6AaATQNMAAApReSbEI0Mw0lQbGbNFIUSlLytKcBZDJ0yot5tbIY5EmghaEQ8rizzu3XzD1XNKZa5Jq0wQQRedaOXKxA5civNpZLVoDPTPRGSLakJ1x1pgQNBlvhsMAQBnpnpTAgAM9M9BgAAY65bUAQAGO2WtAEABlpF0wIYgjTLQoTEAZ6Za2AErEEXlrTEQwDPTLWgCBNGemelAOEwIaoAABBFZmzQAARedaAQABFwU0wACaVKpoYnAARU2JWiSgzbqpVhC0RmWEmgZluM52iuLfDeGACaBpgAAFKLhLGKlQTNyg2yShZVpJasgsJKDOlYigh2iCgS0Fh0yM980eHUL5Ho4Zp1ztmC1ZkaoznaCTRmT0REbpcqukyegub0SY09DF6ozWoculWZumsGjTn1WhnVhmaEYWaVm9BczQMLWqZmgubojHSdLEJqPLM028207547XeJoxNtU5DsJeN9bOGuizlfQzmOlnI9rrC3Ma1zSb68FV2nJpG5lZOmO1MTgQGemd1QECck1mVpLcQWGcbQU2AKTTMVagQABF51oJwABNSFTVDCAAi4saYIYRU0AAAEgxgAAEXFcPRz9EDTBNAAMTAClFwaAAAKagtpgCGgJuLAAACLjQAAYENMoAAAi4NGmHH2EeT3V5tnqnN0qSeNHT3eH2HqCQWMU3mU4RczQixMNDUzdSreTDXHWxzRLLSFplsAAAGWuWtjAlADPTLUARSyxNo5+owO8OPfUMtctQAAAz0z1AAEwi89AAAAz0z0oAhAzOp0IjYOSO5VwbaiJ41Loo5Tp0831rIWiXM1ZhV0ZmgROgZqkluRaIB56Zl3lB0PGjTJwbGbLMw1hIusqNDNxZLJvLQoQMQTUWAAAEtBQAABFQcXRzdINMEIYAADE6WemZo5YxAReZo5CiWNCFeWgxAxBOmVlCChBFRSWJqABFQaNBQgM9M0z4fW8hefHTKS+3l2PV0jRRoDKoC6aDQomiNc9ABkxoHJuizQi5TPQMOjm3KAAAy1zuxmWEvYcNFI6jjvsDDZhnplqMAADLXLVABQAz0x2RiagBnplqAAAGemegAAAZa5a0AQIDO4up46mMXuji9Tk2OqgBiJrOwAEUGSp0NkDkKzvOtUyM3WZpDmtGnCAHF5lMdIZCKDNl1BoiCwyp0QtAzNAyLZBbMzQM51k4Onm6YAAAAAAKABRclKgkpkRrIKxJLSw6Eyp2QtAgsMrWhBbMzQMabJNAzWoZrSQNAzNAznaA4fS5zxX6fXL5N+grCrZnGiWHtCC0ZkaC5rWUh1ZmaNcnooyK0s5a2wl0LZyXZYOslvPk0iDs3s4enUiCxcbWhBbMnoqw1nRJbJQQkaZ3VEC2ZsWvPaamYujzIWuF2aGYuhmBphZoZhoQCvOyiSGAZ6Z6UxENEmW2W1gClczVRpNgBAAZ1NVQEABOPRjWlYbQ00ZLXCugTgaBxeZbTAAACNM9AAAAi5YwAAJc0MAABTUnB083SAAAAAAAAUouSwAACLgsAABoROmdjAAAi4tGArAIqaGBABSi5NBMAAz0zNGgcuCG0aNBnaseemcW0wTyNJcpVTQxCiaJ0i7DPRS464bE1NmGe+xnoBlrlqjAUBGeuWoAACM9c9AaBiDPXLQYAJoz0z0GJgAZ65a0AQJhnpnpQBAmGWkaEFogsrKizN2Gc6BnZaZzpzrelMxsszdhDpGdTRTmTQzDSCS8tMjc59S+fWCtObU0IC5JNHnUUSxiCbixgACJqaGJgARUUUAAApqTh6OfoAAAAAAAE1SmoNRAxMIvM0EwABNE3nZQgYIm89EYCgBFSyhMYgIqDVpgAGd5pqApjtgaxeaay810qaHnpmVF+fGnL63knpu8k0qKGAonIXFoAlybgu4tMtctFoQZ65aoAKAGemeoJgJojTLUAQxBGmWowBDRlrnoAwADPXLUAAAMtc7GAABnpnoCYIAz0z0oBRNTZF56EZ6sbQRcWAZGpjkbacXbTAgAFNTVg459VFaxcCbiNQAjSKCiJVhKsrKyyCwidZIpaEFkQWGS0mm2ySghUHD0YbwAAAAAmIAKWekIy2sKwhaSCtpC0DM0kiiyCxZKDOiyCwgsTGiySwh0zNaSNaMyNQznbMDQM8enIJ3yCNoG7ZnO0C4/RDzF1cx3RrmcnZxekQaBlO8EuqMzQMcOrEq3Zz07JNAxtaxmaBmaIyo0M3oGRoGNGlQrBDRGmdrZmGhmQtMLs1Mg1eQprz6GpkRqs2LTG6t5kaEMjTLQoQCaM9cdgi8x3FmdxVNpwDDO89KXH28sX522pttF0xAwISCqaIMN8K2ioLy2xjVphNSUAAAJoKmgACaRlrjsMQAmS5oGgoliAOLfHYABNMBA0AAUopJbTVABFwWAMAE5FedjAAAjTPQGAhoi4sYmAApqTRpgAGWuRqJix2xNs7hNMtslupY4uC2Ec+fZJWG+Zz9eE10uKhxeZVTQAEZWi7mjK89RponSLAAE0RpnqAATUkaZ6DExDkVxYNAKpI0iwGCGiNM9ABiAIuNBKgkoMqnQhaBmaIws0rOd8hOqjGlpUlszNAxsokvmMOjj7Yq85rc8r0TR5MbgNTMNMnmaykbZVnGtY6FQ5NBMAAVQOpYwQAGdzYmAAEXFhNAmBLTOPbHYAAAENABQASqlLEKxA4uC3LGAEtE3NIwFACLi0bQrEEXFDAGASAWADQPLTM0aAz1zHLlNooVNMIuDRoGBBnpnVjQAQRcWVScoEmNzaU0ljbPUU1IXNAAE3AtM9EAFIuBXFjACakVzQDQTUBc0MAJqRXFgAAInTPQAABGemelAECaMtsdR56QKosz0zuqc1A0zLTPSgCMNwM9M7OPeYOsAhp1SZCy1xqho0x2xKoomdIAsM3oGc7QS6ZBYQWGVFkFhJSM7VCaYmgTlnLtjtAAAAhghoAKWekAWzM0EznWQLCDQWFpJDdJBYSWlztWSWEFhlRaQ7FzNBMimI0Sw7CJ1zGWELVGDuEZqGT0kUawM0DN2yM98wWgZmgZztALQMstkC3yHltEF2LE6xUu6MzVGa1gzu2ZmgZmkJFuiCxZm4HSIp5svNot5OtTJxpEqtKxo0MyNFCLvDQshlJBOmV0wIE5I0z0pzSjO4sz0z0ocuKcsz0iwaBgGbVmWjAAM7mqYKFlaLi5qstINGEGekFtMBMIuBtMAAAI0z0BNAATUWAAAEuaOTXPQAAAAAE0AFKLg0AAAUXBo0wACakVTQADQidM9BgAATU0MAACGCU01AAi4LaYAhYdGJsRYACi801ctW0DzuCwABDy0yTVZ1KaqhZ6YDuNkGJTPTMupoAAi8y2mAAReZbTRgKReZbTAAM9IKaoQwU1BTTGJhFwFJ1LoiVcEuqMy2ZGsmVrSszQOd65iudCCwTGZ3GgOQszB3jRoZo1MgqsqNFGcVeOhcpUzPUsRDiorQTGIHLiKqWAAAhVNDAEATU2JgIAikzl0y1AAAAABMENVM3BoJgCCLg0ExgBLQVNAmgAI0z0RiFYgm89BiBiCXLSmmoAEVJo0DEBnpmNuSyaDPSBsEYktw4TRyluUgx2SLdNWiYMNA0qaBNBnpmXSYABnpmWxiADPSCmCDBTLXI0aYABF5l0mAAouCmANMM9MiwChMIvIemWgwAi4I0z0Bpiz1zM9sNqYyECFplqDQNCJvLWgCAQTUqqiqhgE46ZVWjoidUROsAWzM0DOdsxlMgsIWkkt0Q2CAJvOyiQokBwGGmesIYJgAAhoE1Sz0lEaC5miSJ1kTsILDM0RFOlzNAzWqMqdpm7Zk9Axp0QaC5uwyptJNAzNAidEI0FzNAidJEaCYm0kK0NaMzWoZTvmJ2zM0FzjfNGqS5rXRMp3zAtrmaBnG+YGgmbsWY1hGWGZoGc7ZgWyGwM7RVZqXUyK1zJNXmRoZhpCitzMNHk40zJNCSqrOoedwPTOxgCipBpjACaRlToTihgzLSLG5BoKy2x1KSRUoiLV0UnCDMz0jWqaIaAIvM0aYABnpmWwAAJqQqWAAxBN52MQDliqaOXTPQAAAAAABAVM1JYADQouSwYmmJOR1NAACaIuLGAMETeegAAAS5oYAwBJymgCggIuSwACR5ef1nS2AIKyvNNSRaSB56QWxjaIeWmZbAABReZqJgAEVBqJgAGemZbTAAM9My2mMQOagpgAARcFMAADPSBlBBYZmkiLdZGoYraBFsyNUQrRDqjKOiSGIWmVmhCLSDPXOinAW8wd40aLOY0c3SaCgAAgy1zrRy4YARcVYnAAEXA2mAAJoVTQAAATc0cumdjAAAAAAENEzcVYA0ApqDQTGCCakbTAAARN56DEDAIuLGIGARUWMAGgSBLE1AAipLAJ8k9Mb0zNAAADPTNLy28td+v5/qPXnDY0aYwUPO8zRpgALPTM0aYIBRcJq01AAy1yNGmAAouCwYADzuDQAAAi8zQGJgKNMywAACLkppgCCLzNBME0KakdTQACjRGGiwrrfm9xZAGmVlJIZnxnW8eom2ySiIG6laEZPQM42ik7Zk7ImNZpFhBYKNIhtFNyDSAvNlkBZAO8aMqmoYAAAAAAJoWek0FhC0RE6wgW1haBmtERTZBYQtEQy0gsWDRGdFkFhDpmNFpBoLmaBmUIK2uZoERrKHl9/MuvToERrCBoLm7CI3xTn8ju55cNl7lcPXvmg7Fg0DOdYQNGua1EzjbMT0ZkahlO2Yy2ZlhOe0DKBMQ4qDRwjR5hpBJsZi6GbLzeZuQRbzZUODVyxoAi860cuGgDPTM0ABNBNQOpdMRDlyZc+XoVbGKNAw2jQULgjThrA7PW8T2imgYmRU0MAABRUmgIAB56ZltMAAi4KaYIBxcDaoAATRNTZzVNKwEAAAAAQApqasAAAz0zLaYABLkbVCGAgIvPQABphFxYxA0BFxYwAGENMoAABRfCnL7PJ2KIAi4NAAaA8/wBDE8b0uu44zr8w9PO4rQCGAGWuNbNOAAWO2VmrTlAAz0zs0AlkaHFZ2bCcrTBZ6Zl1LGAEXmaNMEwWeuVaDIQwWeuZRRUqwiNsxq2ZmgZztmBbMzQM894JdhmWhc/R5pt34WaPINTMDTGzhw9PM469HmJ7OHrLJCyXCqKqgIEwmaksAAB53JYmAARUlNMQATcDqaAAE5FcWc9S22AwAAAAAhqlNSWAAAZ6ZltAwQTUFuWAAJom4sGmABnpnYwYhoz0z0GJgAS5pKE1EAeP6nEnpAKABncJo5asEEXBo04PP9DhOpRVmoErADLXKzVpygIMtc7NGnKABnpFlpkqVAs9crNGnKxAZ6Z2WwlGmGemZqAAAZaZ1o04AAz0zNAAaAz0zq2nAAGWmZo0wAFF5lsATRzYR21dSygAEEa5aDE4ItHneh5nqVJQQWzJlkGhGZoqzKBOmZuiJjXM0GCACLgtwVZBFwpNXnVU4UaQkVeNVlc1KA0Q0AAAAmqWekgrZC0CI2zAsJVhE6yS6aQULBYZ0WQ6CHQZ0USWELQTGyyCxYdBm3SQ7FgsTg1w7gLa5uwidJQLZk9AznWALaxyd3CVqWg7Fgtmcb5oy3LmWERtFgW5czQM52zHOjTM0KnLbMobVMSPK8zZ5hoZhrmSu5CjQzDTJzWrgiyGVledbCcNAGemdaAQABlrmW0wAFnpmaNMWevKc3bz9A2FMGIAz0ixtOBoPK9TyvVAYAFRU2AEABAmU0DTQZ6ZmrljAFNSU0xDBRcFUmAARcUVNGLTgAGJiGgABNUpaLAAAUXBbTBMFFwU0wABNE3FgANNE3FgMEARcUjABgsXnoAAAHnd/H1JoArBBNQmohWICLgtoH5vo+RHqF52agSsTDLXKzUTlYAs9M7NROUADPTI1AAAM9M7NGiVpoMtcq1AgGCjTOtAcIGLPTOyxksqwmdM6ZoEFhnO2YFszNAznWBlMgsIjbMY2TydvFD1z0q3mzR5hopBaY0aGbNDNx5fq+P69U5cMRUaZ2MCAAzaqmDhMQZ6QW0waYpqC2mAmGekFNMAAi4G1RiAAADAAENABUKpLAAEEXBbQNAE1I2gYAJom89ABgmibz0AAACKjRABQAi4tGAoAc615E7xNQAScpbQrBDzqE1E1jz9NY6stc7NRErEwz0ys2E5WIDLXKzUTlGgeWmZqAAAZa5WaNOUADLTOtQIYAZ6ZVqBDAFltlZoBKABnpnWoEAAZa51oBAAKNM6tpwAh53BbAOfoRya8fYU0VQmCaFU0AyFN89ef6vB6JJYQWGVFEGgQ6DJuiS0SUClotpRZAXm5NSUWQjSVBs83VkBcElvNkicDTAAAATQAE56RYyxYLRMawBbTMsWFpKIpkFhC0Rm3ZBYQaJcrVpJYsFiY0WSWGbtmNFElszdhlxehiaHP2Lm7DNWIi2ZlhnOsFTr5a4evn0REbZ2C1DN2yI2zGtAzegZ59GQzQlzdhGe2dlFhBZE56xVMUtEqryqE3M0uryDXJwbmbjQzZWdZWbkktEsed51qBDEBnpnWonAAGemVagQACjTKtQIaA87o28072mNpji4CkxoA8zr5K6unLUaCAFU3FjAgAIqWUJgASgNBMAAioNGgYmGWuZbAAAi8yqlmLAGmAAAAAIaITLLAUTQZ6ZmgAACmoKaaACiaJuNETErQEXFowFE0memeoAKAGemeiMTUAIc2nHvrwneZ2qE0oCUAFFcFl1HoQ0CqLizQCVgBnpCW01AAy0zs1E5QAMtM7NWnKCAi87NGnKACz0zTQGqGCjTOzQZKhhOW+NmislgsqM98kbsWC2Z57wC0DM0CJ1zSlTWHQTltBYAyQri6oMejnyO55M0zINXmy5y4YXp5bUtMtBgAmGemWowcIYZ1NUxkIaIGFAAAGdwaOaAYGdwaAAAEXBQBi0xgAAAAAAmiU1ZYmqAFFwmgACFI0yS2mACuXKLSLBAoAZ6Z6IxA0BnpnoMAACLy0G0KwRFxaNMOI7IXLXmzT0TzhfQw5tI5+jqLNBErEBDizYTlGgcVnZq0SsTFnplZq05QAWemdmoEoDFnpnZo05QAmLmy2nKACi4s1E5QAWemdmoEoAGWudaAQMBZ6ZVq04BAZ6Z1oAAEGemRq0wADPTIuLZw12RWSOc3wvc4e7UiVc1LKINAgsMbWhDsILDG1YigTEIllCRThFykakI1Mw0zJNnmRoZhpCitiCJABpgAAAAAmiYtWBQSrCI1gpUyC0RGsiLZCtrE6pIoog0FzLSQyyCwgsM6VklMhtmVFklBKsMrVku0SUGY7INAgsXMbRFksOgzm1Y1biCnbEaygW1zdkZxtFjNFLBYmc6zQWiW2LPSSnJLZDGlNmxmpdTJlSnZo4UuhAVBNmxLlYgedRWoEMQGWuVatEMQGemRqAAAZa5Vq04AQ8tMy2mAAs9My2MQwUXFK5oYAhoy2y0G04ACKixgAARU1TAgAIAqmEAMUVBqJgALPXMtgYgDAAAAAABNEgWUACaFNwWAA0KLgppiGlctIVNDBKJpJvPQAAQhXFg0DEEaZagAAMzuLGAoHOaXw6p1AKxMhzSUBKAiQLKAlACQVmjTlABTU1YKGJilqywJRoEIssRKwQibsYOVDRLTRqhZbCJtWMpywWiJ1ixlksFBMaxQ7DM0DOdYGUElAs9INBKLICoJrVwFkZQcG2VepWTjRQFw4qqmwABNEXnoMCGCI0y1AGIGZ3ndUBAmGbVUwIGmTNSaNMABRcFtMwAGAAAAAMEAQmrLAAAUXBYME0EXmWAAAS0FRQxA0InTPQBA0BFxRQmAgjXHUYgYgjTHQslqeV6nEnVw9fnHskhTkWaztKEKyWS0JYnKxBKHZbTlACUOylSlTYQMsYyVDRFTVjByiaM9MtLKAlADOptKTSsAhp1TTgAJmpqwIAAzuK1AhNMM9M60BQxA87g0AAEPPTOracAM4lpdWxwhhOe0UFUZrQjM0VZUWSWEFBncaAAMQTedFkkUQxOXVkI0M6gSRq82W82VCRq4DMAYmAAAxNMEFRNCA2SrDONpApkFohaQNWEFhE6SS3RBYSUjOyiCwgtGdLQksILRnSsRQSrRla0JLCZ0F4t7pJLCSgzpWSWLBYZMpAprmaIyLERoLmaMxKaC0JYdBk27AZKhqyahlvMLIJZ0yuzQglskJvOjRJFkMTirNCXKxMlDqgIACc9JrQHCADLXKtUwQEGemdaNOEAPPTOtAIYAs9cxsYhoIuKppw0wSapVNAwhDkjTLQoSKEEXnoMAACWmUACYQAUJjBBLk0AMGANMAAaYJoAKkBGwBAEXBYAACmoLaYgBTcBU0AMSYRcWNACYRcWMEABFxYNME0RpnoMAADO4sYAxBFxYxNQAzuLRtNQCIc3Y2nKAGdRdlASsTM6mrGBKAGd56UwIEwy0i7BjlQwypXSKCSiMbV2JaCwWGRTEWEFhkUAWEFomdJGMBCHLg2M3FqUXBNa1mRoZsqHBqSxiB53NU5qAAJqaKmoAATDHSaAGABlrnoNpiAIqbGAABDTBpgNEqpKYGQANMAAaBgCAIadjAAAU1JYmAAouC2mIAIqQpMYgaAi4sAATDPTPUBMQBF56DEwBEaZ2UJgAZ3NDaBoRGmWoxAxCxedpTQrAjLTPSygJQAy0z0sYOVMRncXYwJQAyuNLBpygBncXY2iVgGdxdjAlaaM9MtbGmpQQS5um04ARLRViIYmJNFpoBARplWoOEAGemdWwgGCz0zqxuJVhEaxSLIh2EK1UFuJbBNBnc0DQMSJ0yst5sshivKjQyZoZMKyo0cBYgUtF1LP/8QAAv/aAAwDAQACAAMAAAAhJhR1NNDjzLCuv2iqGKmSWeeuCekA4YoCigi6AsKA+O4koEckIQgQcsAUcss8wA8cQMA8UMogo0Kq442qaySKKKW6iK+CGu62Ca2Cx9tPz/nSSKCKa6u6C+6C66SCWqUAgQ0qSUCaQCy0mOQyioIyoww8Y04oQoA8sk08Mw8AAwcIg8A+K+iCGOCiSyiqy6OOmGe+CC6eRPqYCkfS+2EmSWiOe2+Ce6+iQgUAEIsGO44g0eyK2qwSCo4CCqCQsMcQAwwcEowg0Uow0os88gACSGKWOiqK+q2qC+2SWyO6S6G6B/NlvSc2qKMc3xqy2eCCu624wUIE8cY8O4Qk8iSs8oUOaA8K4EII8swEAwY8UEoQEIwIwo0AokIW+6iaaC+qiySC2yeOmOSaC+yW1p9rxAWG626+CQqGGqKC+sQQ0Y4IM4gqCK+eqCCW/ZMKSc5J9tEQscQ88AEcEIARMYk0AIoAgk8+sCu8eWaWeqKKu2mima+yC/b+VBRJDP8AhortqkkBBtBNrsMJOKKNKKMJLirvvgkgg8yzFglNi3NbNICJLAEOZAOUTQVKIAMFPPAHPuOqgKPqqgltupgrgvl/lg3z+0aUdfWwiigkvjmqgoptnhDGsDDnFFJGCnnLvuluhkosFjnK4rMIEAKXPCILdLKDAFFAZAEHPIJKknlggLPmoghhvmiilml/kv8A/wD/AFKQQcYwjpqkpktkphgkosAguLvrHHKNOgjhuttmmtvhOsqLDJEKBLLNCCBIAGCMNJIHFFPIONECNCBGKEDLCriogglnsoksjtsstvMQQQQQ5tojoguHgnulsrEJOIDOMNPFDnrutvkvqvppPokrjomvvhOBAINMMHKAAKAIMEPADDFMMBBOAIglEolruolgkkjjji95gqFQQQQQ7pounktolipovhICCPMDAHAOMADPotnrpjnjJjjjuttvntphGDjCBNIAIFLCAAAKPFPICGBogKgggktvgorjgiskmgw7iqGTQQQQ6nqpjolrsghmriBMPLPLFKFFPPKAornjivvOLinMgiGlunGhJNODFIGKCPDDKCMADNOOLLDMNLjjMtkrt5qjrvrjigguotRfaQQV+vvpjinnEpKGDMBHFFPKKBHCPKHBqnksqjiquhpCgrlvmrgoluhBCDAMBKABKAAPAAFPDELNHAtrmsotv/pjjpgvlsvnvlVffQQX4rnhughqqlOHFLAEEHFGNAEPCBCNMJBgtvjrIgsGrlCjnurnFLnPLPILHJGIABHBBAOENCODBAgouh7/AP8A+uf/AMp+hktkunUffbfa3iojjnmgglpAMgBALCAHHCEKPPKDDOJjkMghHjCBOtFMOMKNIAPGEKJLCJEBEMPOLPOCKKKCGJBkHs55jgqs88lzoogjvvQVfffQ3htppjksPoDIBLIEGJDMCAEKBFKNDHKgovgnPovOshCAuFONAAFFOGFPPFJCACFIJBOMNGDCBDCFLH65nsmsupqtgjissvTRfffV/hup/iqgvtLJHMCPNNDDDBGFMPACAHIBJHjkDgrPigODgKAgDAALAICIGFHPFEOHHGCEICAGILABBKw6g0hn4vhgtvglpqcQVfff3rploosotvpIutHAIAIBCNOMILNCICPDIILGMLJOohigkEtqIAIPCHLMPNOPOJLAPIKAAIMMGOACODwKBmFtprjjrjrqgoaQUffQ4hhupqpvrtEBtvoJBDHBKDAKIPPPBIPojLjtOviAgvggtCgpAEGMMAPHKEALDMNADCFHPLGNNGMFAIfPPCGpguPrhFhtptaQQfcR6vvllnlrrmmPDDCJCDOHEELBPBMFMBFgmougHovvgmggovoklikBSVUMNAIOPCOMPKEIFPPLAPI9QRbPu4rkjrNumuqkqraRScQV5iguispgohtKnIIFBEENFMMIHJCEABEHGJprrrsAsvolsugpghnFAEKAEDCEKMLAFKADEEMNIAAXBHINPKErmgPrtlrunvffaQQT9tulmjiEsrvMICALFCBDKDCBAnqAFHLDNogvgsmgphnjlrv3gtvKAPHDNGBPCEALDGKAFNPLDIYUIRNLPKCMpnrnjhmovvcdffc1hqmsMIkKHoFOLLNAGBOFEAALPDEMIPPOHgliqgpktvvyuvw4jtqqgBPPPKAKPKHHIFHLCIFKNFfbQw2Pu/IgqnvtqnnlgtQUcYQygppjpokjtritOPMMLANGNDCEMEPIMMPIEAACFPGOhktvov5/PtptpCMMMPDIMMJMJBMPHJFPJMdXAQTPLEIw4sshsvvhgnYQQQQwsvkpMvtALhlmIOLnNCFODHPNAJEGEFHuEjptKgvjqhrgouo/irGPspPANABNKNDLLMIAEGFALHFPMAPNPBOtrPvjmgkmhtSQTaw1oniNAODGJPMLDGGMLBHCHMNHGKCFPEPqlPvlEinAgnr+vqg1posu17MCAAHPGAFNPPOAGMMMAPPNAXNPOHAglrhgqnqksnfSQfwgpvqnINDPOAMLHDAMMHHMOMBGKAEPLAKIDDENIHCCtsnxvolsnlov9+BsHFPAAAFIFPDDOHPACMAHDaBPKKJiltgluhvqtvffwygkhMIOBOCFAPCBKFBAKHPGIAHKAIKANGMJHMoPgjoPtsgjkEghthpMgsAIMKFFEMBMEICEADPPEHMJCIOAHNLBnrutvIBGMISf6wgglAKNLGFfBBPDHpLBKMPJFONJDAKAFCABCAgpKvoEsknvvAgmgqojz9PlDPNDFPCEOHBDIGLMEFAKFLLPAMPvulvmpigHChWWdjhgmHKIEDGOEADIJFMABHLBABICNKBHaddZScfSbNqBjqvghslrkhssgnCgmLPLFPOEADGJBPDOMAGCAEBAPLEPvvvskqlsorUQ3rvtiAEFKOOKBDFAEHCAHOJFAANKHKIHOFPvmglmnqpvqitjigFlknsCOLKOIIPNGNBIOMDMJKDDEEKIBBFPOBEIEPAGPqiHJIQctvvvFRNJbeTfNIEBHCJDJJGGDHFGPIAAIGPrgnjhMstPqtrvlkolgggHnjggmAAMDAHAIEOCHCABNPBCAFHAAHBnqGApFkpuglQwlvvvCKHFYNHPPDPLCIPLDCELTMHUIJTMVLGFXfVZQgtvssssktjnhwolsgjgrAGNPAFDADCPMIPKGNutDBOFDAPvnKjmGrkpgu6gnvigCPPGADJHFDJCCAFLFABOACPDPOPCgOulimnujqpjuvnqrvjgPVgpqoMiIOPCPOKAEEGMFCNNJAqONDDCCECDMFOrKgugpgotvvjhGQDNaRWWKGbOBDGPFFPNAINJPAINuOrmjuiuAiknvugguhvnP/4vnvAmtBhFFPCOKNBHKPO1qqhmostIEDAAGAAkPurhrlwhnuvnIaJEQBBLADBDPJHIIJHPNABQCCJDDKGpk9iJunhtspitguvpturdbiAqiAgrHFAPLEPPuIp3HgqqgurAvMAAIAArNqlgvvAkpvvgAaNNQEDPCPAMKOLAJFPCAAGEAMEIhmkkolvitmqIFPMINgitmrhiuhsHlkGIENIOMADEmEtvEGsrjqmCmJDDBAAGFjmopgSglvslKdfVQQdcdILCALEADECCIAGAABAglPnhlpgrgsolquqmhihspojivtnrnugqKJHBMHJHPCCBBvhBrrgBhIANDJOBDjqnqoYwlqgmINLGKABNZc6ddYVaMSYQQSQVeVdOGMOsk9m8yinukjkrmstgikmrsrlrkogkPsJAAFALNLACAsgLnigsroAnEMpDFvqrvqQgkqguEAAKLDEPIDNAMNIJHIEoPqkAConjurglookHjgeIENDLNKMEOJFClsONmPNIBCOAAFABOLFBLjtGuqChmAAMDDmLPusrnvSzgggqIFCKNXZLOCOCDHAAKFAgOrhOogvstsggqhqDstEIqtulmrpogortrjuunPvlPqqAkpBINEOFMkpntijnuHAAFDmjFsvtulagggtrBFFPAIIHILQVZHLCMKCJVe6doLeAgnsnrjnNshaDohpulrjsuovosltgqNvlirtPukEMHADjAhmgjrtvlkvnlvvuigrvunKggjqgkEHNLCLHBLELBFFAPAiEBisggngginunmgpAuluttgqkCkvjACBGPnvhCAGEPPCAILCDHAEKAggksmktmhvrljqhuglvtobgglruuDTaMPFCNFDOPCNLDOqIIgpjglgngggjtqlntoqvkrmvgmttillruliqglvtuumDDIIIOPHBCAALDGtvvjvnlrihrOKJjn6lvuoglbCZReRRSTWELaddVTLQeCDXsm84oxsk2umspjvstmloijkhvonrjnpghjutvnoBrtBqBNqrHquv8qqgkksstshtutgkvvlsssgoiHIOFKNACMBDjKXkILvtigoTglhkq1olMjnkrpnspishunkquOPIFPPEIEEDNusJkhBloBvkAgmr2lggpkgnqpillvggvjigksolpIEMNOOHMEPqrHDjPOpIKtqfrlmosoggEotKghkglhglrjuoluqlmomgmuvgksqhnoMkMHvtOFDPtFEJCAFPOMKFHDFMFNokgggvlYcUVXZRYcPZVcUUNCAEEOrPIHKhsijnjgmKgnrtmrvqokvggllivtvhqpqoguiw7wggstqlglsPsrvvrGgkrigqDgskvimggggguIGCEPMKPLBEmEPLNGBiHpkusljjjnnkvnnCmpnmugCiphnunjppgtqqBBnqLjpjlhpgrjisr8lPyovo6IgqqgpqgoholntrvhnlvOEJJMLKNDEFDEBGFKhgFvqgghvvpossotiEpigjoqkjlugggknlhvyrigkKlpgprothPIgutuAjvglvzIkJIHILPHBPCnEnrkvuuIUXQUZRdaTQZfcTXeKPasqruktqkiniAgnDglLnumogkpnkvgokvmnioggqglnjqnvkstiqjjssvngkpsggqssiggqqgsArtjvliAGGPFGMLlBMIcKGLOotDjlshjslvsgEIFHLLJMImpKCKqCuolKlvqjiIBkJjktu7nurikltmtohklAhqgpgiggnghqigvBsgksmmJCLDviAGgODLZABHPmjqgvjvkjusijqhnmPntogogihgggugtopipukqogFnrsjhvjrihlGAJEojDjirHFuDEGCFsNOLqKjpigg6ZYdKJFSURVQMXcdQYgtOEEOsmuqiNmqnuqAtjijnhmtkgjPvvgooigljghgtjrthtvugnvvgglv1/vvmAhjvjqqggonoiJkqtim7NMCFhiImFAGNCCoAgljAjrnooDDPYilornfLIDiuguphqhItpGhmMOvkMKlptCpimstgvptjhhgkpjnggksvrmqggqohoOqpiiuvGvKIsgAqtJGGKKhFhtqktlPuovvvluqhvrAmtjAHsPnmhuNqhNuikltgssglshitlvvLAIJJNEqsIIOrgthEClrCninrqptlotoHMWaYZbXXXTROQeTeMgwxktgijtltkqgnvumtlhCOtusijvAgmNrrqgkggklqlvvnigjvggurnlrimggjggpothhgkEAgFlkqvrgBEpvAGNPPFIkhGPmIkhMdlgGhkrnygshvisvrtusgtqoINLDmpHNMMLACBHjgmvogljkoolivnsvrgggvggqgkvkgngjgqkiqotvDDKHCKJNoPOpiEpgChugllgqgrlgqggjPuLgACiImvshtjpHshLqgsqvqhgGgtEkIMHlipNIMIHAOBEBBIAMMpogknEOpsroqiggLOMQXTTfUaPLJFB0QnolkqPvjtjmgggvvgEkaEikhqgiujilnnFvsgrjsirMokAgjlvtktuhgggvrnrglvljiovgvihmpM9llvqpAMOMMALKgsPjsMHgHtrshqEkv0THHGtrolqqlltuiouHHliBgkEtvgtjuisBjlCgoqhqgmposqjkttvvnvgshvnggrkrup6glgolNOFAMGnNigOtlAriPoghgpshjmigitnvggmgAOvvpglnlvpusmhqqgxsghqniqCjrmluAHPJpoJBEGAMFOJvpjngjvnpkt/sllqnJIDQScVff9XYFTUMBlnXYirluqjusJgkjDHnLPsPqrjvlsCqlklrgAkhggonvoIulikqjogljqqkjpghisglgssgonONDCQglkhuHKEFLGJEkhToqDLXRC3YzVRSSZfPACmpEolkrnrnnYhSZoiAjsGgvPsipghgvsAolsjqghnAokogggpjngghggsggrqgtuSvkiggPLKFFKFEqoUolKHKKCvoshvtvtutjjjsNikpF3voputigwLhPBnPlvqsNpoMqmJovjrhnqPHKNlIGNNDOPAHCDAChsjjiPSvhqgqOTVddEZTABQBMSKMWNPDDjNimphimtnruusvsjsvMglAvtsrIKgn6utmHvggvlGgpomkLivtihqgunrgquhgqtgrhgLLHLRuqvvmPPDVWMZBFOSAuRffeeZUTXfZVdHHLUMCYHAMtr3hl7otEuqOqtErnqlsONHdiiIguA+nK6vgjgonqlgsorgilvklsmvqmltpqksOcPLRHCAMEHdKASoheAKRBusumnhtsjmvPtiglt8kpoMhIksHtpJgugpnlolvpgKsoDLFuFFOGInPOFCHOMjihvvgstmlsorgqggPQXbXVZGYSbbGAVEqSYMaX1Qvrt+nm3nlIgjgvlFungguAioIgsFilisqfjjDgiKliOosvhrpvlNuoqlkFCjnlrkDFIICgEliqggBUEObQFXfQVQZQfKEZISIcc/SQPbASZTRaGTQRwUCLWDoSKLfCBctriukOhsPtnKmpAlpHrjplgEggCgmlIvvksgvrmgggNugligEAALKBGHPAGPIIHPBAAhdLjqppglp/wBrKUJJr770KJrZZIKLb77Jbpr4IALpoIQE4rngTCBy0iygCBjjTwgLL444L7J4II56o5L4hCgCCwhhiyyTyyXjAjwy1T+uqorcbr6rrFLqbbrXa7a75YIINKJ8oYqKK4oKgJ5DYCaaYKaJio6wJqyL5ZAILgRyBDBCgAjLYoLzzwwghcSlNlUEkEeV0kH2GX5Hljlkz03iJkYK3h5097bqTWJ9XDgVCKUgByARA6bQ4r35zj76w47wobB64YoLarKKbYJYIK6p4JbLjDzzhTwyzTxXwABLighDSRjijBLIIds76EL4YKpcIYJKbKI6YJb4oKAJKA5oKazTiSWCQiCByTSTThijSAooLIIbYoKoIJI8NapJTwhjRzzjwyR1jCDAxyiAlARUxxTr68/LYMaId65/qLJJYIZ4ILbrIKIIKbKKpKrSrJpY7b46gJLyoRQ5ZT55ixyggrpUEADcsIKby3Bzxk2WlwzCyn02nVHGEFkXl20X0VsHV10mGmFsMM+OtnkVhy7nWjw5rCYr4LKpILR7JxJIAwIyYwT6KJb6oKpb8evfd/rMOs5rBkjjBQQSzzQCDQwjxQgBQjwVTTTbJrg4br6rLLoJ7rIJb4rZa7KbPIpqoJKIpIJSRoAhxTB7jCjxwhSJ7rr6Yab7r8+9vOK8sLbxiEwxAQAj0DBWQyzTyhCRSyRWhTzzbjTrGKL+4Lq77YsJZ4JJLbb4JIpa4IIYQpa4JawqqD46ooZRKzxAhCQBBwygQgQCiBDuMPLYATjFlXAQ03SQTwmDn2QSwRSXUX32kFnUl33VfYjjSyTyWUDzKpJQpwA64op4yIZwIKh47K4Ib76AbpiiJKooLb6qpb4r755c/sJYhQAjyhATzxwBTxQADWhACgTRiRWyAjDRWooJ+bqrKr7qZcJL75rrKr4paC47LrJigAQgCgxwDShgI5hAYjgw67qbYL5KL7Z+tb5KTQgTBwBwByikzxAwwXjzyQgRRjR1SWxAGBpIpaaJarL6rfIZL66IKrapar5a4ZKorZjL7q5pjq7RYJThRihDQQBRixxwDBTrKIrZTnTFGE2FCDDGmH2DS2HE3CAiVWlFGGlDUgk1CADWw02HVklmYxT76wSp7SrK6L47qKr7qaLDxxKSKYy57aoJLb7KbIo4b4IoJL6IiwSThCi4IBDTAQhTxjwCUAzjCBTBBEhBByYqIK5LLprLL7pIo4La4K44qY6rDCQjBhxzBASSyzjzoDSz4A4IBqJa7r4p5KK4IJoKLTxyxwTJLCTATDAwAgizniBjhBRTwGSyDQY6oqqop8IIIIKrpZ5aq7qLYb6oIa55broLJyTyRCDgjIhqIgipDxwIyDiRCwR8I4IIIAAQkhDiSxRkTRQwj3Dw1jBnzh3AwUZQWTCnhEmHH3n1VU2HX3ViABKropLSp75b4KQpKhACg6aaYqocv4b5bqIKp5ZoJZJxb7775RChSgQzjBihRBAxwQTCAQCFhyBCCTo5RYIQIL3bqFLIl5Kq7K6pLRY56xzQgShjBCTiQiQBCQSjx4TLN7b5ooJqL7aoYaqwL76rRRCACwSwDDQAgCTDThjAkhxFBBmwTioI1YYGIbm6pFLIX46maqpYJzr7La7CpL64q7Y6QQAxD+8gDhzbyCirILrIiJpCZqyhra77RThBTTyBEyxCyhQR33zxWx3riA0nG1gSHDjEJ6l7LJ8F3jH3HUgoYy7oRJ4AYJL7q4KaoTDi0ONvIxD+s65a64LorL6Z5zw34rapQgACyhDxgBARAATDiX2AgDAfwSUgSCQ5VZpHoKlrKJaoEZbx7KAIokL4zAyTzCwhATxZBwxixl9moyzarzqZKqqqopL775pX7ILYCQATCxyiRTxTiBjDxnTTkBDtDCWRQ1iZE7qU4aFqZ46pHrIzYIRYLH77xbZAIKD6Z7apqByhzITSDATQzgRgyZ77KaqDABx2oIJapUQwznyXE3P0UT0AHU3kVmFliC0l3lDZlWkX2FEKIEGMmYAlCxBoqFbrzI7hKIRaKRZ7455LJNzxrDTbLJqJprJKYpLY4aLWoIILbkBRRSiAnyjmQhUBFnzx0gB1EQn7J0d7XYJOoIlromo72oKPr7HarXKA2AghzwVyhhBjzShTyqQgBBhLKxKbZ7Y5rIpb4oL0Ia455UjjkEzW1A2FjhkFHnHE2QSGHDVTJHao0q4W4oEpKVLqmoLWpKUoLkIZBaLio7hz7YIJa6whzKwThwQByxgAjTwRDRyLagoOp775ZkVn9uX3FhE1D1E11FmnM13WUllVAkI41shGiZ0b/GGlGrIUY5kYY1r4xYbi46rLZwoZ74L4IJyQDCSoJ4KYT5bSbo4o7ab8JI7JaH1XFWEn3R1UTFk10m00s3mHTCFAi0IaHbqWLaDbqnaYE5ZlqaNKrHKYEKoCDCCxjBbKwAbyJbTgBAxYaprqwJLh6r4IKqr8Yr7KpX2lVFUVWkk303G0nVF0n0H0DE0mAnjiHo5mLqnbbHZYWoI174taaioqyoJC7rAY4pJYT7rCILBhqDwDzhBCzLrhDrY6qrJM7bqojkl3FnW00G1HEXV2lkHXkFXnEyTV0nDD0jRXTh1IKUoU0mLFbqZZpU7pgoJTs5RA4ir4BYLLqID5IxyaZYYr5b5YJI54Y4aO5apbgGF0F322m3U3nnV1n0X0WlWlX3X00FiiGAJmpIn4oHoKgZqWoJjR61ABACCjTSBhygJYiYqJIZgoJQL75boL4q7oYqI6aLZOoK4KKn32ln32nFn00lX3nEnl0kWEnXW1XkUw2RLUIKlKaWoLGoJmYJX5Y1Z5AIaR4qZY6Rr4DbIzLIz7LxJ65LLbrrqZr6brZK7/xAAC/9oADAMBAAIAAwAAABCWOds98B5IbvNLuNPONO/N9cc8pwzBQC7Jy5piwZR8PShTwkk1W1FG03lWXn3WC0VU0H0FG0XUlusHme88+ucccsd/e9PtPsN+ddeXe4kEg7ece++Nsc/+NPNsufddawCDAjK4zJKgKcA8cV/u0H+n0kkEUlXknEW3WV2VHEnnF1mV3X89dPcPNPO9vdcsusO8vMcOetOXWla9fZcd82svv+vOst/t/wDaAAwgQkkiWAEcQfjLXfJvD1ZDXXrFFd9xhVp5xR9FZF5txpp9BpRDPf7/AN8x2wxw1/690/8AMt+cvPPlyjJrst/88mGZD/8A7r3jXSSUgUcSkscc/IUwIrH1lB0LX19rNRlRx915hFDlVBdVttBR5NVB91JDjnL/AD7w/wB8+eM+dM889Ot8vOv0Nclwl+u/O9cO3Pv9dsMMFgwRST4TSjsMv9Mv8t/5TkOu0FjQiV1G3l1FEvUnH3BcFWUkl32FUke0svWdNeuN9ed++e/ec+vvJZUmucvArOvdfvtNUVMVROdRjSzSiCRSjC9sfcvefdKqLV8cXY5lT0Sl0mnVG4XUziUtUHzHHXGEGU8Xsc20/wDX3vf7T3377qHXAd2KNDHb7E/TbznzHvrvvbLjEwGAYCEcw8UCuVvzvrjDDX5rzVWTY5tltkxxBlm9tJpddVcJNV9BZZrbnXrV5fLX/wB70xw8x57v7yFRPNAw9z3N9y6y153/AOc/Odsz7rzLcTR3ijsNMctMfeO8/UvO1UnSmkEQ0VHlVHG0l13VGnSlVHGlHUlHVUHEHXdPfcMP+8NN8P8AnHXfYbDDD7AzTbX7Dp/jXPimkcsc89IU5ggP/XHLrTLXf/5/jHnD/T/Ht5B1Nhxh9JpNd9ZJNlBxx5BN5VNtvfpTnfbz3/8A/wAdvPMbr8fTcMMPMDPuvu+d+vecs47CSRATxBDhQz0VU8c9tfPd/WNNcNdd/ssu9kkMlUX3nVU1GU33EXEGmH3kf/l/+stPNMOOs8Mu++/b79tQ88MMMAPMt8NfsMeJZO7BDSwAzihUSjmkkOdu+P8A/wBWd++T/wDi/su2f322lH1EGm0XWF2X2nEW3F30F32sM0++ddK//wDPPjPnfzDLB7/rDDQX/wD8npjuCpLJEPGLALPeFecIEYXR6+08w6w42xwew78486y4w80XVeScVaQRSQQbXfdUdebZcVy37885zl3/APsvstv88s9WvvcMNzud85MMYZYShTRCRwBzTRAxixhiQkXEMNM+M0MOy+clv/ssd0kc1UXkm00VVkEV20VGW3mmUXkNduee7b5O977sa/MdufPW/fO/9BPtNqtc+KsKjX9xHnAjlknWTwHRTmH2Ntm/NT8VQW9lk11HlmX1Gn131nElFmEU0lm1UWU1V1mlul/a7vOdsY6sq/ePcM9VOMd/+iPJr7ZaKSJwCBiRRxAwhin1Aj3BQnE29/e8tz+MzuOHX+EEnH0FH1X333nV0UUGWWEWX0lX0VXHW2067+9+P+Pd8OfPc8989NfvPz/uId98+royAAiRjzTTyChSigBTDjwX3kG+uwccD8u3n/0Ev0E1Xn2WGEl3U333WmF3m1nkE00V10lP685suo8P8tueeOufNP8AvbEffPWjzn7H6k2GAUAMcNscJ0wMIkY4cwosxx8ld8fjvDfN775dpth5tttVJRNplF1BdBxBR5h5FNJNyRFbxnjfvfjfDTb3XrTv/jorT6WiO+S+sYmK6Etw4hAwNBt14IZld3rVHHcLXNDDzPDhfDltdxtNlJJhF5bTPbvVtphBVJR9F9ppA9dNtn/3xDXxfL3P/DD/AAz7I8x1j/yluoqALINPLHAJEDcSWZIIfeX46z+6Ow3/AMP/APLrfjTrjxQ0QRx1RR/HHL/hhPBVB51NBKo8EF3GPLzvZPXjDrzb3rH/ADusC+89kz2tn/kK2HSVQUUdPXbfcUMHNMIGXKth/wCMGsPtuOdcO9f9kGkWk0EEEff8fuVlcF2kEEHWyk1lnnEGeduXOd8OtvP/AH37iCMHD+qWPIrLu4NRpBlVBFU5BF9zfAgAptd7HLfDDD/73vv3nCznHRZRp9dhtlp377/9/T9R1dtZUopEF9VdhxjXTjT/AK5583z2/wCsymNYaQC8RzMTizyhhjBAhCg2XEnEkFjHXkcPPOsOsc/vYtc7vs/cetXTHVl2m1FWHWEUFnUlWk12zBb7V/qnf9PP9+ed98/cOc9/xufde4NeOcfY7EVDEEW3EjlXm3HABSQBBgAiiCyATcuPtev4L0Ps9OEwkU0E280n1+3W3E0VH0lQwUBDn20WJ78c+ucPef8A3jDf/AXrTbIzPVZnuPh1tvNNBBZV1NFhJpV1ZfFPPL8jT/zXjzzr3e73pp/fc0N68oaCKOaUWXZTDFx5tVNJB9xBZLHNXzrTz3jD3LXzdevq70M8kkEQEsg0eaBZZlch5pYphBUUt3/JnPc/Lx37jyP7jCTT3eOKsVJVhdVxhfz151td9tV919dA51FtlT7z73zfjfv/AM92/wAC9Nq9ciDiQzgSxCA6GOYmCrg1DFATBiyRQwggAiwFQf8Avqj7j/fHfGe+YX5tV59dBXbhFNNtJBJ1JxRMhtxRpPLXjv8Az+11y+0/Ps8xzAGPGCOKBOnuFBBQ8s8yFPYPYVFCGBTaIL3ct83Rx54/zb7+w4yMz5KdSqKILGJkgPmLGNEOMGBZaUYSWWbX+4967WZccW/8agw1+JMFDME/iHskPIqw0hlKsBALTVPKKQMOPA08Pwybzf3w4c+zw73jqiQ1YaYTqScbQYWeQTVSbVaYYUYQdWV//wAcOeONUF9f45s8dOwBTjjCwASrCHTIDwKxzaYY6LZIJW0fdu/fNGhsXsMscNNNeNOvIv8AZbrI5ppJJTt9nFZVBdtpJpB9h59dpt/nnfPHDTXv3iM3vrfMwso84soEsVBAgIUgYkcxhcx8oMRkQ+6+CCqfrfPbTTv7pfjfzBJcMQMm54iq6G0KWSwm4w8cdBw19BVF1Rl9pNJDHZp5C+Nb/wC3FwLvx/09IDmCDNpAHoBFLGbDcaPPUDN/gnnpLz/T677+5wzx403O93ww/bfdefQbdfgfdbfbZSfdQVXdfVe4xYQwV014w3lP6+40AKGDfCMNODAFKKpCmiDG7LI+vv3kxiKq2QZRco78x8/36/x1yi7s2xzw5VcVaafUWc4fcZQWcdx6cTcQcaT2/Qz3T51175I/47//ACDzzbTBiRgwiE0CBhQHjQDSgiQgyMSqe/Osqpf/AK+v3fPtnPtwfqv/ACS0aZYQxdWdUZaadFVaSR9CRYZMbaNeUZd0a3yy1/Yyww8+G2vtz1x+thymjFKMHIAPALNIHFNJhDm5393kH861z8/35b/yfln9y+Rx9R5QlbTbQTOccfek1100889UUfWYXHf+Dyw039F+8+78KaJO4OFDAIsjuHrIEIEDAOGaEIOEIMOjl7kHk2529owy/wCfN8OPpqdEN+U8sp1V21HikdWOYnMeP+O+H/3mEGgkOR+utfMP2+/+uhWiBMawjAjzjRAyQCSwyjDwCzxCx7rLaYoJb7r7g12gQwdc5Zud2kcPVNeUnwQGk0kw2PnOc219M8dsXd2EkVU01jNvPtMIn/vM9Act8MtdsMhaYQSCQwSwCiBChDwTb+DJ6bLbI78+NPf9O9ffsOMNvPMMuMMf83XW2n1CklAXHns/lN8d3s0kHVnX2Hu9/uOuDevftRAhAIgDiff1NfccFAEkXsXn721NgThD5YNqP84bO/8AT3bHTjvDj3v/AD68x24xQ8TPffEUSOXQVz2W481z63a3cY0fY/77++gf714+DEMBIBIOLBiEEOBCDABoPqiFKikg53vhkkuHpuREJMHEGNLDBKMFttLOiLAGZQbPfegVWKSW/wAv1ft1PfkUnWHsHiMtO8stjPcMPCSgiw2FBSDqARABTDSR4jq4C5coc99//wCiTAXPnLBDjDzXnTv7P3bbPPX1/wD7b3xD3/DZb2ebb+/yyx29+QXdeU04V4+65xoVz48xLDAOJIAGFGV5/NIOHBAOTRwcrIQNosx+iu/G6XPcY564+4w48538x2808G/2i+wQx1GcXSTzQ+39817/AMNu+M/+vOsNdOf+FPM/NLAQAizjSgRRgBzyADgLwCih7/8ArKDGGuGq+0/TyKSOGqAHfDccoA4GHWAMgo09pIhtQ9RPJVp33bHP7nLPn/DfPzT7f3TjCFDDHbmiHjkwMYUYogoo0Us46M0iyOHjGifKT3WzfSXb/wCy6wzY4yZww694+w86++9998+PbSHeafXceVbUNV87w9//APc+e8jgB/8A0BXznbSnEDTv9VDJdoYKajD5MZJYAtui33e3C6jWn+frXjHKbVPjdXPX33LDnDbzzHTv7NjTd7FNvDR/vDez7/8A/wAc8+Meve8se/Mmk88//YTzQSChhghhDIj3YBwZ7IoNl7abdO+e9g/PbbKKIJYoKa5xaZiARiASwBCTDwrJic80s9HvOXf8uId9f8ufs/Oc/vc99de9vO898LSjQxTAwhTiqJQw4ig6xSrYF67JuOKfLS982vfocMccEfN+9+ssNf8ALfPnXvrHjXXbpzJN/Pg5kkHVRhZllU4I4MEAQIAAzLTX/wD/AIsPfvd+k0USXVFH0gDRxgyYCxCy7/L+Io7NQPc5NscfXpu/d/fr8tdscNduetedar6MtuNvePd+V/O8P+mcMOtvckMO+dfN8NMNOYywRQTTyARSi6TABTQg5TbJYsMbP47P7q8+CuJb/ebhbZeffoI7t/8Abb0Yzrpn3jXHDHTD7zvi/tyL7Pidf/nf/rLDvzjj/fH3HfGI4UssAwAIs04Ak8YAamgimWDDG/7ybHKfLgjDKHT7zriHbnLD1jLe2nXX/Ze/zLnXXzplb7bb1rf/AP3/ALF/3lWk1HgiB05SeuMPOZxPMNPOFVUNfP8A9jbPYQx+GWu6aHbGLfkzzhPXtnvzLX3DLb//AF6zx/149/66ww9254651+79z+8z05r9yyy5y887600/81k30z/7pLGNCEBDJrBKAcNCLNilD+641xrx4s8UCRFLBBLNqrMCAsHpooLksvy1GM7M6y89uz/585214x094/N+6v67m90y6xyyw1oz14zyvLGALvjMDgIPM7AEOMhmq32y90j73i8zxy2I99312nSx9/wi0yq065+xo4wMzw9557/436hNNbVwzeox3ITzCPeYW7cVatv1w2/00VRcMMNcQy5cKQ/b3UstFWbZ2yutyPqnm50M0xyzYm1896yO/wDI8NssNacNN9vc8MvvudeN/wDf/LK+yzzk/wC4sx6//wD8++eQefv/APb44woumsm0EwMM4Wsa/wDiIx8ovnLCJUjrqiqcEABinsjvnq4I75Ny3EO24FF72xF42wx218/8793822zz9s72194/77wy01b27326uNlABioBhhANOCPrN1z94y1Rx8369h++h+6K9zjwxO+V5y/G1wG575620z8wmu3ohuomPLLCLYe1+TCJyjx5YP8AuHvcv/8AbP7jzb4gph3fbjHFtXsjRFdw+ff7qq7z3bDiT7afDG3H6T3VN16bzITjITvzrTDD3TTrXfbDT3jT3bPHfjT/AMww/wAON+eN9v8A5Z39W/HzjvwESScMc8kM8KOQ8GEa7cJP2UnquSziS/8Ahh2rGElNGqQpNOFBmoDKMPJEFNIgzyg09+18249322540zyx4w1/0wy7836zw3r363y1LCMAMPFCoCGpoGqnHuzgg09g886/yw/9HZ+Fz5P4ViVw2wxB5yKy0869860G44T7GDD089PAIJPALBPFLPBRd73xx+Ve8xJ0w34wAPKQVfcWTUMDOOH7TsturyBswyv9zgfe8f8Ay5MgkENX9r+PfvewP98ON+8uTON3/wDevHPjT7XvvDHfDDvvDjznvTDP/fr1k73z/rwIwgw04ci6A+eQEi0OiGyaYOeDNEAoqmKCy2osmayuGocyiYWysKK+GqSyOkHDp73ujHTPn7LznPvb3jD/AP0z+w9ww7/8z1S11z/7GPMNDPnGqgCg4VgoAmrhtnjm/rm+0m03FbaP46lcY/1/0/cxXVm10gh8y31444Mx1o1mEMUVphCKGPfVffZ59/8AvssPMNfWvOONfDRTEnlWUHM012V1iz6Z1mJorKZ78sC/PZe+V+tA8FN8fck+gGEe99ENPsf+O+vx+fqMNMt/tc8decc//uvc8sOMO9PnFVWsMM8/shDAQQwDS5r44qghGnRu2d2GEF3FhSA/Mxt95xoJ8v1alGrZDI5h44T7YuPN4PfQ9NNcPvsclMNNsMdMc9dP9OP/ALDDrrD3hj//ALy3KEAKEMNJllYgrIYNPCtsvttpklj3/g/3O++5wC78ZFYbQEzd1wY8S/zyC7xO+6E50gk/ylJIDJ/FJNJODNTSVfXTz7xxzcW++++wE+4z6CcQPGRFCZBCzHNBDiBgqihu5i15qw48bXg3xgV82WUE01edvuYwPz3h36Cwyg73Bw+yyR6Qb5T81223491z5wSCAbgz983rBAJY8IXJJI+Nq+cez++yfSUbdZLOJVIKVIGClW4nlwNhHppPosMprox9AMLQt2GwzAH2Iiyvw4437w8z6w/6++2xz9/35y59z77BXACRHGKODF+PPSitSNAbBovm9uhrxt36Aw2v9S8zaI00K08ESdD2Xg4xr0ws65I8zHPMtFHHOcwBBAFMHQ2w/wBusOMdNOveffP/AML/AJw706o5S86tg8NneeEwT6bmgj9pp2hqAsos/wCCsfQENCcOB/8AkzfmDrVCDYfzofX4TjT7vOLrsbn3vLYNfznzTpZNtBLhPTXD/p1wwtxIfP8Ayyz9dVCASLY8JqGdVGXJZZQUdNbZe1ZHGdPvQBDQLFUIegotAohPv0G15AU1Mzwm34JexW88kdw90w9//wC9f93+tf8AzBWggAQE8Qo8Ucs8gUgIu1QK2GiWK67bu6VK+6H/AJXn4v23pbQv/wBKpIYKqy+t6vR5aa3whBhilSizChzjhTx8+eMsP8+f/wD/AE6x70zaslNjjghsGDlFKWMGNFIfI2yiik7qgmngXnpvplcJ+4z7lVWbj228+n39owwA21Mbxt5ws0/F47D3oC/x4B0zFXRffaWMETy53/ecmumsRr0Uy++7+YVe3/yfbrdXJQSGeWBsbjjQJqPXunsNSg2eNBLLpfAHFZXAsrDsgTlME6+E76N7wF5w9w+0x35y/wAP+tNeP+s8VpDW6bwo4jxHSAC4hByQyhTwhSa5rscP6FJ5qoL8oYa8se8ertdJr8jMPS9e6bCizTGAgyyVxRRwhCB0UWccvcOddsNPeuPr6tOPWZa4pLKK5L4mQTbzijximjC0jQjqK8M4qsdxeo7/APaSTDC3PePzmSX6jT+HLSTXACWuOGrvnYDPV7lpfvx3r5gUQM3XI8ZAviTjv1nqOqzTfj2CGe7vD9pJTXphp/nu0xeEF5tl9UF5frbXD75ZFAcmdNk4aTcvGeDH6u6AyyIzbYNjRLV5n/r/AK311/8AIbI6MKfeOo882uAQ75KobIraWzAhC7ThQzxFiTjZ4qjaa7JoZ456MNqteNucO/fsK9uN/pMOIbaz3K5TCBjOwSyCTWR+v9evecft/Y7JcY9+Y/sGWPw54r57NIbfywRwSbSBQTwdBzgT6TQa3a7/AK6++/3LzSKHCmzvHfXDjnrDD5zjnT/czD0/fT7r8TVNN9k9lcA8oYddJZtwPKGzDhGuzPnWWD3GuYe30Xb0sQ8kz7L2T5bPJxZJVDu40UgwwppYUSCiUGUc7bKHDEnDkH7kHDmnDbfLtv7Vx3+Lbn//APy1x3371/8AKYs/0paT6Z7qp46LhRBDDeCTQmUICg/SwwSx86o4ua7c+NOYpP676rJuN/ov/wA3DiPKIgVO4h4wAMAUku/p1Dl9BHrnrfD3Dj/36WvD7x6e6+SyyeymbUcqM4/og4IF8sISvwR0Y1kKqK2amrHiOavu6uW6jD6n/nbLj3b3Lz3ETXPnXEHXM7Pwt1IpVlIMx54ogwMUbznH/tDyHbnf7iiWrb736OnDDr04ad7jtNXxsdE9xsMQJEd19FZt5qM4/wA2HPz/ADsoZsMMsPb/ADTDt4RXkrHtjDTr/v3rLf77zjPXDDPnPhG+S+yosgCG6W2KqaOe8vAMgUEkg8PA00UKGDH7e6W+CeiK26GWi7Ln/eLvzMgs8dEwl2wV5uJlk3llxLwvzt/TPfvHXXP3HDjn/n2eeuaGEEeqGeOGeiq2GPeaMyhG4gP8Ug8W233OKKz2+6+i+6qW/XHzjjT/AO/77ny74/z7QedSabQdxR48Sf6ZcU1bWabUaVz8/wD9OKZa8b4YrJ48bLbr6t7KsLIOLB8SwdoUPwR0CGH01z3FnXmHGX0xjjuvuNfE9PtMes0c+l13Eu3c8sfqJ/f9+9+cN9OMM9/YM88OsKZwJbp4rg575LYJLrjJ7LguFBiiygLpToJTpL1qZ0bK07pYYZb79yPZYDwzzjQzjATAAJE1h1WbXtkdqctNt/8APL/zjT7fFX/jXpCGaWW2yK+a+r7iKCiqmDawXA8RIskTud+6JCHxaWBWSBKOBiaWL/8AL02z7yP73886o80VcTberhbeae9YYbwyzw6X78b26Y89+w2amstjmjo6sjgvhqk4wtqwj6Qviw449vNbGFcrtapkm2QaAVafbHi2Ej/H0+E4x+x+x898STeGz1s8cVov994+4+y4z37wfcvy511WgPOgklpnvsv1usrl98hoHNFNJxCOLBgQitXAvQz1OELRllJglOulRkgNIKIAIJLdGMqYUYZaDuI4YS0+e49+4x62+/8A9NOPfM+enoYa65JI547rBQa6pspreLS6wieyQ3y4N45lorWioZJbU4Jx4JSpdHMNAMvhe/Bt/uc/9HHmGPX50m3k2XVV1d+Ndcd0GWl+s8d+8/IYYO4s/wDNzLyzCv3f7XzvDKGbLvXQOB589VlfeGdpTNGExMEICGZu/g/X9L70rLgXf/jjTzS4aXl9bHP3/LvXPHLXn7LPHrT/AL760hlqvrv9ikZGB1Ne0ME3PIUQMcrvRyqfhgyhkQhkcjgejlwEtUrq3hNrCFjCKgJCDDEMQbWV8OsbeA0xRz743678wz75zw0y088yzrs+wh+9i41IFySdwTb+MErWH6MgTmhWgoZiuZrufuqdquTvlQs5f61L4zIz7Ic78w1wxSVF0TFALlfeQJESZaNMaEx3d3S41459zy2WY+u2r40Dwsw7z30QbUxbYwbMQgqW2N+GuspyaQSXnhVjqYjwYwyOi4Jy4ny5N7x2/wBsPMFUGU3ftffs2++3dt89fIMUe/MsdsN8fvef8RnsS0PH2MEVzlF9gSvTDkLYHqaVpoC4p27KF77WIetOd3qbX5qyzAgBDhtviibA5/XA0Fn9cvvsj9sWf8MMNp9R/dfMP8MetMM9NXlOMMtlNeu2b3krxFcUzZTyp56ta7nKaVr4HpaWKutVMAsfTddhOsjL/Iedg/vlK9wB/wAQxRNw0BLvxl/j7jKnEbLzrdbPD7znnTpDqfv+PH7zDCB92VQTJZ/4gPA0HE4p2mRmJJ1+1Ci6WPhaakGP0a/MceIvvwDjDDHA3f5FrDuHHHj7HDT+/HS3gb7jXBHjbTjBvjRn7LbTfz3lh659fJxpVN1sEVoCBKitSKRCicCClS2kIPBAkkgEMAMkIUsKaovDiyrQi3ciTvnD/wA4+/05wv35lxP/AMcOv/8APDLx7D/vzfTS/wD606ejZbkSYZTYSVE5AifjoapgTiubvlfglX16WiuJhyL+2sj5K42Lw1G25FpqEo645/16644jmps3x//EACwRAAICAQQCAgEDBAMBAAAAAAERABAgITAxQEFQAlEyA2BhIkJxgRIzcID/2gAIAQIBAT8A/dCmqfpnHb9uPiOJ8B/Wk5+qmgJ+n8n/AEECELAB/tscgx/1OD5kfIkT9TkE8kT9H/sE+f5/L/OAKh9AcF7k/Imfo/k/oQ8nf8bJ3Tg+ifUgkbT3zrtuj1Sdt/sQ98/+Yj9sKKLaHaUX7BOwP/iR4D0S/wDUD7bT1x7CiyXXcew490YHpnusewGB6Z7A9MMDtj1S7A6z6b9G/wBonsDAnqO9L02/Hoz+5D03uKLqntjqHqDv6UeYv5ih7A6h9GegaOyffabCio9U8DI74657bwdu3HHHHHkoosFFSii6q6qi9gaUOLp0489JpNJp7FRdoQ82bNncKVjZHutJpNJpNJpSgEIiihGyfTHqrtGhzDzZ5jjjjjjjjhMdvraWt1dAWh90ooqXSNDmHmzkb+XFnxl4yPG4PUOnHuoWoOYQXEYBDQhs2bOAo8WbPH7FFOCauMxm/PR0tReqURipGKKKlFS6A2RD0n0hHHb7jjNsxxz/AJfxHGIxGKfx+4/j9zS9PuKKIxRGIxRGCxD6QYH27pmM+Z5jjwce0hEIQIhEIootrxEYoIjQ9yLesZ6RwcZpxnYZjMZjMccceTjpxxxx9Jx7Gk0tRRYKKlQvWI9I2cjl4908RsPeTipRRUoqR9CKRi6J9Qc3k444zH1xg4zbMZwE0jEYr/dGKK1FEYjFEYojFsnEQ87hyPcOQ6Jsi/G648WIxRocieZpNNtRUjEZrEbRihGyN05Dr+PUuM0zbNOOMR06YjFsRxiPYOQp4P8Ai/8AVaTS0MlFAIojEYvQnYHMPOXjIbpyG4s3DsOOMxxx7Ls5qLFWoooojFFRii655OQ6Ro8DsDfGByeDjh2NK0ml6TTA8nIU48dJpP6ZpNLAtUcEYjEYjEYj3hzge2MPn+RyHTFsxmMxmMxmMxmPc0ml6bSioej+f5HIdMQ5LZ8dgU44444444444447eKtCIZqfP8j/AJyFMYaVpEPuIfdiIfeCMRcRiMRiMVG/HeHNjumz+RyHQF/UPJycZjMdvY0grTbVqI2jBunpnk5DoC/qHk2d/wAWOk44zGdh4mtK0yUVLI8nY0mk0mkUUWagiMRmrhbiNaxG0dvxl49g6PJ6JxFgxmMxmExmOOMx56RiMRhRiaQX4y0+6VKKKKKI7IwPWPJ6Js4jA7/jLxv+MXGY95CIRDJRGKKI18/zO8sFapRGI9Pxl43/AB3XGYzGYzX6n5/LpjixHGYzm449h0tMdL0mk02lSMR9D+r+fy/z0xxYsWOh42fFDZdMxne0mn3NPvFbn6n5/L/OwrUVIxGlEaVqIwCEUN3xY4zNeKGHj0zjjnz/AD+W3retGmcmYDHrGY4zGYzHGYzTyYxNaTSaTStMlFFEYoootodN4fLsixgdk8dNx7Dz0rSaXpSH3F/MWyjFgc1FFFsKlFFSnnoHjf8AGXjcFiHos04458/yO06eOsZ+44zGYDHHHGYzAY4zHTH1H/Ef8Rj6jH1Cf4jH1HDxP9Ua0hU0iFIRCIRCITxgjEYojEaWPjIeqA0sZDA5GzxZpZm/G2zTjpxxxxiDiKKKKKKKL+bUUUUUW8ooooooprFaoiI4IzWIwAvA5HI5GzfizkeBl4yHGQ23HHHtuOOOOOM2zGcnASY4zGYTHAYTHT1jjhNOOnDjpD4mk/phUUUUUUIiipGI2jFfjIfjsj04pwYGhzDzZ5yNmz4s7TMZmsZjhMccekf8R3pBxNJpBxEIqUVql1VitoihkOYebPNnmzQhyORs5mBwWb8WOMhgTGYzTjpx7TOTjMcZjMcJMZjMZjMew4J5mlGaUVNIxCRZrStJpDXnmED7iH3aiMRiMRwNDPxY4yENDA+mFjmHmzQhs2djzDzZzBjpx070wQ9KojEd0WOYbORs7A5h5yORyOQwcdMx048tJpNOkzGY48HHg44444DqITHHHHTjjwMdoRRCITzDFFStRUjEYXpa2F2/HcHIh3DtjYZjMcYoxiaUxkvXjZGZ3hDkcjZ3nH6cRx2zHHGaZjNs1pWk0mk0mk0xUUUORrzDZs9M+jFjIc2IcjZ33T1h5MccOGlqI5LYPphsjM0OYeaFjM2aEPNmzti3TEY9O9l245pkw+JpaFoxRRG0cBDZ6Q9J49DrNYzHTNOMzzHHbGytw+kU16AsdIQ80N5x070mnpnHiaEcYpiMRxxjATSaYqKCxYsQ80Ng9YceoHNixY2RHGaccEcZgMJD4jH1AZ/qaUYhaiiyG98D/SO4NlWObFixsixYsQ80NlmPBx06GKo0qH4jtueI4444448HgLBEKmkGC/mK1BFEYBYsWLHbHc8X42RY3mYKZt048jBin1h0DueL8Y+REnYsZCx5sWLHBsWLHNjF0ecHHsG1FY6HmPJ24zHGYzGYzGcHpGY4446BocR4KBIxRUjFBYHNix5sc2LHMPNCHkx0eOiN8cw2bPF+MvGQ4OQvxkODY4sUzATrGYzATWkGyOYRFRs9Eb45hs5eLNrSf8YsBwb8WODfjZHFj8bHByFixY5hMdvaVoRRUuiIdw24ScfBt6U8BxWmfix+NgaHIWLFjmHnI5G/HYNnI8WcvFjg34t6X4v+3Fx054jjgOmDjxUVqCeYoNo9g5HZNoq/7YqHBvxfgZf234y8WOL8bIyHqXBmbez4pz+2/GGleMvFji/GyMhmfTmzsni/F+LOXjLx1RmfTmztqeL8CzwMvFm/GXjIWO3/AP/EACwRAAICAQQCAQQBBAMBAAAAAAABEBEgITAxQUBRUAISYGEyAyJwgQQUQoD/2gAIAQMBAT8A/wAlWfVwfTY1+Q9FIXZ9XAuPib+Z6H8SkMoqHuJWcOH+ALa7HimMumN272aws+l0P6m+fiX8TeLh6bvX4q99/Jv/AO1H5j/wy/jO/mH8W/mX+UL5Cn8ov8FWvIf4S/Bvaf4S9h+HTmsdTWNS386/zSy/xd/Aov8AX5lW3rGpr+Pv8Gv9FllzZZea/E72FnWCy1NY1O9jX4jUvzl5z2X5S39NjU1m3hZZZYmWWL4R/MsRUKGUikV+CWi4vxGLiVD4FxsrJZL5SsqK2bwYsXwLjJStxfh3QiioooWeuzfwzm0XFov4B8C4yXyz2aKRSKKPtPtKrspms6mpqatmvqNYssstFouGxMs6FxD+afwdDKRQxFRRRRXo19mvs19mudstluE8LRai0WsGWWi15DytFrzXk8FDFsrOkUhFIpY0UikV47ypFYUUVu2i9i0PJ4KVsqVkvnHsvgrZUdbNvDiblfBOLRZfjOXk8nkxbD+MZU0ikUikUVg0xWUzXBPGyyy0Wj7kWi0Wix5PjJi2GLZXwT8fvBFKKRSwZRUUUPgpn2v2UzWdTU1NcXwzpSsLi4svzn5HeXeTly+Nxy+BcKVuVFFbNb7Ooqafsp+yn7Kfsr9xqamsa7lx2Xi5eTyeT+LZ15LFhSKWHaKKyoawsvZv4RYs68pT3Pc9qXLly9pfCrjFnU0UUUxWampqa42XhZZZYmJlotFq8u1suXsuXx8Gv4rF73exSKRSKRSEkUikJFFGhRRX7K/ZX7K/ZX7n+72ampqamsamsWXhcM6my/Hef0v+1Yvy1PeXayeT5W4zrapFIrdvYtH0/wAcWM1NTU1KZTNTUt+i36wtxf6wtFotFotFxcdlrHtZPJ8rZcviX8AuFi955dClFFFFIorUooqa1RRUamsamuDlzZcMs+7B/CvxHwKVKnvJfynuXytl9bNTXg65WXsLFzbLZbLZbm1FqLLRaLRZ9yH9SoThsRaxXOX/AKU9z2p7y73Hk/KWL8ToopFISKRU0UUUUJfsplM1NSnZrHaNTU1vg1x19Fv0X+iyyyyy17LLh5Pylxi957S3+5fhd40Upe9bzubj6H/bi8rLLLLwZZanQtFostCyWz3LU97/AH51TUfRwsXvMopYaFKKKKiiihFFRRUamp2amprlrjZZZc3Fl/A/RwsX4nW0tnvf7yrYp7Gpr68L6P4LFzcWWXFotFqy1FotFzaG0JqHmslzPcrc72e/gPo/isXOmwporFoopFFFIpFIpFIUqVyUymazqUzU1izst+i4ssssssstRaLOy1sX4/0cYvbXhqVK5yW+opYdyyoZqa56mpf6L3vo4yfRZaLL8lSpXMqVs9z3K5y7y7UuWLwKKj+n/BbLKKWKKRp6KRRRSKKKRRRRRRUV+yv2JP2U/ZT9iT9lP2U/YuZ/2a+zUVmpqWzU1LZqai5wtFqLRaE1bLUL+WXa8paKsm5e13L2lkpUqVK7lT3KyUUjvCisriyyyyy/EfRZZaLLi4/3H+z/AGaGhoOW1RZY2qwXGS4lSpUruVK5ldz3K5eXcvBSt6ivCpFL0Ufaj7VFFS0NLQopDSoooorCihIqKKZQkzU1FZqaivU1P7hFwm7LLEyy5uLi1PeXfyD6l8ZMUqGKVK4ldxYtqioo+0SmteSv2Vh3GuNl434D3b1ycsUOXwKVHWClSu5UqVK2Hn3L5ycUUVnRW5UUUUikUUikdspFIpFIpFIpZKHFMpiKjUplMpmsI1NRWamoot+hN+pRZaLRaLXvPvLuXzk+BceavCYpUMUqVxkpUqVhRWdM1FZ2alvy3tIs095uXxkxSoYoYlKyUqVK3+92is9TWHi+cKKRWNJlIopFHaKKRRUPgopH2o+0oa0EiiioYkVhqI1NY1NRWWyxFlllqLRZYpWz35r52ll2snn1DliyXEqHLFxDFnShYU5pxr6NfXmPnaWXayey5eT4Fxi8FK4yUPjNSvNcUUVhWdHaisGUUNFIpFFFKKRSKwoo1EjU1FZqdYWWN6CemFqFxD4FkvkO1svJyxR0xcKHgofE9YLjClC4KHwIrLXbe88X4Pa3HLlijp5qHLl8HShilcQ+BcSvgnjRRWFFFY0VlWbiiiv2V+yn7NfcUzUp+yn7NT+41LZbm0WhFqLLRaFDwWS3H4D815OX41FIqstRStx/Cd46YMWL4yfEvcfAsXL855PCt2o7wrCoShlQyimUUUOWmamuNlly+BQ5YoeCyXifWmvra8nuex4vJ8S5fAoe1RSHFRRSGlRT9lP3FP2U/cLjJeJ/z/t/7v8AyPt4+915Pc9qb2XLly9ly+BQ5fAuIfGClSlv3j/Uf3fX9f1e/qeL8CsO4o7nsooqXLl46jvTC/0XNobEy0MUOXL858vzO57y7UvJy5fWNDipoor4N797Xc9z3l2pcuXzLl9ZMUdy5cvaXiPLvxqnvLtFI+0ooocvkrF8rJz3Ll9S+M1D1VC8R5d7LFKlT3KnuexR2snPeT5U9qXL6KKGopj6l8ZMRahSufBeL2mKVu2se1k57yfKntT3PcvlS+peChnWFeG8XtPgUrdrHtT3LijuNTue4s7UWjuXzL5ly8F5TxewpW4p7nue1Pez3Pc9lFI7l841jeFj3VtvF+IsrVlx/wCpfKnvZ7nue57l8z3svJ7S8B7yyWNFaz3Pc9z3s942juXPa33mvDfiLZ7ntz3PcrLvLvLsrbcvynvLjJSns9ue5XMrlz3Pcqe8u4eDKxfMvaW3/8QAOxAAAQMCAwYFBAMAAgICAgIDAQACIBESAzFRECEyQVJhBBMiQnEjMGKBM0BDFJFTwVChcoIFNCSS8P/aAAgBAQABPwIff5zH3R/8MPuc5HlJ2SEhIS5yPFIydIoSEucjIof0jMfZH9YS5/0yhIS5yP2KREucjJ0xIS5y90jJ0ihJsucjIof0jMfZH9CqqnYz/aKpnivVbiNtOwoS5/0zNsucjMSEuf3CFTZTaUJD7nORkZFCQlz/AL5mPsj7VRN4FF4b+UrGwg9qwLrKHlsGyqqq/wBwS5yMxIS5yMjI5ISEhLnLnIyP/wATRU2HbT7ogXK9ckTjjIApuM6tHM2YuFfzTL8NwBdUQGzGNGFeFG+qJTG02CFFT+2Jc5GRQk2XP7hkUIlNykJc5c5GTkJD+kUP6R/oDa7JBtTVPbom5LFxbTRMbz2+I3UKbwjaNnjDRoXhGixUCJonY4yWDi3btldl4+3QKn9AGXORkUJNlzlzkZFCJQyk2XOXORk6RQ+5zkf6ZmPsja/JYR9KcUwbliYLX/KwyR6SdvieFYXANhQ2eNaSwLwf8ezHqG1RtLF4YUJRTCS9PNE7DqKrALqbzM/fY6tYudaE3eNlPt1gUJCXOXPbUbTIzGUmy5y5yMnZSKH3Of8AZMih90MAyVo2FN34m3xHCsLgG0bKAprGty2EVXlNGSa2h2BoCxG3BBjqJgoTMoTc9rcztqq7DksLM7Aa7CsXJM4R9s7KK0Kiojsot8BLnsrDnsxMQNFVfiYuICDu2nlIyKuACBrFshmZc5HMSMx/8KZFD+g8E5JmHbtxs0wUaNhQkfulCePh3tWE80pomrG4VvHNMdVO4Vh8O1zlVE3OA2Oea0CbeOJMfU7Lt8jIoSH2KKioqbDkvEOL66LAwh5bT22mRk51At70zc0BVgJDnsrte6jSVhvu3wrsMjI/0z/TMx9kfaKPqxdp2b1v2VVUf63ltrXY5ocKIYdFYA6oThUJnCrTdsxd2I3ROdVYeHR9dmC6j33JzqrCbRYr7AsL175c5GeK8sbUJrrmgrGxXMyQdVoK3l421CrDmvFPsw/lXtGBbzWEKYTPjb4jFsK8PinErUbfEutA7oZBGTq4hoExoAAVFSAQIM7hrsfuCxcZ+8FYGM0ClU3fscDaq4mCd53Ju8TMih/SP/wY+0/JYbecBIqioqKkq7TMfbIBzVjdE3YcNh5K0ICixcK+iY2m6XORmWgtoVh1bVixcP6TimPdY0BNFBsCdhtdmmsth7l4z1YjGLE8Pa2pTOBvxtx8MOXgM8TZiOtWLiF727juTccEoxe4udaEGBoQ2XBV2FV3LwxqHHvEc0/DxnnReV9VoOewiqxMMPx7Ajg+W8btyY0AbtviG1wXrwrrsFq5yMihIS5yMx9w/wBAfeKEj9yiIVFRUW/aJGRQkJc5GRQVERUUQwmNyELxqqwHEV4kUx8Ny8VvOHomOBy2nNYOGWPfuz24La4rzsPKGK+m4LCZQV5o5IIm7cFYAsIHfsxMVrarE8QPLIGa8NQYTRFuzDN2O86bcEep71QGqG3G/if8LwX8H7XORkckJCXukZFD7h+6No+8UJH+3T7G9b9FXYFVV2V+w6RQkEfD4ZTcMMyJh7k5jXcQVjNFQDIbTxCGGy0bDtxH2hYbKm47HbGOtuqgC7a7CaalHDa7GDQvIYMqxauRXhhxfO2iHOHijTAcvCNpgNXukZOyQkJc5GRQ+4ZGY2j7xQkf6g+4UJCFFTZRUVNm9GNUUJNlzl7pHYVd5uJTRDY7JBUEHZFeGb63vkzLYGgcoDnDxjquZhpoo0Be6RzEjlMS5yMih9wyMxtH3ihIzH3RLnIzEucjIobKKioqIBUVFTbz2b1vW/Z7pFVWIfQ5eHw7BU5lV2Okck3cJMykNpNBVYI83HLzkNnORzkZiXP7hQ/pGY2j7xQVVVV+0PuiXORQkJc5GRQkPuc5HMbKKipsdsoqKiojsoqKiodjVvW9b9m9DZvWO4n0DMrCZYymznI5/wB8of0j9ofeOyoVUFSVVVV2VRKH2hEuAV7dUImYlz+4ZtykM5c5HMSMihJuUhtsF1dvOXORmP6R/pn7Q+8URUKwhbkKfZoqKiIQCot8aqqqgVWDmgosCw4mYlz+4ZtykMzL3SOYk7lJ2UihJshmZc5GRyQ+4ZH7vOR+0PvFDYQFRDY5XoGs3Ju0yKGwoEHZRHNNCot637Chsqq7R/SMxJvOXOR4pO5SdI5ISblIZmXORkckJCRzkfu85GY2j7xXJB9VRU2lUVJOfRVJTIkp12qwnk7to2EIcW1+a8ykTMKioqKipt3ret+2qqqqqqjMSEucucnZiTpHJCTcpDnL3SMjkhIS5yP3ecj9ofeOzy9+7ZWBNF5gQNYBWhUom5yxMlhDftGwpme1wQZUxMihIZn7VAqIqioqKipsAkFvjz2VVdvOTsxJ0jkhIZSEucjIzEucj93nIyKG0feMKQorQgIDY5Ni6oVC5BtNo2gQHFEyKEh9wyKEhIZy57KKipsOYVFRUO07N8DkhIfc5y5yMx/TH9YfeKot63xqqxGwqtCrplb0JjOJkUJCXORkUJCQ5y5yOYk6RmJCXP7hmJc5GY+4Y020VPvn7NFRUVFSFI12V2iYiZFCQlzkZHJCJTcpCXukc5O5SdlI5ISH3OcnTbLnIzE3E03LDJOf3h/cH2aKgVFRU271vlXYdlVXaUJCXORkckIlNykOcvcZHikeUn5SOSEm5SGZkc5OkU3KXORmPsU+0YD7x+8PuH79FRUVEQgFvVCvUt63obKwrvVVWBk7JCQk2XMy90jJ0nZISblIc5c5GRyTZc5GY/pGA+8Z85FD7h/pmYlTeqKioqbDs3ret63ooRJQVVVVVVVCQzMucjJ0nZISblIS5yMihLnIzH9I/wBIz5yKH3ChIfcKEmy5yMjI5ISGyioqKi5nZSHNb1vW/bz212mR21VVVVTcvsVVdvPbXaZFD/4kfeOyqqqqqqq75FD7hQkJc5FCTZc5HMSMjkm5SblIZmXORzkZGRQkPuH/AOJp/VOyioE4hB6DhqgqFUK9S36KpRQVVVXKuzmqqsChIS5yM2yHFLnJ0nZFDISblIc5c5e6Rk6TskMvuc/uGY5y5yP9M/0jtcUBVeWFisFq8OTIobHLfogqKioqKh1VDqt6NVvW/RVOiqqqqCuCqq7ecjNshnLnJ0ncJQk3KTecucvdI8pGTskMpCXP7jskJCXORmP7x2vzTRuRKxXLw4kUNj0MvslCQVArRorQrQqKm9W91Q6r1Let6NVvW/RV7KquCqE0qqqq7ecjnIydlIpuUmy5mXukeISdykcpiQkc5Om2XORmJc/tD7x2vZVXObyTjcmYdUBsxL+SD8bRMdUbChsKZz289hemYzXGm1yLnDJMfcIjZVXDXbzk6YCoFaFaFaFRAKiodVRy3rfs3rfoqqqqnFec1DFarlcFVOyQO5VVdpTcpNkMzL3SPFJ3KTspck3KQlzkZj7hmPuGA+8YlgQNChIoJxovMTdvNORyWEPVteqJnFEbDvWI3cvD1ptLk3GBdQiDttwVQm4zvNtpuRTcpCXORXlhPZbvWGQ5oKoFQIhAKgVoVoVFRAKioVQ6qhVCmrevUt637BzVVVVVVVV3qqqqquz3SOYkdlVVVVyruTcpDZWHPbVVVU4q4KoVYCXORmD9wwH3jItBQ2uvruQ8xBFBEVRYAmbRmnNqEQ5YY2vRemN3RbsJLSUSSsNtBs57P9IO2OVKpwtWC311RyTck40C8511KboDnIuo7bVV2HlseKhYPuG12Ujkm5SblIRouZ2UVAqKi5qioqKiojyVqoqKitRCoqKiorQnDcU3IbKQCoqBUVFRc9lFRUVoVFYFYFRUVFRAKitCpsoqb1RUVFRUVFRUVFTaNlFT7o+8VRUVCt63rfsqqqu0obHZJrgrhrsGex5TMtrxVNwgNl5ugNh2DZz2FnqB2F1DsdsIRuG5UdzWGEck3JPyQbUwbzjUp5qsLgGx4qhudsOY24fG7a7KRyTcpMykJDiMvdI5iTpOyKGQk2XuP3ChLnIzH/xVAqKioqLyhqhhU5qioV6k5rk0Y4VToqolXKqGartGwlA70CNnOB3nYYPQVU1OyQIQNdo5wOx/FuTOEbTuNUDUJ2Y2FMzO12UnZFNyEm5SEhxOl75HiEncpOymzKXP7hQlz+4UP6A/tn7JgdlqorQqK1AK3unsXkkpmDat631W9VOiNUFXbVFyxS7kmtecyraBDLZ5aAptCKGxyNxQG+DslhZI8Q2OyTMtrpOyKGUm5SbIZmXuMjxydyk7KbMpc5aSdkUJDM/cKH3D/ZEj/UGwobecjsorQrFaEQgFRUVCqOW/ZvXq0W9V7KqbxFVVyqqoI5hVT03La6TskJCTZDnL3GXvkcxJ+UimcMuZiVWTskJD7hQkJH+kZiRQkJGbZc5GRQ+240TX702u2gVFzVAixWhUVEQqKips3oret63ret+wZbKqqqrk3JVVVVV2DnIZmXv/AFI5iTpFN+4cxIzH3D/fMxIoSEjMS5yMihIReNyZhisucjykZHJCQVFRUVFRAKioqK1UVN6t7q3uqHVUOqoqepUKodVQ6qhVERvGyiodVRURCoqKhVDqqFFAKipGioVQqm2i3qhW9b0VQrfs3ret6Gzet63ret+zet+zf9uqrCqr98qqOMAv+Rh9SD2nmqqqBVVVVVVVHbWAkeUxIZyPKRQk2QzMvdJ3KRkckJNykJDMy90jxCRkUJD7hmPuH++dmKPUmYLXJuCGqgVAgFaFare6t7qhRBVHJ16FSUKq7sq7LgrgrgrlVEqqqq7ShIZyOcnZISblLnL3ydmJGT+EoROSbwiTcpNzMvcZHiEjykcpiXORmJc5H++dmON6Y8jkhinoKG/YJHY7JYecBs3Kg0VoVAiFarPyVp6la7qVHaogoBy9Wiud0q7sVcrlXerwrwrgqqqJVYuyQk2QzMvfI5iTpP4ShF2RTchISEvcZe6R5SOUxL3SdykUJc5GYlz/AKmNmsMbtpNEMQVQi7YU3jgEXhuaBBgZFCQz2UCoFQK0IjerQrVb3VDqqO1Ru5qhXqVXaLzOyr2VUFcrleFcFVA5q4KoVVVVXukcxJ0n8KEXZFNyEm5Sbz+Ze4y90jmJOymJc5HlIoS5yPKYlz/qPZVNFBte24JmCEBSLliVA3IXnNYee0ouNViF1tCvCcJgXtuzQiUDuXmBPxQ0iqB2jORzk9DacNqwya0RTcpBUCtGitCtCtCpvVgXljUq3ure6tOqI3hUOqo5epeperROruXq0VTorjoqqqcdyDlVXBVCqnZFNykzKTMpDMy9/wCpHMSdlMZS5yPKRyQlzkZFCQzP9grzgw+pDFZqgawOxwCYPVB7DxBYji7ksBtGbcSqxGrB4IuyVUQKJ2/csPc0bLm6oZmR2HFa11DB+SG12SZnsblIS95keISdJ2UKBWhFoogBRWhWBWq1Ebk0KndUOqodVQ6rem1XqXrXqXqW9NuqV6tF6tF6tF6tFv0XNb9FV2i3ret6K9a9Wi36Let6dkhXZv0W9b9gqt+iqdNm/Rb9EOaqdFXsqquw5hVVVVVVU7LZVVVVVVQ2VVVVV21VVXYShsrAbK/0Cq7aqqqrWuQwMMconY/JYfOOJSqbkNpCxf5AEwUAi7JFmiPmKzeqJ1abliYWq8PUVEijU81i1OawuBu1+UHIuPJMeSCChlJshxmR4xJ3KT8pOyKETkm5CTMpN5/MhxGXuEnSOSGUhmZc5GYlz20CoFTbRU2U2UVFRU++VaFarVadVadVRyAK9S9Sq7RVOir2VVcrkQQatKDnKqqi7EB3CqcXnfasN1RlC36224bTkhs9212aYKSOadcOSc2pTchsOJR1E6LmkPoraBNyEmZSHE6Xuk/Nsn5SxOEoRdwlNyEmZSZz+ZDiMvdJ3KRyQkOcucjMSOcjMf0ucxI7KKgVoVjdFaEGheWre6tPUrTqqOVpqvUnF2iFxcqnRVOiJVaI4vZNxN6DgVVYvIhMOu5Yr6DcsNxLRWHPZTftPFvRyEcXkjwoZSZlJvE6Xuk7Nsn5D5k/hk/hKbkInJM4RJmR+ZN4nS9/6k7MSdkhlJsvdJ2SEmy5yMx/S5zEjMS57C0lNbTaUEWhBo0VArQrQg0Jwq5Bm5W91TurTqqb0ahV3oPJW/REV5LhdTkqq7srleFmjkgQqq4KoVdjDuk3N0vdI5iT+XzJ/DJx9JQyicimcIkzKTc3fMvf+pHNsnZISbL3SKEhLnIzH9LnIoSMxLnIzqmt3x92zyW1qg0DYXBe6RyQCoqBWjRWhUCa0KwKwd1Z3VvdW900byqHVUf1Kj9QvX2QuXquXr0VXdKqdFXsq9kT6gr+xV4XmNVwVU7kqjVVg/KBcnFz+ywgWlwQickzhEmcMm85e8yOYk7KbZe4yKEhLnIzH9LnIpsjMS90jMNl7o0CIyk7JCJTcpDnL3S5xonclaNFa3RWNVgVgTgqKh1RY4nNBtEWpozQD16+y9a9Wi9WiJdTJNrRb9FXsq9ld2VUNwV/YrzB3VyuCuQOauCuV4V4Vyr6yrgrwrgrgrgid6qrgrgrgrwnHcqq5XBVCqqoFVCqq7KrmqqqrtPKVUDL3fdH9LnIoSMihL3SchIS90jyk/JCJyTOGTOfzL3GXvEnZiT+UcU0ahwSdwlNyEm5SZz+ZDMy5ydtoFSFFQKioqKioFaFaFRU2UVFRUVEQg1WhWhUVNlFRUVFTuqbKKioVRU271vW/wC+c16lvW/RVOiu7FXIFXhXhXK4aqqJkUJc5OQkJe6R5SfkhE5JuQk3nIcZl/oPiRzEn8o4rS4tTuGT+EoZCJTcpM/9yGZl7pO5SOSEhI5iTskPuH+zzkU3ZQaKgVo0VjdFaFaFare6tOqodVvQW9erRerRVd0r9Ku9XdleFeFeFcNUSqqsWy5ydmJOykcim5CTJDidL/T9SPEJO5SflJ/CUInJDKTMpDnL3ydyk7JCQkc5OyQkOcjnI/0+cihI5yKEucKDRUGiIVoVoVgVqt7q3ure6tdqqP1C9fZeterRb6qp0Vx6Sr+xV6vCJ3hXtV7dVe3VXDVVCedyBicimZCTJDidL3/qR4myfm2T+XzJ/DJ2RQyEmZSbzkOM/EnZiTskJNl7pOyQkPuH+nzmJHORQlzkZiXuMjxN2UGitGisborW6JzQrGry2ryxqVZ3Kt/Iog0zQaacSo/qVH6qj+y9fZetC7kq4nSqv6VV2iud0q46IH1Hcr+xXmBeY1Xt1Qe081cL6KoVQqjaeNsnn1MRxcMe5f8AIbyXnP6V5mKUDi8yrcTrQeRxBVrB+Un8JQyiU3KTZDiMnZtk7KbZe6TpiXOR/p85iRzkUJc5GRTcpc5HiEnydkU3ISbIZmNFQXlWjRWN0Xls0VoVgVN6t7lW9yrT1Kh6k9xZzROJiEJvhkMKmio7QL1aLeit6ddhm5uXMIPryV34lXdinFXdleFeFeFeE53pKDgrhqrm6q4aq4aolNIorhqrhqrhqqhVTdwVVVVVdgPqKrEn1CTsptlzkZiXOR/p85iRzEihlIZyMjkm5CQzMjxCT+UnZFNyEm5SZm6Q4zL3wxcSwd1h4bnGpVoBFJO9uwiqFcJ2/hO10nZbKBUGioNFaNEQEAFaNFY3RWt0Vo0VAgAQrG6K0aKxuitCsagBVysarGry2q0K1Wi5WhWBWdyrVaiFb3VvdW91RU7ojcg3crTqrTqqFUOqodVTeqHVUdqqO1VCqFEKjtV6l6l6l6lvW9b16lvW9b1vqvVoqnRVOi36bDsqrlX7/NXK4K4aqqqqoGXORTcpDMyMjkm5SGZkeISdyk7hKbkIlM4ZM93zIcbpe/8AW3EfaExhealAUR42ydm3a9tQsI+jY/l8yflJ2RQyEmZSZm75l7/1I8pHJNylzMjIoS5yP9PnsoqBUCtborQg0KwKwd1Z+RVp6lQ6rfVUOqo5evsvUvXojVCqr2VyvVwVdlwVVXa4yOSblIZmR4hJ/KT+EoZCJWHwiTOfzIcTpe/9bCaCq34rk0UFNh4x8SdxNhh+7Y/l8yflJ3CUMonIpnCJM5/MveZO5SdkUJCRzEjkhLnI/wBPnIoS90ihOitGitborGqxqICore6tPUqO6l6tUa0Ta0Xq0Xq0VT0q7sqoHeVeF5rNVe3VXDVVXuVYuzEn5IZRKZlLDy/chmZe8/GzxD/YsBlG7ff+pHiEGcbtj/b8yfkJYnCUInJNyEmZS95k7NsnZISbzkeISOSEucj/AE+cihL3SchISOcihlIZnZQKg0VrdFaNFQVVjdF5bdF5Te68salWdynDLeqd1Q9So/qVH6r19k66iF/ZVf0r19Kuf0K53Srj0lBx6Vf+JQf2K8wd15jVcE1wV7dVcNVUaqqqgfU6XuKJoKoevEh/p+pHjEGcTtjs2yfy+ZPyk7IpuQkzKXuMncTZOyQk2R4pOyQkOcj/AE+cim5S5ychISOYkckMpN5y98nZtk/hkck3ISbvCoNFaNFY3RWN0VoQaN6sC8sdRVn5FW91aepU3nese6lL81gYb86qj9QvXqF6uy33/pfU0ROJ0q5/SrndCuPSq+pXdivMGhV4TXK8IuyVwVw1Vw1Vw1VRqnclVV2V2PO5CL+EoZSZwy5mR4hJ2UxL3fqRQ+4f6fORQlzkZjnI8Qk7JDKTecvfI5iWJwyORTchLDykMzIcTlj/AMn6WGPQIf6H4l7x8bXICmw5jZRUCtGitboiBuVo0VjdFY1WNVjU9oorQvLC8sd1Z3Kt7lOHpKtVvdWfkVb3Vp6laepNbuzVp6la7qVrupUdqqO1QHdWv6lR+qo/VUfqvUiDVb16l6+y9S3p1y3r1aLet636bG1W/RVOiq7RVOiqdFvqqnRVOiu7K7sqolAqquVVVVVVVVVVVVRVVVVVfv8ANViUMpc5GYkeISdkhJsvfJ2YliZSdkU3ISZlJvP5kM3LG/kKbwiA/kPxKv1KdthNEN+08TZOzbLEyHzJ/CZck3ISbz+Ze+TptylzkZiXPZRUVB9+itCtCtVndWnVUOqtOqo7VetfU7L1r1aL1XKrtFc7pV56Sr+xV4Rcg5XBXt1V7dVcNVVAy9wk7JCTefzL3mTuJssTKTuEpuUTkmcMmc/mTc3LH4ym8I+IDjdLxOD5uKPVSgWHjOw3eXimuhWI6qZwjaeNsncbZP5fMn8MnZFNyEm85e6TuUihLnJ02y5/0+cih9w7KBWjRWN0VjdFaFaFYFZ3Ks/Iq09StOqodVR+q9fZevsvXoqv6US6nCqnRX/iVf2KvCvbqr26oEBXN1VYe8ydxCT8pP4ShkInJYfCJMy/cm5uWO3fVYZqwQHE6Tt7isZrHUcCiHM3LwwphDaeMSdxNk/2/MsThk7hKbkJNl7jJ2YkckJc5O5ISbLn/TGcj90zEucjKgQAVrdFY3RWNVjVaqb1Z3Kt/Iq13UqP6l69QiDUL1dl69AiXAZLzHnJqxLqb6ppdY2quPSVf2Kv7FXheY1Oc1zc0HCiuGqvbqrhqqjVE7kw+kSZlJuZWIKtWAcxAcTokrVPaCLU9t7LSd4yXhcZpbYT6ht9/wCpHiEnZtk/L9ydkhJuUvcZHMSdkUJDnJ2YQk2XP+mM5FCQzkZtlzk6Ylzkc4UCxsgFybJ/CgqK0aK1uisboiBRBjSBuXltXltVg7ry/wAire5Vu7NWnqVrupUf1Kj+pevVCu9evsqPY+oXr0C9ei9WiFalVPSrj0lXHpKv/Ep7q7kwkuICx20I3pgtXiWtc5j2ChVwVRqt1yuGquGqqNVXZ7pHMSdyk7KbMpDMyPEJOyQkOcnZiRQlz/pjORQkJGRTcpc5Oym3KQ4jI8Yi7e9HlJ/ChF2RTchJuUmyGZia3VWGQ1znBvJYY5lUG2gXuVBorG6KxmisborGq0VVoXljurBqVb3Vvcqm8K38irD1FWu6lR3UqO6kaqh1VHar16r16r1J1aL18qL1L1L1dl6l6qIVoF69FV/Squ0VXdK3rfU7lU6Kp0VToruyqid4VVcr1crwiUCrgrgqqqqgVcFcFcFVVCJ3qqqqqoVUUFVVVdvM/wBMZydkhISPKRTcpe6TpFNyk3idL3j4jZQlHl8yfwoRfwlNyEmcIk0yb7o0QzMvcZe/9SPEJOzEn5SOSbkJCXukZhUVFRUVEQKqgVAqBWhUCIVFRWhWhUVFTeVRUVFTv9+m9UdqvXqvqdl9TsvqdIRu0QLtFU6K93QVeekq/sVcg5eY3VeazVXt1Vw1VQi7eqxKZlL3SdI5JnCJNzdL3yfuLfmT+GTuEpuQickzhEK7GDcqRbz+YU2DMy9xl7/1I8Yk7Nsn5fuTuEpuQkOcvfIzblLnI5f2myMxtoNFaNFaNEWiqsavLavLGpVv5FW/mUa6poNOKi9fUvqdS+rq1fU7L6nZeqqq/pVzuhXnoKv7K9OcvMavMbqr26q4aq4apx3JnCJMzdJ2K0PR8U3kF52K7Jqv8Tor/E9Kv8SeS/8A8jmV5+OPav8AlYnQv+Y7nhoeLZzaQmYuG/JyfJ/CU3IRORTOEQpsZlJnP5k33S9xl7/1I8f6k7ibJ/L5k7hKbkJNl7pOmJc5OyQ+2PvNk6YkcwqquyioiE0blSIzkdlBorW6BWN0VjOlWN0QYF5Y7ryRq7/teX+RVh6irHdaDTv9So/qX1dWp2KRojj4zuFq8vxT803wxB3oC3/EK53SrvxKv/FyvGhTiLmrzGq9mqvw9QvoHpTvD4R4Hq7Gw+dQmeKwndlUaqu3E4Sm5CLsihkJNykz/wByZm75kOJ0veZe/wDUncbZP9vzJ/CUJYeUvcZO5SKblL3SchIRH3SmydNsnZoBUgU2QzkeUjkhlEmi89oqj4h54WoYeO/Pch4ZvuNUABkNnuk7ibsoqDRWt0Csb0hPAoN3NP8ADYTvavKOEdzahM/478hQ6LyWd15Q1KcNy8salWfm5WHrKtd1lWu60bupNa6maDMQcwqYurUPN52r6nZevsh5ugVcTpCuxej/AO1c/oV7ugq49KDqe0leZ+Ll5g7/APS8xq81q8xuqa4b1e3VXt1VzdUTRVTeJ0hxul7pHjEn5t+ZP4Zs4ZczJ2YkckJczJ0xEfeEjNuUCdlJFCXMydmJOyKbkNpICd4kDJUxMRYeA0ZrKPvMjxNlicvna/w4O8bihiuYbcX/AP2VQck/hVzRQExOSbkJDKWHwxomqisborGaIsaeSsaOSaAary2o4bSvKarBqVZ3Kt9R3qz8irHdZVrutWu6lR2qtNc16tV6+y9fZevsvX2RrcvqaBVxOlVf0qrulVd0pxNRuVToqnpKvPQVcdFXsnHcruyu7FXq8d1eFduTXABXhXheYzVXt1VwVd5VzdVc3VXBVCqETvCqFUKqrsdkh9wzH9IpsjNuX3ChIZmRzEnZFDLY/GaF9XFPZMwGDPedgkOMyPG2WJ7fmD2Bw3qhwSKcK8TjG30lML8Um7NYD78MajODuEoZCJyTchJnDJn/ALk3M/Mm5ul7jL3/AKk7ibJ+X7kck3LbRUGioNEBvKoNFaNFaNFa3RWN0VBUK0KxuisborQrQiEGq0K0K1Wq1UVqs7q3uqd1b3Rb3VvdUOqodVQ6qh1W9AHVepepepepD7pQqrndKu7FXdlergqq8K8K9uqubqqhVTVVV2D7BQkJHMSfwlHHYO6L8bEO5M8NzeYNkON0jxiT82/McZyI3KpGIKJjzhurnqmuDm1GwJ/CUMhF2SbwiJyKw+ASZlIDP5kzN3zIcRl7/wBSPG2T+XzJ2RTchJnP5keISdkhIc5HMTER94fYoqDRWjRUGitGiACtarAgzuVZ3Kt/IqndWnqVr+pUf1L19l6kbkLlV/Srn9Cud0q49JV/YoHsrle1F7dUHjVXN1ReK5oOGsH+IY3uj52L8LD8O0ZobosykOIy90nZthiYie4kp9KBcgUxwY43b6rw9fXpVDZicBQicihkInIrD4BJmUmZH5kz3fMm8TpDjMjxiTuUncJTchJnP5l7pOym2RkUIj7pTZHORQ2CHORQkNtEQFQaKgqFa3ReWzRFmGN6cS80ZVYfhQOIosACs/Iqx3WVa/8A8ipidSpiahevshf2X1NAqv6VV3SqnpVx6SgczRX/AIleYNCr2q4K4aqouVzdVcNVUaqux2Yg7Abc11P0sYYD2/x2v7JmEXexeSAv+PXNBtNwQ2YnDJ3CUMhE5FM4RIZbBBmX7kzn8ybm75kOJ0v9P1J2bfmT+EoSbL3SchJsjnIoRH3ShLnIoZbBDnIoSbA7OewmgqjfjOosPDawUGwzZlIZmXu/SoNFYzpCsZ0qxmisai0VCsavLHdeV+Tl5f5OXld0W905p5L1HmgHaqj+pevVPDqL6nZVf2Q8zQL19IVcTo/+0SbTVqq6g9KuPQVd+JXmfiVeNCi4UQeAOa8xuqvbqvMZ1K4aqo1QIot0W5bCgdrMpNzd8yGZl7/1J2bZOym3KXuk6YlzkZNyH3Sm5S5yKGUuezEfRDz277t2iHiW3WkEbHZISEvds8S7hbqsJljdpmzhEm5mXv8A1I8Qk72/MnZbRtdlJ3CU3IbaBUGiIFMkAKZKxui8tmiGG0clY1WhBgKs7lWfkVaepWu6yrXdaaDTNUxOpUfqqP5EL6nZersm3b19TQKuJ0hVf0qr+hXP6FV1TuVzulXnpKv/ABKv7FX9iq+pXjQq8d1eFcFcEXCoV7dVc3VXDVXDVVGqcRRVCqNVUKqrsblLmZOmJc5FCLch90puUucjsEeex2963AIerGGx+SEmxKHFsoNIOykck3hEm+75l7z8S9wk7NsnnL52CDspP4Sm5CLuEpvCJM4RJnDJmX7kOcvcZc9lAqBUCoNE4BUGitGisbovLborGqxqDRRWNVjVYFZ8q1UVFb3Vv5Kh1VDqiqHVUOqo7VUdqvVsC3r1L1Let+zet+iqdNlToiSq9tlyuVybkPulBwVzdVcFcNVcNVVV3yJ2CPPZiek1WJjtcPSvDYfu2PyQkzKLk3jk7KRyTchJnP5kOMy9/wCpOzbsEMX2/OwQfw7HOtCLsc72lY2PiFrRSjqrBLzhtL80/gKGUXcJQyETksPgG0oIpnCJYfDJhrX5kON0jxSdI5JuUhmZHlIofcMm5D7pQCoNFaNFY3RWM0VjdFaKry2ry2915Q1Ks/Iqz8ii3urD1INf1KmJ1qmLqF9TsvX2Xqqqv0Cq/oTh+FEx1BkvM/ErEeeQKw8Wq8xvdeaxeY3VeYzVXt1TXAZlXt1CuGqrsemccnSORTchJnP5kOIy/wBP1J/E3YIYvt+UI4mWzxG4BbmsVPNxd2zE4DJ/A5DIRORTeEbSgjkUzhEsPhkzn8ybxOl7/wBSdyk7IpuUhzkcxI5IS5ydJuX3ShlL3SdPnsxW4p4HUXlYh43FMwmt1RyQRbSpWA8ubAgaJrRTJWM6QvLw+leVh6Ly2aJzQsMeoqwalWfk5eWetysPWVa7rTmu3b1R2q9eoX1vxX1dAq4nSqv6UC7RXHpV/wCJV/4lXjurx3TcQd15jNV5uH1BeYzqCubqFcNUHC90vf8AqTuJssb2fKbF+X72OaHChT/D7uLcvDt3nZicK87CrS8Vi/hKGUCjkm8I2lBHIrD4RJnDJmUmZu+Ze/8AUncpO4ShlIc5HiEjkhLmZGTch90oZS5ydlMZ7XNrsfkmlY2KKUGawG2sgU3KL1h8Rk/lJ2RQyEmZbLW6BWM6QrGdIVjdEGtq7crGaLycPReThrym915Y1P8A2rd5Cs7lWHrKsPWVY7rKtf1pwNw3oB2q+p+K+r+K+ro1fU0CxLqhN8yvCFc7oV7v/GVeegrzD0OT3V5HNX/iU7xGGziu/wCk/wAVhOFASsHGwqce9Xt1WMajcscN3apjmBjRcr2dQVw1VU/hKECjwlNyG0oJ3CUzhHxJnCJYfDJnP5l7jJ2bZO4UJNkeORyQkMzIyZkPulDKXOTkMpDMyxfDhx3Giw/DtbzrEpuUXJmcn+35k7hKGQkzKTeJ8veZO4whHE4gmxfy+dhFU9gC8rDoPSEGgLEqAdEwDFxhoFa3RWM6QvLZ0qxuicxoG4LymaLymLyxqV5Y1Kcz8iraDiKs/Iq13WrXdao/qVH6o3WGqAdQb+S+p2X1NAvqaBerRb6ZJl9Mlc7pVzugq49BV56CruxTTQcJV40K8xvdeY1eY1XBNeN68xmqvbqr26q5uquGquF5VQqhV2niEn5ISEjxydlMSMmcI+6UJc5FCQ5ydykU3KDlzQk7Nsn8JQlh8MmZu+ZD+R0j/J+pYnE1Ni/2/O07X5D5Qw2Nc5wG8xfwxKdwFDaUE/hKGQick3IRKblJn/tUVBoqDRWt0VrRyQAqVa3ReWzpVjdFY3RWNRaLgF5be6sCsHdWdyvL/Ipzd2as7lWnqVrupWu6lR/UqO1QB1Xr1VMTUL19l9TsvWvVcvUvVovXoqu0VXdKJfoqnRXHpKu7K7sVcqq5XK4K9qvCuCLlcFcFcNVUKqbl90oZS5yMxzkZHJNyg4poQzMnZtk/hQlh8MmZu+ZDjdL/AE/UsTiYhF2bfmT+XzLE4ZYnAYFBP4ChlF3CU3IROSZwiWHwybm6R4xJ+U25S9xk6YhRURCoqBUGitGiom/ddkg0KzuVZ+RVh6irXdaodVadVR3UvUvqdl9TsvXoEbtF69Aqv6VV/QrndBV56CrvxKu7K/sV5jV5rNV5rNV5jOpFwVw1Vw1CqNdpyQ2uKqghmZO4myfwoSZlJvP5kOJ0v9P0ihDEzCbF3E2T/b8yxOH9x5rE4IFBP4TJ/CUMhE5FNyEsPhk3N3zL3/qWJy+ZHJNykOIyfymJHOTOEfddkhLnIzbzhRUGiI3hUGisZ0heWzpXls0VjUWhBgVncqz8irT1FNwzqqO6kBnvVH9So/UL6moX1Oy+poEa1Cq/RXP6Fc/oV56Cr/xKc7cr+xXmNXmM1XmN1V7dVcNU0iiuGquGqqNVXY05ybxOl/p+k5Ng7iGwQdxMk/2/MsTIfMCgn8MCgn5SfwlDKLsim5CJyTOESbz+Ze/9SdykUMpDjdJ3KYlzk3IfddkhLnJ02y5iTsihkqolAbW5mRzEn5SIFE3JWjRWM6QvLw+kLy2aKxuiDQV5Te//AGvLGpVn5FeX+blaesoN3nerXdatf1//AEqYnUFTE1C+pqF6ryjf2Q8yuQVcTpCq/pVz+hGtw3Ik9KvPQVf+JXmDQ/8AS81vdOeKtK8xq8xmq81nUFe3VeYzqCcR6flXN1VRB/L5k7KT8pP4ZHIoRORTOESZz+Ze6TuUihIZmR5TEvdJmQ+6/JCXOTpsl7hJ2SrsAg3MyPEJPykck3hEmZSbm75l7jL3/raNp4hCg0VrekIgVCsboF5bOkLy2aLy2ry2pzQKKwd1Z3KLPyKDD1FWnrTgdVa7rVH9SIf1IBy+p2Trqb6L19l9TQKr+lVf0Kp0RyyVT0q46FX/AIlX9irx3ReKK5XtV7dVezVXt1RcKFNcKBXDVVCqNVXY2XuMjyk7IoZSHORzkUJe7+m7KYzk6bVWPuEnZIICLOcjxSflJ3CU3ISw+GTPd8yHG7YUNv8Ap+tjghtP8g+JO4mydm35257XcvnaShsfy+ZPy/cn8KG2g0VBoiBRACitborG6K1uisborQg0KwLyx3VvdW9yre5QG8q3uVaepWnqVD1Kh1R5Kh1Xr7L19l6+y9fZGtEKqrtFV2iqdFU6Kp0QrXJV7K7sVcrleETvVwV7VcFcFcESgVUKoVRt5/03ZT90nTbLnsuCqq7DkhJnP5l7/wBSfyk/hKbkJYfBJnP5k3jfsMP9D8bSNp/kHxJ3G2TuJirsA2vzb87CqV2v9vzLEyHzJ/ChF3CUMhJm9shmZHiEjMS57aKioEVQK0KxuisarQqBU3qiore6tVPvPyQD9V6+y+r2VcXQKuL0KrulC6uSqelXnoKv/ErzPxKv7FFyuC8xq8xmq8xmq8xnUEXt1QcNVc3UK4aqo2+5UXlPQbuVNjskJM5y9/6k7l8yfwFDIRKw+ASw+fzJvE7a5DZ/ofiFNn+n6kf5G/Enn1NQQEHcTNhTctuJmz5lie35liZSfwlDKJyTOESbm6R4xJ2SEmy90jlPn/TdMZyO2g0VBoqDRFo0QApkrG9IXls6QvLZovKZorArRcvLHdeWOpys/Iqw9ZVh6ynA9Std1K3E6/8A6VMXqC+rqF9TsvX2Qv5UVcTpCq/oVz//ABlXHpKvPSVU3ZK/8SvNHS5eaO681vdeY1F7dy8xmqvZ1BXt6grm6qo1T+EoZRORWHwCTMv3Jmb/AJhRAr3GX+n6l/oPiFVVUqQgIu4molNg/NvzJ+bPmT8h8yxOBCJyTchJnP5keP8AUn5TZlLnIzHOXP7rpjMyMim5SxMW125YHnHe87tIuQkzKXuk/wBvyqBWt0VrekK1uisbonMbTJWNOYXlM0Xks7/9rym9/wDteWNSrKcygzdmV5Z/8jl5bv8AylWP61Zif+T/AOlTE600OpucqYmoX1fxX1Oy+ro1VxekIXb6BXYnR/8Aavf/AOMq89BVx6SrvxKu3n0leaNHf9LzWd15rV5rNV5jNVc26vZXsPuVzdQrxqrhqrm6hV9f6VyrtojxCTzRzUN8XcTZOzb8yxOXzLE4ZOyKbkJM5/Mv9P1J/KbMpe6TpiRz+66bczIyKEcV9rVgMvfcZGbMpe/9Sdm35k/hQick3hEsLh/cme75k3idL3lUVrdFY3pCsbovLZ0qxt1Kcl5TNF5TNF5TF5bdSvL/ACcrfVSpVn5OVjusqx//AJSrX9aN49yteXbyrHDJy+p2X1fxXr7L6nZOvubkq4nSqv6ES6nCrj0FXHpKcT6dyv7FeZ2K85vdea1eYxF4NKLzG6q5uqvbqFcNVUap5FqqNVWDsihkJM/9y98ncpFMylzk6Ykc/uum3MyOYkUI+INXALDFJOmzhl7pHMSxOFCLsim8Ilh8Mme75kON8hxul/ofiX+g+IV2U9Y+JO/kZJ3E2TuWyitborW6K0aItbTJWN0Xls0XlsVgXlhOaAEGCnNeX+RXlnrKsPWVa7rVrupBp5OVH9So/UL6moXr7L19l6rl69FV+iq/pVzulXHpROW5VOiv7FX9ivMHdXhXhAq8aq4aq4aq4aq4aqu8qqqq7TMSOZ+66YzMjmJHJDKI9WMUOKRmzKXuk7ibLE4ZO4Sm8Ilh8Akzn8ybm/5kON0h/K74l/p+oUVF/r+pH+RvxJ3G2Ts2yfy+ZP4TNmUvcZO5SOSGSoqBUCtGitGipvKtCsborAvLarAiFare6t7qndUOqodUAdVR2q9eq9Wq9S9fb7z1cekq/sV5g0K8wd15jVcFcAvMZqr26q5uqubqqjVEiqqNYuyTYYho0rww9dV7jIyKZlL3GR4myxMv3J3CU3IRKw+ASwsj8yZm/wCZDidIcbpV+ofhXR/0/Uv9B8SPGJHibJ3L5k/hmzKQzMnZiRyQkOcjMf03THPZQKg0VrdFYzRWiqsbovKZovKYvLavKb3RYKc1YKLy/wAirD1lWO/8hXiKhnFVeGY6lblR1c1TE619XUL6uoX1ey+r+KddovX2VX9Kuf0K53QVc7oKqdCmkgZK/sVf2K8waFeYO68xquFxXms1Xm4fUvMZ1LzGdQV7dUSLhvVRqqiGJkPmTuEoZRORTOESw8pM93zIZu2VVdreN8Kqq3+YUGx/0/Uv9P1I8cjxtk72/Mn8MjkUzhEm5ukeISdkhJvORzkck3KTd7fuu5TbLnJ2SEPFcgsEUwwhxGTuUjkm5CQzOyg0VBorW6BWN0VBXJWM6V5WH0rycPReTh6LympzBReU3U/9ry/ycvL/ADcrfyKtPWU5ppxINd1q1/X/APStxOtUxeoL6moR8ynJNvoF9Tsq4vSFdi9A/wC1c/oVzulMLg3hqrz/AONy8z8HLzPxcvNGhXmDv/0g4Cua8xq81nUvMZqvNw+oK4aoObv3qrdVu1VNlSg43OVSt6oqKiHG6XvMvf8AqXv/AFI8bZOzbJ+UjkU3ISbm6R4hJ2UxLnI5IZSw+Bv3Tym3nLnJ2SEPFcQWHwN+EOIyfykcimcIkM3S9wk/2/MncKEXZFN4RLD4BJnP5hQaKgTQPV8qxugXlYfSvKw+lWt0VjUGirl5bV5TdT/2vL/Jys/Iq38yqVe7erXdStf/AORW4nWqYnWP+lTE6gvVUr6uoX1ey+ro1VxOkKuJ0Beq7JXP6Fc7oKuPQVeegq/sVdvyV3yrx3XmM1XmN1XmM1Re28K9mqubqFUKo12E7xJ+Q+ZHIoZSbmZc5OymJc5HJCWH/G37p5TbL3SdkhDxP8qGQQzMnZtk7IpuQkzN3zL3j4k/2/Mn8MncJ+EzhEsLgEsPL9yZ7vmTc3/MmceJIcTpDjdL3n4jQL3K0aKxugVjdFYzRWN0RaKhWNVgVnyrO5Vncpwy3q3urT1KjupUfqqP1RuoaoXL6nZevmAqv0VX9Kq7pQrv3Kp6Vcekq7sVerwrvUrgr26rzGaq9uqqETuVQqxEucjlPD/jb8fdM2y5yfkhkIY38y5IZmTs2ydwlMyEme75l7pPzb8yfwyfwlNyETkVhfxtlh8MsP3f/lJnu+ZM4n/Mm8T5DjdIcZl7/wBSPG2TuUncJQk2Xu2UVFQKgRCoFY3RWN0VoVgVgQarO5Vv5Kw9RVp6lR3UqGuao7VevVevsvX2XqRrRb1V2iuOiqdFd2V3ZYX8bfulXDVXN1CubqFUaqoVUDLnJ+SGQhi/yn52DiMnZiT+EpnCJM93zL3/AKk7NsnZSfwlNyEXcJWFwNlhcMsPI/Mme75kzN/zJmb/AJk3jfIcRl/ofiR/kHxJ2bfmTuEoSblL3Sdym3KXORnhfxt+6VQK1uisZ0hWM0VjdFa1BoXls0XlN7ry2915Y1Ks7lW91Z+RVjutWu6yrX/+RW4nWi13UgHdSpidQVMTUKmJqFj18xevsm3b169Aqv6VV/Sr3dCuPSVca8KvPSV5n4uXmfiV5g7rzG907EFEHigXmM1Xms1Xms6l5jOoK4arDcPVv5q5uqqNVXb7/wBSdxMk6T+EoZRdkVh8AiVh8Ilh5fuWHkfmTPd8yZm/5k3if8ybxOkOMy9/6k7ibJ/DNmUvfJ3KYlzk6eF/G37vOYlzk7JCHif5EOEfCGZk7MSdkm5bKDRUGitboFQaJoG/dzVrdF5bOleWzpXlM0Xls0Vjary2Ly2915Y1K8v8ivL/ADci3h3qw9RVj/8AyKzE/wDIrcTr/wDpUf1BODtVR/UF9XVq+t+K+r+K+p2T77eSq/RVxOhXP/8AGr3/APiKvd/4yi4lvCU1xDRuK8zsUMQd15re681mq81lM03EaAKrzGdQXmM6gr2dQVzdVUarDIt/aqFUQZuEm8/mTPd8ybm75kOJ0hxul7/1J3GyWJlNnCJe4ydykUJDMyfPC/jb933TbLnJ2SEPFfyJnA34QzMucn8JQykzn8y9xkeJsncpP4ZHIpuQiU3IKg0VBoqN0VrekK1ugTWgtyXls6V5WH0ry2aLym//APFeU3umMBavL7leX+bl5R/8jl5Z6ygw9ZTWk19RzVr+tW4nX/8ASpidQVMTUL6moTQ6m4r6v4r6ugX1dAq4nSqv6U27fuVz+hXHpK8z8CvM/Eq/sUHip3FeY3uvMar26q9mqubqg4XuVw1VQqjb/p+pHjEn5D5mzhEhmZOzbI5ISHOTuU8L+Nv3fdIpuUucnZIQ8WN7SsA1wmoZmRzEn8KbJmX7kON0jxtk/NvzLE4ZP4Sm5CJyKZwiWHwCWFwCWHwyZl+5M5/Mmc/mFBoqBACpVjelWN0VjV5bF5bVaLqKwalWdyrPyKtPUVaepFpuzVHdSpidS+pqF6+y+p2T67lV+iq7RXHpVToruyu7Jp3K8LzGrzG6q8aq4K4VVw1VQqquw5iRyQkOcjyng/xN+77pFNylzkUIeMG4Lwv8SGZkc5P4UJYeUhxOkf5G/En+35k/KWJwFCLuE/CbwiJyKZwiJyWDwCWHwyw+GTMv3JnP5k3N3zL3GXv/AFLE9vzI5IZQoqIAb1aNFa3RWN0VjdFYEWioVg7qzuVZ+RVp6lQ6ojuqHVUdqqP1Xr7L1dl6kL1V/SrndKuPSrjoqonJXK8K8K9quCuCYKNp933CRQlzkUIeK/jXhD6XJuZkeISfwoSw+GTeJ0v9B8Sfm35licMsXgKGUXcJTOEfEXZFM4RE5FYXA2JyWHwiWFwCWHlJmX7k3nIcTpf6fqT82/MjkUMpCR4hJ2UxI5iNAqBPz+6RUq35Vncq3uVaeoq09StPUgDqqO6lR2qo/qVMTUL6moVHVX1Oy+poF9TQL6mgXr0TrtF69FV/Srn9Cud0LHJ8s7l4R29wQJqdyuPSVf8AiV5nYrzOxV4V28K8BeazVeYzVeYzVeY3VPeKK4aq5uquGqrtZlIHeZe/9Sdm35liZfuWJwGTuEpuQi7hKZwticimcIicisPgEsPgEmcMsPL9yZz+ZNzdL3/qTuJsn8JQk3nI8UnTEjmP6numJe6Tso4oqwrwxpipvOR4htoNFQaK0aJwFMlQaKxuisZorG6Ly2aKxqY1pC8tq8pvf/teWNXLy+7lZ3KDd5Vn5FWHrKtd1q13UrX9atN+fJWv61TF6gqYnUF9bUL19k6+o3r19l9XQKuN0D/tVxegK7E6B/2nF2iuf0q93QVeegq89BV/4lPdVp3FX9ivMHdeaxeazVeazqTni00KD20G9eYzqCvZ1BXs6grhqnn0n4TSLRF3CU3hETkUzgbE5FYXA2TOESblJmX7k3N0vcZO4myfwlCTZe6RkUJHORRG/wC77pFCXMyflIejF/aZLnJ+UisPhk3nL/X9SdxNk7l8yfwxoE8C0oAaK0aK1ugVjOkK1uic1tDuVraZLy2aLy2aLymaLymI4bQCd6GG3uvKGpXlfk5eX+blYesotIafUU1u4UcrX9atf1qmJ1L6moRvoU0PoKEL6nZfU0CridIVXdK36JpdTJXO6Vf+JV/Yq/5Vya6g3q9q8xuqvbqrm6q4aphFM5DnL3SPEJOym2XukZiXukUc/u+6RQkOIyflLxbKPqvDmuHI8Yk/KRTOESbzl/qfiTuNsn+35k/KWJwlCOJwFDKL+EoRfwlNyi7hKZwiJyKZwiTchsoFQK0aK1uiYARkrG6Ly2aLy2qwKz5QarO5Vp6la7rVHdSo/Veqp3r16r19l69AvVoqu6U6twVzugq78Sr+xV47q4IvFF5jVe3VXDVVCqFVNl7zIyKEucjknZ/d90ihlIZyflLxg9AK8EfQ4S98sTKRyKZwiTech/K74keISfmz5liZD5li8Msb+MyxOByEX8BQyEX8Dk3IRdwlN4RE5FN4RLD4RISGbpHik/LZQaK0aK1uisborW6INCsCsHdWdyrPyKt7q3fmqO6lR+qo7VevsvUnVW9Vdoqu6VcelXHpRPZA9lcrwrwrhqqq7eqjVVCrtcdyBr933SKEhnJyxPE4eH3KDvFYuXpCbh+JBH1ajbjNuwyvCOtxaS98sTIfMnZFM4RJvOQ/kd8SPGJP4mSxch8yxeD9yxeCWJwFCL+EoRxOBybkIv4Sm5CLuEpvCInJM4RJuUm5ul7/ANSdIpuUvcZHlIxoqLmrQrQrArArQi0JgoPu+5erVevsvX2Xr7L6nZGq9fZVxOkKr+lVd0q53Squ6Vv0Vx6Veekq89BV56Sr/wACvE45pa3NYODSjnNJTnvA9LVh+LqbXsoV5n4lX9iruxTvRi17oYgIqvMavMavMZqrm6q4XK9uqubqrhqrhqqjVYh3D5VQqjWDsimcIlh5SH8jpe8fEncTJP5fMsXh/csbh/csThlicBQjicBQi/hKGQicihlF2RTOESZlJubvmXv/AFJ/L5kck3KQ4jJ2Yk7JCXMydl94cUihIRxHWsJWE0vfV23HNPErkNvicPcSvB4lzbdI0FyoNFaNFa3RWN0VjdE9o3Ly2aLy26Ly26Ly2ryx3RagwELy/wAivL/Ny8s9blaeoqh1TWnkaKjutW4nWqP6lR/UqP1CobivqahfU7L6v4r6vZevsjdd+l9TQKuJ0hXYnQrndCvd0FOJqNyud0LzD0FeZ+BXmDQq8d052XyrwvMavNZqvMZqr26rEcKD5V41V7dVezqCvZ1BXs6gsVwt/aubqqjVXDXbicMsXh/csThMn8JQi/gKGQi7hKZwt+JYfDJvP5l7zJ/t+ZHIpuUhxGRzEnZISGZk7ksRtryPujik7JCQzMfECuE5YGzExBhtqVhsdjYlTC24FNrhYyBrD3SfykckMhJmUhxOl/p+pO42yfmz5k/2/KoFQaK0aKxvSFYzpCcxu7dzVjdF5bOleTh9K8pmi8pmieKD9ry2ryx3XljUry/yK8v8inM7qw9Std1K1/WrcTr/APpUxeoJ99MwvqahfV7L6ugVcTpCq/pTi63JBzulXHpKv/Fy8waFXhOcC0oPFFe3VXt1V7dVc3VEi0puQkzhEmc/mXvMnZiTsim5SGZkcxJ2SEhzk7kvF/z/AK+6MzJyEm5mJFQsTBfhmrEcXxRywf2m+GxHuuxCmtDRQbSmrxOFXeF4XFr6TD3yfyk7IpuQlh8Mm8Tpf6n4keNsncTPmWJ7fmT+XzLE5fMsTIfMsTL9yfwyfwnbQaK1uitboi0UO5Bo0XlM0XltXljUqzuVb3Qb3VrupUf1Kj+pevVetC7kvqaBVfoqu6VcelXdiq+oq5XtXmNV7VcNU45K4aqo1VdrsihlIZmRzEnZTEivF/8A9g/H3RmZOyQkJO5Tbs8Qzyn3BYL72A7fdJ/L5k7JNyiVhcMmZv8AmQ/kPxL/AFHxJ3EyWJmz5k/NvzLE9vzLE9vzLE9v/wCUsTL9yfwydwlCJyKbkJMykOIwoFQIgK0aKxuisC8tqsCLdys7qw9ZVrupUd1Kj9V6kLl9TsvWvVoqnRXHpRzV3ZX9ivMHdXhXhFyvGquCuCuGqqqoSOa8X/8A2D8fdGZk6becncpsy2Y2Heyi8PieW8tO33GTuUn8JQlh8Alh5v8AmQ/kdL/X9Sdxsk7iZJ3Ez5liZs+ZYnt+ZYns/wDyliZD5k/KT+EydwlN4RJnCJN4nSPEJOymJc5OCoqBWjRWN0VjVaFRWhW91Z3Ks/JWnqVp1Xiv5z93mVcdFcelXHpKv/Eq/sU53Yq7svNGh/6XmDuvMCvCvCa7NXBXhXtV4V7UXBXtXmNV7dV5jOpXt1V4TXgDevMZqvMw+oLxOG3javDY4c2hzCuGquFxVw1VRqqjVVW5P5fMn8JQykzhkz3fMh/I+X+n6k7+RsncbJP42SfxYfzJ+bPmWIQSwVGcsT2/MncvmT+EydwlNyESsPhEm5u+ZH+QfEnZTZlL3SdMS5rxP85+63MydkhJu2ipsdy20CoFQIgUTMlQaK0aIsaRksTDODiVGSYWvZcFQVVrdFY3RWN0VjVYEWtqFY1eU3uvKA1XljUryxqU5u5WdyvL/Iryz1lWO6yrHdao7qTWmnErcTrVuL1qmJ1KmJ1BfU/FMDt+9fV7L634r6nZfV0C9egQvuKri9I/7V2J0K5/Qr3dCvPQVX15cl5h6CvM/ErzPxK8waFeYO6J9Y+F5g0K81vdeaxeYzVeYzVFwvYvMZqvNw+oLzWdS8xuqvbqnEXtV7dVc3UK4aqux+bZP4mQcaCtEXY2MaDcFjeGsaCTvXgy7yt5rvi7NvzJ/t+ZPyk/hKGUTkmcIk3nI8f6k/KbMpc5O5TGUvcsR1z6/dEnZISEncpHJYfDDGwhiNIWDiOwX2uyQNTJ2bZPyQickzhEmZH5k3idL/Q/Ej/KPiFAqBHjaqKg0VBoqDRWjREC9qtborGdIXls6V5TNF5TNEWND2rymaLy2ryx3Xl9yrO5RbvAqrT1FWv61bidao/UKj9QvGEl7WrDY9jABRfV/FfU0Cq/pVXdKdXduVx6SvM/EoYnYrzG915jUXA0+UHhXt1VzdVcNVVPy/csTgKETkU3ISZz+Zf6fqT8hNsvdIyKbkJc1hOuZX7o5yMxI5iTskzhEfEYHmDusDFOG8sdJ3E2T8kInIrD4RLDyPzJvE6Q/kd8S/2//WR/kHxI/wAjZO/lZ8SPG2Tfq+JbI5tk7l87BaQrW6Kxui8tmiextB8qwLywrO5Vn5FWHrKcPTmrT1Kj+pfV1C+p2X1OyNaJtyuf0K93Qr/xKv7FXpj8/lXt1V7dVc3VXDVVC9/6VYv5fMxL3GRkck2XuK8N/C37recnTEjmJOyKZwiXicK4kheFxva6LuNkn5SdwlM4RLDy/cmZv+ZD+V3xL/X/APWR/lHxI/yD4kf5W/Ej/I34jiAljgM14fCLH+ob5O4mydm35liZD5licMncJQyEsPJUVrdFa3RWN0VrdFQVVgXlt7ry+5VvdW90QdVR2q9eq9fZfU0CridKq7RNLtFcekq/sVf8q8K4K71FXBXDVXDVVCqjmJHJNlzK8P8AxN+63nJ02yOYk7IpnCJU3leJw3YTr2LAxfMZB3G2T8pO4T8JnCJYeX7lh+/5k3+XE/Uv9T8S/wBP1I/zfqX+v6kf5P1I/wAg+JHjbJ3E2T/b8yxeH9yfwlDISw8pe4ydykUMpcyqKgVoVoVoRCtCtCsCs7lW90RuzQB1VHdSo/Vetepepeqq8N/C37oNCVe1eazVeYzVXt1V7dU57dVeNVe3VXt1Cubqrhqrm6oOarm6q9vUFezqCvbqrm6ouG5Xt1V7dVc3VXN1VzdU5wpmmEUVRqrm6qo1VQqoHeU9rXtIKYXYGLQ5IEHLaT6xJ+UnZFNO4KscPh2U21TPd8ybxvkP5T8S/wBP1L/b/wDWX+v6l/p+o1GqqPMG/lI/yN+JP42Sfmz5liZD5k/hM8PhkOIydmJHIpuQkMzI5ydkhLmV4b+Fv3W89tFRUCIVArW6KxuitborW6K0aIBWt0VjOkKxnSFa3RWt0RA3K0aKxuisborGaKxuiLRTJNAorGnkvLZorG6KxuisGia0VKsbosfw4e3dmsBwBtcrGrywrQHBeWCvKGpXl9yvL7lWdynt7qzuVZ+RXlnrKsPUrT1FPD6ZprDqrXaq3E61TE6gqYvUF69U0OpuK+rqF9bVq+t2X1NAvXoEwPFaaq7E6Vc/pVz+lXYnSrndCaXXu3K93QV5h6Cr/wASr/xKv7FB3qJovM/ErzOxXmBea3v/ANLzG91f6/0vNb3XmsXmN1XmM1XmM1Rd9SvZXt1XmM6gvMZ1BXt1CuGqr9X9KuwvaPcF52Hqj4nCHNHxIuyX/IxDwsKr4s5BU8Yc15HiDm5f8XE/8i/4zr6Xr/i4v/kC/wCNjdYXkYvUF5ONqrfEBHzbhuK89wzCHiEMdhV7NVUap3G2T+JnzJ/L5licJ2VVVUrejVMyVVVV2jidI8Qk7IpuUhmZHOTskJDMrw38TfutkZiRzEjkm5Sbm7b4nw93rbmvDeJHA/PYeMSdJ3CUMhEpnCJYfP5VItzd8yHG6Q/kd8baKgVBoqesqgVjdFazQI+SM6I4mAOS80l3oYvLxneyi/4rzmUPBM5vK/4eD+S/4mBom4LA8qzQlWu6yrX9ao/qXq1VD5n6X1Oyri6BVxOlXP6VU9KqfMBpyVx6SiWc2K3B6V5eHqVZ+acHVzQxHhf8kIY+HqvNw+pVTj62Sf7fmNU8+lAKiptKblsoqKhVybm6R4xJ3CUJDMyPFJ2UwvDfwt+62Rm2R4hJ2SGUm84eI8KH727isLHxMI24mSqHOBBg9wa2pX/MxLuEUTjuEKbH8JQyGyquV6JKwybQqlXK5V2YeR+ZMzd8yHE6XvMve5Ox2juji4j+ELyMd2bqf/aHhBzxHFNwcJuTUKeY7tIcbpe8/Evf+pe/9Kg0Xls6Qj4fBObEfCYS/wCORkjUEVQLe6sr7irT1K13WqOHvXFTegH9S+p2X1eyuxNF6+lGtMlU9JV56SvM/Eq8LzGouFEwigVzdVcNVUa7RzQdE8Yk/hKEhI8Un8KEgvC/wt+6znJ3KbZe4SfkhlJvOOLgsxBvC8vFwHVbvCwvFMdxbjsc4NBJyWPjuxHduSOI4ilAvDV3bRtfwnZVUVqtRG5YfANlEWqhVywj6f3AqqZ7vmTeN8hxu21RxmBO8ScmtqhhY2I41NEzw7G9zFv8r5N/kf8AqQ43S/0PxL3/AKk7iCOG0ry3tyK8ymad4jDaE5+LjZN3Jr3YbxVDLbTY6TqWlNyCoFY3ReWzReW1WBNYEcLuVY4e8oV1VH9S9eqN1y9fZVforn9CuPSr+xTnbskHK8K9uqvGquCqmuzlX1SdkhILwv8ACPus5ydym2Xuk/JNyEmyP8g+FieFwn8qFPZjeGydULF8S/G3FO3INK8Pu2CDz6SgCrYOyKw+BsS1YYICBgQsI8XzJnE/5jUBDFaHvqUfFDkFf4h+QXkYzuLEQ8PhjPegAMgm8b5N/kxJN4nyHG6XvPxL/T9SPGPjYXAZrEfdkqDNeZi0oDRPDqiu9YL64Yi/l8ydwlNyEm89lFRA7Pf+pOyQVFRUCtGiorQrAvLCsVndW90W781aepUd1KjtV69V6066i9Sq7RXO6VcelX9iruyu7Lwn8LfutoKqoVRqqjVVGqqnclVVCrtJTDuVQqhVGqqFVV9SqFUKqrsxD6UMhJnOXv8A1s8djXPGGOWaIa1vfYGlMFrgmwJTskIu4SmcIlh8KIogYM3V+UIszd8qqOPhhHxY5NV/iX5NK/4+KeJ6Z4ZlxrUprGDJoizif8ybxP8AmTOLE+ZN43yHG6X+h+Jf6frZZiOO9f8AHxdV5D15L0WOHJeHDt9RHEPD8yfwlDISZAhAr3yxMkJCXORmF4T+EfcKaFQK1uisborArRoiBuVoVjdFYFaFY1WhNaFY3RWNVjdFY3RWhU9StCsavLbovLbovLbontFEGry2rymLymLym91Y1BoK8tq8sLy2915YVgVouVgWN4RoueE5ra5prCcgh4Z6/wCLl6kMOgpUqzuVZ+RRB1QYeopzaDNWnVWu61a/rVr+tWv60QbTvTQbRQqmL1hUxNQvqahfV1C9abWm5EYuoRGINEHP7L6nZfU7IB/KmaBforn9Kud0qr+lHGtzC/5O91ArPFP4hQIYDRmHFC1uWHReZ+JV3YoHNX9irxoVeO681i8xia4Av+Ve3VeYzqXmM6lc3VXDVMIq/wCZMzf8ybxvkON8hxmXv/Unb3tQi72yxOEoZSDrQmmo2lFA+qT8psyl7pOmF4T+EfdbIzblL3SfkhJsvfsx8E4wAvomeBYOM1TWMbk1HeUeW0nbicMncJTMhEpmWw7Aa7MPh/aIQT8djEfEYuIaMCb4Rx/kf+gsFjGA2t5yZ7vmTPd8qioNFaNFY3RWt0TWirvlWheW3ReW1eUNSrO6a3PfzVh6yrXdao/qXr1C+p2TbrnL1qr9Fc7pVzugoOPSUD6ir+xXmDQrzWrzG6q4aoEXFXDVXDVVG3/Q/EShxQrsdm2WJwoStuah6UNpCyeUIv5TblLnJ/L5QkF4T+Bv3WydmJFMyl7xJ+SEmS9/6gUE7Nu0obMTKTuEpuQickzhG1wTDswuH9opzS4UTPA4ebzVeWN1N2zD5/MsP3fMmc/mTOfzJnP5kzN3zJuZjRAetyoFa3RWN0VgVgVu9Bncqz8irT1Kh6lR2qobs16+y9fZEuTbtFV3SnE1G5XfiVf2K8wLzGq8arEcLUCFUKsGcKcEDaYO4imxdym3KXOTptXhP4G/cKbI5iRTcpe+TkJNl7jByancTdhhiZQxMVmHS40qgaiqxOAoROSZwjaUdy5LC4UVzhh5H5lh+75kzL9yZz+ZMyPzLD5/Mme75k3ifL3GXv8A1seaBB9ShsPE2NAngUVoVrdF5bV5be6s7lW903JUd1JzHaphfkvX2XqW+qqRyV3ZX9irwrgnEbleNVcNVUbSmy5mT0InJNyXhP4G/cKbI5yKbL3SdNuUhxmDjvQTuJuwobX8tj8VjM1/zBywyvGv8w4fwsIUw2fCfwlCJyKbkIPCbwrD4dhQy24eX7lh8MmZSw8v3LDy/cmf+5M93zJubvmQ4nS9/wCtjt6GHv2niEsTL9yOSbltduQ2cynBNygQqBWhWNXlt0VoVEG91aepWnqVHaqj9V61vqvWqu0VXaKp0VTonE6IP7K9XhXhXtReEHBeF/hb9wpsjnI5JuUvdJ8isPKQ43Q5oJ3G3ZzQ2v5bHA4vibeStYBkKI/V8X2rsxeAoRdwlNyEHpqw+HY5DLbh8MsPhlhcMsPKTMpYeX7kzn8ybz+ZN4nbShsHGZHiG1+KxmaZj4b8ivFYlrKLALjh79ZHJNy2vCZsGZRTYO5SKEShI8o0RyQC8N/C37hTQrQrArVYFaqK1WBWBeWO6sCtCDQrArArArVaqb1arArArArB3RaFarVZ3Kt7q1WprVb8qzuV5fcry+5VvdW+oqzuVZ+RVvcq3fmVZ3KLfUFaqVVp6irT1FWnVOB3Kw6rFwcRrr2ovx8XcKrwuF9QmuSsf1rEBtT8ZzHAVVH9S9eq+pqvqahOvoUA+g3r6moX1NQvqJ11ELk2+nJVxOyJf2QOJoqv6US7pTC63JXO6Fe7oKvPQVf+JV3YprqDIq/8SvM7FeYNCvMGhXmDumuo1eY1eY3VeYzVXt1VzdUw7lUaqsMPhlh8MsPI/Mm+75k3N20obBxukeMfGxxo0lYOHd6nLEwm8Q3Ec1iE4mJQKlrWCRyQy2lZO2DM7OcDmJHJCJTMzI5yOSC8N/C37hTcpGYl7pOkUzKQ4nSP8g+Ngg727T4vBF2dVgY7cO70kklMc5wqRReINMIlNZ5mI2L+EoZCD8kOabwjY7NN2HIrD4BJnCJM4RsoFaNFQaK0aJjQWry26Kxq8sLyxqVZ3KazdmrHdatxOtUxOoL6nZfV7LDutVX6K53Srz0q/wDEq5MNB+1eF5jVe3VXt1Vw1TTmqjVVgzN3ztchsHG6R4x8bCKiiriYWTKhY2JiuGVF4fBp6in8pOyKGUHZ7G8/nY7NDacxI5ISbmZe4SOWzw/8LfuFMykcxNuUhxGTpFMyEm8Toc9n+n62ja7Nu3EwWmpAXhQKHXZ4gVwiF4Vzd45xxOAoZCD0OabkNjkNhyKwv42xORTOERORWHwiPJYfCInJM4RLC4BJmW2gVBoqDRNCtborG6Kxui8tqtCazPfzVh6yrXdaIOqF+q9fZC651F69FV/Sr3dKv/Eq/sq+uvZXheYzVeYzqCxcVpxM0zGwsgU4ird8ncJQyg9NyTefzscm5bTmJOyQkOcvdJ2SC8P/AAt+4U2RzEim5S90ncpHJM4RIZmHNBf6frYc0NruJsGsa3IbH5J3h8Nx0X/Gb1OTWgbcThQg5ewlN4RsKGx3CUzhETkVh8Ii7IrD4BE5FM4RE5FM4WxORWHwCTOESZlJnP52uQ2N4nfMvdsosTwzXGqZgNe5NwMNvJFjahYrPTuV7muFHEhWdyrD1FWu6k6tpQuovX2VX6KrtE5x0TTuQNKq8d05wTXtorgqon1BVi7JCQl7pOyQWB/E37hTcpHORTZDiMncpHJMyk3N3zAoL/T9bCENruJsn8pYnCYlH+NDIIrntdwlN4RF3CVh8Ii7hKZwiLuEpnCIv4XfCZwiLuEpnCInJM4RLD4ZYf8A72uTdjM3fMvefiGEy1x2HibsxPD2+pn/AEsLEvbtfwlCD03JN2OTRuVoVoVBVWhWBWdyrT1K13UiDRAO1XrXr7L1qrtFV2iBOiuOiv7FX9lergi71K4aq5uqqNVUKqJCBWB/E37hTZHORyTcpDiMncpOyTcpN5wegv8AT9SPEJP5SflBxTRUp/CUMgnJo2v4ShlF2RTchF3CU3hEX8LvhM4R8RfwlDIRdwlM4REpnCJYfCJYXD+9rkNjPd8yH8jpO42qoGZWJjMpQFeGaRdtdkhByGSZlsehlt5ydlNsaKm9UVAqBWhWhEBWBYH8TfugK1Wdyre5Vqt7q3erVb3KsVvdWq1BqsVvyrVRW90Are6t7lW91b3KoiFb3VndW91Z3Kt7lFu7NAblb3VncqzuVb3Kt7pozVO6t7q1Wdyqd1T1KzuVZ+RVh1QB6iqO6kW7xvVp6laepUd1KjutUd1JwPp381a7qVH9ao/qVH9So/qTg6m8qjtV6+pevqRv1TWuAT7rV6tU6/sm+ZTkqv0VX9KcTadyBfTJXYnQr3dCvd0q93SnONuSa51B6VeehXnpKv8AxKv/ABKLt2SDt2S8xq81i81mqvbqnuFpTSKDeqwxOAoZCL+EpuQicimcIlh8Ilh8I2uQ2M5/MhxukeNqc1rswvJw9FTa/hjz2My2HOHvk7Kbcpc5HZgfxN+4U2RzkU3KQzMncpOyKbkJM5xKbxmXvEn5s+ZYmQ+dpKaNmJwnYM4P4ShlF/CUMhF/CUMttAqBPAtKtGi8tui8tqsVndOFBmrT1Kj+pfU1C9fZVxNAnXWncml9OFXO6Feekq/8SvMHdHEFCmvFAr26q9uqubqrm6qoTOFVCrtKZwiHNBM5/MhxOkeMSfkhtcm7G5IoZw90nTblLmZOzGzA/ib9wpmUjmJHJNykMzI5iTsihkJM5xKb/I6XvEn8TJYnL52EoCu3E4djRDE4ShHE4ShlHE4ChF/CZYnAZP4ShlF2RQ2WhWt0VjdFQBBgpvCsbovLbovLavLGpVvdMb6c1aepWv6lTE6kfMQLk2qudorz0q/srleEHC4q9uqubqqjaeOT8oFBHJNyTkyHuMjykck3KXMyOY2YP8TfuFMykcxIpuUhmZHMSdkhlJmUqeooR90ncTZYnL5VyG9Dbi5Joji8BQji8BQjicKEcThlicMsTgKEX8JQyi/hKbwiLuEpnA34gRsw8pN4nK0aKxuisborGqwK31KzuVa7qVr+tevVetOrRepVOiLz0oK8Iu3IOoFcECNVUbeZk45SORTcvuHPZhfxt+4U3KRzEim5SGZkeISdkhJmUhxGXukeJsSU85JrdYEp2+iEcThli8EsXgli8P7k/KWJwyxOEoLnB/CU3IRdwlN4RFywuESbm75l7/1J/L52FAbTlsDVaNFaF5bVYqbyre6td1Kj9V69V6ka7lvVXaK46K7sruyJ3IOV4V7Ve1XBXBAhVCqFXac9mD/G37rZHMSKEhmZHiEn5ISZlIcTttdvujVE+oKqqqrerUQBSBKzThl8yflLE4ZYnDLEyHzLEyHzLE4f3LF4DLE4Sm5CL+EpvCEIOTOEIRbzkP5D8SdyVYuO4ob0IjiMnZiRy20VFRWoBWhWBWhUVFTerO6wv42/dCorTqrT1FU7qndUVO6orTqre5VvdEIBU7q3ure5VvdWnVAK3uVadVadVadVadURvVFQ6q3urTqqHVEd1RWnVWnVWnVWnVU7prVadVTurTqrT1FW90BmrTqi0nmrDqqHVUOqt35q06q13UqO6ladVadUR6grTqrTqrTqqHVUOqLTUb1Q6r1dS9fUqPKAcE+7d8r1L6nZVxNAq4mgVX6J1275VX6K7E6Vc/pVzulVOifWiqdFcelX9lf+JV/YpxqFeNCvNavNZqr2aq5uqeclWL/b8yflLE4do2v4ShF/AUMghA80wegSbL/U/Eap5yTRHEOawxukMzI8TZOyQk2XPZhfxt+62RzEjkhlIS5iTpFNykOcvdI8Yk7MbabXZtk/2/Mn8vmTuXztoqBWjREDcrWry2qxWfkUGnqTgd29erVevsvqdlV/Squ6U5ztFcdFf2K8xvdeY1Xt1T3CiuCvbqqhXDVVCxOFCL+EoZRORTOEIiLMoV2e87KquyiIyiURuQyk3MyPHJ2U2y57ML+Nv3Cmy5ydkhlIc5e4SdlIpnCJN5xohxGR/kHxGqPE1Ui/iZJ3t+ZP5fMn8vmT+XzI5iT/AG/MaJ+Q+VQKxuisavLbovLboi0K0KwKxWd1Z+RRBDc1adVR+q+p2XrVXol1Mk0mmSv/ABRK8yi8xqvCY4UVRtoqKnqKoqKm12YiAnZISEjxSdlMS57MPgb8fcKbLnJ2SGQkJe4SdlIpmQk3nB72saSU/HxMY7l4bDOGDXOXvkeNsncTZPzb8yd7fmT/AG/Mn5s+ZHibJ/t+ZP5fMn5fuT+GTuEoZbSFatyaBRWhWBWdyre6odVQ1O9UfqvWvWqu0VztETvCv7LzFfVNIVw1TjuQMhL3SdMfYw+Bvx9woS5yOSGUhL3SchF2RTOESbz2ucGipyROJ4rFoMlh4LMIUH/aHEZf6frZj4nl4ZPNYXigeJVrs94keJsn8TJHNsn5s+ZO4mSPG2T82yfy+ZPyHzLE4ZO4ShlEhNVYtzdJx3jYGoAKioE4CitCsCt7qz8ladVv1QB1XrXrVXqrtFU6KpqruyvV4V4VwTig4K4aqo2VRyTfsYfA34+4U2RzEjkhlJvOXuk6TsimcIk3nsJAFSsXEf4jEtbksDCGEynPnsGZl79nicUOfTkFdvJWF4oszWH4rDxDTejxiR4mydxNkcwhF/EyR42yPGJO4myf7fmT+XzJ+X7k/hKGUTkmcIWO+3cFgMxbr6/rZVXJpz21RdRYmM8cKwneZRyAi5CTMpc4UVE7krQrQrQrQrQiNyDQrVarVb3VDqqKjtUzgb8fcKaqHVUOqodVQ6qh1RG8KndWnqKtOqodVTuiFb3VFTuqHVU7qndNCp3VO5VD1FUOqodVzVDqqHqVDqqHqKodU7JUOqtOpVp6irT1FWnqKINM03IKndU7q3ure5VO6aFb3XisQud5bSvD+F8sVPErTqqd0BmqHVUd1K13UqHVUOqp6l4nG8ptAfUVV7iqLDwXYnJN8E5rwbkQblQ6r1ar1ar16r16rfcF9RfU7L6i+p2XrTq1CF/ZVfoqv0VXaKrtEa1CuOivd0q89Cv7K9OO9qvC8xqvarhqqhHjbI8QkeNsnZtk/l8yxMv3J2SETkr7WVTB5jqoCmyiOHVYYoqKicQ1PNyxXaLwDzeQdJPymzKXuk7MSdkhIbGcLfutykeKRQkJe6T+XzI5IZSYvE4vlYfc5LwWB/q79QGZkSG3E8ggG42IXPNGrELBdZkmYZvbdkUxrWjds9/6keMSPEJHjbI8Q2UVArQrQiBcArQvL7q06qjtV69VvuXrVX6K53Srj0q7sifW1XK8K9qvbqqjVOd6mqoVQqhV2P8Ab8yxMh8yfkhF2RT33EALDZa2LeezExAxOxLt6fioLw5LfEiTpsyl7jI5iTskJN2M4R9wpuUvcJHJCQl7pP5fMnZFDISbuCNfFeJ7BAAAAQbmZeNJsNExmI/csLwgbxLxWFdh7vavC4t7aHZ75H+T9SP8jZHjbI8bZHjl7/1I/wAg+NlFQKg0VAiBc1WhWBWhWBWhOG9qorO6t7q13UqO6k8HcqO1XrXrVXaKp0TiaZIOPSr+yvCvCvbqvE4noovDMHGZM57PGNAeHaoNqNwTfAvO8leJwG4eGLVgUIG6TuUim5S5mRzk7JCJQ2N4R9wpsvdIoSbzl7pO5fMnZIZS8Ti24VOZXg8KzDrzMWc/mVocXVTWtbkNv8Piex2e+X+v6keMSPGJH+QfEjx/qX+n6kf5B8SPG2Ts2yf7fmT8kNlFRUCxPU5MYA0K1W91adV6tV6kK8lV6NXZsTWW5NVV4vfhLw7tyvarm6qoVdjuUjkm5SGZkcxJyESh94psvdJ2SEmy90n8vmTskMpAed4gaSZz+ZDMw8cP4nd03exq9/6l/p+pf6D4l7x8S/0/Uv8AT9S/0PxL/T9SPG2TuJsn5t+ZP/8Accd9GrCZ6S4oZCTMo4orhPHZeDO96oqKitCsCIyVFQ6qjtV6tV60aoVVXaK46K/sruyuTXbyqq4K4Ko2c1VVg5CJQ2DL7rcpe6TskMpNl75O5SfkhlHGdbhuK8A3ifJnP5k3Mw8f/EPlYBrhNQ4zL3mX+n6l7/1L/T9S/wBD8SH8jpf6H4keMfEjxtk/ibJ/L5jiEvxKd1S1lEJMyicivCbsZ4k7lJ2RQk3PZRUCtCoqb1arFYrVanDJW91TuqHVUOq9SNaIVXqTeEfcKC3r1arevVqt6pvW/Vb9Vv1W/VUOqcCgCqHVUK/ap3VE0Kh1VDqqd1Q6qndU3qiodVb3VO6tOpRCorTqqHVUKoU4Kit7lW9yre6tXjP4wO68OymEFRW91b3VvdU7oBW91adVadVadVb3KA3uVvdW9yre68aKYC8O36IQbvKt7qh1VDqqO1Xq1VDVb9V6tV69V6lvW+5epetepVf2VXaKpuVTorz0q7svM/Eq5XetXK9uquGqqNlfqGTeN0v9D8S/0HxI8Y+JP4mSf7fmGKbWErwzbnVT+FCTcpN9HjHfMnZiTskJCXOTswhF2SGwZD7hQl7pFCTcpe6R5SflLxp9TQsPgb8SblJvP5h48/RH/wCS8P8AxNQ4nSHEZe6XvMvcqK0K1WhWhW+oq3urXdSo/VepVcm1ucqnRXnRX9irx3V4VfWVcFe3VXN1Vw1VRqq+v9KsT/IPiTuNsnZt+YeK/jXheBydlI5JuUn/AP8Ad/cjxCTskJNlzkc0IuyQ2DL7hTcpe4SchJsucjmJPyl4zjYm8IkzKTecP/5A/wATVhijGoZuk3jdL3mXvMveZN43ybm75kOJ2ygVo0VjdFaFT1KwKwKwKxW9yrfUqHVWu6lR3UqO1XqW+4LequVToq9lXsid4VyuCvC8W4WBeF3YSedyrE5JmUnb/Gf/ALSPEJPyQk2XMyPFJyGwZD7hTcpe6TskJNlzkcxJ+UvGjgKw+BvxJmUm8/mGKfN8XTRck3N0m8TpDjdIcbpDjdJvE6Tc3fMhxOkP5DL3y9wkcxtovGD6YWA36TU4K1W91Q6r1ar1I1om1oqnRXdlerlcE018T+1UKsDxSfkhJshmZHOTkNgyH3Cm5S5ydlNmUucnZtk/KXiW1wj2XhTXDk3ISZz+duI6xjnaBeBbVznnYzif8yZm75k3jfIcbpDjfJmbvmTPd8ybxOkOMy/0Mvf+pO4mw8UK4Ll4Q1wQncpHIpuUKJ25jj2XhBXGJVArQrFaqHVU3qh1Xr1Xr7L19lUp1aKrtFcdFerwrgqpu5VCrAZmXOTkPvFNlzk6eHlIZyOYk/KWJwO+F4U0qIlNykzLb4/Ephhmq8G23BHfYz3SZm75k3idJvE6Qzd8yZz+ZM5/Mm5u+ZDidIfyGX+n6keJsCKgheFNmI/CT+XzJ2RTco+JdbhFeBbxGXuk7lGiIQCtCtCtCtVqorVarTqqHVUK5qjtV6l6lvXqW9b1V2n3Sgt69S9S3ret9VvW/VUOqodVTujsorTqqd1Q6qibkqHVU7q3uVTuqd0BvKoqKndU7q3uqbwrVb3VFb3VE5UVqtVqtTm7k8eW9p1VKq1Wq1UTRuVqtVqtRamjcrUQAKlUOPjnSqDKABWpoVqt7q06qh1VDqmA7/lUOqtdqqO1VHar1aptalerVetepVcquTSau+Vc7pVzulX9lf2Vyad7vlXBXDVVGqrsw+fzJnP5k33fMm8TpDjdL/T9SPGI+JbZitxR+041DTJ2RTco+Kfc60LwzbWUl7pO5SdwlMyEhL3GR2j7hTcpc5GRTcpDMyPEJP5fMisVlzCF4d/tMDkU3ISw+HZ4nGOI7y2ZLAwBhtG1nP5k3nJmbvmTPd87KKioqJoz+VRWhWhWK1MG79qjtV69V6lV2iuOiYdyv7K8K8K8K4LDPF8q4K5uquCqFUJp9TpDjdL/AE/Uj/IPiOIwPYWlYLy1/kvzGUn8KEMfEsb3WAypuKw8pe4ydmJOyTJCXORz2j7jk3KXukZFMyk3MyPGJYnL5k/hK5LGZab2/tYeIHjacim5CWHwrxXiP82Lwvh7Rc7ODMv3JnP5lh+75kz3fMmyw8pMy2UVFRUWGM/lUVoVoVoVgTRvd8qwKxWK3urTqg03FUdqvXqvWvUquW+5VOiu7K7srlcET9QfCuCuGquGqqFVeLwr6OHEFgYt4o7c4RxOFDa5waKr1Y2KmtDRRMyl7jJ2Yk/hQiU2Qzlz++5Nyl7pOkUzhkMzL3iT+Un8OyieDhOuGSZiB42OyKbkIlYviQ1tjM14Xw3vfFnDJn/uWHz+ZM5yw8pMylh8MsLL9yw/d8yGbpe4yp61RUCtCsGitCc3eFieFDt7TRybiuBtxNx1W/VerVVcnE0QJ0V3ZP8AEManOfjHssJrGhEoFViOIyOYQi/JCJTZCXP77k3KXuk5CJTMpNzdL3SdylicKGwiqdglu9hQx3DiC8/DIzTDuEH+Iw286p2LjY1QBuXh/DBvqOcSsPhkzKTP/csPI/MsLhiUzhETkVh8Ilh5Sw+fzJubpDidL3yOY2Pw2vG9eXjYXAajRf8AIA420QxcI+4J7m0zC8/B6k/xPSFh4Ln73JuG1uSoiNxQG5WhWBWqhVCgN69Wq9S9SqVUoneFcrlcFcFcNU47kCFUKu0psmy5/fKbL3SchEpmUm5mXu/UnHe35jVPyQVdpa08liYDeS8t7cnrzPEBeZjnmvLxX5uTPCs9xqqADcmncqwOSw+GWHlLDy/csPhlh8MTkUzhETkVh8IlhcIkzKTPd8ybxOl75HjEC1p5J3h8M8k/wwCb4VibhMbkIO4Sm5SbzkR6ttFQK0JwQarArFYrERuQCoqHVUdqvVqvVqgCvUvWvWquVSqmqqdFU6fdKCqVvW9b1vXORCoqKiorUWIBUVqoqbBzVFarVarVzVFaqKioiN4VFRWqitCcqK1WqioiNysC8tui8tuitCtRG5NG5UVqtVEQmD0qitVqoqbkwblRUOqodVQog6plaL1ar1ar1L1IlybkqnRXnRX9lf8AKuFFhn0hVCrtORTOERdwlM4RE5LD4RJmUme75k3id8y95keMSdyk7hKbJv8A7keKT8kIuyQkJDP75Ql7pGRTcpN5y90jm2T5OyQi7JNyi7JMyETkmcIiUzhiU3bRURyKaPSFarVaqI1oUKr1KrlV2iu7Iu3FNO5XBeY1XhXBE7isM+kKqqq7cPhlh8/mTc3fMveZHik/l8ydkhJsvdJ8n5IROSbIffKEucnSKblJvOXukc2yfLE4ShF2SblF2SbwiJyTOEROSZwiJyKZwiLuEpnCIv4ShkIu4ShkqKioqJw3FMG4KitCtCtVqaNyoqHVUOq3remgr1L1L1qrtFU6IKvZXK4K4K4L3lVVYe6L8YDJeY84rd/OT8kJNl75O5IRchF2RTZD75Tcpc5GRTcpN5y5yPG2TuUcXHazdzTsXGIyTMbeA4RfwlDIRdwlNyEXZJnCIuyKZwiLuEpuQi/hKZwiOJwFDIRdkUIu4Sm8IicisPhEmZSbz20VFRDMqgVoVoVqouez1ar1rE8ym5Pwy1hJWG2rmlVOiv7K8K8K4JxBCBk3KXvMn5hCLkIuyQk377k3KXORkck3KTefzIcRkeNsnco4DfMxyXJw3LxB+q34jicJQyEX8JTOERfwlM4RF2SZkIv4ShkI4nAUMhHF4EI4nCmxfwlNyETkVh8Ilh8Mmc/mQ4jL3x8ScgsNtLdtFRUTxuVoVgVgVvdUOq3oVXqVSqnRXdlcq71cFcFcFVVTswhF3KTskJN++U3KXOTpFBVVVXa057KhV289ldtUT6gqqqqqqqcQqhVCqFULdh4teRT8XDA4lXzsevJVGquGqqFcFib2oHcFUKoVQqhOPpKadwVQqhblVPO5Nyi7IpnCIv4Sm5COJwFCOJw/tCOJwoRfwlNyEXZFM4RE5FYfCJYeUhmZe4xxsIvcCqZSfkhJmUaL3FUVqtCoqIjeqKitVqoiqK06qh1VDqt6chVb1vW9VKqgruyu+6UMlUret69S3oVrt37KIqioqKioiEArVRUVFRNGaorVarVRAb1RUVFRUVN6oqKioqIhWqiorUcNp5LE8O2iZhtYNwVFRUVE7JUVFRUVERuQCorVarU4bkBuVqtVqtOqcNxTa0C3r1L1KpTyaIFVVyuCuCcd0sTIfMsThQjicBQyi7hKbkIuyKZlJmUm5mXvMjxCT8kInJNykMzI8cnckIuQiU3ZT7pQlzkZFDKQlzlzk7lJ+Un5SfkhF+SEcTgKbkIv4UNlFRUTslarVb3VDqt6xMh8oVVToruyqrk9yqqq4K4K4LEPpKBCqq7X8JTeERdkUzISZlJvOXvMjxiT+UjkU3KTecvdIoRKETkm/fKEucjIpuQk2XOXuEnZiT+UnoRfkhF/CUI4nAU2OJwyfkPmT/b8xon5D5VFRUVoVE8elUVqsCtVqcNxQHdb1R2q3r1J1bSgTRVcqnRXHRXdlduTDuVwVQqhVGxsvcZHjk+RyQiU2Xvkc5OkckPvlCXukZFDKJTZc5e+RzEncpPyk/JCOJwoRxOFCL8kIv8Ab8yf7fmT+XzLE4ZP4ShF2RTYnJNyVFRUVo0VE0K0K1UOqodVvW+pXqVXaK52iuOiuRPqVwVwVVUKqdyQickJNl7jLnJyETkh98oS90jJyblJkhmZe6RzEncpPyk/KWLwoRxMkIvk/Nsn5s+ZP9vzLEyHzLF4EIv4ShE5JuUmZSGZl71RUVFaFai3JWq3uqHVUdqt6NVvVXaK7sqqqqgVUKqqq7K75c5OzCEXZIffKEucjIoZSbIcRl75c5HMSfyk/wD9oRxMkI4vDJ/JCL82ydxNk/NnzLEyHzLEy/cn8JQyick3ISZlJnu+Ze6R5SOSEgFQKipsptoFTbz2VKqVUqqJQKqq7XIbf//EACoQAAIBAgYCAgIDAQEBAAAAAAABESAxECFBUWFxMKGRsYHwQOHxwdFQ/9oACAEBAAE/IQvKxVHWdxUutrUxUsWEIgggazIIIwzHjJJIxiSSSSRXZPj/AHC8Ydi2l11cKmwKm9CpsFTYyyr/ALq1VaBU2Osr1O4qqpdbWivKxXxnFllTCpYqtfIMe/dZVFS0JYIIIwTMh4ZmeKSScJGsJ4SSSNkJkkk4OxbRJOVdXVP6ipvQqbRU2uo62urQKmysqncVNgqXbxq8rJI7jMiJ2wjNN7QkYs8hiqV6ypdR4FUVLLPKRhBBA7ogghEEGUIRggglAmSIZmZmZnjkkkkV3hJJJJvJJJwkbNEkkkkjiZJJJI2VCSScEkk4SaicJJwegiSSSRsRJJJJInckkkkkbzEySSSRhEkkkjY1S8WcYnDeZNMIkTNn6jAmZx0yyHJKCXtRpNcJoYqtamKl28OqNPYqWWfwm5VlTeLFSy2iB0IIIIEEEEEDWQSIIIIEsJEEEMhiCRBBDIGhISIZDIIIzIIIIIGiCCCCB2EiCCCCCCCCCCCMyCMSBBIgkQQNCTMzMzM8FhJbQhEZHsHmSEO6uVgxlYT7u30Fg8S+iROxPkiCPFBCIECMyCCGZ4MRJJOOtTFS/wCGbS1Us1VlS7qrSKmxlipsrNVWqp2Cp0CpsdR+U70LCysqtaypYqljbi0BUwbGYeS5K3Y9pM8bfuPLeMGa8O0DDyhKsiILuVzM7BsjJJmxOGtTFhwECMYwzM8HhJJJI3gSSSSTWuVVhYqXWVR2VaRU21LHXWvvFYMVwqGaBU3IVNgqbC2pXdTsqsEKlVa1lS7VlegsLoh4JizGZNZNRznIs8c35Dzh2GvBpLR4rQBlTixAXsWMetiAIzjTVmMMpoFesqWa1MdiekZrCCBozgyL3IOxDIZqZmZnhI3mhPBJJJZgkkkkZbUrqnZjnROOkVNoqXZloVDLPzUrhUOvchVCpsZbUrup1GKpVaiqKmyusULGShEmZMYNCGs46AsYbsX4NSGiRjGCEaayNEgXIsLMhuTcdg1A9QV61lLFcgMqbEpkjgQ3GZQuaMic4WFoSF8Ek4q9VyIIbYEcCCRIgQzMclmEkkkiuJwSSTgkY2ZIskfyKyJH9hEkkk4FTYXBwKSU8qH5gqqKqqXZllSu6ncVLFUqtay8gsUKpILx4MaUXJAMLDUSSTQVSv5BiufhjmYldjwgkmVJD5zuZWFuJwhcE4zO0Sy6GdSMh5Bz0PBVNyFTZUdqUogWpBCgRmZGckMTyXEVtRBBehGZmNwJvAqJFMIXwLx2CSRstJJJJwuE4JJwIisIkkSvUkuQnjJI4mSTjYK2EkkkivROGomSSSTgRJJJJIiSSScJzE8JwnAqXWWNgvDYI4BYWCWJLwRGEySSScFepipYr4JECzwe2IsNyKwHBIISEQ3I5ywm4/yFpkMTpGQe+chiQkQG9xMjJvPKphU2ipdiPU5i1uqFhUo1UlmeSwWpFdiR0/WhNdVkQxR61uRmCMXop5j1sCocIfQG4hiIECCBosHDh2IRBBAlmx5GfESCTWR0snqKV0aEohjjJDSuZ2NAx3QkQyGQzMRwJMhkMhmZYxMiGQyGQyGIghkMggazwggggQSIIIIGhIghkMggjMSIIIIGhUsVSwnAheCQzZrF1IEEmDsSIZmKcJwSSMJkkkkjY2dTuqVsJI0WQsWD2XmEtQkQIIqTYUsKnUtFS7DEiUyzNciDVQPXmxGb64ahpIVOG2qNQj4wct8TY9djIOM4JZ2mDdBJ2cERQ1+C1CxbwlwNYJg5DNhYzI74qPfcIEOEjjml04JSGZIojMzoWwmKukSPbI0Cp0iptZZ/DCpdq2tWgVLFSxYRgQv4gVSvjBGIWBIgZjkR4SSSSNmhMkkkkYsJJwnC51OppFUsITYQxrUQLUzYhPYpUrYkdKTdmJkmssbSNJmrCE7mXWSeRC2R9wseUMzZdjHNJ2Q3mI5nlpggRvMfe5jORTrTa+8PxWWL25qyZJSJCSoyx2P+RU6exU3vK6q6psrauq9CpYqXUL+IFSxXqYqWKiCENZkCCCCORpiRmdCQlsSasScEmosJJJNAqJLGPkiSaM8j2XMl4HdCuFcSIUURfYrYVAWM1u3hoFghrxqsEiZqSMJdhJK2DJyzYh7SWKO4n3Tb+R+ogW7EkSyLqHfMjM+ueBU6Rfwh1iqKmx1Ga1XIVRUu1Mv4oVLFUxUutr5B4oRCIECM8HckQyAryFMEvYngnA2Q0JEkkkkjX7JJJwkTzkkk4uzqrQIaFJPbsJCSonAqG+IY2Ol4JlKhRf2oijViFGijAqoqpUstq11aBU2OtrVcKoqXSL+KFSzXUxUvzReUVOgVEFhYiCBAgQxnY7EEPcSciHQM9hzDrCeCSSRs1gtV4JnAEjZCZJJJJeES0iSSSRvLAkkkkkveK2NodTjDXVYxkkktFhJJI7YJJwkk1YSSSSPCcZLK2uMk4O4qipdIvNahSSMVLxSTi6n4BU21H4NU3IVNpYqWW1K7pijBBGAhENiBAgSwlidjsJkJZEtyRI5BpiOKBngmZnQVAR0TMV5mZmZmZlgzMzMzMxyZmZmZmZmJMzM8IZmK7IZDIZDIYyGQ8IZmIIZmZmZmYpMzMzMzMdxSSyXiwmSSSSSJkk4V5kj3yJnE25DHIpMyXiMJ4tmxEjeYnhOLqXhmYGqKl+Xd0Km0VLrrldeNaRU2uo7Fil0LjcjBXEUsKosIIwdnWV6ncVRVKp3FURBBGDWQkQRhXltMnE9mJIbQsGKiBpsJCJEZVyQ1uHIpJexL2xHiEkk4Ck7jNSiSScGFSy2sqXdCptFS7Os9yrV5F9gqpU2MtVL8oMqnSKm8WVK7quQqiqVTKqKl2FRXnnGuAUXkWYM5QtwmyhixvlimYkTQmQhCII1gjBlwEiMDMmM9icSRsbIkkkkkTzdTuhU2ipdi2q7tVrqsVXd6rBU3i1Uu1d7dTKp0ipvFiquqsCqKpVMKoqXahYLzW4kMcTCxXCUSKh4SYIA2mLvjMikZqwdhMaxQxdJq4qSwgggaERAjzg7HYSzZDIwOhmarBHBDfFkkkkkdi3GScP8AupXVMrxiwVEl4sVLsWqr+3kaBVVlV1TCqKpVOsVLsKgvNSyGik0EvYRWDuP0G4mRMXgbtBxUDvg7kMUeK1iX4yF8EoVJfwgO6wghbHAR2FyIkMHYluNZDIIZDMzMckjoS9icJNQniSSN+hJOEkjBJJJOFmE4TheLV1jODsWqrn5OgVNovIYTqKpeUVNlCwXmrCFQdzNhIVsXisFzx1xk5ETBvLE0QvF3HioXkLnU7i8exli8i4QRjBAigQICHY5CGQyeRDwZ7GexnsTkWIkkkkbLESSSSSK7JZJLJ4J4xSS9jMzHMDMzJexmZlgpwzwzM8OZmZ7Ge2GuGZnsZ4PGSScU4SSSTmSSSSSNiJJJJGIkksF5iEDoZkkk54kkkjeCTMsEldiTXCEQsGE9xbSx3Evp0CpsLKWXOsqdNVrLFSy2q7yqVOjuiCC0VLsWeRqqd6rRUvzReRrRBCEEiCCMDQliIXmKmCMyFsQInc7jbcSIZmPgRGhJqJ4JGGyC0kkkkbHcSnSKmwspZe6tIqdNV4sVNjLdVzqV1VkVN3cVUqqxVW1K7qYVNoqWWVlTpFS7VncRBc9c0MVLFQXlYqtanUZqQiEQxrCEPchkCA0xJmexJOCR80J4kkj5D5Ek0a6yp091XqljFhar+1SqrHQqb+1VjsVN4sVL8sLIqbUKmys1Cp0ipdqzuISKh3FTYKgvMVLNRUuozWsqks3TA1mhIiRw9zKuMi5G85URwwdSRL2Z0JJJoCSSTQLGcLhYiSSSR2LVVq7qVU7OqrlVo7FTfLFS7V1/aplU6RU3CyrUKnSKl2rasRNDuKmwVBeYvLWUs1rKlivU7oVNgqXSjCAgQI4IEzRD3IEcSMCcEjMl7EskZA+SwQwR3wP9kkkkk4CSSSSa1yqzR3VdLKXZlirV5OgVNjLVUrqtAqXatrU7oVNgsULzF5SyrUXjmXOp3QqbajHy8i5VWipvFqIIIRCGhCEQIEMCQRgjkhmY5MYjPB2CZOCSRrCZJJJI+QmTQHkGyEkkkkiZOJJJIknBJI1hMkkkksY2RJJJJJObJJJJJG7EkkkkjeQmSSSSSakkkkkjeYmSSSSNiJJwLzU4I48cZJJJOKyls1FTaWUs1VOwVNpZSyx91K/yC0VN4sUvyg11WaIwSwkQQQQLkJEIggghDLcIIIIoQQQakYwQJmiKXYWMYZCu6ndEEIghEDQkQQiEQiCMyMYIGsyCMEEDWQiCGIXmIgPYFEMnVYLmZyHSdMLgGYzwxIb4ZJxEkk400SNUwqbRUssquVO2r/oVW9Sl611/erVU7KrkKmz8ipu9FqliqV1TuKmwTJJJxnPbCcZG8hJJJJI2QqlQsHeqwWEiF5iGQIa+BJDDab0rWEEEZGETSIF2Ge+M0BB1RJcsls8DLHIQwSSNhMkkkktFalllV2p21aOxVS1UuzrPsq1VP6CpuCqqm4WqXWV1TuhUvBTIgijX3U7KrBeA8Fg7kkkkmYxYrzkMawQpCSTJEE4zRswXJCphLDWq2o0IszgJcH2Hc5iWBRvRHE6nALgTuEt2BouyZPMgRHchgkkTzEkkk4WatNVwVNhaq1d1Ko/4FUVT9gqbwqXYtqudVgVDLfyK1VlTrFS14qMWKgvI8Cw0NyNDDX1RcMUnlgiZlDR0MzlDpotGVpQbgSiJHni8ISSkmdWe1DxQoTrFalpRYRFjiOMbCK04cxnbDciI44HMnQb3CezOrEY4InDn4GNSIt4juPnMhiSSNkMoEkkk4au8JJJJqEmroVNnqq7vWKl3Fiq51OqovJd6y8jUVRUF5ixaT0GdDKmXYyicVhDljV2M7nBiuHgXOzKvFtBZKdmsdsBZaVNt4O5AiUROiwQxo1JrMdd7lyx11z8lBuH5JCw4kcAqBGRxY1HcYyjucmA5VgI4/OHodToZ7EpEtsWOC6IRIYJG8nRJJJJJ7pJJJJI+RNASDzhspJJJJI2bJwSSSSJJxICUjnObBJJI+RJJJJJIkkkkkYTJJJJG8SSScJzJJJJJNAicNAvMTJJJwvwsZCGQ5KaM3NIlGeCxC0hlhRZg8C0EuHYjnHKzIyIJOh4GZZZFxR+bwYakjKuaLV2IbIRXyeA3MDOhQWzKL+1SEyxNO2DRakHZ4Pn2ESyMr2XQKm4WKvuq10RwQEkUIhscBAgR6kCBEhgTMQe5HkjuyJDdkS/OCBEhYgEJ3Ai/EQQIRBAtyGFDEgQiBEjgNDgICJEjgRBHAgRWA7jgLA7HYjkeGCW5LchjTM5FJmZmZmMzMzPAvM7Et8ROwnYS5OuGO5JIw2RJnC2TE8SMJFEMUODMxkCLTF40Q0myzHBlzfBKVF8LEIkGyw3OQhIuYF0jWLG7tQ3A9Ic+axb2FaMYhiY/3CpvFir/AK1avIdfVYVOjuh471qrX35B3FTYy2pXVaBUvAqGaipdC8zFSxXxhELY4iCFgdxuEgSFINcB3eR7mk0KHOGCTA13EuwSNjEiVqJ1DWqpNiR4WiwyGHSSGhYLLCqmRNmN4bFnhcZIiwSEcYMnkLCkNYNFjFzcfuFVvSpdmWKs/wA+QauvIGj8qUZnFZVfZUr6WO6FTYy1VK+p6VWPAqdanekvK71MVxVFUr4KLFCCGxE4CJBavAkGRcmZSMaZIhgdDlDNoSTmBcWNiZEiRkMGqQHyDISIswk1DFmEolDFKiFiucSG7wqGgJdjYuxVa11Sy1Va+6vZqVXY6qSfypYxVLLNSupZr2FT6RaqvYqd1gqLKyu+6rhYoXld6n4FUsV6mKl40yFyoLCCMSRDYbNBq7iUIgyDuye5yHIMZ4ZCdhLcPgX+GOFzQ6SGBBhoUkkfJdiwkkkulipdi1VW/mq/vUqp2dVe7jGKewqbGWKlUHmQrU3SxVa+6neqyoy51XUIXluqZdXspZc6ypZZVrq0iqWKpISofIzmRJfCEcBHYaUcsJDZARIlrB3JbkPcjcI4EsDpg6EuLE4ZEnTHgZRHcjuRwSNmJJJJJwUkkkkjYSSSSSNQSSWCJJJJLGWLGSSRXdSIkyScbBMmiR6m86rBUsVTvQheW6pjZuvZSzWKm9CpZbUr6r0Km0spdWYIsxKl21fcKmwWMYXCxEYQQNCZENiGxDYhsQEECJHk7My6ikxLcTxyS3G2rQ5MROYluMJJ7kt8NPclvgS3JbnJhOQRwxkXJEtyHuQ9yGJPcluchyEtyGNZoTbkDlIEBXAtwgQ8ECAjM8P44zzZGY+B1MzoORSZ7Esl7E4IknEk1JxELzZrRl2E28CyIyIzmVIcTyJI7kkjLmKm7sKlllV2q+paWUss/NLRlqHb1Vd3qtFTeLVS7MzJV/35Pq6q9B1lTayzyHcVRUus71lSxYwQQakEECF5bsbdh9KOAZInAjuzvJbjmwyjuiBE8RqxJajPoxOBFzHIQ3wZyFiJwYfLGcGNnqtVXCxUusV1Tfp5DaKoWrqm8epV9lXs1L0Kr0KvuFTeFZVW1OrpFS7FnkaexUuwqtaF5WXYZAQwHXmDQkZcKqhMxdFg8UbB7Y4cJMkd2S3Y5LaEERWSRJ8gkXRnRijI5DkE7UjuQM5CQkkkkfONkiaGWVe5V/xXFS+X5FVrVT6R61LLatfdSqHZ1Vf2rlSy2rV1V9gqbC2rVVp7FS7FiqV1C8zvgmQXnxXcT6kZNZU6MGwFgxs2LpaEKJTlUNmhUtkW0sbMZbHAjiRxHALgdx2ZPfjukMyFCdBpKJO9Q8lmPkZdGROzAiZ3Y5DmIbkME+hImSSTgFRJauxU3i2n1j1qWWKvuVKp/wCaresVLLatVV/YVNjLVUrqrwqXasrqF5ncQ91BErFcAg8xFlR5ouZoa3Gwn0mPOm5OHFsjVC41DLCEQ3yF9Y9SRSnimeqxVkRYsXJdhRncrQsZYwggghCLM4EcI4ThwIOJ2Dd/6C5yWBugkR+REbkdVgbTUnA/JJ7M/MmdCIInIcxDcZEyh0SSSSN5FmicLndXt1aqU19gqXZlqpXVNnUvFqqV1VyFTZ4wXlY7ipsG9SZbjGaKUlU4FlYyLxYu7udjYBFPfF9JmqScJqtCJGdiaSEh8YNWgeai5Ei66JE8fsoNDCZmOxaq191L0VhU6OxV0ELY4jhFGGkywu/5GjUSyO7M1mZdydDtRC5IsiOB+B1R1Qt6PkydIkpKQks57k4RnYdCdhOUdCcCnaTsJv8AMybEvYkJ2E7BzFiBJQNhyCXsTuEhOe2AluJEiSYLizq6A0sJwliPENmySNAbzEyBDBJlDEkCSSRs32TgkXmuEJJxGHMlYQSSWRNBYSXYsQuQkJCuKDOgQqm4Mam4R8mmWJQoJCMDGpuFmKrxHXIZiUZWp6WP2CxWUKKGzL0JaqtffkPpCpv7ipb2qcrF1TePSq+yq+q+nU6jR3VcLVXu1OwVNmEUQXYQQQiEMJEI4DgIDSgSIECMECQiRwrzJngQ3Z2eI3MsQ6YHkE9w5aMyEGfASa2BLuPIMUSD9I87Dc+DJJJE1wiSJxjeNI8kLNcZt1gFSg0guRlVxgmWvyWIWMDhusxK96noVfd5M1lfFXsCpsd4qhWKn1D0qXYs1fa8ZZ/yKn76rhYqvuqdoqXyFTPgipsFS6S8zqPFFGgRDY4kcBxcBghOR3HMwT0GOC3En4iS/wDRm0HJOQZBkDXKkKU4FmRA0GWPacAzPZmsTGSco3kOX5iWGXtwCosdXTPpLVL18qX9a8qfUVXhU+melTe6rnuKvbr1T7dV0tVau6n9BVFlLLKmVTYKl0l5tFTrXoVLruwgcXE47RMjaG1HEjhHBYzAuAWkUs7iemASD3hRkoMihElGzKbQoktGdxHZklh5oGsISUkdzkOYgN5YCUSSTg3zUThOfqvrxj7hUMQ4GmWuqfUPUq+91LVtVbKm+aKrKtVT5VHXZVNgqWWULys0eV0CpflbWKypZrJJOo0Nt5MsiwQGpV8iwghbEIVBEWIbHEsFwjisQztOQdmBINu6jbYcb4P8Q7Ddgala2E9SH6GLXcluJ7hlkcCyZzE3U5iO48/kLbENyScG9xMkkUuTIHKEgCxU3+jJ0U6Fiq7vUvQq8qtUssqVRp7qO1bXVoFS/wCIKmw1VXIVLruyurUsRLdZUN10KWRaipvlipsZaqv7Va+hUu0WGRC2IbCLRqcLCcB2m02Zd3cXJ4SSqKPyhilyNlyAoawOiOomBmZDQ5aEhNaye47Dqx9AgHD8CHJ3EOTO7HEyHJ2HYQF8AiO2iPJETnohSwlIbnNhRHkEQcxDdECcCaTENyGCST7hEkkkjyMVCEySSSRPMThOLdiSSSSRvJjYz53YLyNyF/CFhZS6/wDxVf2r7FTcLHkCqX6KvZqs7UygkT3FTecHoUuzLODIrUEEAgjCFsZDsIIwhbEIgo7IRC2OAhsQhpQJKCGxxENiBASSziweAiQGlKIESJEgJhiMDsI84IIS8PcluTEtxrk7k9zmJbktxpiTIEGPPRwI4HUko9ZInwZCcgm6iTfAR3MxCZJJJI2RbS8KpsLKX5a/tW2Km91Xvuq+jU651T9tKrVtRIh0Kn0z1KbGWKrXU9mr/mrP+QqbxYqtVYVN0sVSu6rkKl2F/DKlMXAOI42AgeSJCO7O7ExrcTga0xjfIJYkrWdx2HKcuGUJNyBJJI7DZEk0axUt89X3Cp9Y9aqx9+Taa9VP3Cp+wVQsVN4tUs+6q/vUnmXFX2VXSxVa6rPQqb9a7sKmwKmwX8MvI2BVLPDg4hxhWwtkb9DsI7s7iW4TYj0ch0WAnJliwh/QQ2fwdhnQt44JwTjHMj2BEXJxmvKSx91e/wCSf3Ve2KmzoFTcFT6R6lLsLlFT9nkT2aUXSxVau6n9P4YO9Vgv4LrutYFUtXk2ipdi2liBVSDjHCOGcQiZIb7oUdn8mx8hEpgk2cbSGR+xHH+DYYjcHk0Fz5LkGl/k/YzLPNOSMTZQyGodpDdvDMslZnuBzI5kcyJJGyOHROEHYXFCTcPSRDSyaX4P66ZCmQzj8iEiSnSqn0CxTYy3Vb+f4RV8VqrfzVq6qsFVb+fItF/IstqsipsLVSxX11TYyxUrxeP2LsVPpHrUst8XhEFohWPQ4Rx8T9nyPJ6I4Gi14ZJmjYsPRky2pGBEMbIuAryy1GtgoQR5TkwzllWOwg3E/c5zkEOBkO+G0oHCOEIh5kJLOEcI4RzIhuOsx6kNyJDchuSJGG5KJWEi4+CcZxE6XYsJJJJw14TjI9uxE4SSN4Jp/wCarRfyLLfIrS1Sy7VpFTc/hjuztV6R61LLdXsVN8dTdnAsU5FxM8y+FS0NN2IUg0H/AMGNq7FjC2IEUxJHAjiHGOEIJ5EZZHCOAcQ4RxmcFQMOMzJge7jgOI4RK3I8ji9HccjI/wBhHdnZmV+TsOwluJ7kg6WY6GeIXNinKdHk5TlHuMxQBLcNb0RuI4FgkY4n4Yep1NWKBOQl7EoE3tg6HV+duBHZnNhokdxpgSSSThpqsLFLrWkVN4tfwvvurnpU2MsVX1F14ZfMzT4KSEPlcMVPtYqehzSdMsLK5VPpHqUuzLP8IL7hU3ixUqi5CpsZavAjCMNIlQvNGCBxI4sI06DCO/5OYKIczCxkTgOVEF1RKMMysMqiCe46shhRE1LZyEdyG5JJYFTeLfkHpVfbWPUpsfVat8lNeBDG0J+qJV4yN2Lk58C+9Vy11T6B6NWvUXqqu7iqVqqufdaVNwtVWoVOn+Gq62rRSyylCGkJZshtipJdEVp+SVqLmye8i1YSNgWTMhSxOwSPMOw6s0Rkd5E0oHCIbjeXohuSicX+Wq6WsJxsZkVVXO3kawlpPyZk74u3wu7Yy4FT7lasVNysXu3Ul660qbpZV9lYVN4sqV1WgX8FirratFVhYKhlzqsVWlqpfkIRwI4xxTjFrBLgXJ8j/YFE9W1ye/DcT4OD8EbhqIIVlI4XySD3BzTKzULLJmSGWfqN9fA7/g5xKU9zgHCOIQ3RDCJokVwU5tBHNuxZKCcHU+q8XZ4z3BU2VV0VqfWPWpYsfk6ks3+Ghq7qs9VXS1VXdqrkL+CxFU2FirTVYWYLFlz8ivFqq7tV/wAVexVcFZU3j0qYwnEOEcPEciW5PuPafzgE+85AnvVAqoRCUXjIX9MJa/gwuqQ2ml/kSsr/ACfpZyhMuyGzXJ5IT7R/gDctRGckeop/mc2C4BwDiDexHdENyVuQJEFqha6pdmWKk6wKqVDwtqdVbWV3VchULysVSwt8m0VLL/IF4tVfZV/z5LdFZU+oelSz7avdrGdFsIOmhVB4zOLRELAQQ2RxI4RwCZk1OEMHEcB3fIhk3R3Dbq/ke78iCCIRkrM2OeskEt5yDIuGNcyIdWAW/wAbWNsZg4pxTgkb0QeYlvI3LA6LD0QLISHQ6kk5gybE43q1cAnPjTAZQnvM2olsOiw3Y6HR4+YWbDEiRwNmhGJAjuLyvCkJJJJHyeFJJJOE1bRUs11hU3SxVau6tXXkf2oVPrHoUu3n9p6PiJpezwrSWa2P3hU+1V6AVQVlS3mPS8mf0q0dipdixisdQqbReHkQiBwIRDYhscXmZmeF3Ed2PlOSbhWhg8bkQHRHULMcYGHVgDiXA/jARByYDgkugaYUkk4uovFipZbUL0eQfahVSx1Tc6LVVvdV74nxHrqPTVSc5fJYukM+E8qJ6jFS/wAteVN4VqfSPXq+6rX0Kn7BU2MtVWsVLW7FU2VT/h1UsLFUr1IJHEcAb7qJdlI7ITTvI4A52Dzxx/gS3YKdof8AoGM0BISMkMf6DlwkmgnpepJZCG5OEi9XgMk42u0KnKHrU3Oq1e7Ve4ZXgfidH0qll7DjKrCiTdi4NcfUFSn46r1qfcqvQPQqTL81L1VlU3i1VK6r7qjsWqp/xAqbBWpYrurSKl19FVgqIWw9hGyRxcFwHd8kN2Rlm8FMHo+pxPgj+hia/YxsbO0CXMR7jl48GcP/ADGq/wDE7/g7PgcEggksRlsDhHEInYjQJpvdur3cNT10fXpiTYnPYmxxNhick5iNBaO+LBU/Yq9irOi4VXSxeQXl/lyVV3kU7MsX8gy5VayxUsuVaRUss8mwVLLalfVZFg1JFoP+URURkIoIbHCOIcASbIk6Qk2Xs7Pk5hH+0ZlLI66MlZj9SP2I43wRsCWmRByHBFxf7Cdn5JBpCQzQxhVL+kfBJFvNxdmrgiDIOrfkyFLRxiczgWyOEcQhuSN5OqvdFT9wqXziJodmWf4TN8sVX3VhU2Fiq11LyMuVWlipZe6r0KmzzWVLs/KX06GRVwfYKm9U9I9aq3U2T7JMnhJI/wAuE4yZEdnT6DWmvNu2xwIaWxC2OAhS6OMS6Ti4DgHAXGFL/YSv/Q7sM45zJvQMzCX71hEkpeuC4RGwRsHZCSEf+w/E6o6jqiZpSI4ETsj0fbFidgnlhyzmnNJPUdWMtHVlkwxJsyMTmJm5kYPdiYkC8chyHMROYTES7kSO5zENxshsENyG5JJISSSTgvIx89TZixUs11XBU2VyecVNqFTY672KnTEzTPrCpeHLKfTPWpdnTJwmX5JJZmZkCuexBnjFxOlf+jylVPsipYqm5WLn3U7OqkyEsIIRC2GhCGxDYhsiGxDYgchbBxHEcBxGQIQxqOMJecPcfN5mJm0OMO1pQ7B7UOXyG6iEEi9/ihoz4sibkjvgfBOMcwiAkE8ZGyGM0rWKl7dipvVz2qv+CaGfkwqc8BVT0KbnQ+AycGbPdeCCKtGDM92pejyfqip9qq30FT6J61X3Usf0FS+VTrGFVKpXdKsLyMuddUsW5lsQtkcY4WGRTI4xs3+SD/0Gv9gmWoIivYxkYR/mLh+Bb2YfUpy5Ig/sc4Wuk7SGzJoichZEuMHwTjC2QueYwTRJ7BNEl7aGumaz+DYO/wChbZBuSuJ5DuJ/g5f5Qk3X0NDWSnYlC7FVvQp9Y9ckbIbEYPvqf3VZn2IilfXUrqljyFb1VeoelVa+6WahU6exUstq/wCfKFrSwvI2aqypZrqfASM8XLeGmRhJJdqW2Emg/wAIbbqcQa0wylkfqeDJK2GX6kTYwzOP8EcD4N1GQLk0WPyON7F29hySZ/sQ9ZP4Ho5yZ2/GORw5jPFJ9juY25GJuXJtIQ3Jwcp/iwmgOl1EyJYuxbxkkZa+xJPgCST6gqV6VUwVP2PKBYqvtdSJU39xU2Ou1dVW/mtrptXmaqtFTLPzTI2TAQgjFYiCCCMGzipvqXC1ShJZy2Yyj0jScgyn4AvhCwTzrjwGGxxib/yP8QXyFhoZMcvu6NbbjJnB8j/VFzJIyOnAnX/ph/8AlD3/AMConKPLYjjqGbHwCf8AkOZeWwitCf7Q9BRvN84HIpkh6ZdA/UiHQuz4FutfjBIOT1Mu0l0nAEtcSvVDBNPoqp/Wr0PJV4VLsy1UiVQVN4XJeSsQvHsQvIzXVeqnXFyEqbS1UwJEvIV6GKSWy0ZFHeaXI3bzMSViilLM48mt68Gk8mOusYlWNE/6JBNk0XhsqE3ahsXMZOil2LVTZaYbIg57IO6Rwxu0l2Uk5FxJWY2uYLtPyJNp+T/YFD/3FLNE8Muf8H61h1Jd5GwRuEFBLcPyYJ/uHA+RaqfOGenMZnCO1YA8k7iaGdxcuEhsxbXwOwaCEOTlGlS3heOcolkFtDiHIcxzIWC3DmRDcgSNmGUIkknFPN4zjp7ExMnGaqF5Wqq5VOibIkSHdCptZaqkCME/F1awyFZs0X5Gapga+6vRq+5W1jBkM1OSH2UQgmcFlItjg7YNizMnQehS2boaigdmLkIpSE+1LQ8EVPtVLy01Tb6VLmLBBC2IbI4hxBVnU4hwsFxDgDioOEl0YDjwEQIwO4juyG7O7FmZn1Z2E9433ktxYzEqH2WCaQd0fifidCxC8pkmFJyCQdxDZ4TK3zlOOJ2k5kNdxlGBiZeLWq1ltVzwaLCxSpYEKjNwZAtLZGdmOBJJQlCx1d1fUq9GpJMsWxLT2HZnZ2QnsM6rhQiPyY22xcjKfoUNjZ+hfgIo9CjwRhn/ADdcL+CT1up6jqsqPWPQ8i9IXkF3asLx7ELyOu7oghscQ4WEadBCsMpHr8icBNgzuJGw35P0o4XwRvH4mXZGTZHC+T9DOThX60Pl5iOz+Dmwu3HFEU9hmyErfCTKVmGTnlsFCeYRZEqfs8lf1q9oWKFqZkM7m6sRHIIwQUZEnUKLAWLrGSBfiPUp9A9emDJ+bJp9gNCo+55H6Kq9Cr76vUPSq+xU/pXKrV3VchU2FtNiF5WqllitYMTF1rS1eBCGmyJVkKGwduOLgVcsvySq/AzT8BkCVgf8ZCmuf4Nr1P8AHI3CC2Un+ycD5P3s5wtRA2ZPQuL+Bqv8Inbk1nhnFz0FtThHG+SG9LeaHZhw89BHUyXk7GZA3XLICUjSGRJfIpdAswum2DYhGXpPUp9Y9epS7jzRc7DLCxt7PJ30qnZXhVCxVWvurV1VZ+SyrV3VYqsZYqbUL+Gu2qxljBPFtLKtXdJMdohT9g0NaRPRnvhaKl2LNXu0wiFpE90G64cY4okWRBIOI5/kQ/sP1MaOM+RDGfNiazCgzOy/A9BPgS1r8DMZVyEiGWlWkbvzCj/6HEDuQZCRcZDEmH60f5A0yz+BcTs4F/iE/SZkQOMOKwiM0PkhNJ3E1vhNFysbnb/hA91ZKm+Ky8lq6qtXYqWW1OpYKn0vLa6521WssCr2qJEZbg6jQ/jGsVWvuhjyE8nQhquhKMs8bRUuzrHs1a/AaovBmosfuRJehfFZU+uN8WELZHAjjCTZLETkJdI9uWIcD+SO0/IoTc/JFW+cZEh3YRHu/A3kicX4FLmrXQxEbsNoouT/AGD/AFDhfJvexmf+iGKci3uJGH9ZD+gvOHYar/AZf/g7znOclWwsRBwjiDGR6nMcQ5EQ3IDeTHyUsTqtHYqrfIsqeh5ddc7BVFZU2LCuQMKrtY9iqtfdDwvkEN10dDBU3uq5fUKoP1Ve8NioiXQN0r4qJPTPSp9Fnq4vB2Y2AzUWFiq52qv7VL1oWMEIdiIWxwI4EcSOMQLC22CeGSVoNCeQymR+0nd8nI/khv8AIUNWLMzuzvJ7sLzRbZ031xuRDgRxc7H4H4n4nQzk6DeEpe2AiWEwl7HRnRnRnoeassziHIcb5OEQIwzE6Jwk69E8vkRiZrMdslS7H2VH9BU/dVe6r336vTVTtVT3x0rDVxKpUhkyy3QnLKlKs8JD6pY6p9A9bFiGzdCfDSWOtfY6vmVX1RU2ehUvbuq8WKvZquqWFlWtVoqXJeS0yjiHCOGRacBZQS6HJ8j/AF8ZnauzYGi9TjfBsfGQPUbUSf6Q+T+RCuoyc8gbRkpmnlc/YjkfxiI4LBdkITbFwhJuShj6hUssuxU+pWrO7+Ez7ZNT30/asHbfJKs2gbRJlPoShJLRRgFZUv8AAepizU9Y9Wk9Sv8A2uliqOylnsiwfhvsFVrHVV/fyC8WqpXVWLsVNgXktZapZoFTYJZIVKuwWJ8wmfaN1PlmUPIlOAYp0eELYhbGzFyQmDiYXagLasv2x/sk/wC7Gk5/wTJTzFsfgjCM/wBk4PyOLPJ2IJXo5ZM/2o4vgO/9DOZZnsNVwnPIv94T7fMcAvDYlbrxz+8lC8R2OghvQJueGglOwaHIp1hUeuWOqV3o9TGwvPWPTpZaq+51IJU66l3cVUtVX9v4YKqNPYqfWF5LS1SzTVeFZCpuY5B4JnFW2EGdLDcy7osLVLHrVXdxeRS52yD/AAhu/wDA/wAg4Y5zBuQbP7nE/ln6mJIkmcdj9bxFv8ZCRv8AwdeibsI0v8sKdfyMT1fMO64Q63C7OX84I0mg2KlFkuc/hGkIg9CUklDNYTw+JiaqRaxJS3E63yC2fyQ3GUElipegehjYXHo1M3k6x9jq+1VGdxV7QqbxYqtXdVjqq8aKvZq0ip9Ly2lql17Sx44xebXI9uSmwtUOxmYuaq4FT6h6lX3ur3Kk/hq9F4F4j+lgi5EBCE+SbcUwlkM4cHXLMZxT/IOEN91HNwEubPA/kzZ9p/pmbPtMy/kFls9Mi1H7kZWr8GZkomdKY0MjJZoRvM/3Sf7onrX5G5p0EKqJyfmiNG0moQNX/gfsR3fByHOKtG9TgnGOCcQT7IKMk5jkRAkkcU6bpYsZwbrtl6rFTJc6tAqfQF5LSxUvCvJX1LuwqbCxQ0IuFhur3hVS1dVfc/IXoKq0dRUfdqXYiJoSyw9ARU7tN4VF5lKxY2Fw0dZ6lNzo9KmxlvGCCEIofYhsjjHGOIK0VGe0N1xxsdOI22Z+xnI/k5B+54OG6xC5+B/Uji/BuIy9EQswZLeO46IiRnVE6UJ2fnFhxZFLWeEJTdhujI8i4MjyRHIcpziMhbhyHGOYgJCIXktGyYTjJNW0WCdF9TTVeLNJrVj2hUtDFipdmWfIH06mbuKj7heLxVZ1VfYhUO5lJWoXnqljqn1D0qb3R6FX2Or26vQqt9oVLsyxUqhoS7FjFCCCEQ2IbCJQk2OBHGwURpQvKMLXBTwy5h2RSlJ3fgjeiN56Ocw4Qn/aP0Mzf/VETVGc76Er0fwNd5+D9CwcmgykMTbIf6xxCVuSh8w+SJJIUZmLCxU0hU3ixUuxZqvqvr1azcWUengVHui8ctdKHgXN2q/K1PpnqU+oelS7FvyAyVNnVVcLPkdvYVLLarIqfQ8xYqtVVoqEM+yiGyOIIsHEGRwMCl2QkmxlDV/+44L/AKjcyuJkX9B08gto10PR+Aj+rhz/AHS6JSQaX+T9DOb84CnemSQSYl1+AgvK/B+hCbYcccNgkuZwjhfJxCG5Ip/lV9OrUUHvQk9TFkNR94VN1V6CkmZm/Ki/Bm/MVXsdU+kelTc6/hhX31WMteQX9xUuwuVTKp9IXlrFVrqtXYqtXdTqnJsmCV4Cw9mvqpWMLYhbIkMkIo5HCJ7/ABY14wuzWpBZr+RN/wCp+14BK1Bjzac3P1JHCH+Af4RBdBEwZWYZMjl2LU+Q/azc9h5id5WL2YlXFf5TONoR8RjMZcHO/jGstuf6w04NDifJzIklYNl1YtjYj7CSRsuxH2Kq8KrWrqn0j1arKjV1Vd3FTYyyr26rwqXWf0qyeaLFUr6tPYqIGNk+6WOofOLIicNLH3a2qftFTc6rn2PycvUiMhXFi7REoeTGx+/hC2RC2RwD/MFEpK5L/wCQ23wPLod/yQDPN7yc/wAj9zILfOMByiCpnLNv0OP8G1/BuERuP5AdXJ/vmRZO0m/7YN22nFiyHHb/AAcXwGHhMSxqc2PvHGYHoZiehwjmRxCG5Iyh9k0qovKqVqq/tVYFTY62oVNsheWVlVdq09ipayLX3UdNJcEyWCqPsqs9Cp+xVeoetVnV8uq6ob4lgg1PqDCeDfK8yhsuEop2cJlhb11Pl6VXixEIhbI4BxiUyViEyG66UCaIeWaO05fkR3EcDZDOG5pysN+pCuc+CjeEtbwHQPNKRk5JH6XiRyTmjTCe4y/+AlejOh2GSw+Yl1IdTkMhiYOY5jkJJJzCp1fmlZUsV1WnsVLFy/JGEkkjaiSQ6kcGYoXJeTO0KmzsKn0z0qXYtdurL+ar6WFhZieCxuwJiPb1fZFT7zHAcsiVIMKTG/rFT62q93Uy9B6lLGgdTTV/ZFTaKrX3U8EIhsQ2OIXIWwcOC4DjwoyIkd2dh2ZPfzkC3AnYf9MWsnyZH/oYHOwGR/pQlf8A4E0QmRaMW/6wHBwxhZIR9GFcI5Fj/wAE2iZjlBiMeAW9qnaFVlS8dJ61Nj6rlnfV7eKRmPgvSqT8Kr5XKmR8C5JMgo9zBpF8I80ONX2oVWsdU3Oq97FXoipYNVr7qf1FVJVK7upeW1CpZcqvQiDgHAOMQbC+JimNmBdvySQOX5H+wccH0Iks5Gz6nCGR/wASAwPQZYf6RHu/J/oIWqrA72drE9Tg/wDA4fgJv9DlJ2fUW1ER/qHFOIOmqbj5M9KfQwEk0Xu3hVjhgL1qmCMzKdLxs4Gw5sQqfv4ST42hU+oFTcLFTe6PWrSpsVPtFV9lLP8Amq0VV/YVLUMheTQKl1zT2KmwsUs5BA0qsrQptrNm7qX1oggVaBwI4J/mHFOGT+UjLNP0M/c2DJVvnLjm/JNbdDIc8jycGi0P8FilnsbmAPiU9fzC1PnGnEeep/hDVH3DHYU0/wDiTXqBaqh+xGSr/B+9MTNI0NLIK2Q/2jgfJxj/AGhpByIbnAliWBsjgWMknzrCSheO0qbOoVN/tCp9I9KrLn3E0vVUs7CpdixVqqs/IqtfdVzy6e6nWL12KmwtplmSGeKm0VLPvdSu8iLhYqbnR6lX2Kr++lo+mTRC2PoIbI4vxgnDOMcCCP8AvZsT8sbv/Uj/AGEYaK8nFX5P20f5iOx+DZZ6IlyvcVkfBGl4wW5HOEhBpf5Fr+wlcb2MtfBhUjMvYyXKP9ZupPwdvwRa+h/mZMQmq6ITbfMcI4g5cri2xDfGRviPUqzJ9sFRq6q+wVNj6LNWurR2Kr/urIy8unup+BRU2lqoeDq4rgVK5LsVLLVSv68nulip9I9Wllvt+Tr8iwVHpKperU/doYiWZEayq9B1J+OaoT3IIbHBFtThC2RLnHwPB7NPM7fkaYkhM/liTQmfd8G5P8EexmLZP8D0fiI/oEBzFyIJ2MTeScofqXOaSKIcHwO4bU7i0ksFxjjHCOEJChuQ3IEkmkVVtTz5bT3U/BEqq1Qz54u9Cp0ipZbqV3VXs1fehWp9A9Sl2dct7q8gij69SZnBeAkkRUB1PvBU+k6o/nFTb0V5W8iqhM+4sIwgXMLkIbI4EcSOEcISWDhwHCdnydgnIhydhLeTxcbrg42RLaPx85ZkJWAv8I4/gdvwT2YnG28b+KcUn0EJmLbEk4SNmLFRPiZtiECdL27qsZZqXo8mt9KvUPSpsfVd9r5B9+r1lWvUzYl4VgVPqvyT61V8VLsyz5H7dV8tVV/eq5Cpdi1fxCpcGdiFscCOMcU4o4OWRLpwS238nefoYk2YTkzf4P1vGZRZSk9SRXWTPaxI0fBH9cjCvUNllLie0fqZ+hjw6HFmoSM76ORNV/4ibl6Tj+Amb/AlBongHGEJwSfwFtjkRK3x9ZXLXVPqVdn2uq+ng94nBDH6GEkoiTEm6VgJUaqrsq2OqvWdV9R91XqVj2q6qbpYqvsqs1XuixU8D8t3YVLNfdTtwknCRsxasWOXc8QqL+wqb1eU7nEOMN9/iOGOMoE2g4mBSLexspr8i6XvucCEi/8AY/WyeWHiDy7IShl+MO4Xwf5pEdUSSQmUajk6n/ewYv8AeSJy6FjN0wz9qP3I/wAU4SeTWZ7G638YrwXUJqlJBOdosybScUIboz3OQ+BHKZjOIwPUVSfweSdR6Tq9qq32qvWPWq9ryhXkv6ipvFqr1vLf2qZ91TtFUWqh8rgSMJ1Td3FT61Y94VL9VX1cHReqekepV9yicPsYZbIhbI43wcCJ+QS3Js0m0olDiH51qdnzgKH9hd/1E4p83UQcn4P3I/SsMf4AlkmpIhgs/wB4/wBQ/wBwmZ3wL/VQGX+9CVu5W2IrT4H7lRMZHOjOKf7xyI4BIi+J0+oq9QtVN8tTt6rFV/3U/rVeLKvU8t/apmvup2Cpc2qh5RcIy9eCVPuCp9KvZqs6oudVcFVXo0t5Ov3e1T+3yZ7S8i+hV9bGCFsjgQ0oZaHCP8Y45xcBZ4tJHZ8kN/kQ/sP1sjWY8ye85eG4/wAHCIJhkKxaUyOCftYmXh+RkkpZnMxqRV0zs+B5DzsREdxwTgHMKsFvENySSSS2p1bwv4dXqpmvuuqbp6lDz+Ror/vCpeAuuKrqh29CqJU3KvTPWp9Y9Sr7nVZ2VXVV3UaeBqr6tXoqrbUbK4dV/er1CxVWfmr/AIIIbENkcSOIVFjjoA+05GKiSP8AYT3UEo8M8bWMdEbIWE8t4WW87D0/Ix4aFLYf6R/tHGORDTcVLJROM1rtMySHRUWMU+UVPpmRHFV/kT36vvq9M9Kn0WetS7Fnt1e5qv7/AOFKewqvo1KoeyrhVSxVfdVq6q+4VLsyxVqqtFV6XlSWjiRxcA4pwxq0GJyMofuZzfISLfORC+4kfIw7nfB+1EXOf4IWXoLcPxgUN/iFQrKoyQIrskn+8cf5P3szc3+cOcbMuyDW6Mv/AJCV/wDiaUfAi/oTMSKzTYWEfCE23zHCE86I5ExOIQ3RK3RKrvcqsFT6BY6p9ISOmmx1q/3q93UkfwkY9ur01U7anuipaGFar7atXVV/cVLsxcqldU2S7FV6XldoqWW+ReLFQ0R8EDMapXOWOiEcA4h/hHGHVkDinGOMJOHZxQZVn8nN8j/fIf3n6GZqT7ILFy/hHZ/GDf5hCz17H+IRp+LFugzUoJKWVnE+T9TP9xGX6RoysiYLQk1X+BtNxk4OD4nO+GNrRL8CqaH1jyMjinGNc1HIjkRKJJF+RifjUZfn5O9yr6PkPuVfaqnZ1xVN/cVNjLV5BYuxVev5XYKlllZVFioW/gaa4nYKoWuqreypeqr7FX3VXhU+oelTCGRtE2g43wcX4G6/wESyUKkozjYbKhBt0fyP1MTZbu9SP9xOP+h/okKPUsJQkZjYf4wL/OP8YjUMtBfUgP0sn+2cP5Mv/wBjxZSzN/3w6QtF/wCIleh2hTVHsL/Ac7+MNxSbSLTu8QzhHMjkJwnNinF/bVnRUdnWE8mrxaqr+1X3Cq9fy6PMCqLF5aQ6VNwsVLL1T6lXrPyHdFZU+melT6x6dLs+qi7MafyVfY6nn81X3PCoWxwDiREYVyXQcc4jifyd/wAim5oSP9g/cyWHXLIBXxcX+U4vwQXqHsQaOTUUmeXvC885pLePI8xCig7CDXFLnM4cY5kQ3Ibkjmqbla/tVf2FU3w+V2VW+AKm2lmY09HXLIqbxYqXY+3yb3FV1V96rtipcXq0I9Q9Gm51U3Zlj81fc6vvfwmyfx1OypdV3C1hC2IWxDYhsSMhwh4zTvwhz/LBSDmERdGAcA4BG7BPqRWSOB84DlHJOrM4RV0zsw+Y5h7pBbPK3hSTixZhNCq20knozItme7WFVWKl2Lf5q9ip+QF9yrdqhnr1F6R6dPoGTqpudeRhiR+bqv8Aaq/vUmd1VOZeUWtVa+6vQqvi8sIghbELY4BxWQnl5CdqE1cgYoyg/vQkbx6afAhGv6orpqThhs/3yf7BOz8jRsE9jAfpZ+pjs0RmQFYZm+Tdf+YuH+CH9RFo/gc4kzXT8H6EJ1lJtJwzUp6FGOKcMSbkobyHRnGcFOHfCcJJJy1umm30rip9U9Cn0T0qfWE+On0D0aXZ1Rlqr7VVnZV7VWp8KvdrFqq+yqx1VYKl+CFSxvzFSy2pXVytRA+CI6ZdU9IRBwDjEukWSEuLbHDOKcfARZwSGDLiH8nKUH/sR/uFA03GfpeCcw/Wj9CHy+o2U+D/ACxf0hCO6ujuEsUzhTv/AM4S/wBgWqB+Lc8syBavyf62Lz+1EWQRV/jOD4Cc4l/GJTucCORth03/AKEn/qcL5EXxeOhJK3xf4TP10+sepTk6D0qXZ1hIqXu1XtVL1LyoWKq19up29VWipsLarIqbWRP5qqW1IlUK1DUof8IaU3U7ehU/eKmxmRKru1Wqr79VvVV9yohbHAhBkIgLIcLCv8o45KoWE5JS2P8ADb2Z3fJMCzcjqPYycvnIf3Eo/wCmE50GQ1TCyOb8C/xHE+CCrcKwppjY6mf7B/oH62TrgQd5uMSP96Ej0+A1WjEpHMcMTBwThCEIXZK3JVF/eqc1dVN8VWRfl1f811S7FlT+lVo8s/4ewtVYXjINFcjnV6VX3Cpsdc+6pP4tX26rqu12q9YqXjpLHVPrli6p9csdUv8ACejTl6jMzil2eO4EcCOEccRW0uxsvgnZ8nf8kN/kI3dziXOI9WG4PwQ2QTI2jqJJOFGnpEWp0TCP9RpR8BqvOFLcOOcY5kciIboZRcmn6KnFTYyxeReEz+VVbS1Sy6Kn7BYRjPsGT7B1OzqrInYrU+oevV91XoKk8nHoKrvaFUVZU+sWLqn1T1KfUPSp9c9Wn1j1KXZ1q191e9VY6FRAnsiFscY4RNoHtzKgbMbdzn+R+5kgTrWPdYTYX4NxDgxygs9i44P97wXKGw8w1K46s7/jF0dyGoROYhuSiTMFx/DWltLLoqdPYpj8KH8t1DSe8FhESQbWr/isFT6R6NX3Vemqs+HU3z1ejq+oKm92hVaxdVaxU+selT656ap9E9Wm4ehV91Xt1OypauxU2MsVKovCpsFjBDZECFI4EcZwnDiJ0Lv5GZ2MgI3jmw9ok8nOBZMkP9A4HyP/AH4F7wTkxyj+rxu5jlHmeYhgDblo1kS7Kdj9aEv9ZnT9w0+kLEGd3wcuLlxItucQ4QtkcAQBbyOIStyeScF6FMjS3bq9VCpdyp7gqY/FVb6Cp+kKm/8AgVUsVUsVPrnqU+sWuqfSPRq+3yBOdVkqbhZ8h9mq6WVKq+4v5GXKrCyq508No3lOWLK2DHRwJyzjBkyqMxXwZbELZELY2AtscIbNBwzhkGC1Jsf2dOfycnyEpNyxImfwyH9p+hn+gR4XcWbmOd8HA+DjfBxvg/xhXDMj+uPa8JI2jJRE/ATjmPPfkyP/AEc7Am8+iLW/zgK3p/B/hidp8BTteWwWvIn6v4P0LG5yF6BC4OMR/sDKQ5yHAFtjhfJK3wh8kJ0v6hOpKpWKn0T1KfVqx2ZZ8m+qq4FT6xbq92vKm7W9mr7vNZcFTcLV5JJ1YQ+Mz0NF2rFkktsGOGYy20iVTVqP+RU/cKm+etU3u/JJtq/ZF4UhbELYVBxI4hwj/EP8giQRZCXST6DhDbeZswEpS2DZuT6/Iit85+9kp/7mUpd5oW7P0o/UjMsH+UQZ/iEk1DoZ/un+gcb5GGt/J/pm8ocX/wAjgfwdnwLBT8EdcRuOJmk4PyOQtWHSVKsTQ3k6xZ2VL0qr3RVKxV7tYXkF3asurh5kqbCxeNoYmIucpsIIgYlgE9NC0ixECbNUf8VfeKn1j1qXYsd1e7Uqj6zq91VcaqSpt66vQ1WOlTx+SFUFYhHCOCccRiRDaU6MNxv5P9wSL/2HkvGwmnRyT9qOP8EbB2QiS4X1J3BwT/MzlkyWchkdmRaibqcmGXLSLZHGIbkkjfEWuqvcrSqFVr7qvR6XzJVFipZe6vuFS7FpEqGNVlZifFLKm+WOqbGWe6nqDVBvJ51exWaqJeNvH4areiqz0FTeFS8MLFT6R6VX21fRxy2OA4ESlkSrNDjiTlB2HZ8ik1xZMmRsgka3hOD8Eb0JJ4KepIkGvWcgZwcEtxBf+BwDsOUVlguQ5ThEdyAwqbR6DzJUtkK1LLu1X2VPEQ6BpbeK9VV/cVQsVLs/LB9VVOyq2V3V7zFVy8bpL66nz6KvVVZvzFUlZU+ierS7DzUezU2RWKrX3U6EECIXYk2OI4RwDgwkp3DV6sNJajnDkHrryphyTmYVMZf1jGoiFFXCsi4fgdvwd/wdvwITlObwuc5jlOYmI5n8GRf1QNnumhAtjhU6TMn3AcYUk2ZNgtt8nAIbie5DqYsKoZ0YqHZjZPJX9FTtqXOyYqfu1e2xeKEWVRdHPPcVP1RU29FeVqfVPSpsYnko91V9wqmlu3U/pVo7FVYKlj1PI/KA0JcghbECBC2EU9hIhHAcCOBExkKjxDhDgmhveCshG3Rxzj4PiOES7Ru0P1MVk/kf6YpJ9pAzlkWv+mDSLYNvRYys/UgogfsQkafgyrfg/wAAjeEbV6E5DP8AeM5SU6nNCL+5zPk5YhG+eXDAZHH+k/wzjT8GdhanwH7kc3rCZUlxieWZBfBXCOGccabOSk4Z/pHCIbolbmZ+zE1T7YsJJ/MjQig5LCXrN5QOMnQyN+SAqfvFS0dRY6pudHoVX96rNSx2hVXu/LFS2WhUv6Eh5DL35I693YVN7osUapIyHO8Ypjq9iq6WKm5XPc1fTqXr1ezxhbHAjgQq+QhscY4xxjhCioyhnFwjjYtIFLJzJ+pnG/k5fkQ/uwV/MxKDm/B+hClzgEl6XQuTPkAHUT/eN9Pk/exne0xa5SND0vwNV18BP1fwZdYZ1Mmw4gm6CG6Hy9BOoWKn1q99qp2VfcF5GqrSKmx9YJUsxW/yMvqWipeBU+6Km7VFTKwt0ihpNU2FTQ5YuqfWPTq9hV9Cr0lTeSp7Kr1GKn2FXruluFJ+Mc1fexjCCJQoM6SRwDhiQ5SkwjQcJsz8kf7CeGzU0uyOznC+CP653wrzTFiFLJWP0M5BLUIlDkQlLAOCcU4RzInOIE0pUuzLV5C5CpvFi8A142fdVaKl1/dFT61faj5oc1rKn3KvvFT6p69V3t5E9VVF9T2NXtxU+6q97Tc5LIVdwKn7YqqQklZUeiqu9oVPqnqUwfYQ2OCcU4eEmZGSc3yP1snF4nWsyxURjbwpKtRPkep7iChiLC0dh2Ewgc+G4RzEdxwUU3Cxfw7Mv7VaBUs1d1L5dRSNYsSRjd1R9mr7xU+6PTJJJJJGz9iSScWzoVheeQXbVsKq7atkqmx5VW/dX2ReP2OlXrnqUu1avRVd3qsZapggobHEjgRwnGJTSJNDuOZ4Ke8amCyvw3AI3I6o6FzI9Gh+Bi5BzYBMOfGAZIKEcNH+scU4Q4rDeHFP9w/2DhidZSZm1FsThnFOKcEZZQISWjiHBOMcyICi1CjVEFssSSLFU/eK2MkjfEJ/FjgghCTLlkEiGS8D08nuqr09Tq9Xkb1UbHAGxkLiVuiVuZb4++q9l1PHJU9AKrKy6pbyZY8rKp9byh2BU3S1fwwsQQtiFsQ2IbHAhWyFtE11OGcc4pDoE7E2g/yCIOIJFkJGQ4xwzgnFOOTQhch3ynFx2hsGp1gGWGSxGcUeSyEnf5MpD3Xyf7pA4f3mX/2MlZrnWJ4dxqE4kkw+YgLifvQth8H+Mf5Q1tkXkIgMYRn+8QRllCCIT5Mmyez9bOD8iawkxTzsQFmm4rA8f6hmdWg/SiP9Y07nAX7kQk2sh+pHMNeCp2kQn0ZCO6n+piDcIhmnIpNyVui5A0HdBn60GuRrUU5Il+TSC/MkzzT4G7IzGxslBqCM4vyJ20rsdWTQat+CTQ3hCceMMn5HreoVSTyXWB4aTksZpIJbYUpOHv11U+kWPILPQqb5b/DCZq7q09ipfgxU3ixV7WPHBtLB6rFTau6JEhA9Smx9VxMu8YiBPwt9GmD0mEENh7SOMJPxo4kTuYjizwMaRZM9EI/9UxLZaNVesj9zEjW/yJFLKEKNlhH6Ecf4Egdk8w9uB+L8n6Wc4eaGWCmbnwPcL8D0UnBvyJrFglUsWu0NaRO0EN0K/K6nBUMTfkh2GJBBYy2QQGWizJpj5278lcLVV7lVnoVOVxWquffl7NVWkVLLfzWFTcLXVLLu9GR6GJ75MUtSihufkiTexDemmnAh5ClixL0MGm41JaIaTFQ4yRAg8PeYQQJ+AvfQqV6VVKTW9EJ8pF2fwadJf/yCyP5zMpSsVXpKpepVrVDIhbDSioHEG2/xFpDRSsKZYryHIl/IhZ8wt4Zlw5jsG8ha7iOl9rBnUXoIxb/YtHAS9YysJ8TOcn8xNTZwDhHAwhF0NyC4mn46LVVc+6rHQqbhZVc+/LmfZWKl1mCpulrqlie1MOztxzq9ggUywGFwhIbaQhwOkO6k9SS4lAThIbaCdi3iQRLoQYQ1wWgTK5M3bGBBC+p91VN8SxaK7N9GnmgyTolK5mKEoSij0V5C9JVK5x8kicy0Edo6GzMyE8TMJl7D6HLAEzI9xsiRJguS7py2FsNBVa0J9MUOASLSMTLdxDsoToI52h0CPcpgXEcHAb7mQpHzCYUp4KImhbiwKbSbMTW9EjyVwKobL+G7sy3tVd2FSyyp2ipunoUs1d1JIPahGZEwUKS0QsklhNN7iciURAxAgsfSFhXFDQtpn5XQRgTIVT6al3DQzMhwL6xtNfAtELg1h3LMIafwVfUq95VfTq+pVrq+0wV5h80hDmTbghLyRpYXvQ2NOGZP8J6BmSTj92DkNljOytJkQ2IbI4lgoi2ThO35Gu7FHWSWsYyW6xnjYPwwijti3ziRdwvKJj5h6nMjiHEOIQ3HUiG5yIiSiVuIi4rWcyOQ4ByIhuNIC3DkRDdENyVujOQx/gJW5K3RK3RI2N7EonCSSVPMJkm8inz6i3GdR+b1EpFkxin0D1aklu3hJ74we5GqNolm4NYbLFjemorGd5Cita4RpUPUso/jtye2qvSVS9Sp6i7Mb6JnWwcg4iKQQgxCWM4lBBGHri/AQQRhJmX5eLUkRMj/AJFT9q8q/rVaJEUPzHYKaco4jiYDhwyzyHASDhOIWwPbI2aw3FhuOcZGBPdHES4tpETCGw4H8nAfuY+b5G2Z2fJzv5G7X5GjL+Tv+RTFwLn+RzKl5suEjJfyDqzbSLsy4tKZXOClMluOCNRGw6OUJWr4Of8AB+pGdJ5FmOR/kCRdxH9Ij+iNcBdMNWFsHcgnsDewRW17BNxAX+vB7RW0ewkkTNsWfbyMfL50dHrIWD2e0O5kwo4vgZ2vwJ2r+CY8Eg0HAOKcIlU3Ca3JRK3JwhNU91VfWq9FVaqnxYmWMjYkvsKpWuqIGhE7WomZYpJNWJm6FTY7F5DVVYuxfwzZa+6r1U7V2gVTYqWa+6ld1gujR9mfyeLCSFIcEh9xYRCUiQnshU+gelTYy3gsozTIE4XOxmDI16Weu4hWQuULdrVdTwthczhscQ4Q2XU4o7kWxe25+SH/ANTsJ3mIbI844/wR/WOwscXzOqODi4a0hqfG2Gi/8Tt+MVviJwjhHMiVvgvWpcs9YyOTEj2BU3SxVJAXfkNKnGRCYGps7CpdnXaqrOio7FnlDMqffkFla/QKpspdi191K90HhCyz2sczFyw+1Cp9Q9am5RNcz4w+wKOauJEHJfayGnIybYW99X26vv1fYq+3UmbvV9nGCFsQ2FfCcSG66EdhwneQmuBCWXyEz5Y0hNCQmSYO4nYLDI3MMbzRMI/1i5fgTdfWCkYN0ciIbonG0SoZA7MnFCfKn7BUuzLVWurR2Kl2LF5RYyzySyu0dCptqOsvVQ2Qh7+D5CQsLPaFj0bBSEs7YG1dU3OqAkqBJSJzLg+1lgsgsfc1fdqvdqreyp/kVWd9V9X7SqX00MSxM2NMLMPuCwghHEjSdRQ5rCcJzfIj/YNkm52EbujDXguzWBOpDUmRPM95AOBnONST1FssBzIlbkjZMsVMidVYux8qbha8osZbVYqsLKv+RU2Cpdq70aLItxTULewhTL/gesF2RtJrYQLhhrFT6561NpFgZcWMfvVfY6vvqudqr/apL9qr/Jt9elGrAoUpCw+6Kmx0FTc6LeDQk5HlYIMqihCsjiG3Q4BJtgnFPMl1IW8EnVgeAXXQlMz8KBdzxqBBqIapnZh8hFcEbN+VWD5VWBOqcThJIxPN0KloX5ETRZUNjKgaliwbAbFmP2CGNnk/4KKiQjlixoB5SpeOk9aiwe5YwuLWGhaq+51Zl7dX3ur7HU0t2q+/VdVe2sWM2HorDUSx+/jzrgcxnbO5kB5sTpzpFTe6LeMqHusPYFlDw4ouKpsdfnkVN4gUYQtiGwqlkIjy6xi2pO47PkjuzkfyR3ZFQQZzM5mc/wAjmZlRQjgtghyJTHk7Pk5n8m238nJ8hbchydmJA7juyO7JFJ3+R+5kP7BQ/wDY7hActI/azKU20gv95kEsjuzMuxYRXLJ2aczkiW9vcgFwjMY/zggd/QpnciNNmLJYS2iNn4I/rCtM0ZA07Ef1iP6x2Qt5oeThkaXHCJmaG24SGFkSmjmfOJAmekTJ1yJmk/qP8o/yDj+ApUyLn+CXBU2yjieUXGWLaCTfF2Y8rV9zq9jVfUe1V+ghio9oI4KRJecPRGQtskXHWKm4WqCwvcGWKoqpvFqqNkc0Tg2TBEk4XvOz7qrkKl2LVUr+qrfyKmxlmlj5G2LNRWwDQuFjf2xiCSZlYVaDkfgDYHWlZS3T656lIufQ9TBMxZh6Be8UtZOqOzw0I4kcI4g4XksKjaOEZ0x7Jd/k/wBAsYTK5I2WEn+h/jHYN5jAkKVOF3RyyQdWSmTuGu8ibqR3U4ZqwF/I4BDcnnFjLBrY/qjFSiFObVEOAoVNdhT62h9oqlaxYpVkPOIWKjqm8W1e1U6BYy80fZWFS7Fir0qtPYqbX1glT7GLwKw7BBrQ9zFNmAyyMjwYo3RDe0pn5E1vj6J6lFgnqethcW4esehT6B6lPoHp0vJuqncPTpdniYp4IWxxI4xxBUW1G69CQ5n8idZcBKsL3xNKaV+Bb2NAE6kP2Mg1ifaO8eVsHeNFym/+w4KGQ3GdLEXE1vT6ha6ouLGOvGnwvdLKlz7VOzGBY9i8ssLfz5JYy1Ur+hU/dVewCp92h3lhpEYVuPsiwZI5U4WlyiYRLg3vmEMJY3SxdUOW4R6uF5YsPQPXp9Y9en0j0afWPXp9Y9an1j0aXauZ/wA3V9rG6jTFQ1n6EiGw8K4HJNtQKLX2PaMWM+1hik4LoWVYVc8XNMWCHhcDDs3iP0E7I7nB8CQZZMHIR3E/gEm5ND5y2rX3U7eqy09byWV1gVNhYqyqb+9V4s+KFzwzbgmpFU/ZWkLBj5iw3R6w0IWaCwydJl6afRZ6dPqnr0+iz16faHp0+iz16bnVf+x1WPtVIJio+sLFknD7xk1DGu3WCLUNXVAsVFwpt/OCoRDI4DhHpdMJ7zOJLfGwL05E7HssKdiwbKruxMjuIc4SPgLHTcxDc3gjfyywtqbKSKi4WPILqlwyJTJ92KE1w6mJwmPDftqcrGJCMH+oMZmPplrqn0jL1U+qepUnpqfTF+Kn1WejTY+qg7OpMzS5Y247jYqPRQqU9g7YQs6LbJA8b5ZRdRFwuSiqfuFVZRBAhMhscSOI4zjMsLysdmTIhu8AgdmS3DyDsxzDszuOzHBMQ1mQ5+SO/wAiO7+RR1Zm1Gazuw3dhJ7sfNyy4XIdw/8AUTLOZidM2dhIkyKZS3GV2JvUT3HdjFNO4Um6P1smcGsSDkD2ZL1nKOac45hOlOcD/Qj9KP3rDaoIUAj/ACGtYmf/AJLxzEklotUJEbD6X8DKSeFhH+EJJE8j9rF/qwPJJqXQkifZn3UF4tvmsRpLWFyfByeiQJtlIvN0QqFiG6JW5OHrnqU+menT6h6NLs+qk7MyYiZYFWvTVXrMSxMJDkpFZY3uxWxZcaYDMwWOrqq12Kl2rtdWkR6/ksLarFVhYqc1Td2FT6R6VVvYWMCj/BU6lJqnpKKVy8U3kZqUtdU+mepT64uTrCFscCOJCTIFGsDgsiG7Owa3M+xR5Mj9iITW/Ai5AbNwyF0vy3Od8i2bCZsR8B1CmY2F1O8CfgE2g4I4HnoOkik5EQ3xsojsWwLezFY/Tq9Gr7yxYsJnI7MtDZGehr6qtXYqXZlqpVwR6fksflXeLNL83m9SllnalJRk6BYtYP0Cpb5qny6icNgShYXxuSGlWKpWKrYuqsrKn6gqtYpVEuSGlsKSxxDgjQsO5B5EdlwSRaUZ8+wcU81h8HqOUfpRkWfBC9CfoRzC1Nw7jmTWROUum+A4pyInBlDommx2LBsaWLCLnRbGEyoVZKm4WKl4Dej5LGfZ5NYyxS8KvHL5a6qud0suBqGjT0J1BU2EwrCRgxsi5RI58Ye4ixU3yxUvn7QtKfsQqpYqfTLXRrR6xn6KfReETjIajTPnGCEQthE8nU4RJowHEdvyNMnBANpz9SIT+p3RkpWonqQ1jfB87M4GIbdCEjc7iqsOTCRMpp9gVPrFipXdVnD1/JZ5ZWMsUsWoepvli6p0PuqzDAnQ16YSSTjFi3g++T5hKgn+QWFT9gqfuQqbnaFT9YVNrsVN3tCqVipemPHRT6pl6SJLYpEurT5YrAQxK5EsLhOSFNzGGe2cB2YgS3GwOCRsE8R5ySE9uNM953GaUGVEMj3wuQ5zkJTzFvHIiG5JOAj0vI6U4MSoksLampJHNUSXS1Ut5M+yr3SCwhOH/GEYSLAawJDTC5jzuLGHBl9QqW9xU/chU/chU+sFT6AVP0BU/SNh3Qnj6ZqtlT6YnwjDxtfRlBqb+9Ek1h9wjEiULGMLQkU+zW1RBeEkQiGxDYjsQFy8tTgxaOF2jsPQ8jEuT3OSJV3ExPcPMsye4nuzk4aW8ybs5yYlvJlLcPcnKSLm4PlnLMlmT3ZzSW85pzR8MLmzknIOSLUcbwMjJs5ZPcckREtxK82pzcEQ6zkHNJTzC3JyaJ/kk0B5H55mSWDa3B84mrmqYEuaJxITdUeORLIQWQegvycD5wS1yzWRmLAaW/GbTdRKv8AuVfjBcU4gppFuJNyVQ+XSKn7FVm/JCHQcLUKj1T0qWddMEsJ4wa+ySaE6E3gm/M1aJMiGxAtXsVPlcMVN3E2TjZU8Pq+Rlj8orVLNVTqrBU2Mt1X4mNYJ5uhOn0K3IxbxKMPeFTb0ips6KIIFyCCCGxxI4RpGpNod/wAkd2SBHUN59RGFTqQ4XzhoitzFuSCuHF8Dv+MM3BOcxb5wzaaOAcyIN0Ro1PTLHQlGMCfBiBOGJ43O8ZwSKJ+BPEliYzuwrYsYz7LXVTfJVa4QqtYMWDqIeD0PKtfdTtFTcLVT59qnWypsdev70vIZoHhJJJOISSTgaQQSo9gVN4Kn6XkTVXu1iCMIIbCr8A4kNmk4sUklYRPn+SO7+TvJxAPmdihyfBxvH4m4kSgTSTLcS6MSNDkW6OG5rAtwlGRHAgLEQqS2NzgpnLFVe+xU2ehU/cKlltWrz4spY7BU3T1KWa+6nXipsdayflQwOEiCT6Qk2zZ4QQZ4f84ZmZBAgKhnt1kqXzqLqiyqPUXVVvVU0J0FTcFZU5G8FrrFL0IDUDTDjFyEQlvwSYaDed0TtRxsK95VjJdhrsxhqHgkt0mIi5K3oZr7FS/pVZ+RUuzLalfzBYW1O0VN4tUsvdTt6qsqehWPuxf3whpwv8JERVOvhUgmNiZkqpMSZlg/QKrqn2BYvD3hU2wVP2qvuCp9vyJZ6NV3tCtT6hapy2O0kIpp2ZOPtU5CCzZuoS0RHY4jRCTTA7iW4h1kFcrURxPwOBYyPMwZNRDZneLnwFZdm7OEcg2tyG4+YZRSxPPzBYWUsaqvFqljy35JpnJVYKn0MRNH3YMTIS1M3u1CUt13g2roREn9pIG8URgk7G+Jiqyp90VDPbLKffYqfu1eixU+7VcC8a+sKoWqbggcsGJmSCkkNVczu5JOCJmZ4wjeRmiCmytYogg/5EQiEQICZ9zhOM48LiFphojuzuzuT3kGoTN3jzSLCx94DkYp8k1aSe/CeSJesnuGxcSRcS3ZLcc0nuHluIJRPcTwA5ZyRJ6zmHOOeZwc0V6hbykoQJjMJ8BLcT3EtxIm8ZsPh5u5dcLbLSZBucjkk9wyexzB7wW4OecwT6tB6J3oLAODHaS/IV7IQuehyiDgoGP8RrlnBonePwwucYPyjhC1V+ThYRnydSHCeZ8neR2ZO6LGROeBzHCORDKTZMTp9MVP3BUw/P5FZ6VXaj5yC9UDZBEhEYFamNRp74iaWXTcIncFg4qbHYqdHWahU+yKm+WUvH6XkZ91VgVNhYqIGa6tPVVgKm8WiKbfyxbY2g+3mxOPu1NHsgg/A0hzWMomgW0uXgPRdVuJYQQRTcjI++JENjiOE4xKJlBlENxzcPGhCIpecHRHFwnMJxeNeU7Mitzfn4OTDcQVl7nMjkRyIhuSMMk0egFTdoTg0dWHJaN6cz7YJs3mOZsyZRJKU+R0RkxU2rsVLeTLHkM4Km/UZYsPT/hh1F4sVLHv3V/zWFT6x61LGlbtmOok870iwgllR7tV6NJIhERTzsjmueZQN1BYf8VNkQVDPUYqfUYsHi/xOqx0LxUHsiCGxxHGOLDHCcNEyYORKdhPec3DMqT1ElHuieBwsdSBcR3E++DIEpkdx+PwCdEn24NE7BkUw5SaWw2k1uI7hMVfcKmxlqpe6qwKospsZbhlTx5VlTsFTaWUs+yr/muKm8WqWZGuwJmqnuqmhJKEmWsYcS3UJyhXdVMVQz0hU+uxYPCR/nCqSp1eR336vaFTeapyfkJkQQI7DisPMkIhWgidwkayB7YKDRESFNCXtCfYzfYuczlAna4SbUgSN7CZNF4sVexU5KnR3UsZbgrLyWllTsFTcLFSzV3V/wA+RXy1S7MahoYklkvIusYn0B5HArqivqOqOiRg7AqXdUVUdR6Dq+3XypsQVGXK7J9asepV91KyEyuiBHYjsTaEFiJ9zuc3BwXJoeLkdUsBCJHuIiYiO5znKcxKG/USbkN0SSSMsqj5PHmR+Rn2VOwWM4lrqllr7pYruqZGl9qJwulilPGZFwqsqPbFik8Z/AD00KlXuBOnT/IifQQvGPbVfdFT7Pj8JcCOySLBOjTAknFZVwfkdVxVStQsIwgTN2QiO2MR2GpgyBDB3PaE+4nvxSjcZycGR6PksZM74HcgY3EoZkFBQUbxyyBcgLN4DkZD3E9w33Yzc5JzSQ5pIJpktzmktxPdgUDWbuT3ZyTmnIzkZlXFluyRSLuOzMsi47ad2S3EtxLcT3GTfUXIc05JkXki17U7iZT3khe6JM1mvMlvOSc/AwCk5iRQUDG9HcSnc5wdzuieOA4Rmss4w3LE+rizDHZj2tCGIXMStzJ0VfTq+vU66yp9piqix6WJF9C4WKl2ZbFQrmX6Os1TcLar/wAipYXmCep5LGW1OzCKLaEY3u6WK6q/tWqoSQip91V1FAjdBIVXPTVWsVEH0CwggghTy0IHAQ2OI4iD40juNpsD3wMyjbAQYdx/A7Pg9BHKcA4hwjiECSbkonFqh9kVVLF4/MXM3Z9wsFjc6LdOo4q1VVVbVZ+RU66rdT7sVjryWVjqLCyllv5pYr+hU+7VdFam6PXVLPtq+6iZ8sn4lXm9NS9aFSvSKleur6FMVdAgQtjiRwjgHEJZrg4cDsIbvCOV2gorjkYaHefiO9OpwLDTExJlWIbYXKNKnUZJl6s3GopYLG50WaVfAV499le3yFjoVNixJ8HksdU8C8YZb+aWK8X8H+RzDzTn42PiWyiUItkPPdVd81fVqf1Cp+vV7fkr69XoqrV0Kl+rGKOkQNNiJi3FN/AmPyJSe7AQS5IeToZUhYee8hsyAizWd4t8huSThZ6E6fsqMsxWPsVWehU6MXoeS11ztrFpSzPPl0sV4vGvuq+aiF4pdnVmWdmKW2oc8ME8gb6VX1Kvc8hXVfs1emql6VU7AqiselHSnB9wqfULGMECOwMZCbnEcZA7PCNtehsxITeTvE6xwjwZaiLzToxc5zjWBkmZzENyVuTg/wAmE4SSNoKm5YlZeVZXVNgqXY+2ljZ1TI6dX9wnRJmFOaSTi2THyUtkPkSSJQPN8xOANn2wmh6VJ9Or6f8A8Tku3oqpkqssVOLNDGm+AnBUKxT2g/Iipf0FTb2EQQQQ2MgU1Y4DiwIkRHszuzk4LkHM8xaAjcdjvgciUwCsvKnGR3OyOx3I3kClvIxwJbhXAkS3ZySe45g33FPMJ7yRT3E95qR2J7snuJ7iW4eQM2rJ7ie7JbhR1YuV8P5C5MjydzODEtsglRPD+Z2Y8pKhl1Z3Z3Z3JCUQGZ0JCaugiB2Qxdjc7snuOQczBaiHv6H21AS5hGkdkTwOFGRbCDSwWW/ASPcSpAt84WAhvhb31fYqvqPbq9deQ9UVD7aYQi1xVGsUs/GkLU1dCpv7iqnoVf8AdYqbxYWLyWvCgiiAiCKKpsZbwjxf7YvHLReuaE6kzVHqVZn3MRpkPPkcmsYvK76vv8FQQQMTMIxIEBMlE4jiIHdme7GwcgnjhtwMVmrOw4mdmKe1NxnEOQ5kciFfnMqfoVK+sCo1fhKvmbFY3i1UJj1D3+Ywqm+WUvCqVeKpRJYvJYy1VoVVoqbGWaWe3WF5EEsg34QKMPH1D1qXZloZncd2RSs29F/tVZ/CBLX3Sxvd4wRhn/MggQIEBUd5E46CFvAHZkN2T3HJLgs8BA9ieJwomVxnCw0953nRncRu0Ed2cI4RzLAidi3ycOJreiRsxZi9uTKdpIS2rFXVEUXC1U2MbKq53U8a8ljrtFVgqbGWKXX/AKKru9V4Vho0fl6FRp4r0qcqkvhe7GLLcuydDs6619qrOyq3tV9rpdmWRUOzLdV3vVm/LV71X/MSxghDT4EGcSOLBcQhhnGRYV0v4glesuE+AceUQkJ7xDnfY1WMhXEwKhCTdEqj2ReKIEKZU2MTJCFRe6nfirLyWOoZoqtqWss0sz0zNPQqbu4qbuJaZoezlwZeUnY9mIcTxbi7gS6hOmhFZtKwsVXu3Va+1LPcUuzPtdNj6qnrHr0ss9uqzuq9yr3KpzdCqyI0pMnkQso3kWUl13tyDSZcPbG2ehRCEdhX4hTSTiwO7OZnMOl2NaAjOxHGcQ+0dGRWjO45DhCshujkIbk4Nky2ljZsmnVjt5LSylmmp8lUtLNEjZl7SSSSUSaQiaYSSSSQ3GnChuStxtF5QgzlElJfsZxJ/aBPNrGTooMqQ3JW5K3JQ+cbISicW8hvell7tS7M+6l2ZYp9Y9en1Kk7Po+1Ve7qf2ip9irX0Kn1RY3xGbCIaG4F7osCQRh6hY6xjF8+2EEEEGU6EiEROI4EZS7EPAULEMD02DPc52AgowJ2OxPA6DhF5xJaxnGJkd8EHMz3HO5D3ZD3Y7cWD3Z3Z2Yjkylg/IyiMCS+x+Z+eCBAj1MxCifNkdiJAicQmX5IsgQx1yFAssBwyKyIbGcMkRIbEMOUzLYYnZn5jzOjKndnMOYcjIFwlhkYFPEniQLImsixx7BLsHI6IJjmIbk4esevT6Jl66blQZ99X3ReOvqFT6gqfuEqfULBU66n0Cpsd1L5bS8KwgggTOJEeW1iZIggjBkemEUkRRYyxSy7vVr6q96qxdipuFlN8s9U3KlcqljLVKZMRNIgjEX4sMhsRIktxbrQy1GxJ4cJ2EyIjIyWR3Gbc5TnF3tBP4yG5AhuSNj5Jqs7Klh+9Reuqx0Kl6q+W1f91P61WLsSp+2peqMvfntZaqWKuVNjLdLLu9Miu6q96qxdipyA2Spvljqm4epS+fqoXjLSeoejS/xno0+methBCIwC5OsSBAR+IR+IgJGmBAackyE98cI3HcgZMXPDM9IM3aMjuXkdxHZ4XOcgmaUhuSsZ9aJMpuGspkmE7U3a9tWrqrS5qW/kTyJf57WWKWKmzT2KmwsUsu70sV1YVP3Coe69mxkLKOyI3T656lU9Km50ehT6VQ9ChTh6Z69Lww9CrWql/hPVp9CsZ/zpaM/5EEIgQwJ8+E9rCju/k7kPLwQ9yA/AV4LJeT2GbIxEyaziYt05xohiNyV476BVOynT3UuYVQ/4CwsUsVeqbxapYudU2RxX1T91DyTfAnMWbFZBSj2Gi6pXqU+genT6Avx03aAsQvwUvA5eim4WKnIxYqfXPSVPqM9Ol2Zbqt7KvZq1dVbECRGCGxHYTYs5FsYHYdxBqGtxlYOHDz3HQusg1OU5COCAMiSSSS4Klsw4nQ7fwFrLFLr50uxEkoyJHyY+SIECBI2hU9iTkIbkrclCamSQ3JW5K3IbiLtiG5DchuQIbkpZi3jmOQcdxDExgJk8A8MOY5BkxJiFmaHMcxzHMKeYKSp0OQ5CdxARMbITQ/xHqVT0qVlZYqfqFlP31PXPWp9I9Kn0K99tMj/LXqhRraig14FTY7qOxYIIwjAggQOMirLBkELIRIEBQEsTepycMhJCcYmTJ4BtFh2hNuOnnnAToSw9hlJpZnuZ7nYh7kt2JixxrhlENsKwmMxuRiGxAgNSBiDIkcMdiEcESO2GIlNdiQiRIFwD9kdEICJHbDHYVILJhiR2I7CkwuFlhhsQ2wQszLYPzJbs5AxOnQS40O53RPDBkZQ6FkdSOzwuTCprcToeOgKm7Wtrqn1D1qfSLVL1Puq9mvVPqCptdllNwTJV7YqfoquqEyFxggTJkCCHmpkiCCCBoSEEUaarGWqX4JKnSKm7uKn7KxU3SxU3S0VJ9DGCMJckRggRFj8iBEluOQRuEbE2ESHUjszISjVC4sjhc5yCcpka5DchuSsPTPUp9YSmdnXL7VIFT6gqbOwqfSLFLL+1Wvqq9FnjnzDZInz7FUqukVNrqDNfdLEF4z2RU/ZVaWU3yxVS1VSxdU3BaUsBVBIggjAvwBYETgw+4JdiGxwEMEBPhZiN2BjedhvxCKi0HFjhMXMtCBZw+Y5jnJGUupVFjqqxdipvFqqa+6tXQqfpFToFTexry2FlS+lWkVS1U191K6qci4q90VP3Cp+4XjzZixU3/wAGin7q0VNwKnPEKn7BU5QsVPpFiwgggRSFyYI7EdsFElX5pkXc0G5OIPknQuOBFzkTmIbjoNTeLVVq7rFSyqbliWN7EvLay1UsV1VyFTYyxSzV3S61/wA1e2Km/uKmx2Km12Kn7UWKn7ali7FT7PkS81T6wWLEXO1WFq6wnG50Wqs9T2CMIIII9MECBwDQVIWQluwyB3MlyJ4amKMSJEcxDcgQJQs0TJWE4NheUIheW0tVLFcKhl6qtLVWvul4FU/81OwVPuCp+yq1VFjup9iFT99T36vdF5ApU2egqva6pvdHoUuzLQqbqjX0Km8LwyCCEIwoECENBLNkYUOSBjwOC4t45iQ6RpITk4WYFh//xAApEAEAAgEDBAMAAQUBAQAAAAABABEhECAxQVFhcYGRobEwweHw8dFA/9oACAEBAAE/EDg0n9HprwnNDYaOENGMZw6r1fMVEGDqxgl6VHSJUxHQQmYkOxKSkTBTmAloqUyrS8LmZbQQ5ihs5hyIsg6XHB9QcR2C3aLn8kWCXHVZTh2EFk6vcNHR4guY2VOF4nA0rUXE1sZgPc46MDMdNwaENGZrBsuMjjRlacz50m3cCVK1ZzQ1dFhOGppw+d3huMOWvH+mvXizmhLhF6cWcWxIk4Jw0YaGcIQ1XEM6R1ZwnA0XVYl2yIseEUNKlaBglTEqAQIdQEZ95aIkSz50KdKxbTYxurXENVejL7aF7AP3mKEV03mPL1FjLJZLgIiFj5gy5csi6UdvV7bwcJcvTrOH3Hg3LgTGhLnBnX7g41YwYnG3lomzknDS9UIMsNvDOB/QtQ05oZWxhy68NA/0Ll7BRYdlKhbgq/vJ49lc4DkcdGYIsIOl6Og428YcbXVIOjFOJo68JwdwcDQauydVoGvWNVBzDcpKlYmJhCAIFjrYRg5lzrLQfeL7whsTQK1C0cS1cS2KNZh/bB0WhHCPKCK6LjFkDbEKPespoYzIsEuDDQRUYEIdC4wVAEs0MXHmFDYGKPQahITJBqCUzBmDRW9BGCLUIIwOlZLlksixFwcS4MQhsvReiYEXBC0NHiBll3QhLI0qkUDAhGsjGLAqT2mOGq5V1aAd4Q2i4wdF6rdYSZlf0rkhofe1gfiG0qdwdE4tjFxM7hpcvQ5QMbGKZBl6vBDt/BPybeDODSokYBKK+4BKNFNNL46QmsrKysxGxLy0YIeoPvBzzaSBmLRmXl9AUSN3iR0C0XL2gpfvL95x0ZiGg+UNA5TFpJrKxMLLDZp5xmTeHlLaMOhfQv3l4laaoqKmuyNxNstltA0WiL0s4DLKtmsQn3JeGDvVjmIZI+CocjSRYLGcmMtWSypcjTaowzluN1twHOrKkyJUp1I9sjoRpL99QXUcWNFe+gYsuRJcsly49onDdeIQcbTkht5J+bY6OHtK0rS4Gc4bGZyNOI6OvlOG2/xT8mtwZyeosIOqxY+jvBlwdLl5IOrLjuXCddXS4QqIQCVHTdicCBKmIQYYcENaNDlgStnFCMZw054sENajObDR1ZDZU6PcBt4bN6MJbKJROCEOJbMy6SGLmHhjlZk5gMnSuZG3Yhg0aukM8+nUrYeI3nKiZa3CcBCRiC49MMJ1NiURKkcYZ0jFHIwbk41rQ1pqd6EOICJAzBd5TE0G4mDq0hOLQNCspEQZGWS5cvTHGl6nKY+qGziw4fex05IOx0gaOov5zhtxc4HrRjCZeqGgQhGMcT9PaUW4H8mcNjFHhCXDTlnGEdVlHhu/VDR2I0Yac8O0wwjsZNSO0dHlHiGtx4jy9w046CFceKjCujGqjmd4FmbxwCPkHkc6in0nwKtTnoBm7mDK+bjBYWXTGcEtjHWOczwjpuxCd4MWLfnIIlZ9WicbXicYa9dBtOnBviC/RaZR2lZWFTD8FiA3AuX7xfSCTAG8qPSFOkFYqXeyUkpKusoWCGwFiYr3Lly9LjgS9GouiIxKwXDT+SKXsqucT1qmu/BBCMSCHP2lQIaM/bsEE6DxCVGESGpjGpOk/mnHV1HHDUjsl7AjqTjBiGx1ul5lxd1w2mLKcCEeI6M5QZescRB5Imu4BxMBWScQ0ngo0wjxMvYSva3JBjMSPRlYpPMYdZXJHlgljnimJYx1al5jQ4uJY7hTcdRiuZzw428ZxQ2uSK1e86wII4Sx0FW2CdEeSKxnubFiJaldRFiyisjqxu3HUGPE5YaVKlQkgxfmKOkC7wikj0SnrpZeIHZMHEuUrrLY100lI8vfS+WuwuPrSfMCPTY3wI3NzRoyQUBGKaHiPEvZg2ByYhEiuHS9Qofehqw/ZDYw5vYnA0doVqQ2fM46dNfyQ0IaMIx/ZtvR4beOk2MejrxLk29G6cMEI6VOjOWhGVoNjKesxk8jq85x6E0wUZcEGhcY8bqTCTd4ENnCc0oe+YQd4qVmFEHZ0WoHtIKQqzJDYKjTlgbqcSqtl4lLTWIhEVWHREbR8ICcyjZR1ixADL/oEolESVpcDVJRDUKBKIhKGrlIS4rpUlIidOEQRRcNsHpTm0Bg+8H3hQ763LPWVFS/KILlkl6JmWy9Ds9oqJYGD2hAd9TBF+tBrlir3QporKwUnghRFoSFrOGGhTKWS9TAaxi5ZEKnFL2g8vcGWRYxcXdAWItHOGg4R6ETloWGiDovQuPcVEuXBlzjFpZGEucvmGwH9B1HYcpgoNMoe2moAl04neGVJZww6uXg6a6yxZyyXpcvScQ2cJyShiWguYFTiPevaFhf1UVIh56NBHrOFhBodERIuYovVHCNoLH1GSNeftp5Xbyo1bpGA6DxA2rDe+O3mg0yMh6kx3l1PJLSRRLHtEuwcIl1F05wsARnEuqTqPEug5aJz9z78xG+hhAJQ5dAR8imyoEalZZqIeXmtzEhlSiIRhbiIfbgaGDLPCTwytaTphuQkm1NdGEqwMrCV8xg5jTpq1SwcQ5gyPStEmMCU6CMveYq2UiBSy3pFsrEGXmkdBIpDo7/AFBjUBkldkBBgcy2pKhCRS6Lw08BMMNElfeUi3LoqHejK0tGCMt3giWloxUDKYXMzMCkLULivaZgxXTbo4/0hBoRh0l0Zxg0NEzEdoM7TRY4Ue7CSQLXUt7M+cIPKIlMx6ayspMDLlLgy9HTGQhK0ppHmD40AaVV7FIAQhEBigrjYOIQ2cMNrunnd5oG0EZ2DlLK5kc3C0G2FgtGcvaCrL8NR0OO+joNh2CFd4tMhBDPKy+XmRCBrY1JcPKhCCqJxFIhdVckPIMBdJb2psUEOdXlIR5Or3mIeomPHgODphAHDUmecGQ2F+yVln1OUl1gkQlRsWGUyRvbpBojelIBOQ0ZiHi31EQ5DDDhrWmHz2WGi49EhKjOUrRDVciBoa4hOErZzbVRNJtdMDbwdHSOlGgStg4am1LlBpc4ba6dGxRomgEqUlIjtBmKcOZ5JVA66g7YBupbLRqa6ksOvWtOBjwhBC6FxpL0uXLnCw2JOPsbvBgi2yL71CxtGZm8kqMfLzDos6UuFTR0NJ4I3DYDEVQXgHrQQ0q98M4yHfZenQBITIvkL8/VOI1GJldIqMWXkZzTgeok9xDNisUSLeUqEBAZJiadepVKZsGhGK/Y0RRsGgtWwwcuEQ5DzAEwGA0Yq9uOeuO83DcOBtZkbv4IQ1CGw97Bpy+px2sG9IZeixX7Zx28XUuhOCxWaXOEGcNT+jwi1uXq4kvYpzQ41r+hcJ1ypUQldIUQolZ7z3l47yJUrRo9UO7IpOI2/bYaaFuFL0V0IqFiXLlmh/VE+LQQujww194lIp5ucQnZXMR0/OQGUu8BcT5QyvQaXPzOp4ZV3lqxht9px0TDnpMM5eBgTllx8RhBygQ41dsNAVpcFyNzBlHFRAqtINXiXF7S+Dm9S6vPLRMMoQAg+6Bow+5qIhOSYvj2ItjFn33HnOBteGHHzox1D6tzo97jlwNGEucJwtDQjpeOxixHDZzThrwgg42m/hOENzibL0c2HGx3yxMr3LjDUJWIMThKlagglE8E8U8GhUrKPeHYp5I98nkIvKUiyMF+6X7M+UtZPgUJD30kuvtdFxJMnpdC5czeBly9VT7ThARPAsw+y4wSMAQn8pOBFG1nvUAODUBuygxpc1s2Lhiv5sGJhJ5raQ6MRraahOFYxOp8RYl7Rw25ucTV04M/k0dhEhsefaLcuEvY6CGrOCcYbOO7xZx146Dj+oooP9MUtd4S5cuM5bnGLnazkQhs4zjteJ16Gy8INlTn7QypUrQS8H0SnaeGeKeOMAy+YeTF9HLRfvHQBO7K7SV2T00uDIF7JFHVCCaQXwsAROaqoEpEXZgNGL7IVQ0KysYn3IYErKSsJyPUQD3DQrppUX2y5cTEAKxAV/r0PqIJLJcuXHMSXKREpEfeICXDQpFlHRqWSkYOeXUIp3lO8p3jyQdFy9Cy9RS5cuXFgwMHUWZmKDLJcuLE4y9RixMDWtaDjbe84ZgZUgYBldDigwdgUuiJXvBjxOn3DS9Xif37XiLQ3gY2oqcH3DYwLHrUa5SGjrywV6NA0ZxY7+UOJeqXDMJUqVGA/MCVASkRCHkl3TTPbJ44GYfaDWh82PaoyQWY9C9B555YdhAC3K2VB4R8SepEpBl7jCjiDpvD6gleTPSBt8Qj0ldkTshAYB2xO2esrtldsDMw0/WesrtiU0FQkUzLEgOk+WGoAyQhRKdCoRGIEqKmpqEixWBbiVr/AFloXZEOkJZqWxI0tsjhKtJIo0nH9TiygM7ZOysqbFguHPNDAi+1gHR0h7wO+ngRyoxdsXGYxiZmCXASyXHjTel6cAkWxDAQR2dJxnHbxnCGxhz9QdjL7o85xNWXHh9T+TeTYw5niCVq6U2/zbGIkxkCiUSokqVF60BOmlQUSqvuVoXytceNCQSBANUIcfUEYRNOJ7gJUpoSAJcJRKlExEgy0qVK04tCSpUqCh2aiRnNhMSpRElKkGCVKJRKICAlJSIgEC0KUlZwNBx/UGUapheGJ+caLwxEyPjVWw0YlEqU7RnRO0ihCUvKQdBnZpUlzDgnlxJ5TzGE2EohommbmCqUsFaIRTRcKODLly5x0iXqw5RS9LjuhguOJqun5JxQ2MygDaflDaPqYbXToDYq+RuKvVpidNRiNRvu7UivxsONSMeHrc/nj1NFXphw9aOrxP2f00Zw3Gc4beD1udO0Tk2eAaTj+l10WIsEDyIzgI4uMtS9CId5RwYRa2nLjwE4nZ0YEEREu6lSoEDTiHagvYghnPnFTgTIo8zspAehPSXTiJHEAZWmhzKd4ecOuZVFYxWZ6CZCS5cGXp1qsWOpeCXLjpzepwQ1I74DPDjaPogSoa5louD/AEVf3k4/iGhKnJBg7WHJ3jpDZyeoNoz77uXpn5tHXpOT3K2/lnHbw2mM5w1v+gOmcNrynRDZT+qd+yVguMywiGgw0CFm0TCy2NpWGcvlCOqlIReERV5TrrYpUxLCJBTcCM6kFpRVZ0jEEcO2YmontCqKC4dKKdftHzgyFVDc0x8yiqqV2fs8oHsivBBdpkqV7zxJR6xYhWGz1lEUly9BCzC4GLL0uKZoaXHj60XLhDQGhLlxV8yDVYx+CZp4hoac2wGjoht6vRDYzJ9tBsdKLCXLl6PGku3h9bnDcdBoa5ScG18e5wg7OadMNDjQP9ThAaJhlunhAYG6i0OEBGzAuCd0g2DZrw0N2le8JK4qcMIxQ8QEIEjjahOLOBoAbsR2whHiXWIZmDCAODZ/fOOrpwnEhsZ+6VsqYyCUniRbkR7KCD3r3vLwQJbMIKYV8k9MqQ7Jg4nZLzLEefB9mW9mWgtsXQDvKyveYMGhcIDo5AJXRcd18kHRcYGMPVPxpcuUlxZepUhcvVn7YOty51vggy5elzlHCCaWS4848S5cuWRSmLHzL0uXL1i5cUlxYjxLly9Fw61ly5ZHnBl7OicdvJOBB04tBqf0eEZRLIyDcKJegjlGQdCjS5x0E55ZaDGPGdIkElySEQGZYQoeCEuElk1Kjp4GBs5nuHV0GGcSGxizwdnScMGNowe934J+bWoR4nF97UID5YCA7SjtKI+Ep9IGUiJSJh1TCZlu7S+cjMA8k0cOk90uRLoUsYuCNDhl+zLdtGCWCpjXoz1dFu0v2lzA8yjoy3ZgnRlu6W7oKrEF7S3aHcS+yX2MbwQ8JfZBIYPCNVHTiWz0lvaekvslgcdZ6S+yXI8kzG7wuL2S+qL7JmNgstlu0t2l+0VzE6L1b6BqQys4otpvEeIaHF/VsIlRAAZixUDrix0nqmldIHvoJJrLIsaBZAtfCTjTBJFxhmXcgyjgCMoGOW8JwQ2nkREwYDXpDnc804oOxR3A2dIuM4bKn8kNKlafin5tqwx2dHVn6oQ2HL1DStKn5WcIa1Dx7mBKlRgg04ZUqBKmKmYdalRnXpWlSoEKlas4yGhKlTH5ziQJUqVBRMvuEqBpUTKBiVK0qY1OO14dDKlSpRKLQqYlQGhkNEhMrKQagwGjif17iQjKiERKUh2kW6QDvHzSxw4CErDopNvMB4UnoxYpgO5E95RLhhQiKSkBoRo5N6Q7uHGrOXtOOxnNOLbw0Bs6R/KcNv8APDV0dJPzbfwMdwNjP2w40vVY+xrev494Bq6KvnOJt5I/o1dGO/ltYte9XieNg04fe7wZw+2G3q0Vs/knHbzTjsqJFlELynR0px0nSMZzNxY2Oj+v9OxjLxht4zhqyiCdMIeInjinSUlJMRmdpTz6HomRiXKqFOqC7Omsr3JR7Jg2lRAIhAJZLilRZ94MuXox4+osbeUjY6bgejavqlAg7GO9fevI8EH+oTjV06Q5M4bt+basT+R2sF+zcCzxuC/cbipviPDcbh/JHjbzTHa8TlgGMWGjpxaumw468D+tU4k6Qf6S4zht4TphxsqcJxhsQmSlSpRKOxEQn2QK4njnuh0Wy3dO5QwguyWPRhRD3hGIF4uUSteVLwnjAr8EB3hfZnn3ily9FxzR8RDYDy9RErgy5cWYL84Oty4vygy4S9Dkg2/thq86PGsdXUvwarpyeoaOwjLzG3L4Qa3LlK9tz8kNHcO5cvacdjHlHxL2hcsIZQly48Jw3XHUUH9a9u48RcCGxnCcENok42vE4kNp2obHTcNvJOJsdHXKlSpSITManhIv0nhYebPdicnWHSjsJoPRPSXVgBVR8Zm5TwMv2YRxQEZX1Busp3nQpcp3lA+0D32wtkTSX8wcEuXLl6M0uMHQBly5cuOw9RUPUuXpcf0TCdy5cuLOXkwZcuXLnd4hxqRn8+0MX1bdcWDL5gy5evOOMuXrzTiaDHRhygYlU7Zw/ol7rvdLwS5cXR4lYMNqwx6usuMzKxtVE4ENi24jHszoqcWDQ14ssXh1dGDlCGrP1wNmNTUqVKgPhlWVJXsTxTxEGoVfM8RqBBPfTveW7y8BdZXdBgHNT0Suyek9GC9omCdpbQuM/sgyvfX95ezySnrKyneU7yneFbPSUC9tFdNYmDn3pQSumstftDHTTSzn99BJKysIX1SgGl19XrDcn5oI957z303LZfvqjlDDXpoOsCpSU0EYosQOkUG3e/rHQILhRzK9yUqPe0UoQMrKQEsijKS5cuEoIMrZelwQYMdXPadMoaOnPMBt4zHaOmgNqkbcflOO10/iYencd28u1Yr8LDStQzeJWypw/EDECIRioC6CnbRTtK9of3IHaPaJXtopAMUBTHSASkp2lO0pBz7lEogJTtGALwEo7SjtKSvaBEEqVKJRK2hsIEolJRGGPgdKIhAJRCSBPBK6VJiYUrPFPFpJgLSkQgiwGsh0+0x6wiqAsu8P9SXVnIgKI9ggxhFLQxRfR8sFNNw5gRHi0O4/csR3HHHDDGSdsq5Z4UAxkkQB0e0pEVURRouXLjBZ9wly9eLYvU6dlxYZ/LsIwb2GrpwI47VXq3Rx9JYPthxsdPNpIjs/BDjavt3FQ9NSy4y2GPyENnCcfnU0Yr90DWtOLVUqMwUrCVhNpmNxJjugstLZmWmM8Qi2m8JrhwSXqs5PudIysxR0DVZZFClyk6dBuNrBOnRcS1pZAoHwEuWBhDGlQIkEowjsShwS7RYilUZAlD1Z2nFOIA5H1PMTqKgGqQlHCgXMu8UPeBTOduHYw6TKd9NZh7jHDwgy5cucWfz/ANQvHDQjGcNwP1T8Zt/JOLR1ZmvSbQ1rTijhL1YsW5xPZqrXBuxPwbeEGJ10NLhflhsY69U4Q1ZeeyY1wOipUQh594qVA1P1wJUqVKgvTqUwZcWcn3pTRS4pNoOMHEqVOJ6hD+mzo1KfZDQgOWod89kZpOmlkpDTC5xSookLJKAI6RhsdKLBsqFTiWsJdyY84TwVPJ9onoiOAjyI9KP+fpkENGaRgxJ1IJcx9WdAI1KBoe8HgbhI6DJX94GV76lxTuDLl6c/eGl6Gi6dqpetq6RnHze7L2StryjhK2cT3Bt/g6nX884nqENeRisu1iv37HT804QjpwmfqIcN3J7YErYcXxDbw2qiRMtmYEqLG2AgEBK0OzwPX9YdVOBGILdHiJVyoVagStuoSBWhHP3JnBT7Qsv2Jek4NCkYvewjxDnAEvztG7K+Nc75lRXgwBRRzBrxY7v3ohyzNVIIxnDBlmw0DDh61QqUdpfYRtqRXpjbdYBSYhyA+YjuzBWxffOwJWzOpFdQQs4zDHMjdKhPQ9ks7y1ymQAwjWL2h1WJ4MOyguWfUkr3lJWVmR6gMkrKQEpFjs9kGUlJSUjv2y5ZLlyk59SLYOhDuU28k4Gy5+Tar0/TB2mz2CEuXoy4+TRexZwfcHZ0i/MHG1Y3FgJWxnXuLicdXg1Oh/QYcmupygYQoRlyWF0TicOlSXHicUFWoJdmcdkE4QXJhDsy+rxzLjxAagHKJMOM7ODH+o6hrqYLNsoFDhYxzdIWhxM5qoXhhHR4+ycIgnLwBsWGBcZeGvXLIvS9Wfvhtcn1AIEqVKnEPWWXmOg8SgTJT7J/xoF0y7xKGEX50PkZV1Q6csFLcV0hTivxD/mne+qUnJCt7qJ0hPRKLwSXETdwi1OZmpU58MDpAYUfpRDrmeSeaVlZYmw66HEGU0UjF31hUM6MYkLuIyMF9c+tntCHQqQvlgaiJXvKysckIrKSncnkgH3AKkbgSsr30OoayvfSmJt6hqKaCo9zBOUpGawSBXMGNNS9AgEpqIv2j0XDj00H9NjpPcohoUnMN7u5zOOVqKcJ98gl9gEB47nBmHqjMLHkmaohpQnCDJiUcpnHBhFaPEuD5hAOUquZg68WDD7hsqBy3omfoIHmynSFYtQu7pjBly4vk0GIDlOIi+0BuOI79ENGcauGFKQ40eIoDYsxZCQgVYwnIAhwh0q8+gKk8YsNCOo4m38rD9cqVqmJ/MhpUo0dvvpUA7SnZHsEqaGIdsivRPEnjjTxKFKjwTwR7MfNAHeX+6cq/tMXMf8AYnmZ/wBCVFLkQL3nujXwwUsQfgYGDiGQVZ45VKxEJtXWeCdap4mVlJSx4hK6eNngj2ZiFYuCnCHfQAhNplSMEUgXfSDEPeUVK92NurPee7E90xMvOhauWeyKTlLnVC0wq8wacxSCDz6CutB3R7YEviaC2Qke2XNADUaH9BhuoN6yEXplHoRFw2d5kosCwfdPPEEiveV7ywZhD2lIbw+IK4UmIBKpzKFOEAAsxadLhBasxi2WOiIKCmmEucJ1e9EGSV0IKBo8ICNXeWjrXlDMN+BhhFGIIj2ZYhWO2sz8EdiULoSJwk4aPEy2CtOnErdSHSXoXJoA7BKseeSEzHzqAJCE4PTcx9c/HteGChnr/KDpepp9oa3MaU1vcalbUrTh6ISyLMEYZIU9Ux9CXB1Yvsa3peIP0G1nF73FXonBo6sQl/TiSlPqExqrV16K0CUTmQ2TQ/pM5m1UGNMJRPATxJ4UcYIVSvmJXlHluMzRf2RHqS5bLlLiF2kdnSfGAYjhcpc5GYFEAGY8wIZYQ0cUxThBm4umk4BvTLxLKMHQwzPQGGJmPetOwhFaBOHMrWPS6Q3Rmc4hGY+yUR0vU9EbGBlLgsYHZCONJNUVJPfmBjTIHhu/i0Bdn4N2YstzFvJDVnSH0SGron44bOms3RBjqGE0XggzrDRZyPltd14MX2bmPqn4trDl9TptdsENUlvghaPW2w5+4S9DTGDiMudH9E7GPCH9UHElxl6Jic+i2MGCJKliQKcS9ugwMjyQv3JYX9JdeWKcKXjZhk5Pcww+4cqpSjA6ohALmTPHB6h8S4gzyEsEzH4OZT2BH1ZQ5ZVBWJ3Je74hwQMYQOgxGhFDJAXEuwzZcoAQ0B9LFM6ovJV5neDto6bxOB4StnF9QOfnO1n7m6qkGjHRfEEOP6QsFeIdEi4qEErUOCNwtYaYjOXtZz9rxHdDp4/EbWO4DRuoR4lodJw1YaUGCENWCAIE4hpw6Eia1bjW9HiPCGt6KLLB0NVOJtWI7UIg6seTdOJw0uirSkOUEqVekKRIDECuJfyNOLBwIAUJLCoVcxWku0YA2iCDnUBvAwD/AChVzJkqAFtyNZAHNz2xFXcxCkBwVr4gdGOgDA9PSRS3hES9gYj4j+iFSzV5T8UGXLlxcRXfy2ukmjqx8YQ2l3W+opCMvPZFzibGfnZct2s/ZDVnBgHvisMvVgse5uTBT5bTBhAxtOcGIErYH2aErXIw0TSoav8AQZwQZcHY5oOxinBuIkMvViye9u48RX83RlBp0h+EIbOt52mYDDW2YLfuEEA1rFemcbynMGIB2nii7x+p4UEIKRh2CDsQJQR88r6sBB5gHqxXfDSx6U39sIFM+Ez5EvqIsFVdMRDK4lzoy/dE3wypUsIgx7rK8Ul/RDukB3j5wD2QMrHSpKeZrQbAwe0UlJSU0HWQZZLICUiGvkiAJSUlJSP6ogKDLJTQiIu8yypZLJcUdcBoXLI84QaLJZLIipye4JLl6WQKQSpZLly4y84kHW4oeYQlyyKUzhhMf15Y8YMuXLlxaEOt6LEWEuXLlzjOXvqvRi+/ZdHhmO+CDqzgRbGJvL128JmPvaLPWVLzA6Q2fmhtdI7wNazpi9FStFTFPEz9WitQKYVMS3onjzx9M9iJuzrPBPfHvRRgLqPuGu2+Go9AJhwoAZ1D4TQ67oWXjouQZpnV6uSyCBKLesO/hXiTTgKSZrlBXRCjLovG0zTzPDQQxo/hfU8KeaPzaE9JJk4TtpPIRYt6zsEO+aNR6I0dIPIkCkroJXZHoSvCFlXEDtg6S/MO8T10GiknjlmDszyGW7RcRty0a9GHjqremmU7zl/SXqzlHLknQSYwF2RghI8hArFOlBASmijK6mJE95S1SBhCxHBS9Lix3ungzi2ugNLl6cbzDYzlnFt4MdvaBIKUNDRn6kNpuQ1rTl3HXrn4jWtMfRHbhtdj7bWZ+02GnU1ddaTKNhFVe95DD1AlaVGZX7gbRj61VE04nucNK0qcJxN6GtSoMaKlSpU4QSpUNRU0lJXsbJ/pMRWJMXPJAMSDkniQBYR6sntnUIPaMrl4P1AOUYDBpcrXHSG5WUQuWKfpmLjmet1O4fqA8yPwYL0RNSn2S4GAgGUizBMCWS9FxYgQs2M/XDW4sVNPwEuXL04M4vbvpsZQSRxDZ95hxtdfI3PwbgVeljte+p0cENfJqaO91ZdtSpWnK6Who684cN0/JDY8T+dnTaszxDTpK0xPaHG3FTi3dUNroB12tzknE3DnDZP6rglS15lwviBQJ3qyGGjyRQhok6JwID6pgErUJmStvuAdid4xXP0R7UgYANEqjNLBzBvcY9P5cw7j6iXF/ZA8r8RKsJYEHuJnX6ZQ5gPyHxMZBT+xCXKp5X1DsJwQhbwlnUhnvjDmV7yveJ7yksMhfESksg6cGACeWGwJl4dpjdXpJDZn79yo+u5h6J+A1dF9jTjaVmG3N92rrz/BOm39qGjrxYNvNDg9Q1IIK+W25zAbel33HJ6gx21CB/T3n9T80NqkaMcP6jOP3pYMrmEOIwiLIMJKshq8T+SCVDSoDQI8M+1lC3VYLMnUb0SJUCtesOJWvEyZwx4lhB04TkyUzhLOfq07x5lulxGHrCzmEvSlPEHpStwfqCdj0Qoqqqen7ncEuW0Uw+5JaylIwxHKB5/qf7iDcXPLDHcC5488X7naEOKyImLfSB0OWikZ8uiyWSzQzJ26MaXBj/OcHqDsVe5PxIMuXLnBiFIOl63SDptz9hCOrF4SbX7VwNvN7J/aQ1I8Th3HNDZcy3J+Kfi3Ze2Gppn7N74G/mphudrFjx0KkL2jRIgyuo+55htHG3kSuqvYhDJ+5irtoTkgaNmCUTg1CLTQ6MIMwqiaASwKb2nSgFcUF6PWDoqgDghABHhJceIkS4a3HMYMNbi+Z+DVXInmmM+5FPxMNzCAlJSPYI75QbnSSi6JoK2wfuLC7QPI/aZKn0ooV9sAecyWfFJZnzgTgx6Gkld7Lrkfcto8pq6X5h1nBeQhZI8dEFRhGodyHYTxY38Iyp6QB3xAe8p30Uhib6R/cwjL0LiYezLly5cWMgEixly5d9oEuXLl6Fbdhg6XBlz9hHLl6WRwVwvS9XcSXLiy5ioakuKm8T8Wty9P2w2XOf2ucdvJvfohxsmt7nY49Y680YCXwTB7g9JJdiyEuLOR7gK4jVpFocaE4sSAUy8IsCwQxOc4RIDHFOYahbvmLPq7EgyjikRjNwA5QQIdq4wl1MAk9lhMIGho6IlhiFj0hIOr4xwDsaBPgGnXn6ima9YzjTugwY7KIaGjx+NVam/XSYw0I+VkCAj20t6Yp0xrCkI8uVRfo/cUeTFpV+GBtn3zqmKFvmPRRH/jueN9TLxrtWgCyzl0HPjSHhX3RVaPuU0gkpcL8zix+49Afc8f7ndgUlYFRDi0f+jTrbE9yVjmYNMFh1R9y4diXu/uVglYRUXJ1aStjy55sbeRiOyWoOqTO7Lz4kwH6iIWGY8iJ8wG6M8DLdmMMC1ES5JgN6M9WV6jKEDHBTxoLyiGj9pCUHLAysp3l4qUk8080p3gerAvBAgb5j3NNe+gCAMpp6Yf0XVjA6ZNSUlIVSsSesJCRgEpLl4jySiQrjmXPYYacJVuYCFwgug0YSOITiYEDxm0XDpMwSuIVyTcoAcEqipiVLgVKmgQ0Yqn4Ual9LCCWzuZYz8BBKgRqSM6U58QYZ+WGxite70Nn5TQ2PD5/wBEV0uUH0gwdLlyj1TH1tqpfDui6HEFfNGLqRXb3Q2UT8egpJUoiVPzMNK1rUyVKNVUB9EolGhKlPW9tErR40cSpRpW0JSUdpUrQMvcolOxKdp4I9ohAeoFR7UyaBb0l5iDRPBPHAykqEQvvQW6sAdX+iraywkEnbD5nHEluJReKeogNwsqJKPAMwls5/c7sgv/AAioT6IG13KXJEtK+XxMG/1qL6JZDL2BdMM4DlsFLFhGBJWIYi16WUCMJLcsuXPyTh6SqsPeF3pUKXjpDtUUNlhhy3EYUZuerQs43mqhD2lJw1Q8zoBy905wUlviQ2PWBHfVyta0y+KENl3bQbbenXYsufmQ04aHMDg8Q/WRnXVV7UxPwg7MU+GZLGVDQisXinTYxHnxoa8IuBuuQk2mwhouxLl6Xo2/Jw2vF43KvmThuZj7drOH1OOtwZUkcbnJ9wiy9g16bmM4YQ2zS+5WhJUqZsC+kOyj/gor0zq5IkYxLSzrERl7l8UUelABx9ydNxaFHaFOi+ZlxPOUKAmmAhozYhEvuQd9MBO4+pZCPEsSh3iWMAuTuRUtXwwoVKKzkSXUpE1wSQPzFAHaPGJzcO5iMCJio8bM+APEzUflhs4ekFD27rXeTQl62r2k16acfy7CStSVDSpj7icDR1F+xPx9gTD3p+eP9ITHfhBDbf13HFgdqpIr9G1ZmeyG0bhnXzvDcu67uL1OGjr/ADm1ejj87B/VeIyNjOLOvWpUqfoglaY04QQMSpUqVOFOExqh2hB30qAtCrGZgR1/U/4UX6Y+FhJ1hvKhgYD1CnD+44sE8P6mPnNQClZFGxTHKM+4KCySZhJbCWAO0Bc3qcMxTyhHEUaKh38IZGQQ7KHHWeDBOpM71C6+rPISkIr3lkJ01y9FyiV5JNblyr7HdNnqhtOfpOBoxiDKhODc6MND4QJWhP3NzdIrv3/m3COdYCVs58YIbf3Oq9HTYg8bXhmHy3GfRDYyoe49vBho3Z+hqdcR73OD/Wl7kbGcJlehGEZz9o9vCcYO1cIbh+SJAA0JwZh85hbiBs4PqC5iPMchxP5siTGXntFLMRx0pA+BHtS4sKJVYcTxof4aKciKdMMwpEXR+52v1O0XzAExhQoC80luuRjKX1PIwBhb5Sj1JZx+LK0FlMwRkemJ8W+EU0LSLOh7JfBeoBz7KhVVD1OF/LPDh2UI1eDLVH2S3ogHhuEDAaeECIlIK0WOhCXxQjuSYqfmIRdWfKnwI1dFy9Q/rsdK7qivtI2i/lnHbzeycTV04PqDGGly9H9ZCXqwiF3CymJDafnDR1zPbUOvB2j+oxjx0OrHlOHtrWjc4/ncTUWIbGZelhtdDOLb1S+M5gAUG3NfWxVxTCxegQNuMPybcPRuTM0uDbmnw2KjKo9ZiSiIuhHtp4UEmnGW8/VPEnofMW6/aA5+3KTmwikMl29VHlCKrvCPR62A1uIlaZYTpPrMe6e/8xqdTtcM5y7XOApXeBEuUl/LJ3zO9MK5H4j/AMEpS7EefoljX6Jf0jwfSdMLepVg5irn6Jiuqeo/8U8P0gvF/UId4BmPMv6l3T6MH4v6nmfqJcr9QFS0IAWyrlfUv4X6dLyP1K4PLHnPEIiLzTyQFQAlHJNIs6krKd4h94VR5iU7ysrHbTpC0s17x8oZ6IhLIEpKQ0B+MgJZGLlz9kIrKan1ExEHzL0GvTQ/oMwgqiy5cWZDOv3Dac/ncwJx+YasY8PUHBu+CVs4Tq97jnBxtbMamnLPyQ2flY1tNLl6PEFX7qG1D3gIcaGjHj8tHYsMm115jA2D3zghl1onE1dHXbKV+JKlRiT8kdpoLgCURiG1dRMSiUdpSUg+XKSnaUdp3BA7CES8QFSnYlHYh2E8BASTkEKuJ408GeFPFALEYME7omXjPGj2Z4YpkuXz4NFXwTxQwwY4nh157UI2ZXOYYOZ5vtDpP2iWssx6wZs3c9mK7pV1zyIFy2PiBd8ejJrcqLmUykhRhnmJ6YaXqf0GMqnbfnEBwfTKXlHkJ6nfKeD9krtjEauOEnsc8KL8Bn2EHvsNYEOLIMvV0+tF7OecHrS9eLOHzDRmIw5+obXUxtzUH0G1fen5tHVYce3Q1ZzYNrweW5/exS9iEHjDW4JCyMx0pvZj6mxmPrgMfaO39aH9P1UHQk1HQfTdxUnifiho6u33hsSLHqvXF/E/JtY/shKiSpU4eitE055xIQ0Nl/0WXjtJAnVKHkGL/wDhPDivMnxonkKGbnQPvgpVcKUwc4QGlk7knr+5Y6n5gH/qS8yiNqMdoUq4Vcg+JRzBTxILwGILuV+E85K9zW5oL8pSUiksiw5vEWly9Gp7wbboPCcDb+xvj9PQ1TDF8VbnKdoNhP5+5y25nB6b+ODxtH0w/XGGwvsobcvNssZZNJehBizIl6XTBi+mfihsZ/JtZ9NaCMvTgzgbj8m45OitHTknHQl6LLg63L3JpGx0Fp0NUioe8zIQ0q4KIYDYkT8wJUB2J3folHH1QZgEQZLBqkHj9TNf6RHQYkSYWIZRx9ydj6JWUvoxDLNfuL2PdwIOcD6qlRcMVoe4P7zBfTT4niRbH4WPkYikKWkILw3zBOPugmKcIsUJTuSyXLR36IvqiyyWSzQvv6DoaflbVlZPhDRnWXEo6JA6XpcyA1rl6cbQXsde4nEl7HXuQ0XYR2cnplHvY9uYvM2PGgy+EJ1iw50eHvBCXF0Opj6oGrGOz2br/GSEY405/ZOBtZ1+4S9nH6hxDZzTibGddCG69eEOENjOMPMNjxP3wY28GZyNjxDK9Q/oSpWnN60g1rQPqIJWjKIQ9zAJkGFSc3iW8/VGz+zpxSiZCC0v2wFAPlAyqEVJX3yr/wBZlUx1jCr6sgAYsZRvh/ugn/Mgoav7hRBisPef22nCNLgyHPtcOF+6HWPThCTQ/iHUD8R4g+IPwfbiUBrxOZZo3CqX/egj/e1AaGbIS5ei4IloVDXP7GY8Ky39iZIb2hblfRIsjC7BI1xemSVRJLly4uD3JxNqqb8Jow0/EwVomlmnO+ex0GTwENlz6VsIakVw4jxsSMwflQ2XOfQhDRhDdfJurOb20Nj/AAhoa8sVVB0I5lSpUNA0NHS48Q4+obeLMoIauh4beeV3T80NvGDb+KO12MYx2J0Bz8XDjV0/G0EvX96C/WlbOE6vdYOty5nl6mlHaUdiKYor1DhB6IxK8YvBch4ke0/cpcJget5XBv8A0hXiQrlOzKuF8kvvRBUvYUcAjlKXSpx4ydMkYo6yfMS9oR/FyddJtP7ShdGH+Jg+i9kdJYzCtfbUchPpMcfhgrRPVksuUlAcgnhS55ULqh/0IpgOGAMLlEBOPslmCz3oQ/AY4qLTL+D9zyw7KPb/AHK9ycx6kO2j3iDdSCXzo4m5QEuDKS4z7Ghcsly4wSyqYRXUuWX+IJouXKQyveGSkslJSBGBKQSXLlxcyCtL15dYS4caVsNzGcQMuXLlzjP59B1dEcbLiz3RRTONvP2nHZceTxPzbGMUhly9kONq+jD+njcWfzIO1Xu4V+Ox2pMomWAIqQnVZR6+dhlRBDosFR6JzMrrftCnJAlT19AGj2Ep2IRKJQ4It/5T/iQ6X0RbL9UcglDEOnIRfmFPBRTmROq4JBFLKeDKbAZn+xZhqsAozmN7qbuf3FOV9xsu9+4NR+p5ftAc8CPI9M/6cy2RKf8ApAB/eggy8CB6fbLJ/fgHWnkzzJ6clwGM8uAaWZv7YG5/Esyz/QS3gxCsdC9rGi0blJQg3JinEvGgPWE7U8SYcQHaodwTlxljp+5TQ6KljojEd19z1J50a4uhWOiy3fpj+jerGdBnhPif7iDuBPNBeB9yo0kKoSa9YtyJcuXLjy9f0FRwbGfyTjDYvoivZsf6GZt6fjDa6XxPztq+rSmty5zu+59QEHV0ap9oafS6JXXug8KCN5EujdxKY7zpZOtpK+NHXkMDbgvKThpWv7kP1Nv4Jk8dlTk99FbHPpBt6XcbnL8MyXubHTP3QNK1/fOMrQ0FeqK0hpUqVDlCEVGEmB7TBD/4DMjAngI/4aePPEPUOaNzMYwrwD7oixBusOVdUa6z7ysrKPQhRHl905g17jkawyLk7v0znT9cR5GDcR7kN0jAAxgvRPClHhIglCPMeCDLly4q9Uc7l6s5UIQ1Rd5bSLM725eifmamj+9OR73O08obf1m4+oaJhgLBZOL+kNnQ0PtFDjbdE6Kw05mLxs4TP4If08w9EH0tHX9yV2S9FfkUNHVCHYwhsVScNtD0TEvGx0d7k8MGDb+Rgr0Q166fz7nL2hsCv6qxXWENnBnFoaXGfxbQRUpwIMSUdieIlbghuCC8iK8hmewkQZPuHAD5QRP5TCVLsHDgRqcL1Uq4+iJBDCJdI9FPmd76MThefB/gh2Q7Y+IhRn6Yvgz/AL8H4P3Ctsoi3p+55iUly4Md6XLlk6OfhJcpL0/EwxjaK3ZX6txLPDTntLmKsstX9qGx4g+lhpzwUdYqG8HA8YbbNfYn5jR1f0QAR20rRNKNGs6MzPiDbkXmcNuYQ4etwzENvA8O5+CcfqG3L2w289oam52jzhDZwZxbWP463qadRWPUUvYUzYsX2Q428sP0QNLlEogRWchH/FRbn6op/wCOjIkkK4jmJj/0MU6fpkw0HA8PuiCEXUga5CVcKPR+SKyb/isZdK9agLQOl4YcK/qDrk+bg3DHsmE5/ZFVwHiFAfOSBcl8Qbga7xXwPlOkp+cEML6ibE9IJO7/ANZ/3IPx9kohZkMlQFQbiy9GfjBFMwJ11YkIGArRcyP+uYcQZcuYqLDA0f1S16cUEIb+TufmQ1rTH4pxetqr3oefmu3AZYeU3Vd4G5V5bhDZzeyHBsZeYMeS32bVDL1Q2qQ2XoBHSoPGpsGXuh2DoW2kNjxGRxo6DoDDYdP7YbGfZYbfyQ/TqwjORqZWjwJrR2ybMfhmPo0xq/p0g1qIpiCaOYf4edX8owO2Il0ftjSF1Cbk+mpas9KblV9twM6+p7I8RCLQ5lvieGYcKopNp1bPwmVa7UiVjmESrD1cQQqYEX3whTa/UFWfTZMBCYalMd45RrdyJtNsMqB7Kl/IK9orpV+mLI4inmnsl3RDowT5+yD8fZDeRReCljHuHZ/cO0nkIwTN5SBRBNLl5ipfExHwlxiy5+bU3pcuXH2dR1rNXL2M+5OJtLzH+pZrcuLn/rMHRlxZkycTQ2fshpeq1TpwNDabuM4YbcFOOGhKjxKx1SIw0jg9QIGjoOTzqaM4MONho/w6pA0OdC9nf6w0df3who3oq9hPwbX9zTLl6XMCcPtDYxXCbT9hLWmJmfvaVr82ulSpUalaPN1SqIFBPAfUBX7gU4JaZ+qf8aK8pKsyCNcwUVQRPTAeP2wqq1e4GYPshkLb1oYG/tELbfCikf3wFj5GLf8ApDELxCRJtHDE6H1AdLKf/KZ5bjrGkuXKnJO0/qAyt4qV8GvU8L6lOoRqBcKeSdj6odX6p/wYUZmgU3zOxx6PyQOsgLwTtIK5BbvKxgWHYQ7qReicn/qO7EQHIlffEOqef9xXKTy6imf0VCnLlFrxHmIoCjmQlxck73L90AOfo0erKxkQASqPLcIUlsgDmeSeaeFBxCVtvdxl0NACUhFIElQhFIDQsC18SyDszppIaMWIP1qaMvDhup+vV0eIfu9TUnCdI68PQdHVumVEhGYPD+pDZyeosPbDbdV5w2Eq+8n4SYejsV+IbHTMgcAvMuiIUqCwuIaNDjhsYqmNb0TuZjL8hsZUvYhotRq29xweJODbx9EJWtRIQUASxEINGpjSBrRBgeSGBpUAiEyv3KJR2lLpPFKwUEO1qspyP63CUykOxPMPmdiSJVcqKINafhCBaTwE9TtfJKOs+7L4v3Qii4wSkyPhnUUQ6gQeX0wY4fcF2WI6vqHXEOwnfCHAT0yk0kC0XrKdHQCXpzIOJZL2L823gz9jehox0/UwMQNE0uGQ1o0f0QV623D2tLcNme0jSaLuojtYGzJq6KuCi7wMA4N/mdBzrAYm8aG2F0qHutrOHr3P0E4NHVU/ZTL1N1qXnu/A7nPy2jKHq3JjHhpetBpDYy5Pl3H8Q42dof0nXmhrWmChrUNGDOBsS5US7mWcmK8p8Sjv+ycEPUROCZxIpkp8zsl6Z4fbKJPRd+o8836lBj54AZRljgg633wfS+pdDfO4eWaI8hvRcKbR9wY8j2MzxSxIwGWmDAX4GC8D7lJcaR5JHRZcuI+WDKQGlLBZbYx23tPyIbP0oKN5qVsesOXQNSPPLI+GrCWdKbBm8QS9UhdBX8QXBUs4LlAQcOyMYClU26E5PZ7Dpe3cpA1rQKTtdyr3KHGjoz9qCi7DR0rSp+0Nv427L2bip/E/FsuEz9sONK1WTHDbyeoJGhoRP1hxL16w2Gw1YsWRuLKcX9BnZw9tJs4xY+drF+rSt1NKOxPAiufqjRti+0/5sUbTKuEemUNlX2n/AEIMD7BhTgj3cB4SWrc92lPD+576RcFFidJ8ri3wx7Tgw9BuIqBd7ly9GBr6hI0Hl5YWU+wqAqZFy29Qdv7oOcn2iXnlmFgALlG6VEcSP8/P+pC7ER7qFOLhbqSyXOkszFCuXpepk+MmSVONd1LNLgzRewO2EpA5VxzX507kA0VR613g9zJbFIcaK/X+WwxlH0waVpcMBtPloGxn55+Yl7HAzg2OnM8Bu4XuGjr+KUH4JWtafu3fsnDavo3Ijy9Q2ENhvXVDZcdS/Ft4R7VnP20Gzix3by7nh6htVH3OJt4MX6/p2iMr8agCJOmpL7NXNQDuQ50MSiUdoA1F4lJjpFzInc+iA8H6JTkl0bVGI7HWcsnpQDisKFVHuAokfUlSHYlQcC7q1dyiTdxrQri/hmaK7zLguEqKQUabjYPP2gtzEWZP3AmVXMCGT6SLipfKI1C6vxg3IQ4cLluEyEVFy05Q6TCflHMB6sqFFOsLgymRYNwkbt+nM/y+C8X+yH+QlvREdyBz9UHEHS4tRjAtFl6IT0xFSzYBBlEpLJZcEjPgYp3LlxZcV+NIOtzpOR4YMHVg+ufk2MZz9sNHS5RP3MdqymMB2MGJsP6h1Y2M5N8HasVe3YuXOacHuG1c4cbeD2TibX9U4Njor9pu+4obDGq7zh69yzN4PRL2foQARwaiWR4YfuYMuXr9zhKcgMsCJ0ExjEQSWTk0LhHNdoRwvkKtqDrtIsxQf2p2f6njTwYJhOMW5T4nXfXKOJ+FP9CzsJB07+45S/ZBqIEdBqKT+9GAtY1OZ8CA2+PEbGmfEq5tB1fxDZXhChofUeh9U/5s/wCLK6vojCalVXp2gxySA5+2Ddsu1MWvVilKaxTKkCVM3Ie5SKWMff2uHGr7meSZEeWZ6xd704nHMKdskNYw4jXmHIPriBU/ZOmfWcCfMhLM5gAYYnh/EE7xEeqzzSh9lgHIiPTGIfqTwJzHEo8JTyhL+DDsJn4/cG8Gi2A7zwIdhK9yJhf4oaFdF8aLhr13qBAdbiyhJ+bW4OjnquXFmfuj2804fbqaMBDxufoN8Kw7nfhG1mebhaF6JiN3drONNgvS4+pweiGz9CYett/NMvmlbCyxfKc9CoqB6QiiSLLl1Neg7RX7SXGLqfghoS9Ho7f3w42vF4Y9Fl6fZlS4sudJR8gmOhqq9LPxS5elaKIlStHiKw8ocSpUrMo0gUSiUngj2kGuCEk8CHVGnV9E8KYR0ShwlnJZXwZXmeum4Q8QqMQTpFOkp6MAJTuwLZdYgDDGXVnsirgIQ/punJWh0B9aIh1x799suuQ+JxtR4bgRkBzB8N6lTXzRL/wmQs/iFWPqmGGntHoD2ME6ZeCUPdqC8NGrjBnfM7ggsuXGKVLh7dAy5cvEFLwixsuCfFuYP4YrTvtZWM0vRi1GkGXGAZY3QjVeps7knE2v6Z+Jo6tH8pc3c0wjWOi+1AMJBKJRBmRGtSgR/Wg6MYTg+ENDW8vSEY6MNp56COhKJ+X8Q2dI+HUDHQrRzaBz9kdBl6O32f1AUfKHGy5wZxbgfWDV05JxIQ2DJDZxf1TiuY6UStCVL0amglXyiU4R/wAcRbn6yP8Ajp4UETmyzl/bP/CqAqCilVPmOF9piO/YgVevpmVcF8sBLVMC+A9UzF4gS5U9swTzEqdfoSk5/SaIDxfHWd8fiGWclpUBRFXCMz0iD8ffBePviP8A3IHH4gGQ403Llxihlu5IuXLiTlqXNuHRANd9gbHvhYy5L9DARxfCZQI9THzICT8EEI9L2QEnCxC6qYItTOhYZ0LkbmHpn4kuXr+xLl3lEEv4lyBAgy1fb+dt5mDzlezpMN2qy0DqRqfYghqxfGSEdWZH2UCEYwn8uBt4UjbYp5tL5OaaOtxCp37lnxbvD1zhsYsPqccNjFkR1YqcyNzt9oS5bpYHr+oYVTnJtdVOG5Wl51uLLhEqxgWl4QsnmiWO8F0cJy/EIaVoT84A9CJMp7J/yk5Z/Ez2RoAmIldvdIuVY9KZLC+UAV9uNHX74Y2YadkTnkM8WMp4jTumByio3Rb2GBr3g3Cg0OzSAn3sQ6rvYixI4/BK+bvBKlXLyfYOONGRsTEH5fm49YfUWy1eSJl6PxEai4JXBEeUsibnoH3BQUj1Eg/A+9FzHHLFk9kWUgmir1MF/CDjvwAgkdL1P3v86XHQWGKvPA1Llz7MsSC9ZSEK/dqXLjHggaXLjouG38MVsY6fXDW9HUj9ZrWjxP8AU87XiZeGtxYO+m6pMPVLU9bGdIfkhpUYwNfSYkNqu3l2/ihvNF0YMTn7w28oOCG1zvlsWNZfFocNKocOip2lO0rGMz6GW2vD53OvRH9O1glBBJpSqqfyYGA1v7wd1q3TBAQk7EVZZ2x0rS5cP3NwpJ4X1P8Alx5T+xK2wPQJ2wCD35slTDcvT0w5eoUYA8B85woFecGirWMsba13WOE+S0B/v0wIx7EMSFGnYyr1VYklfrkxZggXI8iEcf2FAPId7QMrU6EV1/ewDTem1uU8p6kVWu9wUYT4DDNdnsgrwXWUAa3JhmCPub2bPaDF3j0vFjdDuiCBjnjEUaLtKrNEAKP8xSj95lBr3OKb5g5HlKgO8uXLlxrIGXLly4teyLo79+dNuUY7V86ExA7Gxir0MFe1hsWHP63Bft3PwSj1bjLeobf2aTYzr9wnTRir0Rf02cYa+UNv6YbXhn8jqsojbKNxDIGw5xyvWowlkaEG9SfqhtVJ42I/pBCEXyh2Ud3E51/PaFAfpFvnYXlg3Mp97kB94EBoshFaeHkhMFscKGKnhGyXTOcQwelFq5m62Vi+IQXYQ2c3qK3ly5cti4fUuWuVZctl3nrPdRXn6pnwMM+oipXeyKc/XKBbzjE5gPqZoi+Y2jdJBidnW2IWPURC0BPaV8B6gUJ81pRaarI0zsffAuPlBjj/AIEbcfeDsfqCucO0en9UemmlOqSmv4XOUVS5Knn+kwRDPxQgZ/UAFi9wjoS0IDqg12eCYf7EKhZjvJw7RwR6L+mf6iP+HiGqvcJv/iPXOTtAvA7EwcvqYsSDLQxL+JPawCGjEtVmqEq04w7H70pOYqdkgj/eh208pEd4JY9J8QlYjRehLHeDoxcuMxYoIOgZZEVGJ8ul6XOn1HudtzhoY0HS5n7IS5cuXOLP5HRlcEoNQaQdjD1T8UNjoDFpLdLmfgYbX9UqD4inPSGqQOqgeXBDzri3iUBQAEd2g2po6Aht/BBxqSpRQ9RFDRAVJz4bn6eSIkslJiZhj22tdoonpbyCHEIJdw24P0Niyr2pd6pcpYGgV6J+3oply4MbDrNtNltvlRY2XFa9q7k0+obXK8SEdh+5ggaVAh4NhUo7Qk/EFekiHoTxIrz9Uf8ACQ/wkbYMUi//AIT/AJ08aUaTBAASCcmPMlWUaAHwS/xB8DFub+5/sYD/AOkP83KXf7wnmIjKTfpyiprdFksLQpKU7b+oaED5tEo5g7wShwkB8sBbLSL0hjtvE4w1NzosMCyl8Tul8kr5+qW8PqH+Jnes9kNRLqXkUeyI86S4ZfmH+SlVx+4IxGhaAojHjCDLlly4pcGpoz9euNor0FtuAOoFQDeAoiqcFAxGAxSbMHAa8fZDbk/gbitY0O3tDUjGovF0+IoaGCrLSLEvn6iQLqHl5lDkp3A9SWnSsjdlBuO1PyNV0UfalPpaKhoq9iK1e2rDodje6sceqKoOyig8vc7HtW4L7IGlbDfjgbVY+EONuDeU/M3ZPs0des4HZbmMDESVszk6bEh3B4ZwJWw0HYghxqf0OLMh9ytAdEOsMqPJMNUn/EIf4eYapAlC0oQwP2x5z7p/mk8CnKoiwXvMMT/96KcVntfJB1n+IA7orLA7xk0z0zA+tHc/GHW+0h1R+orhL8QTNb4hxo13UQ5/DAdBfeWxCXxO6Vm+yci/mDcBlxFXcdbO2TrDvCKjbtBwQdiWRdHhjXPug7cPeQ28JJwb7EWhYO4VHFargjNe4HqGcUW6TFhpRyQ42KwmMYJxfU/A0uMCZR7kAehtde5BWxVccHQRIy5cMszWdUWIaXOS77oZPJtZn4ZHEZWv7sNHXke8m396CvQht47p+cG1fqHB60dScnvfhoa8nqcW3P1bzr00YsRY9tCXsA28GcUegAaro+obeeI+KXrUeJkvuVPFEmfqnRL4n/mM418kF5+mK5R7FIjFPvMZC8qWVTGEhQOgwdCF8zJivtA9kXakq4X3KHU9wgZgSK+yFvIQl1PUZOogyX9kUMTLS2YczLT70Nh8BsE5HsSEzTyJcaVgs/yGf9Mh/i0t4DLIuqcwYMIgliQf0jKwkPgsPvg60vLVB0tmqJeTCHQgACER8p/MGj0JeNK7ARWvOfibV9iYloHVcMpB5ZYtKRqNQh5khEl2is0Yc/eBoa5JtVB9UGhHTMfL+f6pAPqNrMPY3JIbePcFnH2bXTHBt/FMfRtV+s/pHXgw40NWO4mppi3iOCWyg1Zf4hxL0vR05xepexi/aGplSkX16XE4Fw6jXh0hM+7qdOecNvN6mTPmETXpEMxoh2mEl3QlyKQgpHsnID4nETeKVyU/LO8mFQCPSy3p+nAXB+JIGa5Vji7lzMwNy1ZzxbHWQe1TlwdGYNz/AFSO1nHSUB8gZlK+ChEnJ8iil0c2HgQZQqLsYYCAMiQdZPkmWdhR9sD8j7UHWVPKIBwpS2izl8onAJOQFj/l5bdjvLd+0TyfcThavZFGA+mXHlMKeWXOKy46dIahDrZLIfl1XpcBZ5NLly5cq3213foYtlThd2cTxteGHH2w2MPxQ25elOO3gw4e2GxZxeocbeScSGrB9CGxnTS3R1/BOGY0vRmHjhxqaL6Jj64bYcavEHJ8S8RR1I7e53IR7Z4au0qmcs/NCXB0eJ/O2ZzJLD6K0VBl2woCIt15/ccdn5N8xXvNy9gr/p53NT7DB0Vrx+8PEq5FGrQ6S7QUGjOO9SpxuwamjpPKMu9soehOv+U/4UW/84k8C6R6uQ7R5Ea2CnQn0sLr/RA2A+Uaq72QQvU782U9f2wIA+QhV/aIWssOEQ689vAypwp5zg/RmMxaZ5FgXP1MqlUmDIufDcQ4f5RBMkVct6g7Z6Meo+6QYGFnNIk4CL7GMex/4T4qR5gl6EYrJP4UphkJ8lBSz8Swu1etDmJQMpcCXcGWnCEgmVgVp/MOiYf5CH+ahZwhZyQObowZCd5ZqpdK5el6P8o8bGLhnH7Zel40WMEvZzTibV9SG90ZTOs4ekwPuXL1WZaxly48MdF42uDOX1ol7vUNNqghQZ04J8z8epCPECW9+wYmDLC8ThExYOFONLlyj5G5h70/Jua6S5c6QuP6k6Q2F+dAhsRl7pght0dKn3CZ6ghLlx1LhLlkvNQhQCg8N0vz9GcyDPwMBTxOkESo4RaGfsf52USpye+0ZZjNvKvUUdiIi3ISpU6LB+R9T/lQ/wAVP+NpAxRGyUoeNE9Mtv8AvZwT+5QfR3YROEWop+0q4T8pRxEusgGhCW5+sP8AuinowGITylHElauVwMwvqY+6f6yOPH6neaIK2V1TV+FROhhOya7YO8fc61SwQLj9TuTXw4dxMB1zvUKuUMpYdaAZL6kP6TGcF8QqJH1BOJHZwXxxgs+8g3CVOeBBeEl3FgxgKl4RGly48Q5+plKq6jbRcS2LOUqogo56OiFe5d6NhFlFfzQ1Ycy5G4f4Qdqm/FtJYL7A0yjG1PbXYaGjFi8oodHTH0YljAbHS9kIxfwQupORiZaQceHLSMvF9mXFj8rS5cY69uGg8NRFTUo9qIC7FYn4p+XcrTpMHRZUXYtLl6pfZHDahDz0Oly5g9cHaq9bPxm534oIbP3Q20H6nFtSdcNalEdfOE1oiS71H9FerOSAHEV5T4h05X3efnE6Qog2ZQq9UmA3Hws8V6gBUoYDwfbF9BgsQBAtJ0Ce7Qqwvus6PyVAQtT8kfV8LCqeFkZTwn0nGoflHlV9RALeuILofghAV5riLS9jFHIPkz/oYLx+GF1NfZGPtd5REL6swCvkgnH3kRwIN1IBFahS4MuYhM3kx7FikX0S5cWXF2QYMGcrwENjEKMmx0JynDYseuHL3Ao0NOP/AGzCdMXOD1Ae/m5WMKuOAQ+LAPiXROtfzPwQ2MVd8/G2Fqf0J+ZpUMZxP1I79ErY8S4NwIp1ZnSOgy0zfwNShomfrKhH+jX4oPrSt+kvV0UNv45+basTl7wlxly5l6m6Ar7Gg1d7oG5GENj+DaeIabMxDWtRMaOsS6UMCIxdWRhGhyjKsxVZD3QZNRCeaIeoocIUVSLG/qIgWcvJceV9BAuPrinSSrCeikxZ9stFNcMxbgvUNQBQWf3phx9RKf8AwTB+3ZVQZiyMOLfTCjwj2yrr+kRI5Wb0Mpl6YbDqwjUq5+0iP/nE9Rg50/cjFfC8KNoVG0B4/hiQUnNMyAi+kFzvUHRX5jLgFZdIV4+yWFCn3L0blsSXLJcuYrxJZyczjDW+B0uyjmdNSVSeuguDDLdbkIDRgKGBL35P5h4/BamQJw7Qx9LVnKL70vl7Nks5+/BQQbOD6gr5dqYZk3SSVAjMl3kaMCE/jwMSo68e+dBNK0w9E/Of1LP1LDa6U4HrR1Z+yHEqOhOPo3PxNp3s5IdANoITtsR+rQQhGUfHDREDSSojXGCEtZgtsCoYpS2whosor0jRgX/QB+Gppgj2h+rS5nSoeAwSQnBLv/JOQf4QPg/UAEzKlAJQEzkr/KFeD+KeP7YpZ6VJCEpyu8yl3J2j+SPTF9DKK4oKZXsZioG1NQUj+yNY/GMoVSn5mXLPEOHT8KUIkzFV+BoxPhfhKf8A3J1b9VEVZfBLTITCuIV4f3hFKlmU6tDNsg6arWwyko/U4JrlPlqyd4i0EbyuMgt7Ai1/hS/piKC0xM6s4NWc4q9iPF4SzRltNU3nD9KXFlkuEP2Gc87bXhnBtGBvXJDQHqSGjGVM/e2MacWGvRtWcV3W7gyaujqXD01NwJr/ACbi+nD+pzTr+20QyXxDU05YPpnXQ0dAbBFiByktSLqkoNDTm9bBcdJisjHqhtWgXrcdJD+ptZmmQbfwf43AlfBhqzrHYSGTauVvMojrei43zLrAwJrvL5zcx+dS2mYFODgh4scUZIUFJl/xyKNt/pP+HAqQeYFRFTByK7sA4H0yBUA+8rb/AHypj0wK28cISXmpANhfYTDV/cJLH2gpZfkhrPbkUSo1AKYA5R9JPKfKf+faLOX4lAgFutxukAw3ERv4Aw6x/U7Segh1R9kWrHjtCQhzc5D7c8X3zzn2od19MaxZoaq0iTSDLOJC/wDrKO33uWY98MxluiHCG4f5qW9SUlYZ2cwEs0vVfcR/RLlyks0GFnmCS5eoRibLmbPJOJsuML79xz7ThK2flTh/QNHTlmOkbH9mo0WZE4BGDCEeGfvhsZlBw28/qCBo6LmjvPiRDYzMY4GppZImB+G14fUDX/bO7l993LHxkhsYL96cDaMzphszHxhpSmAA7aAQYEDqXOtR2DF5P5nA1Ybj6GGvWaMwU44iu0fi7cfel8nZoQhPwTJe5oxHaU7Eo6EudGYd36Ip/wCEW5+iPB+UtMxzRF1KlThFme41YARXn9Mx0I+YGg0N5loFj0oGVFjr9ojkOPD7I42azmN0P1Cj+UIHyn4nY0IVfxlRQjBcQLq+jUP8DOphVsUzz9sHdVhAByfMaVQ9rmLN3aPCD3cbuVe5UKm+sKK/DB+PdKaP1xR/4RNf24sOB7IRa8naHZHxHlL9Qbq+oaGIWcDnRvDguCHjSzqROwaD+m6caA6b0YA/CDB1WLKPB6jMkHXH2a3ozn7w1vRV6JfLDRlzUth4u21mfzpxJWy4Q/QbfwQ/ru/T0vZzPEG3MeF/M6M4mwt3Zhwtgv3obXgkbVQ/2zsOl+H/ADMB6NGcYOUzI60nF8Nqpb6p+BqaKvamA+G1mQe/8+1Jf45Dbf5cNK1VB3kIbOd4hmGxiEuwQ1qVqJrVUSKUgO08RPDnhQGInY9K/wCRPAgPBKFih/SWc0Eq5HeVrA/ML70hq4+klZleSSxpEe4Dsx2/rj0PejMcH2CXj9NY+x+ZR5IKOEI8lekC5+GoW0h8Evwh8R20F+TOe91TCo/KAlrD2g3H4YEsoiVigznlD/AJ/wBEnifc8hAPTA+KGpz7DBE1NIMsjP2QSzVZZ+OfgNvN6hrdj7+7LwMGxjxf7zDUvDYL9zQ9ioe63Fk9zuv7f54aXHUu4sDvZ9w414QTFPUxHo0dXTQK9TZc/Un5GrpyemCvev7obDl7wbcqdtCtGMtUdZY2/ld9y9RusibdjoWOyw2vB43BR+EIf0mPKfngbEhxQhqzEe4MGnSXTFHiEGBxCUdif8aP+FJiYg5TR6iBFh8S2sE8b7YrbnyyjTx3gRpLO8x1Hqk4b5ouRFmX1QqW34RdKE5QCeoc5b4fmA3KkUOFzu/GiPrQxTZKWPWrEev4M73xhldZPVRBsHdJfhvkqVQGhD/OTlQLU9oXdvwkIC12O8t8mOsGLPunQrfSf90l/A+yV7zFHN5cuXLxFi+yB1uKQM/h/MqRloHpsDw5C0wQ1+gxw2Ez9Hf41ekKh3ENVcCiApeog29tyVBQ9ht/UgweGqafpQhX23fzN3W9N0X8MNDRn5piG79pq60g463pzepgQxLl6/x7jGvs1H9AjOefng7GGIENWKtgJDEXGmIasxgS5cuXPoJV6SIJiCXtsFEZVPsNCASowfvBiUa1MF7IcHqBKOxPA+p/zJ4jPSPtDjqT/jxZa3uiL5zeo9MkHWftifuOMfxD+RhERdx1vMOJhdC+Z/LKoU0nBDpI9yp4+pAOtP8A08fG+mUbDry8QZUnxB9o5cJZwjuTXdX+MOBT4sPV5DhcG4J2sZTtDxTDTMaNH22lbyPeBTBtlrzD/wBFkwWk9jBcH6RAv7y1rL2hSUFlh/g0F4b5JXufZDvEuVB3gMuUS9qECMQLWEIpKC5cOE4ZG3+HOB60uXo+DtMPWly46fsQJdtE/Q2rKzeENvG1DX80OG1hzd9pZn43ceGcDdywbQiXghpeyt3LPxkuXL0Y5ENDRUagiRiwMB0ZB1Vo9wcS9Li4gIys/EWy5tIAaq9qYmjw7nEeGx10/en4NrLt+/8ANtY7SDdxsiXGRYhpaq+uJQlkJYQ0yPsLS1y3sl5/ah/jIo2/QlCU8KjyvqSgsfEe3ial/bACgPpQ41Ycr+UMQB6UoWBwhcvuxmqvMDSvShDXJEqgqZMh7Eo49rI+qS96/plPH1MCOKxxfMUBTPaSteL3lt/wEKjl8Fh16/JDpDiAdT6SdROL5N6IV2+xB8J3QlR8VDiw0doV8/pnjSrkwXiAEKrhK0YP8hGr+9BOEh2ETDZTLdFy5c6RfAEHEuXLzLiPm3HTeJ+A1HRgR/KGrrRt/NBg3PJ43AEg1XDSyXvvzmt6MRM4hrcekCGtyjSArQkGDLizl9hhoxZaKDvo0RRsFL7vay3rc4bTZgbVXtzD1tTR4YvIfybWZv56XssHto1t6BoNvx/fBl5UybMxMyVseHyw2XoRDIXCho+HcQi4hlBhdGj+Ta1KquofbANOmor3n8z8hPAT/mR/xpH/AAEI4WXSMtPBK0V8SnpiXAIs3S4OwJ6Zb7m2BXX6nBWDyizf6x/zE5EBsLpTMuAj0RgHU+I9FfUB5LCSetpgJjPyR6f1syrEPH7sEPS9xgUK7xVqscLMORDbwr3KalPqep3jgstFgpkInlAhx+yIOqN9Vb1LaxqoEorjxP8ArIGsNR5hgvBhc05JJ4s8OXcCB7krAOQilwgksiWz3hoQ1rjS9L0zfufm2qfnIOIMuXGZHgNA6GnBgHzRmqhCZXvL14gWLKTL5lMo94Z65Wxi/Tc8LHDbwu53P2Z+NtWXqY/6mdrAi/VtwyemguBwssCXMm8IaUsZopl4m+2G3KThtyToWfUOGgkIO+ow+31BgBORhgNHi77hwO/8s67cfU/mdHogx1VvtH4mq6YC9iOmc6Xqw/DSDLl6vDsL05ZxDTGqR382yo8QlTxAxO8E8KW8lnhwR4lbIY9jFuTpSDxQe84cQ58/cOkHzEuf1hTBA7mVl9w3XuyYQApfZK64Len0bZWNt2pR1YviXK+kWLzeS5X1jwzwkr5+IuCOT8xaY6i7iLzZKmfoimrntEOJMqQZD4ufcUrzww4sZdZ3/uILw/zBOPunPaOGOSdYUDrUbXFd7gZrSCQBGCuIoPEsly5cvmXser0HZlsg0yp4blxj8/aq96FL+c7WJ3TmvgQ0bATjNM/HE0cxqwUYBr1/kYbfkXrcuMXm5tcxZ1kDU/f/AIjxHEpC8ulR16MNpp3oEvZxmlIxhHXrqGvS0Y6fpQUPjS4OjpoStn7O5U5YaOIOjxOHuhpejE4dC+5zTFr11cRtV3DU3uir3TiSomxm8DEzK1UBKPIM/wCYT/mE/wCWS2xfEWLHsi5T9E6v5QDJhRXH2ygwfZG4XVd4dMvUdiGwUL5nRKvRAnP7BllQdqglWmI5K8dxWMz7w66+hIdX+Ut8ie1gKQ89YDzV3JRfiEh1/UNFv6wynDIvV3EXNXKeH6BiDP3YUqY+ixhl4e2Q7n6Y0ueXESpUkULweZgHD6QuAy+Z/wBAlcuFcwwaYBzBuJpxP2I0t5pvYXLjV60B2O/rQ0FiR1iWGWVv7wNjOBOz+YkHS9P3P50uMNIwjqHAw3BK2UfGqdEnL8wA40YbmNvK7aVbOs0Bo6L7T+YKDxq6frQbMaZL84NvD7KG1/YQ0GjArRaJmny0ZenCct6wbeeHGvXVX7u0TxU7A/0GcfaDiddemtHGla4O40tM9hcGIrFXiuYThRUqXrcC18m48MsTz1uXoM5NadpTsS3gtJDi/KXc/STH/YRev4ZkYgQBIPQVS2y4PQUVTB9QbOR6UsfkNpUcG4YMEtd0XwH1KMBXSioi4+sj0H9Ic72CR6QLlNoHy/RUovURVxdBuQeFFNEO41hX61FWZRyX0RC1K8galurPqPJgol7gb3lHC4Kj2iiX+eFgpHupnq1y4aShqOU56vuP+KQ8H6Q64fM7CehMMqsQHo+5nyGLJiW9IEOIAbqoiWQY6A9xUWkyAly5cy8SsHbn4N1kJ13TD/QzOJ60dKmPvQV621Zcdxj1DCDsGXZJwaXrwvHdWXqfqdagRh+cNvFGJt6Q/pDa7XuwdSXLly9WLiLHoh00NHQrHzDS86dI4nteUOOy4P18W0rLmCgDawz7wwly9ODBjsDRfCIbTYdrQdlxsfwbKmPvaVejoz/d87DTk+LYEuJcDswYGlHYlHaWdEKoowYLz9UV5X4RXn6IvzNfp+iFsAFq8zsX2xpop6RAkQXuSUt+BzLYUp5wttlLxIF18wo34OQPHzGI0sTizREYFMAoJVUcZG1xqMrrYw7sPknHOfi5g/EsLsQvC8yke1VZT4X1lqKrgkFZBebFkz8/1HOY7PdLA/DcR5H5wsr2TlfV/KNS2fKNKRa4SPQKL0RINczkFB/k4P8A+kUA2HD5lc7feHZfcU7yyEFmhfUly5cuMy0DQssmJTZ0rCXLly5mDxmBpcNMX7LQ3DZWeDts7o8M4sENhexMIQ3OrOHoh00HR0fpl7eH50mzBsrJ14RCXhhoe0WIadJUuLwnA1vTi+p+xhqRn48NtcveBWxjT3k/Abf1o79HV04M/wBh32k5ru9hoT/uYjhjvUjvxyNemiuIcR0vS/iJEuMcwRcgdAJCXqRUETQjojn5KBA1rwSrjmi8Et5DFOfpIHgfRFcLfEJALHEDbz+pmUAvNKQLIz5TGYT3KbpPyimuHVuKwTXSkRVAfMBiOClgPhDJdY8P4jWvm6DBc/Uzlk9wZreOGm0EOFYgTN1GUn92IcF+YZr/AFMGdETr9CVF2RBpL4nd+iFshTx9ITGVdSLhZTyCD8SIV8joM+4sFCHbw7aHcICMMs3HFly5cXD6jw9wly9TQdWEIO41YpDLgwjFKvv2sNtFCMvR5aR0WcXwTheG8uD0I4w2ZmTzLbUU+or9jtYz42t6tPc2MY8v9szi9amlflQAJ0O3FvDDXsf50des5nfdf7viUZhB15vpubP4kNqtiuNLDaWNwBDi+f8AO66PZNxYYjL2FWd7+SkvQ0Vb+nF62sGHthsSfVDSpWlEunBKJSVPQhcZxCXQ4h1fon/Oj/gp/wAeUtl3qNs6odnF3/0xcpX3PGPSlaIj5hHNhz39pbgDSK+HPJ+o0pdi+ClXBfZD/EQfKSrczz7IdYMNDQ33Ai25SEvModYYpLR+ccVp9uIbT6jWKfEP8gYJkEHcQF4+2UMffAYXM6D7IDokR3JfqECMxX6tFhMrU1LLOR+4j4ISEJcZZDPihq6L6oz5dzHxCEdhuA7GZeeR01NFNwPHaq97erXO5dyBKlaXPyoMNHTKIbLlS94EyaIz4lIQjxFt+P7txPJf6XcrENpEPbAhLg6cfLdMFfE4G3neJ+53V+c2Oj+9Da69MFF43ZSmx0+BsqYp8MzaVKlQJUG4Q0NBgwhpUY6T3qc6jsIDAKudwfUy/wBqWP8AYlvM8l1Mpoe4jz4Kdf2wTYb7QusB8sVbseoED5m5iD9pXpEBxN6AfUZDqFpDOjhxhiA7ywlNSZ6yM4M8qNhl74Yd/wDOX43tl8kwpHrKWPmWVdL6jL/YIJz7hJ/0CKXCRCJ3Ep/FwK7vUuNB8znqn24pQ/ZEdukOC4C2N9kSDdOuYLxNXDvuC/8AvFYQDm4vj7yf9KeJ97AGckuEtlymTGNKWXLlxHzIADxL0GXmKh9QA64W2rP2IbFQI/hDugYUcksixOfvT6hERLlj0GPRjvUgMsAga5+NDjYwN3T/ANQ2ix7OHG1QjW4MWDvFy9lbDwiHGlaqvcnL7kNuR+P8aujF+24/rn5NrLX79Rl6fhhxt/Sn5YbfOcIamt7eJ30GU3pcRok0CGjZHGggdSKV6rS6egLjEIEUHR4j3aMvhn5I6MGNwB+tkMMlz/jk/wCWRS1Pekf8HOFinFS9lfiXs1yk17ZyD6tAVfRKEI5kymLcesicL7ZFzDYACvMekP1K7PqIRFQUVg1PY9iNxSnZlFac6C52t6KTP1q5IXgLiLC8XtlSjX3JA5T1FvL+sEaNdxhOFVbQSrn4AnmU0jQc/fg//sl6DLYmBWA9qUAoD0y6gP0xRXsGpfy7hlAA81gIT7Yq6v3HmE8jBriKnlEDaUiVcYQAvMvlDIEyhEs0vS4FHisJcvRl5njDQ0uL+eGhs2R0IQ34W7/G39qGjg2jJ322HP4YcaXrzTibXidft2svXtuPxw16YbfxdB0IbTRmchqy45zh0jONOk/NOGlwdDnF9Wqxc6HP4S5qBgy8RY9x+xFfo0I6XHfjO48XnDYx0DvIIIaC6HgetHRIqfs5ye522Uw0F8P8ocaXouZmmr/Aj/hopy/wlRQREAlBgJEBa+IhbGmwMMoARVG1nGZl8on5PX9Q3WG+FA4Qlj0QNu3wpOMN4RuK+YM7aPjKuL+zKaqjtAPV+sRQiFtR4Ft9RjQKG/JAut6ZES73sTwy2IFQJfRgsN/JA3IfJEOYHYfgiQtPxIIPhmjHlfFaF9UPdIM0IfJBf8Yg0i43iwr9zuH7Zdx9SYxfunb+yB7kZjcsBMJLJZOmiIBxLNL0QlGJ+IMs1XQY6GmJx4DW5cz+Zus4vtL3A2/ghx9QhsX0NDeMNHSDRjEnCcXoTQhxPyThqS5mT88HUe1QNLsIKXQ6EI9wYexDReIwZcdF5JBxDXpG/IhsYTORJWdcPYfzMK9bXXvRX6+ly8TM+iYv00vS4Mdt3/nhLly5cuvpXqMz9f8AiG231H1Dbf6NrGI9tBpU+YWlbWtTsRfn6p/wpx5iR+X+CKFP1IqAoHEZB0YqXlANoPcYr1kCUFo8EbkQTYJmYcHK+PojX/5gHD+4/wCHAkD6gADWusUYDel3K/I8MP8AJTN2+sWpB3oxvJXi6gZm3sZlXP0woX+UeE/hZeDUioCCka1qfEekIJkgLxIfpnOhyTsE8KB7kpOUaDcYDOy5ZOp4g7Li1JLgy5+JoQ1NLhL0Z+uDp00SCcNCowYuI5L42r0X5kIMSUPgkCg7BMi7MDUhoa06a3DsRD32oNa3ybeV2e07gATH3n8w6ejb+jBXrx0NME7OP5YYa8EvV7/zwiy5cvJHm7xHQZcIrfz0vYHzgfRBly9fUl+bWM2NdLW99wowml6t2VmrqrGRjGGvEPWaVANGHN8oGlujGlQGp4X1P+dH/BTwYU0DJDmrBVa2wNxSe77nh+0RGvtiyltirYULgAxs4I4aR8QLqfiJf7lHB+o9JfZKrzb8ldWUO+TaEnmMGQiX99yjj1Id1KeYXk7lNTiENTSpwhoeLj1UHzHakFwMnhD/ACZBuG9Mq8IQFOYd4lZcdNlc5qDocbAyjwaHEuFF0BJy3glNg4hmWJ21b1zA6wVLoNyvwqEGXqvCDVjP2YaMNM2dx/MNvE85j6+iQ52iQiQnN6Z/rO8I86XOsQ/7+YOgStHfk1nXNfOGhqsfb+2G3/adttxP1jU1Ft2JA2/R3WJ6C7DZdyfiNlx4md/KG2jnzBxtVA7mDbh6GL69KibM2uvnBrWyDQg6EJ0hoRlQe8Hy/VFefbRAv/CYpVWQ4SRrdUUpYPCkV7fTjVQPpwWqHm0q/wDadPo8y8AKPSi46D4Ilx8hmDoe4YDjPQlGem4Bz2HGf8SFpf8ASXBRULTvEOeBzdxDVt+J319KBnNB21QLQB3IT4YjxT3zFuvehPKakx+6QVtIup/ViRss7R0o9In/ABYjyYLxGlt/CH+TnDIV3BqFO9wUsQ73D/LT/vSwwkUtkgdDRjwd3DU0om+5qs1dPH5WtaIPfhDNTp+Bn8yXGOgwZzqv7CENc077G5cuPumDsOdENuaf7xtSfham2zs+m5e3I/KYEdL0sPqYj1teIUHto6sMr4buJuvySgw1rT9MNtXqE4/0aNSXLxsZxdzEn8zuxJsrRH6oaJicD6DCK+Ef3Q0DS5bwmYmtGhYw4gCk6Jc5D6n/ADSWn9kmCn6E7d3qXo2RxFysfqWxKqhwX6Z5v2y9KoOLZwAjwp0AfnAMlk1FESwxM91XOXMMrwuGKuDkCZS7plXB9IY9HySg1JSqgyUna5envC2VTKnpzDuv6uXj8uYmJx7MCjC5uGe/oxO8n0Ynw/qGI5Oti4Uq1YSGWEDEtp7WBR3xaDl/pnTQe0lZ1TRYf2KH9yd8IN/7QfP2QXI57gwop3EgMidz3P8AtQ/yU7ToqcwFDq327jP5IENjQOshJcNeR31XrzfDdn4iDa85Nt7zgbQY7Hj/ALZht/Ix7Zmbev6jMfXPxQ2Mz9u78ecdx/oUla3HuRxDb9sdjP7YsbTH4tDTH7jLx4TP2wNtYLGwJ+CfhakqM50jZ0iUPGGzmE+5qasDzMNtc/cnE9SpWjMWgHwNKO2mILSGBgTUyTKt/YQDj60W5X4Tlj8I1wnQCiVSCvJLaOOBKhH2wDAHti10vcCPUTXnOR6mEMOAE9pxAPMAOPQhhXhp6X9gft0J2D0KrHuJtgOyWAmAvdGhT+9sA3c7UJCiW2tLlDyj5JfV9qEhznyz1AHwWVg2fWqgDS+wsa8/HTMofJU6z+pNucvJOzhENNPnO6HtS4uszJnhxqJXIC7CDn9+dv7iDcD7lJcC+maXoslkxPjcIh1EGGiy4/qYKHxDbR5GHG3MPLDb+Sfg2u5LmVO++O2mpsYwI6sWGcUrYwS2g1qc8/NqxvQiqeTE4Hm4bxONt/GakJwlcHduyTcTR03KryQGxgv2kr8ENan7ssD2MIxIMdexujF+yhr0bXXqYiL6/wAoa9Ys6ndv3SoGtwvXQrY8VZENK0SrXr0o7Tx/qf8AFin/AJRLmAVZHkL8RUD8J5J8zN/eTw/dKeaFu83F80+nEvB+oCAA+YB1Pc6P4EepZEg/W+xoOrqfEAc/axDl/MyE2is9ZiR8opU4nGYKZCpiFgczG8KbIbjwckOx9IiLf1LWuXqcOEwYMBtQIKWadeBPAlXrC5OLisIOtyqPjRcuXosV7IuguJ6uiz4Sv1DUdht/BDW5cyji9wjqw57S6eAas9DZTHdJ++HG0V6Wcd0r8Ghq8vU5/fd/G23OTufrGVK2Kvf+SBghsSVdp+YlwjpR7k/P1Yp+pMZLl6r7UeL3pcHT8Ed+6DY8MyL3/k2vDKtjrA1xGZj8t2e7F8TaTPxKGlx0+2dpOb4hgBPA+ot0TlwnhRVx5l/NfqK5Gjp4jw/aI5pmuiEf5JRxOzowJVn3Btv6g3CI9FPZKefplHEPMhdhILFAqsr5gwcvud2OLJwuXJXE8z/wGf6CDnL9QefDlJx0fDoam/6CEw6Ri6JeIFStIOIiWS4xWoaYqYizKFggkuLM0HAy/smWyvjCXBl6fg0Xs5vZPzaGlzk9QJZzcG387ayr4Vu4HhL2qg/7XDg1qMyM5rE/AauhPy4K9Lb+vHb+Ohd6M/cggkSEJgvlPwQ2PD6lsnn+dqgD7PtgsNLnUhrJzOtvL77d74M+2P6w2VDYQbfyTg+DcrdbrOun6ENDW2CHBokDR4nD5dWUyoPoYMSnYjRkR7T6niy2qQDAhoQhDeQpSzkgOn3Sjz90cAA9Mo4j2jZQpX0QZIRvxXHbOWHwiWzHZi1l/idH9iETTHxCqZT5uD3h7Z3/ALkOBke4wE4M5puECuLqyrofmeU/GW8s+LLDIFlrLv1GRbPcIhX0Mwi7fUA8s8wjhiqW0+8B1TrZTHp/5THaj2oTkVBzUvHzDgsnK4UWD2zufaQQx9pF8D7nklabJSFnLATNamFXIyl6L0MI5s3g7Lj5IMpezM/971vX8JBRB0YzH3JgXhL2OvZmJeOlaj7ErgNn7kMRs/BM37j/ADqy5xfTD9j/ADEhpXEyM5dStXa7ZmXqa1qB3VDDjU04PlCVsVP4n5tzs9u8CMNf5ZxNvFnDV1/NOBt4sRW+YanMIS9rxLx1MrGjwzh0qBoxfVBg7OecfqVDT2VqUReQZyPMHSoaEUrqglYtl+idi/0R530xuBh0iymC+c/qdr64zP8Aasbwqh3YE6tzhAF6KZrCfCg6z1LSEaHFvbMVNstGU6BHJXj4nBl+CPTrDXz+sSDrKrGnE93ioV9mDMq94QPykA1S+xj7z4MYgeX7iS0b3IdSnwoXZhtcDxBVyQ2yzEGiuvCVVfxBh1w+pmbP6YeP7ilE4qyiBg4Bw0hb/fxdRTuyPWp8Mw8PpleKTFQwSQXEQvJ5hmH1pcAb0Z/hwzh7K6zjS64uA7k4sJelDecYgzjpntpcVe/KlHbBly9Ha7KCgl0rSnwMFerayuD+nRIKTxga9IkG1CUr9w1rTMiGvVD+nbMJONov5bvJDju/NOGwNFVIRNDQ0rY8QPxBsuYjOCGx4i+o0ENCUavcnB62AgynHqQDOFhqS5+9Hp00ucHpOO38bAD2XohQkdo2HYQ22rOLQhoRI68kqphK0zG8OpQ7QgHYinI+p/wpkJB2i7rKLand+uY6xep2R9CBtn1w4CTkEIVYSwBP2xbk/bBlqQsbq/vFgldSlKoE6OVoD82AwuIQU8feRhSCw1DoLgdp2voQHNvhC/8AngLls9oRmm3BAigcGB/yWBNL9mMRK1f2RcNuDywdA7MwAv0xGItP0RrV5oe4vcctkMYgxYfU8/6dEDsLP+zBePvluA5hfMvLpXuCdT7lksnMdsSOt40Lek3C37DtMdaS9lw2bhL9TDbwPccvXpOacW7OkGwnLpYR1IQ0qVCMvhCLLjpzz8W1dlGv8kOD1qMJ0jF3B7I6kNL+AcIR1SkO2OzQ1detjz+IaXrQ+WDBl64ntI0NGWpg28fuNK2+Ou1fl/M/JtRcflbVF+dtVe/Ag+GhL0qbzhant2qz2cXliytan5GfmlD0n/K0q9v85VnL6ioFwJoWdQJ6WdgHpSgK/aZbC9QpXrOJTkL7nYOHEX2Ep/whKYlgLalfC+yBKj/7MQOL8ylB/UyU0JU7Ad0TEKL6nciHSkvdRbg+JZcpKoqPYwSAvH3Szj7p/wBIiZf6RXFywMvZ/B2XGYD3oNL0Veqfk2sTJ8QnOxwDDAjE1IbCMw+LDV0wekNV0CPDbxek4ECWgaU+QC2ztRn1nDalR2zAbVTeW6GcvfDS9Q2dihpcvQluww2rFuv5oFbUH+xmcT1tSVeJiHg2qkj8/dH4G117sxPsdHVV7cNB47XXsT8LbyPEvY8q6OrHaecNbjFfjBK0dEnD83QDKjETDkdpFufon/EjzpJ5ghQQmOs9CHpqd77kp0GFuD+SBc/uIpqQJV1fJHoL3ABlfET/AMJh2lCwgRSFBlBwv3DrfSEXCYJyMSVQmWCi4gepT/eoN1T2TxIP0RtnCorgQ7eHZR78r3gc0rwR1qEIcbFn9sNLJZpyTEw0YxERbFCMJceJXA9j+9L3OimiDrDg2sTQPOnVFq4qahVKrRZcuotmSGlaOvKNq5+9MAOyDseJ/JhrejafKQcS4ar5FDS9SA8/4htvjh1djPBz/LOJo65n/pc4G02J1qfibCUycQ16DbhF+BtVe/BW2v2Z+btx9LBURK2ZfNDWtVONMa5+7DVjFXobBp+CLcLH4IahKmHkYNlTBziSiURHUJ/xJ4SHGkt5kvydFW2L7lfeEOWHtiN7FM6UYgBwX1Uel9coGT6KmHr+ZRyL5YnjPpjounlYF1JOvTA+LEPVX3EH9yXyQIocp6XB+j8EA5lf0YIICeRFKvNczLYpgbDfBAWUvh9ws4PcUrAV0RqispENlO0TQX1tFOs9jOlW/TBOCxUjplms/aVcy/70WYf0z/uS42cJV/vT/oE8X7lHgQh/UwV4RLgwZceENzzpKS5cucvwzhoaEJ7gg6Xowj4kxXtSC9YHOnXVBgW/59AxdbYnL/LoNir3/wAp0etrC/rRPwGtSpkdc1MPUbk/M3QfrbXT+c/FhFi6M/mbskIONuXYCENFjF9huKl8R36ZcNn6Tdx4HcXhuX2Q1dGgrmsuyw3Vpex+CGxIc5xapG4mJ18CGoMvMnuEczEIA4EIpYtwzHKXUttUwWreGURLcJ/xIPyI9I4iAcvoirbITMsVYfUxU0QRCYy1aV7zwp532xcUD7RVuQYYDhYkotcoSrg5tyBFyr6mDtqHG3IhcpughnyfGUcUeTO5Fg6nmA+W+UuoR1cC63tRf+Sy8eX3Cxsp8xxUWgTYPCKzJ8LUQ4+hlRU31C8EM2drIm594ksaheHlnRG8CId/tiOteygqyEAWSPkOhzSULo+IghZ7TJVr9p4X0wbphwDzSnaCFdtHe5cYT5nXfuhdWSKTbcb5mb+/P8rIJx9aCcD7lncituB1YnBLl6XBx7j+yggwdcocPg0uXLjsfEwDwS9OmjpY/E2/qz8SDLjp+BiVe6u1nJHduPoMNXTieG4q9ifhhsWJ3D6O44cDdm0m3IiIRRyH9R6z4FaCOuEPxbGJFcOmtRSHhgQDmKBSKNeqxLdZvsEABwAPiE4QOrrIjVVwxSsi5eq3tbFRjyY9a0denbDFxCdQkNMvYQ40IGmS9kDasXhRYg69ZgHeAmGUdiXciHaTHIZMP8FO/wDRGlMfol4CoZ4SpEkIqnQIWL5e0XW2QDi+UIQOLgX8JZdJSGWUomHZSPO+xAKZfds4AH6ygIQ/tOtYRcBOvhx2iE02GOzFDynZkAWFggs3OcFWJfc/LKDn+UxlwBGW8EHrnozAQF4OaQv/AFhi0KeSxMGfcgUuj7jLETrHQSgHEUL8sQbMMEP86SuBZ8My2g4gO59yx4R1oTwzD07BnWPWL0vfhRrbh6Ig9ENL15206bhHZzQY2srIbeXtCBpVENt7LjsC9KnLPzQ2MKJ3dDXjSYlwkRnSHVMhB5GV5QhDmcJg/cTksBijUDq6JB1Zy05pcdEVu9so2PL0zNDi38zMHW5l62oy5cV+AS5cuGgLpVs6zO7/AEIamjPhaHYvx3BEP6ZeH3LYhKJkPF+6KNCVGDQlMTxEW5+iL8/XLyvznFmcBEsFYUf7VlXAelOwPpzhPltEE9HiZk44JRxTKOPtBdyHacR/HKLlz1Cm5wD5d4Uh1/ulTlvmFbwk7k0OgiyUGfrjzkfDBMP6ZVzWWcCYeUMqkP8AoQfgQHfQZIfoa3jS9Ksiy9WBeGcNK1f2SDG1gp/oFKRjs6w1Y7KrXmn5tqiPl0v+gVac0F/NiW4klr4yUgsc1nRhVvUIasC/FsHGpwODRJU/BP1P5iwhGMZlIw0YaPUGwcy5dU4TR1Ybbs/4hxtC7IdHg76V7HkdxrcHShjyelw0uLF3Hax4XhgIRgy5+snHYMDtBPwG117Mz9bUlaZfJriUQZTD7aAdiV2IpyZ/yo00xIEfEehAKlCZLr7MemyrJ9FgU+GYAV8ict7BOqZeTTwBl/RC0pa9ZZ6M+Z/YNlXROGaERNjAeZPIgP8ABTvn0g/VGlOLGB0NIdvDrGD8fZOyPuMBv5iuWXL1RToQ0dL066GjHic3xovMuXGftnF6NWXFiK5Db/FhMS5cJxfUva+7BjGCgpDVUlQRqmyMX1YEJet0N0q8Udegg6MWo83hgcvOX92s5PeL2MObxaGy3+vrBwS9nwBQ41NG/wCtxtM4nlOGrCcXvDzL0GoMoOlcHRlQ95DsYYRDSpULT3EU6akpQ8JPzG1o3nLnoy9B0WT4l473o6k5XcfhuI8ZYcbGOn7Jx2sd38tKlSkiRUTxDSrlDpE9QmMHTKmRFOTFinQbJiUOCWnPLDufaVuH0wJn94dUy6dcZzKUGjHQ2XGMUqLqI8NEf7cK7YllJealkif2CVKq+PoXEKPeoJmr4LR7B9qeX7Ivw/ZGzsFEORWU9X1BOp+JS5X1DhllSoOcMKsfYhnXDyiDlknBSDODKzV3tLiuTFnF7xOk2dhuMVm12QeHCt6zD0vcKFBAGGRh9kWf206/6QXgfcVj9oI7GKIR5ly70deYmDdiJly9cQPv+YMvRdBz7qGgy5cuDsbTGfLhsuBZksamnG8wbHQ3DW4MZm76+oRNh+8vw0rMDRoLUDuwLYKAKBHiGjpZruCTzQAlStCXrPH8zg9G39WYH46mn5mIemdIwdVeg6sNcvDA42/wpx3XDSNqNrom8bOseGKxuPA8RWvjDRjpcNwU8KrSoASpXl3IMEqVUo7SiEkAfeBniTwEOyTxoBKgJf0J4s/5RO19UygOO0WGjMt5+iP+HJQFPiUwtXScMlk7MGR0uGXc/XMNY+1Q7aF94vti+IVgTsuB5+qkc1Uvs53p+ce0enBk3e8rRE7sBMODikOwPmWnI8z/AJxKIDe9DcTdjjJSLZrdKsh1T9ZZWh0ucDK95L8pHb+QZhIK7xZcKGF/ZEuZ59mCLsXarn/SYi4QhBHdAXBUQ/hQ9w9QUl/UlbXz2RKD7bINBE9lSui/6iHPwEEMn7iothHC7Xdy8FoKHGjUIgofnOG2e1KufyzpgPTLkAGsSjSd0YZf2xEQWNpeCWY/WAc5SwIz98x3+SW5GO4wfj7oJ0QCyU8d1JZpUGL4n/ERWgIpSY4R8AZDFe2F4UUonYYylIasqm9YOIbFR6YNjFT8icJcdbjH5WrLn7Uy0DsFe/obMk7QcbVULjpcGXOjMQ8tB2PN8ENtftOOy5iY7TU680Ec3DRjqaGqg++Gt6ch5JwNHUQUvuGl6dY9iMI69qUx8auYjMcyXilBuGVxUOIbP3IO3op+AhoRmPoZkvjStVivu6Bs+m6LrSr0z8EK0qVWn0oEx2JZ0fUA/wDIn/CJgJ0gXkvuf8gn/LJ/yJT/AOZBIRWEtM/TLivwgHBxXkzt19LFaUUKtkVwM9KVgAelGoKiFaw12jjX7zKL7I9Spft3uADk+EB4CdmAK9TgJ9Ysj8aaA7se5NWwIOT5SeZg6A8kN9cO8JxRRCVsRgqideJzPvRwh+c4APamcTQXEPUeObKlVmQ5ZLhnfc/6xDoEtgHeWRdUFvaL6yXo6OvclAjsasGXLotKtn7W78GcNrxMAqXBgw0vD2CGxYLfeDb+9PyaklaZP0RkerSiox1NDR0fs3c3ucTS9eLP79pnE77AhMfToDQ0MEHUlgi2hekaBYmIbF7C1A2OkR9CBDRmKdm7WYxsohqsQ+2DQ2cNuIrqf2G3g+SEI65h2kLlaVCYwTbx+zwTQ0JlwCxCLsUzlXYkxLu/ghdQ0UdZTtAE1zBzjpcpnD1Fufqj0ymQhAUI8hLTl9ykbH5SvgoemHzA+PxZXA45hSfUSyNWLZ7T+4rGvoYd38ogxllURAwYMbXo9JSt/eQ6TnSQ+Jh4+sBi0pMdGF9YPpndH2wfhfmf9KCcfdKqWUAh3CUeGXLlzoeEwxrWi+rREIaMrJ3qGx0A2M/Cz88NjPwAmPki0SOhu4sarYNtg13nA9beEdj7hLly3vo60i9DQX7kV+qGzhnWU6zwLh2vB5Q2M53w/mYB60I6foyx6EJcWMeGK0hcvZl6hDQYc6Oz7RNrl7afsJWjCZRA25luBvxTDaiiJCGjgVRheryXuD/f2g0NePoGIAXdENcgkO115A/ZwNuDecB8SVqzKAb+ZLeRFm1X1H/Gyzn6IAUAI1p0l4KfuLdD0pTAYI4FE6lxiVJcDTOVcJ7JidT9EB5T0y1Ipp0XiLAWuGCqfd0nl9EMJ+Uocn1gLl+oBZx0ifNZh4QfiHgwXgQTLjMVOTYsf1wHxQ0slkWB1u0p8cNXQhtwGCIwbLn8m5wiz46TYinZgy5cGXHXoZgOhA0WBY4WB9mF8TggWYaEOftAStlFj2TgS5ewD5e3URKxmiASHvCb0sbsjRjFBn1Aho6hfYpArbyO1IbfgnCVsV+N/wAw28rz/nUOrvtkhsY/hOG2qb3pOG3mO4htX+v13KpPzI6Oiy9SlTy7nfrQ2uiq7g1IzB/DBa+IGoERAvhYdh9aM2yU6dCVjErAxYJw9wDg/mYNkkGCIpxBlZCUOLeyIPIQs5T1KlSmBcAoiO5hl7RuGYeWVmV9S1S/0zgPwzE5fUwXWMKHmV0Uc+xiXZKoa/7sG4+2f+xy0lDPLiUOfthw/gnTz+kyf3ZY2fTLAGjJnI/WdSB/nZ/3YNX8sMiNcXAGJDiV8j8w/wAyQ/zEs4+6eYjMphi5iDD2YzTNz0YdKjoocxoD3iEs4lnfRJSdIygvInHDYV+/PhyFuJay0JSFh+dJ03kYBKw7p3QZcdMIW7vAZcdBzEp9JEvYMIDW9EVu3927q/3zDR1OHo/YcQzKe0a5ITB/cnBTBz3YPx90Ow+5fYlj1NLvjiOg6XFx/wCpDbSomxmZ990dR/I1uKSpuwxlnlYMHR0/Oblg86HaH4oakZ+yHGjqfrg2MNeufiNK2AfOS2ToVBhomhueGFftDtIuBSPDT6j2f1Cr+1MfudojkMecPZH/AAcCGvrlx/YnSF8RK2H2TqPrnNy9WkOJ9Eo/85a0/RK1Srgp/an/ACdEu5f4gPAfEGgL6MtKVScgIGJiYGV0y/kytVBC3APExQ7mFcOX04LlLYLimYofuicvkbtuZJT5EQLiRoo+Jl3EgY2Gt8pkH0GNR/NChMLKAOLqv4ohqERb44dJUNE8wPqkt5QTZVeUZcUDhvHMxb7NTNiiUvS9NxpyPzknQV9Qo4I9sUMdrvvFgT3ukM18YwmEor1uhKj8uUGlg6txBDR2TCv4UiQBPOCKCuvQJdLPojRERzqKBmUOZstP3yIUl+wQ6/3J6i91LngSGMw4mntyhpZ7GBCwkFg9iSiBl4qLCymF1AfLEOS9xx/zQbj7pdx95B2RwXEcD7iVWXtJww+YRaamMgULR43GgKeCNNF4oIeDeasP0O5qHz6TGhqFLh6aO1MOZCI4PSwH/wBU4I8WUF6A2VnMxA3uOoL4IU20c3DSh8wbj7JwC1cODTrpcVj5fxDbmW6cLq1CDXoiYpwRogkXDxWYGjFQMIL9IhqVdFfgEONuY+5wjsf3p9ENrHfthxpUrT9barRCh621mfo2MjtdeMxDBxt5eiCEa14zM+YasqD7o8GlaOnH1kJezFu8DiHmVEKzodYq0TaIh0jo+8OOy5n6kNGo9kthlHZg+hANSI+dKUG2oFo8wBl4sgQj+KCBoGhr2QM6QqUSkB4iVYlOpDoi4nlviAOPoiToxilplviNod9Q2GPIEIGDtRcylk4xUbPomApKdjt1Eh8b6pmLb+IwHzb3PPe9NHYIQPwM7M+yvmAn8JFyH4iigDr7SgKv3KUynXLA+Z+4IxQoDIle2PWY+GdR/iUcWuyuW1VgbrxKTLuBtOsGYFakZBD2y/qQgJR7hFWBC5cUlkopXRssAj0DBRA9XEKYE6Skr8bARLRaHoAUCXCe2YcS9i+lhtq9E/MQ2MUZtX29xWocPW7KJ3sGMNXXjMz2hxOuxU+27xl7PlOm3iwbcYflbVopDS855sxcBWJogNwlxAo0uV7PuWFZQRzzUbuNEYIwRpCOmjp/EqepBxCcwGXcFQC4sYMXiN9QE0kF5hwGdJWERhq2SnEEqK5Qrarx8BOErZW+A7HEryCC5KfUBqq9kECD5ymZ7yFGZ+/3sv2Glgph0sh7la1MvHMNU0yWuIGia3faF+2GjE7CPbzBmrLLzP0zmT7gP7ZiJ49guL7d9ssPat1mFDyRTHg9ICFY5zH00QJGeQLDd4/IQeiAKmVRJ6Pi5wGvcXMviGgiySnAAck5DOgZH4iZaPxB+s9jLbkVKUqEC5kLx90V/wDSKdyK9Igd3NqBBGXL0/OwdLlyyC5fmhB2CA2/obmfwzg9bm/K1Fy4y4aXnZxYrPDaY6faW24kws87jfiNitFD8rcyKCGlsQGwxDfuhbh7r6OJyCIjwnWB1DasUVQ+HywYgOtCy0rwmMRZKalRisvEH0CNwq0Z4H0h3rhQ1K5IVcRZxA5Irhh1feEqQznR1SdBnN7qG3L/AHsQNth9oDLgdgQvKoQWvaB842cxcbqTIhA7Fa1ME7xNlzNP9YhsYrGRox0HwD9htU+MmxgaDlKy+6GquzAAai5LteYbN4alIw/gXoKVwGaiQPjkONcSlyILCwplw4S9ky/kxfpnZR6WDV+kUeAjDM98xHTYdmNYcR4PkgApV71AI9K7VKzKxD/2lXK+4dEy3L64fCHuUwoAfUTyqRTiOhIn/wBpTuSjgUuK4DL0t0F5l5wgxdLjFy6L2LFl9sbsXfUP0RQmxn525xjtPmG4rYwbyDWRB1YREwJhapSTA005yROy3jXuw0yrzEBhjuvlsDpRCGNGYo5hPfRcqpYQJ00/Xidgg40qCzuRTABfDlxnmDo2j2pM56MnDV0Gf0fUHS4QyzHlmSoUjSWPtYILX6pFzXdwLYoJckevTkDuRg2E5T0SfU6bOsY98L83Ow7AhtHDANuUulP52s787EOJcBPEIh5OKmMwsKOhUJliqk4XkKheUCGiAauzLlxjMYJ9iW+JBEHA1Blzl5vQhFbJaZc6frQ2VKj9kCmJ4Uz4hfzLxpR0IhtM7aPUURuS+n8xMiYqIlsY5gpN+H9Snv8AZKogXK5gDXPSMihRPoZV1Ppneonck36MYu1zM/VsdDYaPDBKZcC8Sy/3If5SH+Uj2UVkOYGUmf8AankxPMR7SDWE5QDbD/JTwfuf9gna+6WmB9wWc4nZfuf9KH+Wh2Uf89AKS2DkQwniQf8A9o9P7oBhBlgFVObDoJAS9COqS1AYpAQzHzlWjqyiArgck+dYSLWMC6DWbgc9GE6RSJL72Q0121vR17WoWatUwb3+zEWJxuWraZc8KS0gkuOiFfKWYh3cSxPYOJn9ERChS+IIx3JG2Bt9UXMDMZ4zPnY7TwhsJ+Z+G536sNhM/D/FuV+M9XTtFtZhsdn90SMFtYI3KXxcBuSU5tctrFjqNSIjHJZANaEUQdsFntqVMWgj1JSJ0lkJdrI0qRciUl8xbT47mRlwNTVXDZcWZ2ENlQ4e4VSkrUCMGNff9G5zReBzMdVqXyE6I9UyvgQoAW1Ds7ii0MBKI6PCCyL7gRZS6HLOsEYBmfFgfATvGIYsVKGFhRXHtOoj/UsyjzPLAUHEbdfBKex9XFn8LQDh+7hZd/fBI0k7qKKLnvLug9KZ7/VKS/gRGjgxXefmoTJp7oMx+0uyLlYO1ico7YuyR5cQYTU0erKlUBbaC6fdEqPTeJmAESFya5TIS8iPEfWQBPmpFAM/ekaufukHwVZqp90AuPT9k/xUTnoIOs3yjSlrDARLcJOkHrZLete4RCinzLOapkUEa6FrFUvb03LnCoQ6vuXGVe1ypMYHWtwC5aI7xmjo2dOEysB0C4j0fZMzi9kMt19Mr1HxLqfwlbTIhRSnnOE+5H5tNzFwXs9xpWEFayyvkfbMdn3RFAZS52SHeJZwHRcVJ1k2XmYedvzdzJvStGDJ2KGypVl2EDTGihLUuBXKBpcREY5u14CUas4c/C0qVoxNdorQ5Q31tQEGWLN2G5kPjusy+TurJ4homrr1JxNrw7odK3cWMxajRg++GvWE5pmfe5cE4bRl5n4DYaOv5Q0HRiKJOJcKT69pU0TphFGERxLwTCZwJ0nAjKVEzT/S4cETZ+1BXrbUfFBprJBvUYQDTNO/88qLKFqHlxCED7sRkz0KPuPqHfJ9syAqWzhpWqMq+JSoEoiXKuiBfXXLej6i/P0T/nyjs+yLgQtwOA+Itip/qWHaXxAqyz3gRx9sVt4RhnbX1A3m9koceptOsJ7pK7v0MtbpLPGCCOX9MT63zO79GJX/ADEWp9iommj0Sg01d6iqmQtpT7UF4/LL6i0jiCR3fsg/H3Q7aCdyPE8YtLlxZykF2dFCNRBFoI0OIerRezD2kL8BqaIIzOjqxWgnsh1JcYcn8WiWG1JR2zhtX0RqYO1SRCOt8UOGxnJ6hwmX9Q4sL5bYR1YqPu6GzlnFb1da1/V2m5zzg9ENbnNBXtw2MHvAg4ly5atzMTgSRwS067sI6MuBo6uvagT0Nv5Gfh1usTJcXDBTJ4rh90+WAA5wIDkgxAaNZhHStDy7yNXTi+8jS9Xl94G00ecB2l5x+aXo6VafDSpTsR6wnhTiJzC+X6pyigixPU5Y7NPSyy20DPWUL2FLHon8zi/hgTk9sTkjfeoFPI3UPIOmImZs/IvItMtr9wLr+4zhIuIAZh3w+0TbjXdEQoX2mXhEWLbMSmY8EE4+7RAPCMWouH1HQPNsBtNgBCnXK95fR5Je28dv5nQGrp/bht4y47eb1FbQ6uNrKjph6I7fthHSnQW/Zgw0NOb1OP2w0NFj+ncz+cWA8beDCBjvoaEY8XhqziTBMD7qEoi5nDTMdkvtBVhF3s7XcYqTsTEzs283spxPGt3osVbrCW0hcKlisuVHTJsWcNRcuM5vdoak6TKUbbk3Vyzcpbu6GxgyaDHXPxkEuMeanFEtSGIDwNHCVSyoPigSpSLchGEPi4RApZ4xFG7fczWB6UOcmMC0sQ6jsQAcn2Tgh9TojOLIeKgHDGrmwzv6g4XMLn6pbyHslXMGWFWjeLOpBeBBWXaEp3gnqjuQy9FIiWH2qGl6XpVw2/lYaPsTCPX+kz8EefvS9L0cSGzk9R/vQg6LO6OENjp+zTcvXm9R2H3DZ0Y/iEJcZ8UwUJX74TOEOIaBRO2OE154HLMpEvMVFuS+bWK6UmKPn7RV6CDjZ+5Mdm5IvgsgAPLowUd+jXk9v7DRdHhjLPe77g7GW+2GzpFbQNa06n/d2GlR5ptJ+rucBHYvt/hDRY8wQrzghBCOlJo0dH3Npm5eqHHa/vSipxUCGlT5VBNiEpV5IOQR3VeNKGLdCXShlglNfqKZMWKZwtEfLL0LiVBLBAlQWtfxUz4cf8FGk1QILzBGCaTgzuxTPekwFFMV1A5wQ7NPU8r9aRBO4UlLuZHda0ud94OJcHSyOQOlzOipQSlwL1JZ3IC+YBig+qMjZ0lK82MRsIL0uMFb0lgj3YQ0uUDPiBBKJeYtDBR1WKj4JZ4buDhZZLgqYiKNyCKjHcQXoHsSp6APFEoYDBQQV+oHoEKhqSvOfnaXL08Zn6nQ04vo0cJ8QZO6w0ZcvD6hr3/k2vDEqef7mjL0XDLDvq0NWMxv3/khnYRrXQT73Ub94Xr00Rj7t2X+tiHGlBHbTLNwUWVewLF4UONMI17Ixe+tHEd+Tklx/WvNTjtp86YemGlliIOmrbwlrLCDVfdtXPzTEPUONmNJEJedipiAs7Me8hoYJR2J4E8L6h3pxGCwYaDVdXdmHiNVfMOY/UWbkqB+ukiuv1igA8x51/E6P6wD/wBZ3PvRrr9Yg8q9xIYueGX5R+4YFvuVuBWjaGXknn+0XzchcRUcGGUJEs31bh/2SvSv3AN/pBWZfbAHeiAq/thZzeesqnF6gAJaeYK+OAFHzxYz+sZW3gLigr0mWu4PI+2dzDo1KDBQJeLFVc4lBZ98XhP0x/S8Rc4fUAZ8t2pLTjlXs6eYeAPQnLQM9jLxvO4ImESx67ETtKfUHFTw/wBRuxokGXH6ExaClEf52OD5Ir/Dgcp6Iw4kQQ6XMM7X9SStzne5iMH5h3wx3uAryUrK3k9Rn6HuPX+HMG/UQWyQEAC0kOp9E6kfcMMjz74cdIvnD8LK4LimrL7wNiaWkwy4KZlp6wZCNs/yUiOBLGMdJ4Y3fi/zLly5ceIsHvAdjFk70bs/E4asZ+fDTjDrhYhvY8faHCedFPcVwtbpiPMv0JklWiusxpwXufnh+gg6GyL0XLxKWecFk4/ei5cK+5nA0NVS+J+AhsFktV0dQaIN6rZgYmItJF4n5pgE5KU9dXa1s4Mrx7ob06wdGc0dttY8G0s467ICVoaOn8aUlaVoN6lF/MNODLfvBYnH7KJnBPAhElCUJVQEmCvfMLDVdpVXdxa32zumVUdOdfZEoHHECVpUaPz9a0EErhMzXrBAsgqan7kA9xAGlZ0q9GiA1qEG8MyXuMs6Ef8ADSx/twPj6Iq6y3SGRcs8F6xMayzyiq7llKH04gQ4urAPQ9oAfpinF9iA8pId38JAFincu4qruZXMC5kvOHuMpa+e5miXOP2QyL2hR3ZwM/EVx9xl+hsT5P5g4BjuMu3atpBjH2TwPuV7JZ3IwVZUZQjzONssnO9I87f7mjhvYg1m/JzBzQ5kgF1rwgzuy+qfjNiiHfqltnRE6QUWK0nXTge5wI7D9c4/RDW4kKJ5kEohhjHmWVPyM6TJFEjmY85wI7Q2Gx2cGcvtDa63Tm9SsjY6IcasSD84NGFaKvehdseJQWuRL1cI8x4Q37kpTDELBB1Y0O4VVhXOAtcSm4Zlrg9ThbNFpo6THZEcB2VgHYQ1cIi6DhfjaLOGjo/tw0LybfM8pnEbMW8orkNj+SlPgvQ0qYL4hgNSfnZ+LVWiFM4fbKdp3wy3n6o8H5THWD1LceDmXFnZP2z/AHLKOBPljUkTHqQtRIfUWLbPXU7l9kp/pgFyzwQFMll3Eq+hAul9Q8j7ovlEL8jDajSCe2GAQfEVqr2M4v5aQmU1LINxKskcGRwzzFtUjB0xFNl60NLg5RXI0+yEFyQvbS5/KhtwWcUNHWryOErOiSp+CBgiaBWjr5EzkK13bezmhL13Q0vOjA/PDQ1/NpidI8aPDG2xwhqzp94Jehp+DbDGdNBozDB1iuHPvzhMIV6SNoO64tAJTwwohbbob76Ta/u4wNLB2YL1gNXP8SGi6YWB1S6lcljxErgr1afpzCK9n7ejmpFT+UyjNjp+zn5ehq6fs4KLxhswTygoNBryQ/p/O2orHvrVq7IiPEFfKPEuMVOscjYqC1dDAhbkSz/5So8y4pB5Z7xjW14JqplSJqvVjiEoZS+Z2YAdb4IEbcdqh6kwcx9s/wCvEORGKgJRcSw1riJcwCtn6lQkvJBaxzPCiM2BTsUpoaBBYwYuyivygStjoIONK1zB5gqkuaDpHRNjok5oefn+gRK1NuGpGhozidq0Gl6fVk1NPww1pXL0ZyYNGVXnGGCPSWrhrErRJ7mXDYzh6ZXMdL0Fl6nE9aKmIsdiv9sp+RpApQUaOx5wUOxhqEdJ2kK9N2p+bA0+MNmP+liYentVSB9Pa0hfn7f0o3N23GjpGro40GBjw6Fd3c6NJqLV2gMQiWJ4jsKWy5Ux9cAgMIiTHHyYOpwUDiMKkeNNUqJMxKhCnzSsQjxFXCW1Zj2soMIOzXqJpATsy/RfMFy/uJ8sKznBACj5JhwvxL6yK2Z1B9z/AKM4nklXLlDn6pbEpyQ+SUsUS6fc8WYrpLOCzxJWBHMSYEZpOlbXRnJFVb6wZcYaFEhKbGQqtL1vOnPvkIGg1osRV5g6g6KvRDRlzMuXERX88JehyoeIPxBCxUSyAUudLiMr1YMuCwYsYHp2dYsA90nGEWoA5lieCMPVPzJinM14EV+NtzPygpnabGfuzH04bMPc1IasLIqE6CVsVSqBeO39afn24J4hfs28GOzu/l2DphH9iZR7LO5SOXgUrcjxbAGHWIaGh4hxGdY0WQYasd0gokVj2x4iuag8aJFz9QY0CYiT+BpqVqmGVflANKJTsTwx4bgl5kaF488eMF7Cc6sz88udNjq6M/JL5zVztfZGyv7RTj7ou7ze5R/6zr6r1uB6fZOyvTKf54UcfbG0CyFx3gttfhgPU/KLf+yYi/vToPUtx6n2yw7SF/8A1liH+tlr/vQPlvmUSLL3hxfrAOPtl6n1X4I/6UpucDqxW1CXUMeGFLebzOA+yF1/pKhyTA3w49J/M/78t/fuUHJ7YcgSiq9UM7A9R2/kYo55wX3RTpkBlDnM45fejg4iXZU7VFzgh7GiQDhB2qJ8L5EKMqCzt9I9xXqFHKHSmcFX0R6YgI1fUHCvvKFsbdUixrdglAAAFMWz70IoU+MT/pxDofTCpBBCODrUydk2aWeY8v7j/lpa7QyRsvR1RwhTvc7sLdfhLnSIwnptdIQcHoJ1FfaiHLH2gpD8znxKUKoEHlATmD/+08SU76JpOYz9TS5ein/Nga3Ej+cFeht/cmb+NHX8jBheWGlkinQKv3boMGGh9cTbxYCQA4hoWfOYbVBCMzDwnFq6jRhKp+oAEWIEocGv8GHG38nd5PUyG7mJxsZz99I3etrLW9T+WVKjokweBCVKnWc/qJV8TroaPERDtUWDQ0ZYPYsqMNgg5lRaln34JTK0VtyyM0SyVTDM4/hhWgaEqfvokqGiwSI0RMkpAxo6f1KxmGuBWjMPXPzoaVpjB+ZrRAOxKjQR6UJfyI3f2p/zoJDgj7xwRXogTIfMBP7kp/liHUriKzj+CYsX8sXiu4GkQuyKIF1XsgGgHglXPxWiLGSw5H4lVl3i0I650Q4KAHDOAnPVIcD7of5kjqjlR7ATuz/tQXgSzvGLL0ytA94aC4b4MRcRXpGRilwb35f5sI7ODtTUMpJdDH1MMqoFj2Ya19KHGpoL9Pddeh379u1nD96DDx/RrS3xS6Hy6ujHI28TxD9O1E/RCGtz9UNXQfVPzNg6QfJ2MOF7HQBFYQ0yS6mS9nFDUlEZpcZc+SkR2Ij4hkESLB3SJhKlvWGjP48/AbVU/wApt/BDXqQjoaD8hsZZDu/ynE0qVKiq/sQ0HiEqVKIBvEI9ZHnD6loo9R/wUf8ACx5QAMQOoPVA1CjRVA7GJwD0MrYFeYB9tJyygmBuAGCj0H8iJ4X92OZa+oJWIjCsimUnK+42AGD5Rp5uGLIgVcKVODCCNZfcP81AvCS5zHrxBS4ujGfFjoJcrI1ErY69qLP4nTmQ7Bk8EHab+Wvrr+Rn5Nemrv3w4hsX0sOJT4cdDYbOui5PbYxn6WXtObxF9cNr+Pucfyw1YT88/Clw1Z+zoarEcN2I+CDB0xTJ4noDsF+JWcNLiy48fjOxMrWII1eN3Ri6Rgas6Dx/M4Ho2pG/0ufg2r85+Y21+o+2cfTbymhNn8P+Z+A0HV0kfjQb2DlOlo/gpUrSpjCZ8CA0eJQnEHX4Vo5iIdoh1xMRKAEf8BHlfVHjpK+EemN3H2QZC4vfWYsE97iBUdHEAXFiw5c9RIC4Q5he0EtlrT7SLk/VAMv1yixLXMGG+NJDP8ku6IMpMN6gKNL1oR33CydlPw7v3Q42nP4hG/0yxt67MwXuGrpn47gw1ZxvEH1ypUzoNLNuL73CMNXXrj+toOlxcmPP32soDtGjpENDWyCQgEBLi/ScJcYJzB6RFFKkuPwhBRotQwh8KtwKNLjGFWHZOJt5P9szieta0P8AodYJnQ0QE7/yziaGpsvHdzP/AEudGhqgv4xPxEujoRjxecIXSm392M9LCFqNGVPFHR+9pHN76L2LaqTjR0omXpxQw0eAcRIT44iqGkJ16XFyo3YfbKhj7o6CuGHQCV8kD/8ADQAejYyqZxUpcGUQHy5lrSF9iWQywqnUH0mK7fqDT2TL4FcOYjgfcP8AJQXolICPH1OEwHtqrWtrDhnBPMJcXRcqksQdB0KlbUeOZejLjpVwdF0A+EYosuXGFZd5wOxCDL0SFCl3lLly5cWHN3EYS0LRcvKCuNCJLGiXwNTBGVDRLedLAUQlwhMoqAAcskQ1XExPXdyBLiSo6i6/7XOENOuhsv8Ae/6ZBl6nf+XUa9Jyv8ocekGTtLCHEeIkbyl2kWaFaMde3KS7CYIrSGg+5PrZabHkjyd5HS9R4XshLiy5c4evQstIuPEL0oFUJWIamgHE4lXqMHuHECVKlID4JUMS7kJXwJf0Rm6tSyURUewnglHBCHizkFgawPzDXobK0JUrVnFlvJ5l/DI9M4kvgGqj0UTutF5kMzX8z/2lh2+W7nzAnFMe8lARS3qn/ZnS+S8yviXifaJaC9w6crZ9pRXpQomzcoUS7QRc/uwHr6YNlMeh6UXiGyU4nZtcu7VVKzS+dCDZL8HB9SA8tEyUZCHUJ6iy8HuFmZDcBCkWa5uDMfNM8Fur6gPLZ3IW0rBSdWDvJkscHyouYKCt8sLADCgc/kTpBfBOqPmoMFJZQaaZlJhnyRPgh7pOxD/zLHXXIAi2e4Dk+5K8/snZv8xZkILHiJK9rHtcp5R86es6sL/+caoRg5gn4LRPL7mT/SMq80H4kjA2W/U7F9wbqSzvoMADvDqhpemZkQ0IwCn+lzgQXLljOkeIRdPwmjpos/TmPrziypcWfdJiUzUyyXGgXGLIjvhJF6d5cXYQ1ohD0HEcSYFMItMSERqcJJYEyhLl6LLnOg0NfcEg2ExWLjSiGi4a+bCXFl5hOX1Alvi3tqVsYziyr7NUlSpgHdgSoSpUwTPy7GDE5e8IBoV20w8lwhoaKnOJCtKlTD1MqrtYx98NAMOWkvLSDAFlEqP7sIa3F97AxLwR1gRQRJiPeQVpjXGBwjKuVKgJAGlSkYL2CALxKdiK8h+J32+JQ3AmIjrDGwoHpTtn8xooH5nUf3mVCzGmGag56kx7oZLUOt8Ef7mNJarKFsukXxDqh8oO1Z9qZs/iABJEp5J7lnH3x5FemCl0e2W/+0ViG64lQGKAgmMxcSyLUZjGXp7NlKvclfjgJMVAYS5mnnKiJxLkBARDqUEGI0LcEZCAYNRWjqK2EYrQ/S0vR0t9iG37b+zjsuch3TSMFzB0XMw9aXnRYpysJ97UwhuZwYK9yGlR0NxWNjPxTP0m1lkBqEY/0gbf5CPbl6mLL42s5cmjKjWax3lUAgcjCwhJrHfgUGYSkTGXB3vSohouIrDz3aoMLYsWD3kOly4zP44bGUVOUkIOoSkAStEhK4dzDQolO08KEwHBLuZcl9M8EivIYpWMwXqIk4Yjt9R/78OFH2yir2LcvMAdYUIscUR6BfiV8MRacNgXL9TOACQusTt1h1xhYVPqJwUYcz2SxQ8TB1u52T7gnCSlPDHKJXcQNQIhK1QxoRHVE6jPq5+Y05gMZxOf5zgQ2zwlxdeP0nHb1QSRMyokMQL9k6RHtH9UM/cNWDE404aOjPys/M2qpykcQ0uM/mQ2Mz+WzemPrZgUvYwfJeEuLBTi+4lMDx2peMUUrQvpKjMV5cyLUWAWgMOzsOghq4FdUNDRi0m5cWLPiTDnagDwgw0dMu+X8bSVD5YbsNpsdtUt/cPtg0rSo6n+SMYyozsCma9xohUwyIlkJYCHEaMOXMveMFwiN11fMr4i9Ka0ojzAxh5JEHCyty8plTz9WKOD0RxR8UL3E7iArkh2UCCrCixxBOiGeJmXFANjujxLl68cDtdH0hxtdN4nHtJze9MPGIf0XTm9Tm9w2OtGz8kx9JB2/wBOhOsuMy8Khrejr5m5+pFa+Nyt98IwP4OWX7TEPsMPtdQZWX+vUJUSVae0ARBasHEWIjH2hwtnRhP2tBqz9jFiNytGfs7HKMVg7hV3i0kdTfif4aENCZj2FOG3IfNhxtf5w21GBt6b/RnF60dXjeGMB7AaMZVxljoRj7wCrh2B9SkuM5ffWpFIsUTrTMNBAeCDVLwp4sBgRuAizF+VjjQZ7nbGdAke89MqNK01AnmLEnWj4X3DmVHVPiqlxmFJcE6x9Ylx+INxcVKnSZlhfwZT4QXgT6OVuZZ3gwmIgl69wn40HcytHTkjLe4S5eogYQYRdPyR252lmjLmRPjBoGWS4so9+nS5etXLuTOtSXF9yfjlxEIy5+jhC/jtUM41r+9M3GTusZmpsuPEH5jApLyj9bCiUu8SoH4YXevcSg9IOlkuLma50urH96ICWVLjqLMQ2E/2uJx2MZR4g0NebDht/UhxqRiKnqNzgPCGjrxneHRomjPzz8Jt/CwUEhWy14gjqJCrnmUTqCCt3isSRTxDRUATCcj1INxQAHEMbEF3iyYGlaMQp9Q83dlSiJKQBEF9wEE8U8RoeGHUdYG5M8GHayzpMuiIUWxnThjk+yXeWTswoZSOKcFGHM/Wh/RdMlCqCmUw84TmqiaznK+YKOtZnPh9QtK9S4ivMLS3mTnjFkyoofmBElyDVPD14rSGGLVxT/1ngvmHTgQExhSi7pnYlzYYBy8vD8UUiClm0LhjEynMvDQPre53ZVLpReZItrBMsLZkRyETzmS6MU6ZzLdsITdDtDqzZ9ZFjsyU4Cdz6M12wUsscoyDB9JZAu3Mwa8c+45NL9CGvS295gaKUK8F6nbcq69I9r6jOG6NRB/KJYn8UXole75kHqfGB5skWdodMZlN5J/ZuG/DnvM8eDSR4RGVeUcv2M7o+xDvOeE9kptZr9kBXB6goWp8aEbiFx/ejLJQPuWnSDBhp+xHiXrcd+tRY2dZdZIbVj0w4g7MYBo6MYIxYA7a3pR6WLY5YHmL+M5YQhQTKIYW4rOkVRU5spEdo0QvoRWtFiqnqdQa8UNn4O2xx6GccNH+jnU3EnXbzh62jEA1CEPEZepuYziwH2QIESdIkrTOENUmMfg1rQIafaVoBKjA+5rUDRV6G1UP0Q/RCKlTgjELZOfBQlQtXVY2bZ1jMwgJU6StK/xVhl0dWoCKIie0AvGKnMpPI57yiJZ8QbHrD8cjJK0qPEXvXoBKRETL0e4EqWDFiu0gw+NB4UUyiPazHxhComsHpT9wvs++UYDiKVjKP5BHBDGxw8p5kW8/uFOQjkPpC5hKqCMs+JK+hAxdvqcGB7l/EKErBX9QoyXzP+1P+1LeBKTN6oCtA6s9suBo6MbieUgoNFxoWCtaBxkt5oIGVSMwlaVcdjs9EdHhMeA4j0Yqx8WqcKOlnS5yYbMi8Zx1Yyr0M4Wl7CBDR0Nrtc4GjqbCcda04vqdRCfn6H9B04sx+TDYz8yQ2oIfmNy5l0hqwxEduXwQYlaGn60/IhsVEJLgp9ROGL4JCVRgeD+j9twgPlh7S/WoZWq4jUalcAKqpcOfiSGyjyLOJtJrhwhs40OBpzgjKlReaHENK0s+3oNai5nYQ41SAhOOVWeFLORH/ESjgQBByqy61OmO3PAxfvM5tWgihYh4t9wrD9YA4ogXU+yG/T5JXC3smIV9ExcW0RHkR2QBSDzwynk4cQ+sGvkrxDODMjbnAQCn0lnCQzpeZSYvtgR/gGPsiZycTqr31TLsxVzF0YOazDGlwZcVB7zw2JPxsx9OnXQ05+9eEdn8+6VeqHCEutyEdDYmx04z+Ta60bFnBh6hqxQ18s6Q1YOZ1k41XRU48jUa/jmHpNjOMFObDxK+TI+tHe1zqQ8S0JKJ6ElRBKeIto3eq4APfRekNamQehqOo/C5xl6MuZzljUNQizsy4Q1YLL2f86Bl68+jOm39GG38kHG3P3tzidxqqURCAD1gkI7R7EYiJRgnSRfEFOkMQIoUIvocSx8+mSvCMCo56ykZYk9onJLnS6xXLlBUiFIFwmpohHI9jPAhxBDuEB3hXnOKAqXpcQevSGlQZZM4jaFXWncWNw/NOCENUcVDYLtdFlP5Jex3U6J/UQly9Rx7dSVExLLnWDZUWT3MHS4aOn8T8Jq6fkY+crx6YCBQYNi4iy/OXDR0w9uwhvSHnExY+whoaKxWUmxZmHkwhKjoL8SlY0ZaJCKdp4Qhoy3+nrA0NcvCYbCZnxBtz8UDjVjFig2XE+nYMZx+4mBozrLJoKWzh6T8yGxcPpise0K0SBHQHJPiP4mPETxp4kefBwCfMLyqQdYUOmE8idk/UKOUSjIqoUUVC9sp3uPOnuqcYWF0nsikCZhEQ2dM8CPSSGlsxDeiZYV7kRfJovXTmLGgy4sqksQY/REP6FRNDhjt+2twYxwUvUsebFa+EvMuXo4hq79qonJgYNkrSlQB9i6EvY7Pgly4sGWipuezHVfNhrcsSLiPMd0GDox4gpbu9A0FnUWZy5IWnDXrB8ObK5c59z+YaXHSnPZqVEpv+sw1uMLX6A/mGhoTNOxThtq/EYQ1YvuIaVozPxG06z9KBsZkeqGr1idsME4mCR2PWhelxyvUqH2y0IHTyEyP2HSpUDQ/cs461GYp4gr0QSoCJG0AqgYyR7KeInglMGTWKhyiXzysT3YA6plCuVKhh9Mx49rKuHceu2VSEEV4GAdpxOxhpUrcxn5oKNLzPAfUq/Z6gdcvRp8Rcof1Eb2su4QQLv8AiYI91KX8KJnF1eScAsR7iEJfoaB3NFCjMvEK/wBIE88e+0KnqhDvpLjnpaHX9y14/TGUtlLghKcR9TAutAJK3VjiNTk0Q4cHuW/ywRz90ScrmYclLxBnB/MsjZIyySOeWsEZcRDiPYgTeBMDlI69sCD/AM8b/wC9DqxFNrFG+3ESjirNwFUiTO3KniMcVW91zBGIcdHziFnCu1Tu/VH/AHJ4VM8ZuEiyZIC5T5hYVwSnpfmJ9b0k5QJwGrvUf8PMnMCsKDkmaoHTCW8GX8CUE9sEdLlmn44HaLX0IGxl/EKGrGcTynDaFo8n1tM6GnWnhPCdB2fyzMfUOLxKg2aMwbxDz850HMNKUii/FsrZSj3Br0jONBhDacnzjxt5SDjRJUQgKZwIEolRMQH2NIQV6kP6LGfghG/mASiVEnTT1KQCMqEvBglaUlRqoz5ENKlQQHwQJUqVKlTz7ipQ4joEqXdufzPHw0NWD9IaVKjMpq1KIGc7R/FUJUolSpl2yAQlSokvH4IKlEqVKQqrxgJRKdpRiKl5UwJeZJ4U8aPbxgMqcQl7sP0yqOg6vZBNWX4h1QjArKhiMOFeNMqeoMhUxahUgDt5gFzJGq5l1/3g/H2S1NnQMacJ5pSWMYFb3aursPELS5cZmHlOOjPlzplyr3EONVSsz9KCIaDoOEDLuSO9Rp+R2mc/ucGtxNP5kWJcI6MTYk4fhYKNvEeE46fladNjq6M5PUdnYxn0hhr10dTweta04vqc+jrpwauETV0g25h5nB6i6DLh+NGKg7ZYZevttYKfNw0uKJylSheMOTukNDW4uxsMY78eoJ10/I3M/CIEI6j7IDSpWg5fA/JRKlRNAPiqeNH/ABkW5SMY6JCUWVQZflzlvf7lHX7RT/1mHH2R8js5TCBQDizyT/UQ5A+EacMXIiziD2ojzIje/nfcdtwUBMqd+z4g/H2GHvKRgBZCGg4QgVL0Xp+1M30NCCxLXnJWLbxfECtjMRtHTH5MIcQ1JGxhz+c6Nv7IcaF8be7GfmnL7hHXhHhtMFonA9bOkeGGmbBoKI9tz9jDYS/2IcG3hvDJYrvDV04s4/bL1IsbT7qE6QyhAf8Ai8Lt4SkdiQ0JcuH4QhDVi/JCXpceGJ4Q0HnZhl0EdFma+O76Emla/vEqVscYla1GtKJUY8wlHlAlSkQlEIB3WBUD2iuRKQAGUqrlyhz5BOjUgHH3wPhw/wCGU8pOLlWgJYSvq+4lzEo4/icbae5cseMzH8rP5inBgvAle5CLjvYh0Nj1gxt6pWlQNhJlMadIaD4tw+PmcdMA7D+mzOQqvna8aI1vTkmB6S9gIrO7WCGhr6NFy4afqYbe72QdtrOcEW88ql63H9DMS2GhXCJWIiRnHvpE5op+44IVh2X9aENcu3oIaMNr5g2giLo2Ed+hCGwN/fc/U2MqL6sNvN8ENuXgkbOsy8Sg0df2MGjPi9heZKNCnUzhBhxCpUMgPjlGiGHYnmoQGbAWl/TFoB4v7hX/ANJ2mQFL2cpjzfCHKPwqPQb2Q6xeiHZwdtGRGP3DqBEXmS+PxBoSi+SABVB+Cw7KD9EA9Y13g+6B0WaKxF/ERUsqXLl6FFaZv3CMrU0qOrOLF+5etxYuM4Rdi4eY70ONcU1HT99Lzo2EUB64Lg40+IOOJQFWKY8LBvZcRX1gaLLICIF3RPnsQMBotwCQLEGXLJcqFuOzPKYHuaMRavoRU6wsPpZkZy4g6LRcthHxsaRU3dgbJxBlxaI7TzBsuc7vBxCddc193uefJbuZJtz8aQ0daNPmhKlR0ThrMzp+RnDUarUMx60kio9UBLjxq69E/HOuwB3T/GLSmOG0yl4UqAaUYguE4iGV7SvaeBAt6hSwlTtGHZEz8QbqxPhb9w1R7wKf3oocS69EScwd/AyEUSp/JGWhol7SXCwhwiAdDDXqP6nFnDXWX2JcwWtMp9BGiWgLO4xfqhE95A+pBO2LXLF+CmDgnHILr+2Mu1FQndijxwtg23ZCc15jhBYCW7ot/wC8NNx7pKbjm2D4Q8PKutBm6fETjJa31EIy6/aUyrzdvcAdUs5OJiuyIELROjOrLKHX76Q7WuC4q1SyHSX2wz0AUzaEKVhGt4UhClc1VcQOin6I+MCIvVfuYSsCIv8AzTrH2w4CYcsWVLWYyqI4CdQcUec7TlsPpBVZDmZxEOsez5iHVVKmdysRb9SjAXk83EkFPplHMFXyqP0HyIhrlsocYccvG+5a4LLxE/Tw4NL1wPJIbf1N342ly9V8UDal3/3mGxiavOcSEdA7rCvMQjCEgSoMa/mn4NlwXkILzjDS5cuOW7QNV0WHvHGGrEieIlaDYsQq+WytAyaWVKlThnGARW3jZj+hzvDBYhPpKJRGOGDUqVBiGGzgeNIykqVGpyO7rUIkxi4y4SpUGD3EqBKlGjBsoZ0K7JEWstZga1Pcn4tmIJZC9V/YDl6Qca1EdcegXto8Rm9g+oEDS9OcTUjOVAEpGEQEMnpUpKaCCM4jypj4ivTHsY9EqK5fVc68jBLKk8B+IVZUzvmvDC5Fj20rxSg1M6hQfs+JR1fqXQQT3JT0J0S6eHBZf9KKygUp7y1wmgyyWRg8DLlxSXFfhMKjL0eIxDracNhK4OHs9GXZCLOoQKSGwvvNNcuXKwcOCGnZTVyiXyw0YsHMG/USyXHQnE8stUHRl4nD7kwJB0Zc4sf8xaDozP27nS8TEhH4jbe/8cFazoxfEhsuOOJ6hs/BMvY7nBg2LMj6Us4Gt6Lj47kiHIQnB0i/naQI0ZAyStHfubk/JP1sDbsqPn0SxByVCxi8+pWzun27qq+UDYxKrzhoaMatu+GxjFTvhs4MsvLpKgNCYlLK6oCKdCPYj2NJUhfkueDHtTxwx4ggjRjHpWSkv+3O3LwkbS7yM7TjfgaBfwiA8w4MpdCrN/TK+Yf7SVl0P4QHbtJhUy/iAvEBePulOjDjs5jTSXhCv7sQPEJcpKPeR469JkwRe5H0IDCgjHhywdiZI7+GHGhK0xgcEYDYT9EIsGDmYehjIuDBvVnMg2M/jgSoaA7B/SqJPxwY7WOfVsYzp+YMENmHonS8bLnGYp3YbGch5w0vRgv0YbXXxy9PRHQnSKCV5PaEyWuNPwR/Q25KQAysysuAee0TeQuYS9k4vbrejggrywNizk95XDjRjP2YcaXLjM2yNn5oa9ztYp2GfdV3XHev8u0mTx2jHcJKJUqUQL+NoUQJXtHrRmRJWsI/4iYeM8KV8Refm4TVa0cLDRHHU4mr6MdSYPCBSlQLEviHB6IhBDV7RENlDBAQ6sQKL6QoWcT/ACaeQlwYxZvSLEHVmRM4aBqS0xIadYTP1zipbYZ+qBsqfiIcQn5NpuZ+KDDVjoH6mGl64H3OHxqRn4mYgbRZE5GBKhpenCce9OENWYbKrQfj/MVh6gRYEiRqknl6nwxo2BCjhx0hKYRUB3WNqHYIpwFHgio8fXg2qlMPa7WZNI1YxaYaMwhtu8ukIyoPonF7tvL7LRGhp+juRYZnugV5dY0Zm3nDarXtSGxjheGp1pS9lgxFpJZ92ZZmF9mSUnxnEWLsOA4iHkewXCU8fcpbY2kKlAj2U7YyqVGtqdesXbzKdPvlRX7R7mJzt8orNfhIi5qHWh3ST2YSm1DiCAk4zZBukHOwNxB6DapKJjHtZ4EC9SWd4Y3iKgXCDL1Wp5hFy5cWiWPx6HMCgeNptYzkix2LOE5LsSyWS5c6Sr2RYI6DDmOkeIgCKRl6gexFI06yneeYiO8se1aKEXLilcygu8B7kocwPeV7kewhIX1IwDPSAciPaRPKQ5GkvytDphDjicV47lpQ5W8yxZ13UxA+qiDwVIaiw7CeNPGlXWALfSF8jPNKwZcyvUNHtBKlwYTAWK2esDVj+mIp7bfxzH3sGXoz9+ZJ3itWfuwV6drPnS3yfy2pP0d1z4l9bgqM2LOv46L2fsaCNQD7Yl4hb2itsmkhRc/M40QIYIRWtcStARlj+cxAdpWAlJY/aRrieIlvQniaMY/GHE5cj2GAltFOVlDAv3Ga2iXAi5J23O1ILrYFD1rQDYyukS+yyrpB1yGrgy3QOYdlA+dIy/6DGfghDUejB7w0f9KjhzBdbDzYF+UD6iM4GSkVMeuWOXL9z/Yx/wCyBT+5AC39pa0SgKzHh+0EOWCN23HzYPgUlXr9pQ6/bUBcCTnOsNVMp6MqnWBKC5WfDwWL1TtE8TFykxHoRSfAnUzxyjpASnaIFOkcT0RbkPshMMKFHEGeqFnOke3O3AHBChD+KC2+ZWWNtysK9/tGKV5RF7esX0hmwE8ho1vc63uMOlSY9P1GjD9Zj4iwGDrhVrAiAXLjXmSeS9kc4uFMw5ph2MOkICLOP5QVoLly5jVzeBA8wbH9LufB9MPPuobGHC77s7HtBsSH5YIa3P1dBqw4OmqVK1oUDxtM/mQhja+BsqfgzibElSRoeoEogSicdZCUlIggKnFwIAlaBobCOjB9GnVhDFQQ5YDRUqJBoITX8kXBtEOKA1rQ0uNbKjwd5Ia9IMXc6axqx004fRL1qKvTM11VGcKfilaOmPqgD5oSoGn4mEY0VpUqB8EQqxKxNwEp2hkBfBFOieOe37gXChE4EAWMUnkGBvBifJlyoJabLmBerggBkgSlx7UwWbemYrlepVlyAYdtBOEh2Ep3INOejBq5CwSXLlxSPm6tDS5cuZsu9l6Do3PwIbGZScJ01eYA+qHTYz8sODA2MCD5TCGx25LrU0w9OYpUTRl712TiQ0NFXrl8eoTOvCfqhK0DO3MuGrPxbE6v4IaVGMVB5Z06Ogx/RoeurHU6rYZgaIQ51d6P6e1iKxOtdCXL0uYr4grXXGKl8aVcvRan3qfkgw1VetgoaXLlz9zTCJCXKE85TF2bVXsz8uVKRq0EE8So/CUlO0OsQ6YQSUYUM9ZQw7BFlCLHsSuDFHAYap2kTNzJT1MOi4nVIA9RgPIYZc2SjqekTGD7Zh5NXitwZBLkoeaF1QIQal4QqdyQfp+55jRYhUHaXogGX6DBdB+klx6arLn44KIbHh9QZ+4Q2P5YcStnOBYNuAO8YjU0/NDQQ2PE5vcCVOuw3u+IYn8cIaddBv01HQIwUdyNVmeIr+JDRjo/FoMWXpn80Vm3l6IITpLg8ecMHET0qBr0wwK0vR1AfqbGOk7E/C1Ikwfy041Jh7E/LBjB0ae1MfXBiw0YyFAegjLqXBnw1PyNjF9UQ+ohpWlHuw/Rga1B9iD6tjOkYL5SsaGgsBZ2ZA6XgjKsH1QNyRfMB8D9xllnC+5U7N9UKecLcB+JXfWDAW5DEGPNxaUp62mW5TwccXiUzMjQsq0iHcJjomq8zP5MCXMaXD8EWposN9WcWxhxLgaOv44ai2cGdTDSsw0rbUrRnLunCcnqErRiQ0HucdK2Dh7GKMKvMEYaJLOwE7Q2cjy7jz5mDp0ioORJFNUInqOdMDBVUn8sM+lsd+ifm7f1p+HoadJ+lKjghr+Fgv1SokEqYeufXJUSVnSxeIUXhowjhlEe6R/UakYl/qcrwQ42YezP9N2hsVf72JYui4suEVJ4YAE7rCOyl24Lb3g42M/AQLqBokAenVsyszSwklIjtPCj2UFciiKCK+j9yrIj5ljgNMUXLiFimoI6DPDlHVO9KncShNiXTSeHBeElI0naUuSBiO8BKR/bHQSyXpcEaWaFy4VHTfEdjDTvDR/oM/PDRy5cvUPDxCY0dMAdrEHWUnkJfdKjAfVDPVHukQOSCdSUhDLKmuW0pHsYj0S84fcanJHOPQgeqQt4THw0z2EY5goCFiu87InhR78e0jH6GP6YdrMYpCORVJV3Mn7EN3uDbCeIH4BBdELeEO2j2czGEhU0oEpLjwZ4s8GBAMnSPUWaILwZ4s8pECVCBswEBBiyyUe5PxpegSsT8U4j2aVK08sBL/GaVoy1DvDETrqwCh7IaA8amufjQ1qfr6VUqVKn7kWHxDiM66K59Tk99bg6LpzS5eh+RqNHmoFCYI4jp2qvVJxNHiJEhyYHS1lY00hEeyQToRXpFOSw4wRxnwiHhUsJQRSrX4YtqWVobhwmaIHy6ndoDluGZEE8VMHSeMmCba1xOFLlDIS/fMw2GjsZxYkCZhA8cF16Qe1FTkWAa19QKxUq7k8+PWaKVzBRbApW7rMZrIBM8KVgGgElXVMCmuOukpYINPhJ2hPEQq4gQlXAiVJKvITxaIHaLdJiHmKnBDtE8EF5CEYH3GqLKDoxoFniIE8IHsSjoihqGgTpKzxE8TSOddJaqcEp203jxDPSU+gIGqLnsPTKswUeAPMciagtDBtEpiCkPHB1giTEGF8QlzN4donfv6lmSAUCdJWMIGjFgW+paRgwjDZeScD1qS4uLtDXpQ2Kl8oaLwhKlSp+hM/XDStOHoz+dtrMdpJxowhD4aNBoxIKDyhnTZ+LODSpUZ+GEB40qVosz9TRezg7EnENs4a1El3zgVAgaKQPigQNSuh10IaG1jOLMd4gIGU0DAvASkolSoKfaAVKlEojK/FoglSpUEJn3AgEolRIGfrQCUGjFx7n5+gJUqVHidyQ5gSjRg/ZuqpfgIENKlCIw9QSiVKJUTxCfElEolJSEv7gnoImUhBgNlHCWR6NnzPAStkC9UCHoGUjAyuC3mQ806X5QG4zIzmB349F04vEsKxxiVAiwg/AnhTzS4z5Eq+lt5EGQK1xPwMH6hxKlStKn3w4nSMJetGjpxfODGjokH1dJDRJxPKD6YaVKmEVvIy4MuLFyeBCEI6O58Gx4jwaBgy4so9bCA8Qi9R1Nly9BhdIbGcnqGrGcvaKzYk/BPxbHRkazoMTk9ar0YmbsQ/oCNcgeMNvDXeYD1L2Ye4n4CG3D6oG0Cj8NDV/cTj6GroR5AaKlRCIQlnuZQVKQMr2JSoZACVnh0gDpCEgXSdcNMR+KVO8+AQ1QY4lRQ4AiL5LI9GMen6jAXqgcLsQytYXZP3Eeth1GRstilKMHllHK/Uv6Z40GwGJj8nCkE7y5Zozl+oQ40dKykqJKlTH0pxhsVeufihsFkKeyhqaPw01EdOCOJt5Tw0F0Zl6oKDR6mt6ulRjymYhsYc4JWrOXtOMdWcX1Pw7eGmNjwz88NjHwl2BsYF8GgasWfToNbnD66CXLjOX2TgepbDWpvM/MQ1uJr7o/Zx9CXLhGIQdzFpedeI8XYdOP3Githp3juj8Ica3OZmvU/AaBqbLyg+sgShESvaC9DobboR7CKFIj2EXKhIp1S7o/cVQClR6KJS8pjzhDmMwdgifAZR0/c7gQ7lOiOJIHP1BuIe/PAl/AnLd4GM6WaMH1xVATTppUBfu1rUy3raZ/DOBtc+EqCVKmMhggYgnWEz/AEXnRWdJ2Bk8QdWJD9s4StWcrxPw7TicNtwZ/GhxsZ0+2+OENgxB0SmxjsfHc4HjskZzHeAr0QjK04fWcCVKgRmPpaaiasAeskJedTZ9rwYMvV0Pemg2PAPMBosT0imQ/wClzgeiXCMuKk8TH1oOhdP2oK9cuMvTiKl8sCBKzElSr45IDURELsxJHgj24s3ynUkqgYWmGAGotdFKwLsBPz+4zcKgegkCev5nUqD2Z37nnhKl6w6JnjSnrPLPMQDNi4MLuSWag69AaWR03GGlSpyawjzDQ3EYzl2rto/FovVRfbDjRnSLOSfg0JcWPDMTWNOEX1G0tEvD3naM6EYuI/vnCGx/S0GrEz4NLl50f0osQ4hq/qRYhOmvBtvUn8XYdfIbP2dBsylIaOn5ep406xPuhxPUIcR50/JPwoR0J+lrjHT8Ts5jzplpzTpGP5NBq7sDMJeASATpEREWzUSWnWVdIPdke3PFKd1CfdAsu7w732gTqwZMsPK24LXLxBWHEnOZ4H5Yu68cTBMRLtF9oOWrE/ePX//Z;" vertex="1" parent="1">
                    <mxGeometry width="520" height="508" as="geometry"/>
                </mxCell>
            </root>
        </mxGraphModel>
    </diagram>
</mxfile>